<?xml version="1.0" encoding="UTF-8" standalone="no"?>
<svg
   xmlns:dc="http://purl.org/dc/elements/1.1/"
   xmlns:cc="http://creativecommons.org/ns#"
   xmlns:rdf="http://www.w3.org/1999/02/22-rdf-syntax-ns#"
   xmlns:svg="http://www.w3.org/2000/svg"
   xmlns="http://www.w3.org/2000/svg"
   viewBox="0 0 1140 244"
   height="244"
   width="1140"
   xml:space="preserve"
   id="svg2"
   version="1.1"><metadata
     id="metadata8"><rdf:RDF><cc:Work
         rdf:about=""><dc:format>image/svg+xml</dc:format><dc:type
           rdf:resource="http://purl.org/dc/dcmitype/StillImage" /></cc:Work></rdf:RDF></metadata><defs
     id="defs6"><clipPath
       id="clipPath18"
       clipPathUnits="userSpaceOnUse"><path
         id="path16"
         d="M 0,183 H 855 V 0 H 0 Z" /></clipPath></defs><g
     transform="matrix(1.3333333,0,0,-1.3333333,0,244)"
     id="g10"><g
       id="g12"><g
         clip-path="url(#clipPath18)"
         id="g14"><g
           transform="translate(282.4526,34.1416)"
           id="g20"><path
             id="path22"
             style="fill:#000000;fill-opacity:1;fill-rule:nonzero;stroke:none"
             d="M 0,0 -37.013,45.577 -6.292,80.489 H 9.53 L -22.151,45.577 16.799,0 Z m -50.106,0 v 99.238 c 0,10.51 -2.102,16.49 -2.102,16.49 l 12.616,2.434 c 0,0 2.09,-6.802 2.09,-19.069 V 0 Z" /></g><g
           transform="translate(326.1846,32.5225)"
           id="g24"><path
             id="path26"
             style="fill:#000000;fill-opacity:1;fill-rule:nonzero;stroke:none"
             d="m 0,0 c -3.87,0 -7.118,1.127 -9.525,3.402 -2.607,2.244 -3.889,5.656 -3.889,11.468 v 85.345 c 0,10.509 -1.947,16.484 -1.947,16.484 l 12.611,2.427 c 0,0 2.104,-6.783 2.104,-19.079 V 17.775 c 0,-6.301 0.974,-8.074 4.521,-8.074 0.484,0 1.624,0.32 1.624,0.32 L 8.086,1.776 C 4.857,0.323 3.414,0 0,0" /></g><g
           transform="translate(397.4946,96.373)"
           id="g28"><path
             id="path30"
             style="fill:#000000;fill-opacity:1;fill-rule:nonzero;stroke:none"
             d="m 0,0 c -3.405,7.108 -10.513,10.334 -17.132,10.334 -7.122,0 -13.741,-3.383 -16.491,-8.727 -2.587,-5.014 -3.889,-11.469 -3.889,-21.004 0,-11.315 1.948,-21.339 5.01,-26.346 2.911,-4.848 9.382,-8.086 16.334,-8.086 8.4,0 14.72,4.366 17.45,12.132 1.785,4.988 2.417,9.523 2.417,17.44 C 3.699,-12.937 2.579,-5.339 0,0 m -16.486,-64.344 c -22.141,0 -34.753,16.327 -34.753,42.846 0,26.189 13.082,42.172 34.254,42.172 13.419,0 22.142,-6.128 27.65,-14.057 5.014,-7.265 7.44,-16.805 7.44,-29.9 0,-26.835 -14.406,-41.061 -34.591,-41.061" /></g><g
           transform="translate(493.3584,30.7466)"
           id="g32"><path
             id="path34"
             style="fill:#000000;fill-opacity:1;fill-rule:nonzero;stroke:none"
             d="M 0,0 C -5.337,4.357 -7.611,7.595 -8.737,12.935 -14.876,4.688 -23.295,0.646 -34.288,0.646 c -10.17,0 -17.772,4.364 -21.167,11.481 -1.454,3.065 -2.09,7.266 -2.09,11.959 v 59.162 l 12.437,2.404 V 27.799 c 0,-7.6 1.125,-10.994 4.847,-13.571 2.593,-1.794 6.301,-2.751 9.863,-2.751 7.924,0 16.168,5.816 20.526,14.541 V 83.081 L 2.583,85.188 V 26.5 c 0,-10.187 1.448,-14.214 5.489,-17.941 z" /></g><g
           transform="translate(570.4717,97.3345)"
           id="g36"><path
             id="path38"
             style="fill:#000000;fill-opacity:1;fill-rule:nonzero;stroke:none"
             d="m 0,0 c -4.032,5.655 -10.015,8.404 -19.554,8.404 -6.301,0 -11.624,-2.905 -15.038,-8.404 -3.87,-6.142 -5.171,-11.961 -5.171,-23.269 0,-9.378 0.641,-16.332 3.229,-21.018 3.727,-6.624 8.742,-9.366 16.168,-9.366 6.633,0 10.351,1.448 15.522,5.163 3.4,2.417 4.844,5.831 4.844,5.831 z m 2.274,-63.193 c 0,0 -1.615,4.026 -1.785,8.227 -5.812,-6.612 -11.967,-9.367 -21.33,-9.367 -20.869,0 -32.811,15.039 -32.811,40.737 0,17.138 5.651,29.743 16.643,37.338 5.18,3.554 9.701,5.007 15.503,5.007 9.074,0 16.976,-3.721 21.819,-10.171 0,0 -0.157,6.617 -0.157,12.431 v 33.792 l 12.636,-2.097 v -89.883 c 0,-13.901 0.631,-21.335 2.416,-26.014 z" /></g><g
           transform="translate(621.9814,32.5225)"
           id="g40"><path
             id="path42"
             style="fill:#000000;fill-opacity:1;fill-rule:nonzero;stroke:none"
             d="m 0,0 c -3.87,0 -7.109,1.127 -9.54,3.402 -2.578,2.244 -3.875,5.656 -3.875,11.468 v 85.345 c 0,10.509 -1.942,16.484 -1.942,16.484 l 12.621,2.427 c 0,0 2.104,-6.783 2.104,-19.079 V 17.775 c 0,-6.301 0.949,-8.074 4.511,-8.074 0.479,0 1.614,0.32 1.614,0.32 L 8.086,1.776 C 4.848,0.323 3.395,0 0,0" /></g><g
           transform="translate(690.124,99.7705)"
           id="g44"><path
             id="path46"
             style="fill:#000000;fill-opacity:1;fill-rule:nonzero;stroke:none"
             d="m 0,0 c -2.754,4.356 -8.409,7.105 -14.554,7.105 -11.476,0 -17.943,-8.404 -18.59,-25.049 H 3.723 C 3.547,-9.226 2.426,-3.887 0,0 m -33.144,-27.483 v -1.945 c 0,-7.597 0.979,-13.411 3.723,-17.611 4.521,-6.949 11.952,-9.858 20.038,-9.858 7.75,0 14.07,2.417 19.72,7.595 l 4.849,-8.1 C 8.067,-63.846 -1.633,-67.4 -11.961,-67.4 c -22.303,0 -35.722,16.149 -35.722,42.82 0,13.585 2.897,22.303 9.702,30.389 6.461,7.598 14.377,11.152 24.073,11.152 8.719,0 16.334,-3.074 21.828,-8.73 6.937,-7.113 9.202,-14.693 9.202,-33.936 v -1.778 z" /></g><g
           transform="translate(751.2822,31.708)"
           id="g48"><path
             id="path50"
             style="fill:#000000;fill-opacity:1;fill-rule:nonzero;stroke:none"
             d="m 0,0 c -10.175,0 -21.325,3.079 -29.572,8.094 l 4.862,9.375 c 8.242,-5.024 16.633,-7.597 25.531,-7.597 9.853,0 16.311,5.33 16.311,13.884 0,7.281 -4.045,11.325 -13.252,13.269 l -10.015,2.099 c -13.252,2.749 -20.37,10.995 -20.37,22.134 0,14.558 11.805,24.737 28.618,24.737 8.4,0 17.769,-2.581 24.568,-6.468 l -4.687,-9.38 c -7.107,3.4 -13.092,5.826 -20.199,5.826 -9.226,0 -15.195,-5.332 -15.195,-13.236 0,-6.161 3.063,-9.872 11.625,-11.654 L 8.902,48.822 C 23.437,45.743 30.39,38.319 30.39,26.346 30.39,10.66 18.11,0 0,0" /></g><g
           transform="translate(824.6289,31.708)"
           id="g52"><path
             id="path54"
             style="fill:#000000;fill-opacity:1;fill-rule:nonzero;stroke:none"
             d="m 0,0 c -10.204,0 -21.338,3.079 -29.586,8.094 l 4.848,9.375 c 8.248,-5.024 16.642,-7.597 25.526,-7.597 9.858,0 16.335,5.33 16.335,13.884 0,7.281 -4.045,11.325 -13.268,13.269 l -10.013,2.099 c -13.267,2.749 -20.365,10.995 -20.365,22.134 0,14.558 11.799,24.737 28.608,24.737 8.419,0 17.782,-2.581 24.572,-6.468 l -4.685,-9.38 c -7.11,3.4 -13.101,5.826 -20.204,5.826 -9.227,0 -15.196,-5.332 -15.196,-13.236 0,-6.161 3.064,-9.872 11.629,-11.654 L 8.871,48.822 C 23.434,45.743 30.371,38.319 30.371,26.346 30.371,10.66 18.102,0 0,0" /></g><g
           transform="translate(54.7329,128.2744)"
           id="g56"><path
             id="path58"
             style="fill:#3c98ff;fill-opacity:1;fill-rule:nonzero;stroke:none"
             d="m 0,0 -28.818,28.801 c -0.598,-0.598 -0.802,-1.595 -0.489,-2.822 l 7.422,-28.795 c 0.645,-2.476 -0.788,-5.268 -3.158,-6.198 l -27.664,-10.914 c -1.196,-0.47 -1.861,-1.228 -2.003,-2.071 l 40.253,-6.377 C -12.735,-17.381 -7.536,-7.531 0,0" /></g><g
           transform="translate(39.6377,91.8359)"
           id="g60"><path
             id="path62"
             style="fill:#1b5ced;fill-opacity:1;fill-rule:nonzero;stroke:none"
             d="m 0,0 c 0,2.742 0.214,5.432 0.639,8.063 l -40.254,6.376 c -0.128,-0.844 0.284,-1.78 1.277,-2.582 l 22.93,-18.93 c 1.964,-1.631 2.454,-4.724 1.087,-6.877 l -15.966,-25.091 c -0.681,-1.082 -0.776,-2.091 -0.406,-2.846 l 36.32,18.49 C 2.037,-16.37 0,-8.423 0,0" /></g><g
           transform="translate(83.1089,142.7354)"
           id="g64"><path
             id="path66"
             style="fill:#009b4a;fill-opacity:1;fill-rule:nonzero;stroke:none"
             d="M 0,0 -6.377,40.237 C -7.22,40.103 -7.978,39.428 -8.447,38.243 L -19.371,10.582 C -20.304,8.203 -23.084,6.781 -25.57,7.419 l -28.784,7.427 c -1.244,0.332 -2.229,0.109 -2.84,-0.506 l 28.818,-28.801 C -20.859,-6.942 -11.009,-1.731 0,0" /></g><g
           transform="translate(142.6904,91.8359)"
           id="g68"><path
             id="path70"
             style="fill:#1b5ced;fill-opacity:1;fill-rule:nonzero;stroke:none"
             d="m 0,0 c 0,-2.745 -0.213,-5.429 -0.631,-8.069 l 40.251,-6.368 c 0.135,0.845 -0.277,1.778 -1.27,2.592 L 15.42,7.075 c -1.968,1.626 -2.466,4.724 -1.087,6.878 l 15.971,25.09 c 0.688,1.078 0.783,2.092 0.394,2.856 L -5.612,23.393 C -2.037,16.373 0,8.424 0,0" /></g><g
           transform="translate(137.0781,115.229)"
           id="g72"><path
             id="path74"
             style="fill:#ea3200;fill-opacity:1;fill-rule:nonzero;stroke:none"
             d="m 0,0 36.311,18.506 c -0.394,0.767 -1.268,1.261 -2.543,1.339 L 4.079,21.686 c -2.545,0.153 -4.765,2.364 -4.92,4.926 l -1.813,29.672 c -0.079,1.275 -0.598,2.149 -1.354,2.543 L -22.507,22.516 C -12.83,17.573 -4.941,9.672 0,0" /></g><g
           transform="translate(91.1714,143.3745)"
           id="g76"><path
             id="path78"
             style="fill:#eaad00;fill-opacity:1;fill-rule:nonzero;stroke:none"
             d="m 0,0 c 8.429,0 16.372,-2.042 23.4,-5.629 l 18.499,36.31 c -0.765,0.377 -1.776,0.282 -2.868,-0.394 L 13.946,14.316 C 11.8,12.944 8.694,13.435 7.07,15.403 l -18.931,22.939 c -0.798,0.997 -1.734,1.396 -2.578,1.256 L -8.063,-0.639 C -5.432,-0.23 -2.749,0 0,0" /></g><g
           transform="translate(99.2266,40.9434)"
           id="g80"><path
             id="path82"
             style="fill:#009b4a;fill-opacity:1;fill-rule:nonzero;stroke:none"
             d="m 0,0 6.38,-40.258 c 0.835,0.135 1.604,0.821 2.072,1.999 l 10.895,27.673 c 0.95,2.376 3.745,3.801 6.214,3.16 l 28.798,-7.441 c 1.228,-0.306 2.232,-0.092 2.832,0.508 L 28.384,14.452 C 20.85,6.935 11,1.719 0,0" /></g><g
           transform="translate(142.0591,83.7666)"
           id="g84"><path
             id="path86"
             style="fill:#3c98ff;fill-opacity:1;fill-rule:nonzero;stroke:none"
             d="m 0,0 c -1.714,-10.995 -6.93,-20.836 -14.449,-28.372 l 28.808,-28.81 c 0.615,0.613 0.831,1.61 0.499,2.837 l -7.427,28.794 c -0.646,2.474 0.783,5.268 3.16,6.204 l 27.652,10.918 c 1.192,0.466 1.866,1.219 2.008,2.061 z" /></g><g
           transform="translate(91.1714,40.3052)"
           id="g88"><path
             id="path90"
             style="fill:#eaad00;fill-opacity:1;fill-rule:nonzero;stroke:none"
             d="m 0,0 c -8.428,0 -16.372,2.044 -23.4,5.624 l -18.504,-36.301 c 0.769,-0.399 1.785,-0.292 2.868,0.399 l 25.074,15.957 c 2.163,1.367 5.247,0.873 6.887,-1.088 l 18.92,-22.939 c 0.814,-0.997 1.747,-1.396 2.59,-1.272 L 8.055,0.638 C 5.432,0.216 2.745,0 0,0" /></g><g
           transform="translate(45.2646,68.4385)"
           id="g92"><path
             id="path94"
             style="fill:#ea3200;fill-opacity:1;fill-rule:nonzero;stroke:none"
             d="m 0,0 -36.32,-18.489 c 0.401,-0.768 1.275,-1.287 2.55,-1.365 l 29.677,-1.814 c 2.557,-0.165 4.767,-2.375 4.922,-4.937 l 1.839,-29.667 c 0.077,-1.28 0.585,-2.154 1.335,-2.538 l 18.504,36.301 C 12.825,-17.568 4.94,-9.672 0,0" /></g><g
           transform="translate(80.5518,82.6621)"
           id="g96"><path
             id="path98"
             style="fill:#eaad00;fill-opacity:1;fill-rule:nonzero;stroke:none"
             d="m 0,0 c 2.006,-0.306 4.022,0 5.821,0.931 l 1.442,0.74 c 4.705,2.389 6.579,8.149 4.183,12.842 L 2.21,32.662 c -0.55,1.046 -1.533,1.785 -2.649,1.967 -0.618,0.091 -1.237,0 -1.769,-0.277 -0.757,-0.383 -1.304,-1.09 -1.536,-1.959 -0.214,-0.862 -0.105,-1.799 0.309,-2.614 L 5.463,12.305 C 6.465,10.326 5.689,7.901 3.699,6.883 2.932,6.489 2.087,6.36 1.244,6.489 -0.017,6.7 -1.118,7.503 -1.726,8.654 l -8.899,17.469 c -2.891,5.681 -0.747,12.593 4.749,15.406 2.073,1.05 4.387,1.401 6.705,1.05 3.653,-0.584 6.842,-2.916 8.546,-6.266 L 18.616,18.165 C 23.027,9.514 19.58,-1.106 10.926,-5.51 L 9.482,-6.251 C 6.158,-7.939 2.441,-8.53 -1.241,-7.949 -6.812,-7.07 -11.65,-3.561 -14.19,1.441 l -13.006,25.518 -0.19,0.365 c -1.704,-3.575 -2.951,-7.44 -3.606,-11.553 -3.63,-22.981 12.044,-44.572 35.023,-48.194 22.963,-3.65 44.547,12.031 48.198,35.016 C 55.866,25.561 40.168,47.134 17.201,50.77 1.626,53.241 -13.271,46.828 -22.4,35.29 L -7.025,5.093 C -5.643,2.384 -3.006,0.479 0,0" /></g></g></g></g></svg>