<?xml version="1.0" encoding="UTF-8"?>
<svg width="643px" height="141px" viewBox="0 0 643 141" version="1.1" xmlns="http://www.w3.org/2000/svg" xmlns:xlink="http://www.w3.org/1999/xlink">
    <!-- Generator: Sketch 50.2 (55047) - http://www.bohemiancoding.com/sketch -->
    <title>HackMD_LOGO_black (1)</title>
    <desc>Created with Sketch.</desc>
    <defs></defs>
    <g id="Page-1" stroke="none" stroke-width="1" fill="none" fill-rule="evenodd">
        <g id="HackMD_LOGO_black-(1)" fill="#333333" fill-rule="nonzero">
            <path d="M120.26,50.27 L120.26,132.77 C120.26,136.912136 116.902136,140.27 112.76,140.27 L7.76,140.27 C3.61786438,140.27 0.26,136.912136 0.26,132.77 L0.26,7.77 C0.26,3.62786438 3.61786438,0.27 7.76,0.27 L70.26,0.27 L70.26,42.77 C70.26,46.9121356 73.6178644,50.27 77.76,50.27 L120.26,50.27 Z M90.26,62.77 C90.2681333,62.1044987 90.0073538,61.4638774 89.5367382,60.9932618 C89.0661226,60.5226462 88.4255013,60.2618667 87.76,60.27 L32.76,60.27 C32.0936694,60.2590743 31.4514169,60.5189565 30.9801867,60.9901867 C30.5089565,61.4614169 30.2490743,62.1036694 30.26,62.77 L30.26,67.77 C30.2518667,68.4355013 30.5126462,69.0761226 30.9832618,69.5467382 C31.4538774,70.0173538 32.0944987,70.2781333 32.76,70.27 L87.76,70.27 C88.4246766,70.2753823 89.0636934,70.0137189 89.5337061,69.5437061 C90.0037189,69.0736934 90.2653823,68.4346766 90.26,67.77 L90.26,62.77 Z M90.26,82.77 C90.2681333,82.1044987 90.0073538,81.4638774 89.5367382,80.9932618 C89.0661226,80.5226462 88.4255013,80.2618667 87.76,80.27 L32.76,80.27 C32.0936694,80.2590743 31.4514169,80.5189565 30.9801867,80.9901867 C30.5089565,81.4614169 30.2490743,82.1036694 30.26,82.77 L30.26,87.77 C30.2518667,88.4355013 30.5126462,89.0761226 30.9832618,89.5467382 C31.4538774,90.0173538 32.0944987,90.2781333 32.76,90.27 L87.76,90.27 C88.4246766,90.2753823 89.0636934,90.0137189 89.5337061,89.5437061 C90.0037189,89.0736934 90.2653823,88.4346766 90.26,87.77 L90.26,82.77 Z M90.26,102.77 C90.2681333,102.104499 90.0073538,101.463877 89.5367382,100.993262 C89.0661226,100.522646 88.4255013,100.261867 87.76,100.27 L32.76,100.27 C32.0936694,100.259074 31.4514169,100.518957 30.9801867,100.990187 C30.5089565,101.461417 30.2490743,102.103669 30.26,102.77 L30.26,107.77 C30.2518667,108.435501 30.5126462,109.076123 30.9832618,109.546738 C31.4538774,110.017354 32.0944987,110.278133 32.76,110.27 L87.76,110.27 C88.4246766,110.275382 89.0636934,110.013719 89.5337061,109.543706 C90.0037189,109.073693 90.2653823,108.434677 90.26,107.77 L90.26,102.77 Z M117.13,40.27 L80.26,40.27 L80.26,3.39 C81.2720754,4.01771636 82.214101,4.75189291 83.07,5.58 L114.94,37.45 C115.770455,38.3074964 116.504806,39.253099 117.13,40.27 Z" id="Shape"></path>
            <polygon id="Shape" points="166.9 28.71 183.14 28.71 183.14 65.5 220.14 65.5 220.14 28.71 236.37 28.71 236.37 120.27 220.16 120.27 220.16 79.67 183.16 79.67 183.16 120.27 166.9 120.27"></polygon>
            <path d="M254.59,101.79 C254.59,87.06 266.8,79.39 295.03,76.36 C294.8,68.97 291.83,62.81 282.54,62.81 C275.71,62.81 269.27,65.89 263.22,69.59 L257.28,58.83 C264.84,54.07 274.59,49.83 285.51,49.83 C302.7,49.83 311.15,60.41 311.15,79.56 L311.15,120.28 L297.94,120.28 L296.71,112.66 L296.26,112.66 C290.1,117.92 283.04,121.96 274.92,121.96 C262.88,122 254.59,113.77 254.59,101.79 Z M295.03,101.79 L295.03,86.39 C276.38,88.74 270.16,93.61 270.16,100.55 C270.16,106.63 274.31,109.29 280.07,109.29 C285.67,109.29 289.93,106.54 295,101.84 L295.03,101.79 Z" id="Shape"></path>
            <path d="M326,85.94 C326,63.03 342.19,49.82 360.5,49.82 C367.937058,49.7587838 375.120396,52.5213313 380.6,57.55 L372.75,68 C369.11,64.81 365.64,63 361.33,63 C350.24,63 342.57,72.18 342.57,86 C342.57,99.82 350.13,108.85 360.83,108.85 C366.2,108.85 371.13,106.21 375.05,102.91 L381.6,113.55 C375.391793,119.000605 367.411411,122.004357 359.15,122 C340.39,122 326,108.73 326,85.94 Z" id="Shape"></path>
            <polygon id="Shape" points="395.15 21.37 411 21.37 411 83.14 411.44 83.14 436.92 51.5 454.56 51.5 430.99 79.5 456.99 120.27 439.39 120.27 421.7 90.42 411 102.79 411 120.27 395.2 120.27"></polygon>
            <path d="M469.58,28.71 L487.94,28.71 L504.13,73.45 C506.13,79.27 507.99,85.45 510.01,91.45 L510.57,91.45 C512.57,85.45 514.32,79.29 516.34,73.45 L532.18,28.71 L550.55,28.71 L550.55,120.27 L535.66,120.27 L535.66,78.38 C535.66,69.92 536.94,57.74 537.73,49.26 L537.17,49.26 L529.78,70.54 L514.71,111.67 L505.08,111.67 L490,70.54 L482.72,49.26 L482.16,49.26 C482.94,57.74 484.23,69.92 484.23,78.38 L484.23,120.27 L469.58,120.27 L469.58,28.71 Z" id="Shape"></path>
            <path d="M573.85,28.71 L598.26,28.71 C626.32,28.71 642.89,43.83 642.89,74.12 C642.89,104.41 626.32,120.27 599.1,120.27 L573.85,120.27 L573.85,28.71 Z M597.2,107.11 C615.62,107.11 626.2,96.63 626.2,74.11 C626.2,51.59 615.61,41.86 597.2,41.86 L590.09,41.86 L590.09,107.1 L597.2,107.11 Z" id="Shape"></path>
        </g>
    </g>
</svg>