<?xml version="1.0" encoding="utf-8"?>
<!-- Generator: Adobe Illustrator 18.0.0, SVG Export Plug-In . SVG Version: 6.00 Build 0)  -->
<!DOCTYPE svg PUBLIC "-//W3C//DTD SVG 1.1//EN" "http://www.w3.org/Graphics/SVG/1.1/DTD/svg11.dtd">
<svg version="1.1" id="圖層_1" xmlns="http://www.w3.org/2000/svg" xmlns:xlink="http://www.w3.org/1999/xlink" x="0px" y="0px"
	 viewBox="0.1 225.2 179 56.4" style="enable-background:new 0.1 225.2 179 56.4;" xml:space="preserve">
<style type="text/css">
	.st0{fill:#B5B7B9;}
	.st1{fill:#F0648F;}
</style>
<g transform="translate(.1 224.8)">
	<ellipse class="st0" cx="54.3" cy="18.9" rx="3.9" ry="3.9"/>
	<path class="st0" d="M125.6,48.5c-1,0-2.3,0.7-3.4,0.7c-4,0-5.5-5.8-6.6-8.6c3.7-1.6,7.1-4.1,7.1-8.2c0-2.8-2.3-7.4-8.9-7.4
		c-5.8,0-8.6,3.2-11.5,7.8V3.4c0-1.6-1.4-2.4-2.9-2.4c-1.5,0-3,0.9-3,2.6v45.8h-0.4c-1,0-1.5,0.5-2.5,0.5c-3.1,0-3.7-2.7-3.7-5.8
		c0-3.1,0.4-5.2,0.4-8.8c0-5.5-1.6-10.1-8.3-10.1c-5.8,0-8.6,2.7-11.5,7.3v-4.8c0-1.6-1.4-2.4-2.9-2.4c-1.5,0-3,0.9-3,2.6v21.5
		c-0.2,0-0.4,0-0.7,0c-0.8,0-1.5,0.5-2.5,0.5c-3.1,0-3.9-2.7-3.9-5.8V27.7c0-1.6-1.4-2.4-2.9-2.4c-1.5,0-3.1,0.9-3.1,2.6v17.5
		c0,4.8,3,9.2,8.3,9.2c1.4,0,3.7-0.4,5.1-1.4c0.6,0.7,1.8,1.1,2.7,1.1c1.6,0,2.9-1,2.9-2.2v-5.2c0-8.1,5.2-16.1,9.9-16.1
		c3.3,0,4,3.2,4,6c0,3-0.7,5.2-0.7,8.8c0,4.8,3,9.2,8.3,9.2c1.3,0,3.4-0.4,4.8-1.2c0.6,0.8,1.8,1.2,2.8,1.2c1.6,0,2.9-1,2.9-2.2
		v-7.7c0-5.7,5.7-15,11-15c2.1,0,3.8,1.3,3.8,3.1c0,2.2-2.6,4-4.3,4c-1.8,0-4.1-1.2-5.3-1.2c-0.7,0-1.9,0.2-1.9,1.7
		c0,1.5,0.4,2.9,3.2,3.7c0.7,1.2,3.6,6.7,4.3,7.8c1.7,2.9,4,5.5,7.8,5.5c2.6,0,6.1-0.7,6.1-3.9C127,48.9,126.4,48.5,125.6,48.5
		L125.6,48.5z M172.9,54.7c-4.9,0-7.8-4.3-7.8-9V28.5c0-1.7,1.5-2.6,3-2.6c1.4,0,2.7,0.8,2.7,2.3v16c0,3.1,0.8,5.7,3.7,5.7
		c0.9,0,1.6-0.5,2.3-0.5c1,0,2.2,0.3,2.2,1.7C179,53.8,174.9,54.7,172.9,54.7 M171.8,18.9c0,2.2-1.7,3.9-3.9,3.9
		c-2.1,0-3.9-1.8-3.9-3.9c0-2.2,1.7-3.9,3.9-3.9C170.1,15,171.8,16.7,171.8,18.9"/>
	<path class="st1" d="M144.9,21.3c-7.9,0-14.3,6.5-14.3,14.5c0,2.8,0.8,5.4,2.1,7.6c-1.1,0-2.4,0-3.7-0.1c0,0-3.8-0.3-4.4,3.2
		c0,0-0.3,4.7,5.1,3.5c-2,5.3,2.7,5.6,2.7,5.6c3.6-0.2,3.7-4,3.7-4c0.1-1.3,0.3-2.7,0.4-4c2.3,1.7,5.2,2.7,8.4,2.7
		c7.9,0,14.3-6.5,14.3-14.5C159.2,27.9,152.8,21.3,144.9,21.3L144.9,21.3z M145.1,44.6c-1.4,0-2.7-0.3-3.9-0.9
		c-0.7-0.3-1.4-0.5-2.2-0.5c-1.4,0-2.7,0.5-3.6,1.4c1.1-1,1.7-2.4,1.7-4c0-0.7-0.1-1.3-0.4-1.9c-0.4-0.9-0.5-2-0.5-3.1
		c0-4.9,3.9-8.9,8.8-8.9c4.9,0,8.8,4,8.8,8.9C153.9,40.5,150,44.6,145.1,44.6L145.1,44.6z"/>
	<path class="st1" d="M146.4,33.5c-1.8-3.5-4-1.2-4-1.2c-1.6,1.9,0.4,3.9,0.4,3.9c1.7,2,3.6,3.4,3.6,3.5c0,0,1.9-1.4,3.6-3.5
		c0,0,1.9-2,0.4-3.9C150.3,32.3,148.1,29.9,146.4,33.5L146.4,33.5z M8.4,16C4.3,8.7,0.2,7,0,6c-0.3-2.6,1.1-3.9,2.7-4.1
		c3.7-0.5,6.2,2.7,8.9,6.7c2.9-4.3,6.9-7.4,12.3-8c10.4-1.3,19.9,5.7,21.2,16.1c1.4,10.9-7.1,20.3-17.7,21.6c-2.3,0.3-5.1,0-5.4-2.6
		c-0.2-1.4,0.5-2.7,2.1-2.9c0.3,0,1.2,0.1,3-0.1C33,31.9,40.2,26,39.1,17.7c-0.8-6.9-7.6-12-14.4-11.2c-4.7,0.6-7.7,4.1-10,8.2
		c3.5,8.4,5.8,18,6.6,25c0.8,6.5,0.6,16.8-6.2,17.2c-5.7,0.4-8.6-4.5-9.7-13.2c0,0-1.8-14.2,2.7-27.4L8.4,16L8.4,16z M11.9,22
		c-2.3,12.5-1.4,17.4-0.7,23.4c0.4,2.9,1.1,5.8,3.1,5.6c1.9-0.2,2.4-2.7,1.7-10.6C15.4,34.3,13.2,26.1,11.9,22L11.9,22z"/>
</g>
</svg>
