<?xml version="1.0" encoding="utf-8"?>
<!-- Generator: Adobe Illustrator 18.0.0, SVG Export Plug-In . SVG Version: 6.00 Build 0)  -->
<!DOCTYPE svg PUBLIC "-//W3C//DTD SVG 1.1//EN" "http://www.w3.org/Graphics/SVG/1.1/DTD/svg11.dtd">
<svg version="1.1" id="圖層_1" xmlns="http://www.w3.org/2000/svg" xmlns:xlink="http://www.w3.org/1999/xlink" x="0px" y="0px"
	 viewBox="0 0 156.9 54.8" enable-background="new 0 0 156.9 54.8" xml:space="preserve">
<g>
	<g>
		<g>
			<path d="M61.1,0.2h14.4v2.9h-5.3v14.8h-3.8V3.2h-5.3V0.2z"/>
			<path d="M82.9,3.2h4.7c1.7,0,2.6,0.7,2.6,2.2c0,1.6-1,2.4-2.6,2.4h-4.7V3.2z M82.9,10.9h4c0,0,2.5,5.5,2.8,7h4.7l-3.6-7.3
				C93.4,10,94,7,94,4.7c0-3.6-4-4.6-7.4-4.5h-7.5v17.7h3.8V10.9z"/>
			<path d="M99.1,0.2h12.7v2.9H103v4.2h8.2v2.9H103V15h9.2v2.9h-13V0.2z"/>
			<path d="M127.4,17.9l-6.5-11.8l-0.1,0.1v11.7h-3.6V0.2h4.7l6.5,11.6l0.1,0V0.2h3.6v17.7H127.4z"/>
			<path d="M141.5,3.3h2c4.5-0.1,5.2,3,5.2,5.8c0,2.8-0.7,6-5.2,5.9h-2V3.3z M137.7,17.9h6c5.5,0.1,9-2.7,9-8.9c0-6.2-3.4-8.9-9-8.9
				h-6V17.9z"/>
			<path d="M73,32.5h-1.8v-7.8l-1.9,7.8h-1.9l-1.9-7.8l0,7.8h-1.8v-9.8h3l1.8,6.7l1.8-6.7h3V32.5z"/>
			<path d="M88,32.5h-2v-9.8h2V32.5z"/>
			<path d="M127.1,26.2c-0.1,0.3-0.3,0.5-0.6,0.6c-0.2,0.1-0.3,0.1-0.6,0.1c-0.2,0-0.6,0-1,0c-0.1,0-0.1,0-0.2,0h-1.5v-2.5h1.6
				c0.7,0,1.2,0,1.4,0c0.2,0,0.4,0.1,0.6,0.2c0.2,0.1,0.3,0.2,0.4,0.4c0.1,0.2,0.1,0.4,0.1,0.6C127.2,25.8,127.2,26,127.1,26.2z
				 M127.3,28.4c0,0,0.4-0.1,0.6-0.2c0.5-0.2,0.9-0.5,1.1-1c0.3-0.4,0.3-1.2,0.3-1.8c0-0.5-0.2-1.1-0.4-1.5
				c-0.3-0.5-0.7-0.9-1.2-1.1c-0.3-0.1-0.5-0.1-0.7-0.2c-0.4-0.1-0.9-0.1-1.6-0.1h-4.2v9.8h2v-3.9l1.9,0l2.1,3.9h2.4L127.3,28.4z"/>
			<path d="M146.8,30.4c-0.5,0.4-1,0.6-1.7,0.6c-0.6,0-1-0.1-1.4-0.4c-0.3-0.2-0.6-0.5-0.8-0.8c-0.2-0.3-0.3-0.5-0.3-0.8
				c-0.1-0.4-0.1-0.8-0.1-1.3c0-0.9,0.2-1.7,0.5-2.2c0.5-0.8,1.2-1.1,2.2-1.1c1.1,0,1.8,0.4,2.3,1.3c0.3,0.5,0.4,1.2,0.4,2.1
				C147.8,28.8,147.5,29.8,146.8,30.4z M148.6,24c-0.8-1-2-1.5-3.6-1.5c-1.5,0-2.7,0.5-3.5,1.4c-0.8,0.9-1.2,2.2-1.2,3.8
				c0,1.4,0.3,2.5,1,3.4c0.8,1.1,2.1,1.7,3.8,1.7c1.6,0,2.8-0.5,3.7-1.6c0.7-0.9,1.1-2.1,1.1-3.5C149.8,26.1,149.4,24.9,148.6,24z"
				/>
			<path d="M107.2,25.9c-0.2-0.6-0.5-1.7-2.2-1.7c-1,0-2.4,0.7-2.4,3.4c0,1.8,0.7,3.3,2.4,3.3c1.1,0,1.9-0.6,2.2-1.8h2
				c-0.4,2.1-1.8,3.6-4.2,3.6c-2.6,0-4.5-1.7-4.5-5.1c0-3.4,2-5.2,4.5-5.2c2.9,0,4.1,2,4.2,3.5H107.2z"/>
			<path d="M153.4,19.1h-1.1v2.8H152v-2.8h-1.1v-0.4h2.5V19.1z"/>
			<path d="M156.9,21.9h-0.4v-2.7l-0.9,2.7h-0.4l-0.9-2.7l0,2.7h-0.4v-3.2h0.6l0.8,2.3c0,0,0,0.1,0.1,0.3c0,0.1,0.1,0.2,0.1,0.2
				l0.2-0.5l0.8-2.2h0.6V21.9z"/>
		</g>
		<path d="M64.9,51.9c-0.2,0.9-0.4,1.8-0.7,2.7c-0.4-0.3-0.8-0.4-1.2-0.5c0.8-2.1,1.1-4.3,0.8-6.7h1.3c0,0.8,0,1.6,0,2.5
			c0.2,0.5,0.5,1,0.8,1.4v-5.6h-2.5v-1.3h2.5v-1.8h-2.2v-1.3h2.2v-1.8h1.3v1.8h1.3v1.3h-1.3v1.8H69v1.3h-1.9v2.5h1.6v1.3h-1.6v3.1
			c0,0,0.1,0,0.1,0c0.9,0.6,2.3,0.8,4.1,0.8h7l-0.4,1.3h-6.1c-1.1,0-2.1-0.1-3-0.3C67.2,54.1,65.9,53.3,64.9,51.9z M72.6,44.4h-1.4
			c-0.3,0-0.5-0.2-0.5-0.5v-1.6h1.1v0.9c0,0.1,0.1,0.2,0.2,0.2h0.8c0,0,0-0.1,0-0.1v-1.9h-2c-0.4,0.7-0.7,1.3-1,1.6l-1-0.8
			c0.3-0.4,0.6-0.8,0.9-1.2c0.2-0.4,0.3-0.9,0.4-1.6l1.3,0.1c0,0.2-0.1,0.4-0.1,0.6l6.4,0c0.2,0,0.3,0.1,0.4,0.2c0,0,0,0.1,0,0.1
			c0,2.7-0.1,4.3-0.3,4.7c-0.1,0.3-0.3,0.6-0.6,0.7c-0.5,0.2-1.2,0.3-2.2,0.2l-0.2-1.5c0.9,0.2,1.5,0.2,1.7,0.1
			c0.1-0.1,0.2-0.2,0.3-0.4c0-0.1,0.1-0.2,0.1-0.4c0.1-1.4,0.1-2.3,0-2.5c0-0.1-0.1-0.1-0.2-0.1h-2.6v1.9c0,0,0,0,0,0.1h0.8
			c0.1,0,0.2-0.1,0.2-0.2v-0.9h1.1v1.6c0,0.3-0.2,0.5-0.5,0.5h-1.8c-0.3,0.8-0.8,1.4-1.5,1.8l-0.9-0.9
			C72.1,45.1,72.4,44.8,72.6,44.4z M72.4,51.1h-1.2c-0.3,0-0.5-0.2-0.5-0.5v-2h1.1v1.3c0,0.1,0.1,0.2,0.2,0.2h0.8c0-0.1,0-0.2,0-0.3
			v-1.9h-2c-0.3,0.5-0.6,1-1,1.4l-1-0.8c0.7-0.7,1.2-1.7,1.4-2.8l1.2,0.2c-0.1,0.3-0.1,0.6-0.2,0.9l6.4,0c0.2,0,0.3,0.1,0.4,0.2
			c0,0,0,0.1,0,0.1c0,2.8-0.1,4.5-0.3,4.9c-0.1,0.3-0.3,0.6-0.6,0.7C76.8,53,76,53,74.9,52.8l-0.2-1.5c0.9,0.3,1.5,0.3,1.8,0.1
			c0.1-0.1,0.2-0.2,0.3-0.4c0-0.1,0.1-0.2,0.1-0.4c0.1-1.5,0.1-2.5,0-2.7c0-0.1-0.1-0.1-0.2-0.1h-2.7v1.9c0,0.1,0,0.2,0,0.3H75
			c0.1,0,0.2-0.1,0.2-0.2v-1.3h1.1v2c0,0.3-0.2,0.5-0.5,0.5h-2c-0.3,0.8-0.9,1.4-2,2l-0.8-1C71.6,51.9,72.1,51.5,72.4,51.1z"/>
		<path d="M91.9,43.2h-1.4c0,0.2-0.1,0.3-0.1,0.4c-0.4,0.9-1.2,1.5-2.5,1.8l-0.6-1c0.2-0.1,0.5-0.1,0.7-0.2c0.6-0.2,1-0.6,1.4-1.1
			h-1.7v-1.1h3v-0.8H88v-1.1h2.6v-0.7H92v0.7h2.5v1.1H92v0.8h2.9v1.1H93v0.6c0,0.2,0.1,0.3,0.3,0.4H94c0,0,0.1-0.1,0.1-0.3
			c0-0.1,0.1-0.3,0.1-0.6l1,0.4c-0.1,0.7-0.3,1.2-0.4,1.3c-0.2,0.1-0.4,0.2-0.7,0.2h-1.7c-0.4,0-0.5-0.2-0.5-0.5V43.2z M90.5,47.9
			V47h-2.6v-1.1h2.6v-1.1h1.3v1.1h2.7V47h-2.7v0.8l2.5-0.2l0.1,1.2l-6.5,0.4L87.7,48L90.5,47.9z M97.3,46.6
			c-0.4,0.8-0.9,1.5-1.6,2.1l-1-0.8c0.8-0.6,1.4-1.4,1.7-2.4c-0.4-0.5-0.8-0.9-1.2-1.3l0.9-0.8c0.2,0.2,0.4,0.4,0.7,0.7
			c0.1-0.6,0.2-1.2,0.2-2.1h-1.8v-1.2h1.8v-1.3h1.2v1.3h1.8c0.2,0,0.4,0.1,0.4,0.3c0,2.7,0.2,4.7,0.5,6.1c0.1,0.3,0.1,0.4,0.2,0.4
			c0,0,0.1-0.1,0.1-0.2c0.1-0.4,0.1-1,0.2-1.8l1.1,0.2c-0.1,1.2-0.2,2-0.3,2.5c-0.1,0.3-0.2,0.6-0.4,0.8c-0.2,0.2-0.4,0.3-0.7,0.3
			c-0.3,0-0.6-0.2-0.8-0.5c-0.7-1-1-3.2-1-6.7c0-0.1,0-0.2-0.1-0.2h-0.9c0,0.9-0.1,2-0.4,3.2c0.5,0.6,1,1.3,1.5,2.1l-1,0.8
			C98,47.5,97.6,47,97.3,46.6z M93.5,51.2H88v-1.3h6.3c0.2-0.4,0.3-0.8,0.4-1.2l1.3,0.4c-0.1,0.3-0.2,0.5-0.3,0.8l5.5,0
			c0.1,0,0.2,0,0.3,0.1c0.1,0.1,0.2,0.3,0.2,0.7c0,0.8,0,1.5-0.1,2.1c-0.1,0.6-0.2,1.1-0.6,1.3c-0.3,0.3-0.7,0.4-1.2,0.5
			c-1,0.2-2.3,0.1-3.9-0.4l0.1-1.5c1.7,0.6,3,0.8,3.9,0.4c0.2-0.1,0.4-0.3,0.4-0.6c0.1-0.6,0.1-1.1,0-1.3c0-0.1-0.1-0.1-0.2-0.1h-5
			c-1.2,2.1-3.6,3.2-7.3,3.4l-0.4-1.4c0.8,0,1.5-0.1,2.1-0.1C91.4,52.8,92.8,52.2,93.5,51.2z"/>
		<path d="M116,47.5v7.2h-1.4V48c-0.5,1.1-1,2-1.6,2.8l-1.3-0.5c1.2-1.5,2.1-3.1,2.7-5h-2.4v-1.4h2.7v-2.3c-0.7,0.1-1.5,0.1-2.3,0.2
			l-0.2-1.4c2.5-0.1,4.4-0.4,5.9-0.8l0.2,1.4c-0.7,0.2-1.4,0.3-2.2,0.5v2.5h2.3v1.4H116v0.2c0.9,1.1,1.8,2.2,2.7,3.4l-1.1,0.8
			C117.1,49.1,116.6,48.3,116,47.5z M119.4,41.3l1-0.9c1.4,1.4,2.4,2.5,3,3.2l-1.1,0.8C121.5,43.4,120.5,42.3,119.4,41.3z
			 M118.7,45.3l1-0.9c1.3,1.3,2.3,2.3,2.8,2.9l-1.1,0.8C120.7,47.2,119.8,46.3,118.7,45.3z M123.9,50.7l-6.1,1l-0.3-1.4l6.5-1.1
			v-9.6h1.4V49l1.4-0.2l0.2,1.4l-1.6,0.3v4.2h-1.4V50.7z"/>
		<path d="M138.2,47.8V44h-1.9v-1.4h1.9v-3h1.4v3h1.5V44h-1.5v3c0.4-0.3,0.8-0.5,1.1-0.8l0.9,1.1c-0.5,0.4-1.1,0.7-1.7,1.1
			c-0.1,0-0.1,0.1-0.2,0.1v4.6c0,0.6-0.3,1.1-0.7,1.4c-0.4,0.2-1.2,0.2-2.5-0.2l0.1-1.4c0.4,0.1,0.6,0.2,0.8,0.3
			c0.4,0.1,0.7,0.1,0.8,0c0.1-0.1,0.1-0.2,0.1-0.5v-3.5c-0.4,0.2-0.9,0.4-1.4,0.6l-0.8-1.2C136.8,48.4,137.6,48.1,138.2,47.8z
			 M146,52c-1.6,1.2-3.3,2.1-5.2,2.6l-0.9-1.3c2.1-0.6,3.8-1.3,5.1-2.2c-1-1-2-2.2-3-3.7l1.2-0.8c1,1.6,2,2.8,2.9,3.7
			c1.2-1.3,2.1-2.5,2.7-3.9c0.1-0.2,0-0.4-0.2-0.4h-6.6v-1.4h3.2v-2.2h-3.8v-1.4h3.8v-1.5h1.4v1.5h4.4v1.4h-4.4v2.2h3.5l0.6,0.5
			c-0.4,1.3-0.9,2.4-1.4,3.4c-0.3,0.5-1,1.4-2.1,2.7c1.1,0.8,2.6,1.6,4.3,2.3l-1,1.2C148.7,54,147.3,53.1,146,52z"/>
	</g>
</g>
<g>
	<circle fill="#FFFFFF" cx="26.5" cy="26.5" r="26.5"/>
	<g>
		<path fill="#E60012" d="M4.8,31.6C4.8,31.6,4.9,31.5,4.8,31.6c0.1-0.2,0.1-0.3,0.1-0.4C5,31.1,5,31,5.1,31c0,0,0-0.1,0-0.1
			c0.5-1.2,1.1-2.5,1.9-3.8c0.1-0.2,0.2-0.4,0.3-0.6l-3.2,0l0.8-1.7c2.6-0.7,7-2.2,11.2-6.2l0.1,0h2.2l-2.8,6.1l4.6,0l-0.8,1.8
			l-4.6,0c0,0-2.1,4.3-2.9,7.3c-0.6,3.4,0,6,3,6.9c1.9,0.6,4.2,0.4,6.8-0.3c5.9-1.8,12.2-5.9,16.8-11.3c7.6-8.8,7.8-17.9,0.3-20.2
			c-4.8-1.5-11.5,0.2-17.7,3.9c7.7-5,16.3-7.3,22.1-5.5c1.1,0.3,2.1,0.8,2.9,1.4C41.3,3.4,34.3,0,26.5,0C11.9,0,0,11.9,0,26.5
			C0,31.9,1.6,37,4.4,41.2C3.3,38.6,3.5,35.2,4.8,31.6z"/>
		<path fill="#E60012" d="M49,12.5c1.8,4.8-0.4,12-6.6,19.1C33.2,42.3,18.7,48.8,10,46c-1.1-0.3-2-0.8-2.8-1.4
			c4.8,5.2,11.7,8.4,19.4,8.4c14.7,0,26.5-11.9,26.5-26.5C53.1,21.4,51.6,16.5,49,12.5z"/>
	</g>
</g>
</svg>
