<svg width="410" height="200.00000000000003" xmlns="http://www.w3.org/2000/svg">
 <metadata id="metadata8">image/svg+xml</metadata>
 <defs>
  <clipPath id="clipPath30" clipPathUnits="userSpaceOnUse">
   <path id="path28" d="m0,612.288l858.898,0l0,-612.288l-858.898,0l0,612.288z"/>
  </clipPath>
 </defs>
 <g>
  <title>background</title>
  <rect x="-1" y="-1" width="412" height="202" id="canvas_background" fill="none"/>
 </g>
 <g>
  <title>Layer 1</title>
  <path stroke-width="0" id="path50" d="m37.280471,71.7915l44.57866,0l0,-14.77333l-44.57866,0l0,14.77333z" fill-rule="nonzero" fill="#808285"/>
  <path stroke-width="0" id="path52" d="m37.280471,101.34084l44.57866,0l0,-14.77467l-44.57866,0l0,14.77467z" fill-rule="nonzero" fill="#8cc63f"/>
  <path stroke-width="0" id="path54" d="m37.280471,116.11417l44.57866,0l0,-14.77333l-44.57866,0l0,14.77333z" fill-rule="nonzero" fill="#f26522"/>
  <path stroke-width="0" id="path56" d="m37.280471,130.89017l44.57866,0l0,-14.776l-44.57866,0l0,14.776z" fill-rule="nonzero" fill="#fbb03f"/>
  <path stroke-width="0" id="path58" d="m37.280471,145.6635l44.57866,0l0,-14.77333l-44.57866,0l0,14.77333z" fill-rule="nonzero" fill="#ae256c"/>
  <path stroke-width="0" id="path60" d="m110.219131,145.6635l8.66533,0l0,-44.41733l-8.66533,0l0,44.41733z" fill-rule="nonzero" fill="#808285"/>
  <path stroke-width="0" id="path64" d="m203.782761,100.61016l-8.75333,3.13333c-5.89067,-6.26533 -14.13734,-9.396 -24.74267,-9.396c-8.02933,0 -14.576,2.06133 -19.64,6.18133c-5.056,4.12667 -7.592,9.37467 -7.592,15.748c0,6.58534 2.50533,11.9 7.512,15.944c5.00933,4.04534 11.76667,6.06534 20.28133,6.06534c10.28534,0 18.37067,-3.18667 24.26134,-9.55867l8.27466,4.57733c-4.176,4.87467 -8.90666,8.392 -14.17866,10.564c-5.276,2.16934 -11.58134,3.25334 -18.91867,3.25334c-10.284,0 -18.82267,-2.572 -25.62267,-7.71067c-7.76666,-5.892 -11.648,-13.604 -11.648,-23.13466c0,-9.372 3.936,-17.03067 11.808,-22.97467c6.856,-5.19467 15.34,-7.79067 25.46267,-7.79067c14.56933,0 25.732,5.032 33.496,15.09867" fill-rule="nonzero" fill="#808285"/>
  <path stroke-width="0" id="path68" d="m269.061001,145.6635l-8.66667,0l0,-19.21066l-34.30933,0l0,19.21066l-8.664,0l0,-44.41733l8.664,0l0,17.40667l34.30933,0l0,-17.40667l8.66667,0l0,44.41733z" fill-rule="nonzero" fill="#808285"/>
  <path stroke-width="0" id="path72" d="m330.922891,145.6635l-47.812,0l0,-44.41733l46.15067,0l0,7.8l-37.484,0l0,9.60667l26.072,0l0,7.8l-26.072,0l0,11.412l39.14533,0l0,7.79866z" fill-rule="nonzero" fill="#808285"/>
  <path stroke-width="0" id="path76" d="m389.383261,109.04603l-37.47867,0l0,9.60667l26.072,0l0,7.8l-26.072,0l0,19.21066l-8.672,0l0,-44.416l46.15067,0l0,7.79867z" fill-rule="nonzero" fill="#808285"/>
  <path stroke-width="0" id="path78" d="m110.167131,95.53017l8.692,0l0,-8.68933l-8.692,0l0,8.68933z" fill-rule="nonzero" fill="#808285"/>
 </g>
</svg>