<svg width="950" height="191.9" xmlns="http://www.w3.org/2000/svg">

 <g>
  <title>background</title>
  <rect fill="none" id="canvas_background" height="402" width="582" y="-1" x="-1"/>
 </g>
 <g>
  <title>Layer 1</title>
  <path fill="#595757" id="svg_4" d="m65.6,2.3c-36.2,0 -65.6,29.3 -65.6,65.5c0,36.2 29.4,65.6 65.6,65.6s65.6,-29.4 65.6,-65.6c-0.1,-36.2 -29.4,-65.5 -65.6,-65.5zm0,109.2c-24.1,0 -43.7,-19.6 -43.7,-43.7c0,-24.1 19.6,-43.7 43.7,-43.7s43.7,19.6 43.7,43.7c0,24.2 -19.6,43.7 -43.7,43.7z" class="st0"/>
  <rect fill="#595757" id="svg_5" height="109.3" width="21.9" class="st0" y="67.8" x="109.3"/>
  <path fill="#595757" id="svg_7" d="m131.1,67.8c0,-24.1 19.6,-43.7 43.7,-43.7l0,-21.8c-36.2,0 -65.6,29.4 -65.6,65.6c0,36.2 29.4,65.6 65.6,65.6l0,-21.9c-24.1,-0.1 -43.7,-19.6 -43.7,-43.8z" class="st0"/>
  <path fill="#595757" id="svg_10" d="m259.1,136.6l0,24.8c0,5.2 -1.6,9 -4.7,11.5c-3.2,2.4 -7,3.7 -11.4,3.7c-4.4,0 -8.3,-1.2 -11.5,-3.7c-3.2,-2.4 -4.8,-6.3 -4.8,-11.5l0,-24.9c0,-5.3 1.5,-9.3 4.4,-12c2.9,-2.7 6.9,-4.1 12,-4.1c5.1,0 9,1.4 11.9,4.3c2.7,2.9 4.1,6.9 4.1,11.9zm-7,23.8l0,-22.2c0,-3.4 -0.7,-6 -2.1,-7.7c-1.4,-1.8 -3.8,-2.6 -7.1,-2.6c-3.3,0 -5.7,0.9 -7.1,2.6c-1.4,1.7 -2.1,4.3 -2.1,7.7l0,22.3c0,2.9 0.8,5.1 2.4,6.7c1.6,1.6 3.8,2.4 6.7,2.4c2.8,0 5.1,-0.8 6.8,-2.4c1.7,-1.7 2.5,-4 2.5,-6.8z" class="st0"/>
  <path fill="#595757" id="svg_11" d="m277.3,190.2l-7,1.7l0,-54.9l6.7,0l0.2,1.7c1.8,-1.5 4.3,-2.3 7.6,-2.3c4.8,0 8.4,1.4 10.9,4.2c2.5,2.8 3.7,6.4 3.7,10.8l0,10.7c0,4.7 -1.3,8.3 -3.9,10.8c-2.6,2.5 -6.1,3.7 -10.4,3.7c-3.1,0 -5.7,-0.7 -7.7,-2.2l0,15.8l-0.1,0zm15,-29.1l0,-10c0,-2.6 -0.6,-4.6 -1.9,-5.9c-1.3,-1.3 -3.1,-2 -5.4,-2c-2.3,0 -4.2,0.6 -5.6,1.9c-1.4,1.3 -2.1,3.1 -2.2,5.6l0,11.1c0,5.3 2.6,8 7.7,8c5,0 7.4,-2.9 7.4,-8.7z" class="st0"/>
  <path fill="#595757" id="svg_12" d="m318.1,170.2c2.9,0 6.3,-1 10.1,-3.1l2.6,5.9c-4,2.4 -8.1,3.6 -12.4,3.6c-9,0 -13.4,-3.8 -13.4,-11.3l0,-15.8c0,-4.2 1.3,-7.4 3.9,-9.7c2.6,-2.3 6,-3.5 10.3,-3.5c4.3,0 7.6,1.1 10,3.4c2.4,2.3 3.6,5.5 3.6,9.5l0,11.1l-20.7,1.2l0,3c0,2.1 0.6,3.5 1.8,4.3c1.2,1 2.6,1.4 4.2,1.4zm7.5,-15.9l0,-5c0,-2.1 -0.7,-3.7 -2,-4.7c-1.3,-1 -3,-1.5 -5,-1.5c-2,0 -3.6,0.6 -4.8,1.8c-1.2,1.2 -1.8,2.8 -1.8,4.7l0,5.4l13.6,-0.7z" class="st0"/>
  <path fill="#595757" id="svg_13" d="m347.6,138.3c2.3,-1.2 4.8,-1.9 7.5,-1.9c2.7,0 5.2,0.5 7.5,1.4c4.4,2 6.6,5.7 6.6,11.2l0,26.7l-7,0l0,-25.1c0,-2.5 -0.7,-4.3 -2.2,-5.6c-1.5,-1.3 -3.3,-1.9 -5.6,-1.9c-2.2,0 -4.5,0.6 -6.7,1.8l0,30.9l-6.9,0l0,-38.8l6.4,0l0.4,1.3z" class="st0"/>
  <path fill="#595757" id="svg_14" d="m427.6,167.5l1.2,6.5c-4.4,1.7 -8.5,2.5 -12.5,2.5c-0.8,0 -2.1,-0.1 -3.7,-0.2c-1.7,-0.2 -3.5,-0.7 -5.3,-1.7c-1.9,-1 -3.4,-2.6 -4.6,-4.8c-1.2,-2.2 -1.7,-4.9 -1.7,-8.1l0,-24.8c0,-3.9 0.6,-6.9 1.7,-8.9c1.1,-2 2.8,-3.7 5.1,-5.1c2.3,-1.3 5.1,-1.9 8.3,-1.9c4,0 7.6,0.8 11,2.5l-2,6c-2.5,-0.9 -5,-1.4 -7.7,-1.4c-2.7,0 -4.9,0.7 -6.6,2c-1.8,1.3 -2.6,3.3 -2.6,6.1l0,25.3c0,2.3 0.6,4.1 1.7,5.4c1.4,1.6 3.8,2.5 6.9,2.5c3,-0.1 6.7,-0.7 10.8,-1.9z" class="st0"/>
  <path fill="#595757" id="svg_15" d="m460.8,175.7l-6.6,0l-0.2,-1.7c-2.1,1.7 -4.5,2.5 -7.4,2.5c-9.7,0 -14.5,-4.7 -14.5,-14.1l0,-25.4l7,0l0,24.8c0,5.3 2.5,8 7.5,8c4.8,0 7.3,-2.7 7.3,-8.2l0,-24.6l7,0l0,38.7l-0.1,0z" class="st0"/>
  <path fill="#595757" id="svg_16" d="m476.8,175.7l-7,0l0,-54.1l7,0l0,54.1z" class="st0"/>
  <path fill="#595757" id="svg_17" d="m498.9,171.2l-2.1,5.6c-7,-0.6 -10.5,-4.4 -10.5,-11.2l0,-43.9l7.1,0l0,15.3l8,0l-1.9,6.6l-6.2,0l0,21.9c0.1,3.3 2,5.2 5.6,5.7z" class="st0"/>
  <path fill="#595757" id="svg_18" d="m534.8,175.7l-6.6,0l-0.2,-1.7c-2.1,1.7 -4.5,2.5 -7.4,2.5c-9.7,0 -14.5,-4.7 -14.5,-14.1l0,-25.4l7,0l0,24.8c0,5.3 2.5,8 7.5,8c4.8,0 7.3,-2.7 7.3,-8.2l0,-24.6l7,0l0,38.7l-0.1,0z" class="st0"/>
  <path fill="#595757" id="svg_19" d="m549.4,138.2c2.3,-1.2 5,-1.8 8,-1.8c0.9,0 2.9,0.3 5.9,0.8l-1.7,6.7c-1.4,-0.7 -2.8,-1 -4.1,-1c-1.3,0 -2.6,0.2 -3.8,0.6c-2.8,1 -4.2,2.8 -4.2,5.4l0,26.7l-7,0l0,-38.6l6.6,0l0.3,1.2z" class="st0"/>
  <path fill="#595757" id="svg_20" d="m578.1,170.2c2.9,0 6.3,-1 10.1,-3.1l2.6,5.9c-4,2.4 -8.1,3.6 -12.4,3.6c-9,0 -13.4,-3.8 -13.4,-11.3l0,-15.8c0,-4.2 1.3,-7.4 3.9,-9.7c2.6,-2.3 6,-3.5 10.3,-3.5c4.3,0 7.6,1.1 10,3.4c2.4,2.3 3.6,5.5 3.6,9.5l0,11.1l-20.7,1.2l0,3c0,2.1 0.6,3.5 1.8,4.3c1.2,1 2.6,1.4 4.2,1.4zm7.5,-15.9l0,-5c0,-2.1 -0.7,-3.7 -2,-4.7c-1.3,-1 -3,-1.5 -5,-1.5c-2,0 -3.6,0.6 -4.8,1.8c-1.2,1.2 -1.8,2.8 -1.8,4.7l0,5.4l13.6,-0.7z" class="st0"/>
  <path fill="#595757" id="svg_21" d="m630.3,175.7l-7,0l0,-54.1l25.7,0l0,7l-18.8,0l0,15.2l11.7,0l-2.5,6.8l-9.2,0l0,25.1l0.1,0z" class="st0"/>
  <path fill="#595757" id="svg_22" d="m677.2,151.3l0,10.2c0,4.3 -1.2,7.9 -3.6,10.7c-2.4,2.8 -5.9,4.2 -10.7,4.2c-4.8,0 -8.4,-1.4 -10.8,-4.3c-2.4,-2.9 -3.7,-6.4 -3.7,-10.7l0,-10.2c0,-4.9 1.2,-8.6 3.7,-11.2c2.5,-2.6 6,-3.9 10.6,-3.9c4.6,0 8.1,1.4 10.7,4.1c2.5,2.7 3.8,6.4 3.8,11.1zm-7,11l0,-11c0,-5.5 -2.4,-8.2 -7.3,-8.2c-5,0 -7.5,2.7 -7.5,8.2l0,11c0,2.4 0.7,4.3 2.1,5.5c1.4,1.3 3.2,1.9 5.4,1.9c2.2,0 4,-0.6 5.3,-1.9c1.3,-1.3 2,-3.1 2,-5.5z" class="st0"/>
  <path fill="#595757" id="svg_23" d="m711.6,175.7l-6.6,0l-0.2,-1.7c-2.1,1.7 -4.5,2.5 -7.4,2.5c-9.7,0 -14.5,-4.7 -14.5,-14.1l0,-25.4l7,0l0,24.8c0,5.3 2.5,8 7.5,8c4.8,0 7.3,-2.7 7.3,-8.2l0,-24.6l7,0l0,38.7l-0.1,0z" class="st0"/>
  <path fill="#595757" id="svg_24" d="m726.4,138.3c2.3,-1.2 4.8,-1.9 7.5,-1.9c2.7,0 5.2,0.5 7.5,1.4c4.4,2 6.6,5.7 6.6,11.2l0,26.7l-7,0l0,-25.1c0,-2.5 -0.7,-4.3 -2.2,-5.6c-1.5,-1.3 -3.3,-1.9 -5.6,-1.9c-2.2,0 -4.5,0.6 -6.7,1.8l0,30.9l-7,0l0,-38.8l6.4,0l0.5,1.3z" class="st0"/>
  <path fill="#595757" id="svg_25" d="m765.7,137.9c2.5,-1 5.2,-1.5 8,-1.5c2.8,0 5.1,0.5 7,1.5l0,-16.2l7,0l0,54.1c-4.4,0.6 -8.5,0.9 -12.3,0.9c-3.8,0 -7.2,-0.8 -10.2,-2.3c-4,-2.1 -6,-5.6 -6,-10.7l0,-14.7c0,-5.4 2.2,-9.1 6.5,-11.1zm15,7.2c-2.3,-1.2 -4.5,-1.8 -6.6,-1.8c-2.1,0 -4,0.6 -5.6,1.8c-1.6,1.2 -2.4,3.2 -2.4,6l0,12.9c0,2.6 1.4,4.4 4.3,5.4c1.5,0.5 3.2,0.8 4.9,0.8s3.5,-0.2 5.4,-0.6l0,-24.5z" class="st0"/>
  <path fill="#595757" id="svg_26" d="m804.5,144.8c4.5,0 8.3,1 11.6,3.1c0,-4.3 -3.2,-6.5 -9.6,-6.5l0.5,-4.9c4.2,0 7.3,0.5 9.3,1.5c1.1,0.6 2,1.1 2.9,1.7c0.8,0.6 1.5,1.3 1.9,2.2c0.5,0.9 0.8,1.7 1.2,2.4c0.3,0.7 0.5,1.6 0.6,2.8c0.2,1.8 0.2,3.7 0.2,5.6l0,23c-5.4,0.5 -9.6,0.8 -12.8,0.8c-11.3,0 -16.9,-4.6 -16.9,-13.8l0,-6.4c0,-5.1 1.8,-8.5 5.3,-10.3c1.8,-0.8 3.7,-1.2 5.8,-1.2zm11.6,24.8l0,-14.8c-2.7,-1.6 -5.8,-2.6 -9.3,-3c-0.4,-0.1 -1,-0.1 -1.8,-0.1c-0.8,0 -1.8,0.4 -2.9,1.1c-1.1,0.7 -1.6,2.1 -1.6,4.1l0,5.1c0,5.3 3.3,8 10,8c1.6,0.1 3.5,-0.1 5.6,-0.4z" class="st0"/>
  <path fill="#595757" id="svg_27" d="m842.2,171.2l-2.1,5.6c-7,-0.6 -10.5,-4.4 -10.5,-11.2l0,-43.9l7.1,0l0,15.3l8,0l-1.9,6.6l-6.2,0l0,21.9c0.1,3.3 1.9,5.2 5.6,5.7z" class="st0"/>
  <path fill="#595757" id="svg_28" d="m860.2,124.7c0,1 -0.4,1.9 -1.2,2.7c-0.8,0.8 -1.7,1.2 -2.7,1.2c-1,0 -1.9,-0.4 -2.7,-1.2c-0.8,-0.8 -1.2,-1.7 -1.2,-2.7c0,-1 0.4,-1.9 1.2,-2.7c0.8,-0.8 1.7,-1.2 2.7,-1.2c1,0 1.9,0.4 2.7,1.2c0.9,0.8 1.2,1.7 1.2,2.7zm-0.4,51l-7,0l0,-38.7l7,0l0,38.7z" class="st0"/>
  <path fill="#595757" id="svg_29" d="m901.3,151.3l0,10.2c0,4.3 -1.2,7.9 -3.6,10.7c-2.4,2.8 -5.9,4.2 -10.7,4.2c-4.8,0 -8.4,-1.4 -10.8,-4.3c-2.4,-2.9 -3.7,-6.4 -3.7,-10.7l0,-10.2c0,-4.9 1.2,-8.6 3.7,-11.2c2.5,-2.6 6,-3.9 10.6,-3.9c4.6,0 8.1,1.4 10.7,4.1c2.5,2.7 3.8,6.4 3.8,11.1zm-7,11l0,-11c0,-5.5 -2.4,-8.2 -7.3,-8.2c-5,0 -7.5,2.7 -7.5,8.2l0,11c0,2.4 0.7,4.3 2.1,5.5c1.4,1.3 3.2,1.9 5.4,1.9c2.2,0 4,-0.6 5.3,-1.9c1.3,-1.3 2,-3.1 2,-5.5z" class="st0"/>
  <path fill="#595757" id="svg_30" d="m916,138.3c2.3,-1.2 4.8,-1.9 7.5,-1.9s5.2,0.5 7.5,1.4c4.4,2 6.6,5.7 6.6,11.2l0,26.7l-7,0l0,-25.1c0,-2.5 -0.7,-4.3 -2.2,-5.6c-1.5,-1.3 -3.3,-1.9 -5.6,-1.9c-2.2,0 -4.5,0.6 -6.7,1.8l0,30.9l-7,0l0,-38.8l6.4,0l0.5,1.3z" class="st0"/>
  <path fill="#595757" id="svg_32" d="m237.3,41.3l0,56.1l-9.7,0l0,-92l39.4,0l0,36l-29.7,0l0,-0.1zm0,-28.7l0,6.9l20.5,0l0,-6.9l-20.5,0zm20.5,21.5l0,-7.9l-20.5,0l0,7.9l20.5,0zm27.6,38.7l0,23l-8.7,0l0,-23l-12.6,0c-0.8,7 -4.2,18 -13.8,24.4c-1.5,-1.7 -4.4,-4.3 -6.5,-5.8c8,-4.8 11,-12.9 11.9,-18.7l-12,0l0,-8.1l12.2,0l0,-9.9l-10.4,0l0,-7.7l51,0l0,7.9l-11,0l0,9.9l13,0l0,8.1l-13.1,0l0,-0.1zm-8.7,-8.1l0,-9.9l-12.4,0l0,9.9l12.4,0zm37.9,20.8c0,5.4 -1.2,8.3 -4.6,10c-3.4,1.6 -8.6,1.8 -16.4,1.8c-0.4,-2.7 -1.9,-7.2 -3.3,-10c5.2,0.3 10.7,0.2 12.4,0.2c1.7,0 2.1,-0.5 2.1,-2.1l0,-43.7l-30.1,0l0,-36.3l39.9,0l0,80.1zm-30.7,-72.9l0,6.9l20.9,0l0,-6.9l-20.9,0zm20.9,21.7l0,-8.1l-20.9,0l0,8.1l20.9,0z" class="st0"/>
  <path fill="#595757" id="svg_33" d="m416.6,29.2c-2.6,16.2 -6.6,29.4 -12.7,40.4c5.5,8.3 12.5,14.9 21.3,19c-2.1,1.9 -5.2,5.7 -6.6,8.4c-8.5,-4.4 -15.1,-10.7 -20.5,-18.5c-6.2,7.8 -14,14.1 -23.7,19.1c-0.9,-2.2 -3.7,-6.6 -5.6,-8.5c10.3,-4.7 18.2,-11.2 23.9,-19.6c-3.9,-7.6 -6.8,-16.3 -9.2,-25.7c-2,4.1 -4.3,7.8 -6.7,11c-1.4,-1.8 -4.4,-5 -6.7,-7c-0.6,30.1 -1.4,41.1 -3.9,44.6c-1.8,2.4 -3.6,3.4 -6.5,3.8c-2.5,0.4 -6.9,0.4 -11.2,0.2c-0.3,-2.6 -1.3,-6.4 -2.5,-8.9c3.8,0.4 7.2,0.4 8.9,0.4c1.5,0 2.4,-0.3 3,-1.5c1.7,-2.2 2.4,-11.9 2.9,-38.7l-12,0c0,17.1 -2.1,34.8 -15.5,49.4c-1.7,-2.1 -4.8,-4.7 -7.2,-6.4c12.1,-13.2 13.6,-29.1 13.6,-43.2l0,-21l-11.4,0l0,-9.1l46,0l0,9.1l-25.3,0l0,12.3l21.4,0c0,0 0,2.9 -0.1,4.2l-0.1,3.1c8.2,-10.7 13.5,-27.6 16.5,-45.1l10,1.6c-1.2,6 -2.5,12 -4,17.6l31.6,0l0,9l-7.7,0zm-66.8,-12c-0.9,-3.8 -3.1,-9.9 -5,-14.3l8.6,-2.3c2.1,4.4 4.4,10.2 5.4,14l-9,2.6zm39.7,12.7c2.1,10.9 4.9,20.9 8.9,29.7c4.1,-8.7 6.7,-18.7 8.5,-30.4l-17.1,0l-0.3,0.7z" class="st0"/>
  <path fill="#595757" id="svg_34" d="m511.9,28.4c-5.6,15.8 -13.3,28.6 -23.2,39.1c11.2,9.1 24.9,15.9 41,19.9c-2.2,2.1 -5,6.2 -6.6,9c-16.7,-4.5 -30.6,-12 -42,-21.8c-11.6,9.9 -25.9,17.2 -42.9,22.5c-1.2,-2.5 -4.1,-7 -6.1,-9.3c16.9,-4.5 30.6,-11 41.8,-20.1c-10.2,-10.8 -17.9,-23.9 -23.8,-39.2l-16.2,0l0,-9.5l45.4,0c-1.3,-4.3 -4.2,-10.9 -7,-15.8l10.3,-3c3,4.9 6.4,11.6 7.8,15.9l-9.3,2.9l47.1,0l0,9.4l-16.3,0zm-51.6,0c5,12.4 12.1,23.2 21,32.4c8.5,-8.8 15,-19.5 19.7,-32.4l-40.7,0z" class="st0"/>
  <path fill="#595757" id="svg_35" d="m573.8,4.4c-2.8,6.7 -6.4,13.4 -10.3,19.8l0,72.9l-9.2,0l0,-59.4c-4,5.2 -8.2,10 -12.5,14c-0.8,-2.3 -3.6,-7.6 -5.4,-9.9c11.1,-9.5 21.9,-24.8 28.4,-40.3l9,2.9zm42.9,81c5.7,0 6.6,-4.4 7.4,-22c2.3,1.8 6.3,3.7 8.8,4.3c-1.4,19.6 -3.8,26.5 -15.6,26.5l-18.8,0c-11.5,0 -14.8,-3.5 -14.8,-16.1l0,-75.4l9.3,0l0,27.7l37,0l0,9.3l-36.9,0l0,38.6c0,5.9 1,7 6.3,7l17.3,0l0,0.1z" class="st0"/>
  <path fill="#595757" id="svg_36" d="m717.4,58.7c5.9,6.1 14.2,11.4 22.2,14.3c-2.1,1.8 -4.9,5.2 -6.4,7.6c-10.1,-4.4 -20,-12.7 -26.4,-21.8l-31.3,0c-2.5,3.7 -5.8,7.3 -9.2,10.6l19.2,0l0,-7.9l9.9,0l0,7.9l20.8,0l0,7.6l-20.8,0l0,9.3l35.3,0l0,8.1l-79,0l0,-8.1l33.9,0l0,-9.3l-20,0l0,-6.9c-5.2,4.7 -11.3,8.7 -17.3,11.5c-1.4,-2.3 -4.2,-5.8 -6.3,-7.4c8.3,-3.1 16.7,-9 22.7,-15.5l-21.6,0l0,-8.1l20.4,0l0,-32.4l-15.2,0l0,-8l15.2,0l0,-9.2l9.8,0l0,9.1l35.7,0l0,-9l10,0l0,9l15,0l0,8l-15,0l0,32.4l19.7,0l0,8.1l-21.3,0l0,0.1zm-44.4,-40.5l0,5.8l35.7,0l0,-5.9l-35.7,0l0,0.1zm0,18.9l35.7,0l0,-6l-35.7,0l0,6zm0,13.5l35.7,0l0,-6.3l-35.7,0l0,6.3z" class="st0"/>
  <path fill="#595757" id="svg_37" d="m800.5,40.7l0,12.7l35.1,0l0,8.8l-35.1,0l0,23.4l40.2,0l0,8.9l-90,0l0,-8.9l39.4,0l0,-23.4l-34.6,0l0,-8.8l34.6,0l0,-12.7l-21.9,0l0,-5.5c-4.9,2.6 -10,4.8 -15.2,6.7c-1.4,-2.8 -4.1,-6.6 -6.5,-9c19.5,-5.9 38.5,-17.5 48.4,-32.9l9.1,4.1c-0.9,1.4 -1.8,2.7 -2.7,4c10.3,10.3 27.9,20.2 43.6,25c-2.2,2 -5.2,5.9 -6.7,8.5c-5.1,-1.9 -10.4,-4.3 -15.6,-7.2l0,6.4l-22.1,0l0,-0.1zm-29.1,22.6c4,5.6 8.2,13.2 9.9,18.2l-8.5,3.7c-1.5,-4.9 -5.6,-12.8 -9.3,-18.7l7.9,-3.2zm46.5,-31.6c-8.2,-4.9 -15.9,-10.7 -22.2,-17c-6.1,6.6 -13.2,12.3 -21.1,17l43.3,0zm-9.4,50.3c3.6,-5 8,-13 10.2,-18.8l9.4,3.5c-4,6.6 -8.6,13.7 -12.2,18.5l-7.4,-3.2z" class="st0"/>
  <path fill="#595757" id="svg_38" d="m907.7,3.5c-0.5,0.6 -0.9,1.4 -1.6,2c9.8,9 27.5,17 43.9,20.5c-2,1.7 -4.7,5.1 -6.2,7.4c-2.5,-0.7 -5.2,-1.6 -7.9,-2.5l0,27.1l-70.9,0l0,-26.4c-2.6,0.9 -5.1,1.8 -7.8,2.5c-0.8,-1.8 -3.6,-5.8 -5.2,-7.4c19,-4.8 37.6,-14 47.1,-26.2l8.6,3zm27.8,27.2c-5.7,-2 -11.4,-4.4 -16.8,-7.4l0,3l-36.3,0l0,-2.5c-4.8,2.7 -10,4.9 -15.2,6.9l68.3,0zm-64.5,31.5l59.8,0l0,34.5l-10,0l0,-2.8l-40.2,0l0,3.3l-9.6,0l0,-35zm14.3,-24.4c2.3,3.6 4.6,8.4 5.4,11.5l-6.9,2.3l12.4,0l0,-14.5l-22.8,0l0,14.5l10.1,0c-0.7,-3.3 -2.7,-8.1 -4.9,-11.8l6.7,-2zm-4.7,31.1l0,5.8l40.2,0l0,-5.8l-40.2,0zm40.2,18.4l0,-5.9l-40.2,0l0,5.9l40.2,0zm-8.3,-67.7c-4.3,-2.6 -8.2,-5.7 -11.5,-8.8c-3.4,3.1 -7.3,6.2 -11.4,8.8l22.9,0zm14.8,17.5l-23.3,0l0,14.5l11.8,0l-6.5,-2c1.9,-3.4 4.1,-8.7 5.2,-12.3l8.2,2.3c-2.3,4.5 -4.6,8.9 -6.5,12l11.1,0l0,-14.5z" class="st0"/>
 </g>
</svg>