<?xml version="1.0" encoding="UTF-8" standalone="no"?>
<svg
   xmlns:dc="http://purl.org/dc/elements/1.1/"
   xmlns:cc="http://creativecommons.org/ns#"
   xmlns:rdf="http://www.w3.org/1999/02/22-rdf-syntax-ns#"
   xmlns:svg="http://www.w3.org/2000/svg"
   xmlns="http://www.w3.org/2000/svg"
   viewBox="0 0 800 800"
   height="800"
   width="800"
   xml:space="preserve"
   id="svg2"
   version="1.1"><metadata
     id="metadata8"><rdf:RDF><cc:Work
         rdf:about=""><dc:format>image/svg+xml</dc:format><dc:type
           rdf:resource="http://purl.org/dc/dcmitype/StillImage" /></cc:Work></rdf:RDF></metadata><defs
     id="defs6"><clipPath
       id="clipPath18"
       clipPathUnits="userSpaceOnUse"><path
         id="path16"
         d="M 0,600 H 600 V 0 H 0 Z" /></clipPath></defs><g
     transform="matrix(1.3333333,0,0,-1.3333333,0,800)"
     id="g10"><g
       id="g12"><g
         clip-path="url(#clipPath18)"
         id="g14"><g
           transform="translate(238.6,286.25)"
           id="g20"><path
             id="path22"
             style="fill:#1750a2;fill-opacity:1;fill-rule:nonzero;stroke:none"
             d="m 0,0 c -0.6,-4.4 -1.5,-8.4 -2.9,-12 -1.3,-3.6 -3.2,-6.5 -5.5,-8.7 -2.3,-2.2 -5.1,-3.4 -8.5,-3.4 -2.3,0 -4.2,0.5 -5.6,1.4 -1.4,1 -2.4,1.9 -3.1,3 V 34 c 1,3.2 2.6,5.6 4.8,7.2 2.2,1.6 4.4,2.4 6.7,2.4 0.9,0 2.2,-0.3 3.7,-0.8 1.6,-0.5 3.2,-1.8 4.9,-3.7 1.7,-2 3.1,-5 4.3,-9.1 C 0,25.9 0.6,20.3 0.6,13.3 0.9,8.8 0.6,4.5 0,0 m -102.7,15.5 c 0,-4.5 -0.7,-8.7 -2.1,-12.6 -1.4,-4 -3.4,-7.5 -5.9,-10.5 -2.5,-3 -5.5,-5.5 -8.9,-7.3 -3.4,-1.8 -7.1,-2.7 -10.9,-2.7 -7.3,0 -13.4,3.6 -18.5,10.9 -5.1,7.3 -7.6,19.1 -7.6,35.6 0,7.5 0.7,15.3 2,23.5 1.3,8.2 3.4,15.6 6.2,22.3 2.8,6.7 6.5,12.2 10.9,16.6 4.4,4.4 9.9,6.5 16.4,6.5 5.2,0 9.3,-1.3 12.1,-4 2.8,-2.6 4.9,-5.7 6.4,-9.1 V 15.5 Z M 17.7,47 c -3,3.6 -6.5,6.3 -10.4,8 -3.9,1.7 -8.1,2.5 -12.4,2.5 -4.7,0 -8.8,-0.8 -12.1,-2.4 -3.3,-1.6 -6.1,-3.5 -8.3,-5.9 v 14.4 h -27.7 v -79.9 c -1.5,-0.8 -3.4,-1.3 -4.7,-1.3 -3.6,0 -6.4,0.9 -8.3,2.9 -1.9,1.9 -3.3,4.3 -4.2,7.1 -0.9,2.8 -1.5,5.8 -1.7,8.9 -0.2,3.1 -0.3,5.9 -0.3,8.3 v 105.8 h -30.3 v -12.1 c 0,0 -7,5.5 -12.6,7.6 -5.6,2.2 -11,3.3 -16.2,3.3 -10.1,0 -18.8,-2.7 -26.1,-8.2 -7.3,-5.4 -13.2,-12.4 -17.7,-20.8 -4.5,-8.4 -7.9,-17.7 -10,-27.9 -2.1,-10.2 -3.2,-20 -3.2,-29.5 0,-12.3 1.6,-22.8 4.7,-31.5 3.1,-8.7 7.1,-15.8 12,-21.2 4.8,-5.4 10.4,-9.4 16.5,-12 6.1,-2.5 12.3,-3.8 18.3,-3.8 9.7,0 18,2.8 24.8,8.3 6.9,5.6 11.8,12.3 14.8,20.2 1.8,-10.3 5.3,-17.6 10.3,-22 5.1,-4.3 10.7,-6.5 17,-6.5 5.9,0 11.1,1.7 15.8,5.1 0.4,0.3 0.7,0.6 1,0.9 v -53.2 l 27.7,6.9 v 46.7 c 1.4,-1.8 3.5,-3.4 6.3,-4.7 2.8,-1.3 6.7,-2 11.5,-2 6.8,0 12.5,1.5 17,4.5 4.6,3 8.2,7 10.9,11.8 2.7,4.9 4.6,10.4 5.7,16.5 1.1,6.2 1.6,12.3 1.6,18.5 0,8.6 -0.9,15.9 -2.7,21.9 -1.6,6.3 -4,11.1 -7,14.8" /></g><g
           transform="translate(326.5,286.25)"
           id="g24"><path
             id="path26"
             style="fill:#1750a2;fill-opacity:1;fill-rule:nonzero;stroke:none"
             d="m 0,0 c -0.6,-4.4 -1.6,-8.4 -2.9,-12 -1.4,-3.6 -3.2,-6.5 -5.5,-8.7 -2.3,-2.2 -5.1,-3.4 -8.5,-3.4 -2.3,0 -4.2,0.5 -5.6,1.4 -1.4,1 -2.4,1.9 -3.1,3 V 34 c 1,3.2 2.6,5.6 4.8,7.2 2.2,1.6 4.4,2.4 6.7,2.4 0.9,0 2.1,-0.3 3.8,-0.8 1.6,-0.5 3.2,-1.8 4.9,-3.7 1.7,-2 3.1,-5 4.3,-9.1 C 0.1,25.9 0.7,20.3 0.7,13.3 0.8,8.8 0.5,4.5 0,0 m 17.6,47 c -3,3.6 -6.5,6.3 -10.4,8 -3.9,1.7 -8.1,2.5 -12.4,2.5 -4.8,0 -8.8,-0.8 -12.1,-2.4 -3.3,-1.6 -6.1,-3.5 -8.3,-5.9 V 63.6 H -53.2 V -87.8 l 27.7,6.9 v 46.7 c 1.4,-1.8 3.5,-3.4 6.3,-4.7 2.8,-1.3 6.7,-2 11.5,-2 6.8,0 12.5,1.5 17,4.5 4.6,3 8.2,7 10.9,11.8 2.7,4.9 4.6,10.4 5.7,16.5 1.1,6.2 1.6,12.3 1.6,18.5 0,8.6 -0.9,15.9 -2.7,21.9 -1.7,6.2 -4.1,11 -7.2,14.7" /></g><g
           transform="translate(438.4,309.35)"
           id="g28"><path
             id="path30"
             style="fill:#1750a2;fill-opacity:1;fill-rule:nonzero;stroke:none"
             d="m 0,0 c 0.8,4.7 1.9,8.8 3.3,12.3 1.3,3.5 2.9,6.3 4.7,8.4 1.8,2.1 3.8,3.2 6,3.2 1.8,0 3.5,-0.9 5,-2.8 1.6,-1.9 2.3,-5 2.3,-9.5 0,-3.6 -0.6,-6.9 -1.7,-10 -1.1,-3.1 -2.8,-5.8 -4.8,-8.1 -2.1,-2.4 -4.5,-4.3 -7.3,-5.7 -2.8,-1.5 -5.8,-2.3 -9,-2.6 0.1,5.2 0.7,10.1 1.5,14.8 m 109.7,23.3 c -0.8,2 -2,3.8 -3.5,5.5 -1.5,1.7 -3.2,3 -5.2,4 -2,1 -4.2,1.5 -6.6,1.5 -4.1,0 -7.9,-1.3 -11.3,-3.9 -3.5,-2.6 -6.6,-5.6 -9.4,-8.9 V 33.4 H 46 v -63.5 c -1.4,-2 -2.8,-4 -4.3,-5.8 -1.9,-2.4 -4,-4.4 -6.3,-6.2 -2.3,-1.7 -4.9,-3.1 -7.9,-4.1 -3,-1 -6.4,-1.5 -10.2,-1.5 -6.9,0 -11.8,1.8 -14.5,5.5 -2.8,3.6 -4.2,9.8 -4.3,18.4 4.8,0.3 9.4,1.2 13.9,2.8 4.6,1.6 8.6,3.9 12.1,6.9 3.5,3 6.3,6.7 8.5,11.1 2.1,4.3 3.2,9.4 3.2,15.2 0,1 -0.2,2.8 -0.5,5.2 -0.3,2.4 -1.3,4.9 -2.9,7.5 -1.6,2.6 -4.1,4.8 -7.4,6.7 -3.3,1.9 -8.1,2.9 -14.2,2.9 -8.1,0 -14.7,-1.8 -20,-5.4 -5.3,-3.6 -9.4,-8.1 -12.5,-13.5 -3.1,-5.4 -5.2,-11.3 -6.4,-17.6 -1.2,-6.4 -1.8,-12.3 -1.8,-17.8 0,-7.2 0.8,-13.5 2.4,-18.8 -0.4,-0.6 -0.7,-1.2 -1.2,-1.8 -2.5,-3.2 -5.6,-4.8 -9.3,-4.8 -3.7,0 -6.3,0.9 -7.8,2.6 -1.5,1.7 -2.2,5.3 -2.2,10.7 V 33.5 H -75.3 V -34 c 0,-9 2,-16.2 6,-21.6 4,-5.5 10.9,-8.2 20.8,-8.2 2.6,0 5.5,0.4 8.9,1.2 3.3,0.8 6.6,2.4 9.8,4.9 2.7,2.1 5.2,5.1 7.5,8.8 1.1,-1.7 2.2,-3.2 3.6,-4.6 3.4,-3.5 7.4,-6.1 12,-7.8 4.6,-1.7 9.7,-2.5 15.2,-2.5 6.5,0 12.2,1 17.1,3.1 4.9,2.1 9.1,4.7 12.8,8.1 3,2.8 5.6,5.9 7.9,9.2 V -72.1 L 74,-56.3 v 66.7 c 2,2.2 4,4 5.9,5.5 1.9,1.5 3.7,2.2 5.7,2.2 1.8,0 3,-0.6 3.8,-1.9 0.7,-1.3 1.4,-2.7 2,-4.1 0.6,-1.5 1.5,-2.8 2.7,-4.1 1.1,-1.3 3.2,-1.9 6.2,-1.9 4,0 6.8,1.2 8.6,3.6 1.7,2.4 2.6,4.9 2.6,7.8 -0.5,1.8 -1,3.8 -1.8,5.8" /></g><g
           transform="translate(376.3,354.25)"
           id="g32"><path
             id="path34"
             style="fill:#1750a2;fill-opacity:1;fill-rule:nonzero;stroke:none"
             d="m 0,0 c 4.8,0 8.9,1.7 12.3,5 3.4,3.3 5.1,7.4 5.1,12.2 0,4.8 -1.7,8.9 -5.1,12.3 -3.4,3.4 -7.5,5.1 -12.3,5.1 -4.8,0 -8.9,-1.7 -12.2,-5.1 -3.3,-3.4 -5,-7.5 -5,-12.3 0,-4.8 1.7,-8.9 5,-12.2 C -8.8,1.7 -4.8,0 0,0" /></g></g></g></g></svg>