<?xml version="1.0" encoding="UTF-8" standalone="no"?>
<svg
   xmlns:dc="http://purl.org/dc/elements/1.1/"
   xmlns:cc="http://creativecommons.org/ns#"
   xmlns:rdf="http://www.w3.org/1999/02/22-rdf-syntax-ns#"
   xmlns:svg="http://www.w3.org/2000/svg"
   xmlns="http://www.w3.org/2000/svg"
   viewBox="0 0 1066.6667 400"
   height="400"
   width="1066.6667"
   xml:space="preserve"
   id="svg2"
   version="1.1"><metadata
     id="metadata8"><rdf:RDF><cc:Work
         rdf:about=""><dc:format>image/svg+xml</dc:format><dc:type
           rdf:resource="http://purl.org/dc/dcmitype/StillImage" /></cc:Work></rdf:RDF></metadata><defs
     id="defs6"><clipPath
       id="clipPath22"
       clipPathUnits="userSpaceOnUse"><path
         id="path20"
         d="M 0,300 H 800 V 0 H 0 Z" /></clipPath></defs><g
     transform="matrix(1.3333333,0,0,-1.3333333,0,400)"
     id="g10"><g
       transform="translate(70.8105,76.8203)"
       id="g12"><path
         id="path14"
         style="fill:#b03f32;fill-opacity:1;fill-rule:nonzero;stroke:none"
         d="m 0,0 v 160.69 l -57.404,-0.108 v 21.197 H 82.792 v -21.197 l -57.405,0.117 V 0.004 Z" /></g><g
       id="g16"><g
         clip-path="url(#clipPath22)"
         id="g18"><g
           transform="translate(201.2754,139.208)"
           id="g24"><path
             id="path26"
             style="fill:#b03f32;fill-opacity:1;fill-rule:nonzero;stroke:none"
             d="m 0,0 c -19.387,0 -28.815,-6.553 -28.815,-20.032 0,-14.314 8.177,-20.739 24.952,-21.271 14.792,-0.474 36.852,2.857 36.852,2.857 l -0.07,34.691 C 32.919,-3.755 12.033,0 0,0 m -3.863,-62.388 c -33.401,0 -50.339,14.124 -50.339,41.988 0,27.913 17.73,41.481 54.202,41.481 11.263,0 32.919,-5.096 32.919,-5.096 v 13.774 c 0,13.37 -11.449,20.149 -34.038,20.149 -12.375,0 -25.209,-1.812 -38.198,-5.387 l -1.617,20.715 c 13.518,3.825 26.903,5.76 39.815,5.76 39.433,0 59.425,-14.505 59.425,-43.11 v -82.443 c -7.423,-1.464 -35.702,-7.831 -62.169,-7.831" /></g><g
           transform="translate(347.665,188.6182)"
           id="g28"><path
             id="path30"
             style="fill:#b03f32;fill-opacity:1;fill-rule:nonzero;stroke:none"
             d="m 0,0 c -26.887,0 -40.511,-14.839 -40.511,-44.113 0,-30.094 12.878,-45.357 38.265,-45.357 10.805,0 30.317,2.243 30.317,2.243 V -4.633 C 28.071,-4.633 10.136,0 0,0 m -7.843,-159.218 c -15.406,0 -29.319,1.928 -41.413,5.725 l 1.796,20.657 c 11.845,-3.518 25.245,-5.301 39.866,-5.301 24.005,0 35.665,9.009 35.665,27.517 v 1.072 c 0,0 -20.873,-2.25 -30.434,-2.25 -41.911,0 -63.162,22.686 -63.162,67.437 0,43.758 22.378,66.04 66.52,65.947 20.414,-0.047 44.504,-6.732 52.465,-7.836 v -124.37 c 0,-32.247 -20.624,-48.598 -61.303,-48.598" /></g><g
           transform="translate(487.8945,98.6123)"
           id="g32"><path
             id="path34"
             style="fill:#b03f32;fill-opacity:1;fill-rule:nonzero;stroke:none"
             d="m 0,0 c -4.516,-0.463 -8.993,-0.703 -13.408,-0.707 v -0.004 h -2.627 c -9.841,0 -14.63,5.608 -14.63,17.159 v 74.055 h 30.309 v 21.084 l -30.573,-0.004 v 25.94 l -25.115,0.07 V 14.699 c 0,-24.209 11.45,-36.491 34.039,-36.491 h 8.597 c 4.959,0.004 10.229,0.331 15.313,0.901 z" /></g><g
           transform="translate(720.8799,102.3359)"
           id="g36"><path
             id="path38"
             style="fill:#b03f32;fill-opacity:1;fill-rule:nonzero;stroke:none"
             d="m 0,0 c -22.231,0 -40.257,18.068 -40.257,40.362 0,22.293 18.026,40.362 40.257,40.362 22.239,0 40.265,-18.069 40.265,-40.362 C 40.265,18.068 22.239,0 0,0 m 0,106.243 c -36.285,0 -65.706,-29.495 -65.706,-65.881 0,-36.386 29.421,-65.878 65.706,-65.878 36.293,0 65.714,29.492 65.714,65.878 0,36.386 -29.421,65.881 -65.714,65.881" /></g><g
           transform="translate(628.8145,224.4751)"
           id="g40"><path
             id="path42"
             style="fill:#b03f32;fill-opacity:1;fill-rule:nonzero;stroke:none"
             d="m 0,0 c 2.791,-1.962 3.521,-5.732 1.641,-8.418 l -52.788,-75.337 c -1.881,-2.69 -5.674,-3.277 -8.457,-1.31 -2.791,1.959 -3.522,5.732 -1.641,8.422 L -8.457,-1.31 C -6.568,1.376 -2.791,1.967 0,0" /></g><g
           transform="translate(620.9404,222.062)"
           id="g44"><path
             id="path46"
             style="fill:#b03f32;fill-opacity:1;fill-rule:nonzero;stroke:none"
             d="M 0,0 -17.179,-24.513 -24.75,-7.603 -7.571,16.91 Z" /></g><g
           transform="translate(630.4785,190.3086)"
           id="g48"><path
             id="path50"
             style="fill:#b03f32;fill-opacity:1;fill-rule:nonzero;stroke:none"
             d="M 0,0 17.178,24.509 -1.252,25.916 -18.431,1.407 Z" /></g><g
           transform="translate(647.6562,214.8174)"
           id="g52"><path
             id="path54"
             style="fill:#b03f32;fill-opacity:1;fill-rule:nonzero;stroke:none"
             d="m 0,0 -17.163,1.31 c 1.827,2.681 1.089,6.401 -1.679,8.348 -2.759,1.947 -6.498,1.384 -8.402,-1.247 l -7.043,15.744 -17.179,-24.513 7.05,-15.728 -35.671,-50.899 c -1.881,-2.69 -1.149,-6.463 1.641,-8.422 2.783,-1.967 6.576,-1.38 8.457,1.309 l 35.663,50.899 17.148,-1.31 z" /></g><g
           transform="translate(538.918,142.6982)"
           id="g56"><path
             id="path58"
             style="fill:#b03f32;fill-opacity:1;fill-rule:nonzero;stroke:none"
             d="m 0,0 c 0,-18.116 14.645,-32.807 32.717,-32.807 18.065,0 32.718,14.691 32.718,32.807 0,6.393 -1.859,12.347 -5.014,17.392 L 51.179,4.193 C 51.481,2.841 51.652,1.441 51.652,0 c 0,-10.486 -8.48,-18.99 -18.935,-18.99 -10.454,0 -18.936,8.504 -18.936,18.99 0,9.572 7.074,17.47 16.27,18.776 l 9.336,13.338 c -2.154,0.448 -4.376,0.689 -6.67,0.689 C 14.645,32.803 0,18.115 0,0" /></g><g
           transform="translate(607.7256,172.5005)"
           id="g60"><path
             id="path62"
             style="fill:#b03f32;fill-opacity:1;fill-rule:nonzero;stroke:none"
             d="m 0,0 c 6.67,-8.104 10.681,-18.481 10.681,-29.802 0,-25.905 -20.941,-46.896 -46.772,-46.896 -25.838,0 -46.786,20.991 -46.786,46.896 0,25.9 20.948,46.899 46.786,46.899 5.449,0 10.681,-0.949 15.539,-2.667 l 8.761,12.5 -2.41,5.387 c -6.849,2.425 -14.209,3.762 -21.89,3.762 -36.292,0 -65.714,-29.496 -65.714,-65.881 0,-36.387 29.422,-65.878 65.714,-65.878 36.293,0 65.715,29.491 65.715,65.878 0,15.884 -5.62,30.443 -14.964,41.815 l -5.915,0.451 z" /></g></g></g></g></svg>