<svg width="390" height="360" xmlns="http://www.w3.org/2000/svg">

 <g>
  <title>background</title>
  <rect fill="none" id="canvas_background" height="362" width="392" y="-1" x="-1"/>
 </g>
 <g>
  <title>Layer 1</title>
  <path fill="#13609a" id="svg_2" d="m330.619234,269.34181l0,2.7c-0.9,4.5 -6.7,8.1 -11.7,9.5c9.4,-10.3 -1.4,-13 -8.5,-15.3c-6.7,-2.3 -10.8,-0.5 -15.7,0.5c3.6,-0.5 10.8,0.4 13.9,5.4c3.1,4.5 -1.8,8.1 -7.6,13.5c5.4,-8.5 -2.2,-13.5 -12.6,-11.7c-10.3,1.8 -15.3,5 -20.7,10.8c-1.4,-6.7 -4.9,-9.4 -17.5,-10.8c-4,-0.4 -18.4,-0.4 -37.3,-0.4c-12.6,0 -26.5,0 -40.9,0.4c-18,0 -35.9,0 -49.8,-0.4c-6.8,0 -12.6,0 -17.1,-0.5c-2.7,0 -4.9,0 -6.3,0c-18.9,-2.2 -27.4,1.4 -31,9.4c4.1,-20.7 7.2,-20.7 22.5,-40.4c3.6,-4.5 9,-10.3 14.8,-16.2c5.4,-5.4 11.2,-11.2 17.1,-17.5c14.8,-14.4 29.6,-29.6 36.4,-40.9c8.1,-14.4 11.7,-26.1 13.5,-35.5c0.9,-4.9 1.4,-9 1.8,-13c2.2,8.1 8.1,22.9 -1.8,51.7c-1.8,5.8 -4.5,12.1 -7.6,18.8c-4.1,7.6 -12.1,17.5 -16.6,23.4c-9.5,12 -18,20.6 -25.7,27.3c-6.8,5.8 -12.6,10.3 -17.1,13.9c-1.3,1.4 -2.2,2.3 -3.6,3.2c1.4,0.4 2.2,0.4 3.6,0.9c5.8,1.8 11.7,3.1 17.1,3.6c17.5,2.2 34.6,-0.9 49.8,-8.5c1.8,-0.9 3.6,-1.8 5.4,-2.7c12.1,6.3 24.3,9.9 35.5,11.2c21.1,3.1 38.6,0 45.8,-0.9c10.8,-1.4 18,-8.1 22.9,-11.7c4.9,-3.6 18.4,-7.2 27.4,-7.6c9,-0.5 13.9,0.9 13.5,5.8c0,4.9 -5.8,7.6 -7.2,7.6c1.3,-2.7 1.3,-3.6 -0.5,-5.8c-1.8,-2.2 -13,-0.9 -16.6,0.5c-3.1,1.3 -5.4,3.1 -7.6,6.7c3.6,1.8 6.7,-2.3 24.7,2.7c10.4,3.1 14.9,6.7 15.3,10.3z" class="st0"/>
  <polygon fill="#13609a" id="svg_3" points="330.4192371368408,302.24180603027344 330.21922492980957,306.24180603027344 313.9192066192627,314.24180603027344 308.9192066192627,314.24180603027344 308.3192310333252,313.0418243408203 " class="st0"/>
  <path fill="#13609a" id="svg_4" d="m330.119234,288.74181l0.1,3.7l-30.7,15.1l0.1,2.8l30.3,-15l0.1,3.7l-30.7,15.1l0,3.2l8.8,-4.3l0.6,1.2l1.9,1.5l-11.3,5.5l0,3.2l13.8,-6.9l4.2,1.7l-18,9l-0.1,3l21.4,-10.3l9.3,4.4l0,25.2l-28.7,0c-1.4,0 -2.7,0 -3.6,0c-17.5,0 -31.4,-13.9 -31.4,-31c0,-16.6 13,-30.5 29.2,-31.4l29.5,0l-25.6,12.6l0,3.1l30.8,-15.1z" class="st0"/>
  <path fill="#13609a" id="svg_5" d="m290.219234,41.14181c4,-0.9 15.3,-5.8 23.8,-5.8c-14.4,6.3 -27.8,14.8 -51.2,26.9c-23.8,12.1 -38.2,11.2 -39.5,12.1c-2.2,4.5 -3.1,9.4 -8.1,10.8c3.6,4 7.6,6.3 13.9,6.3c6.3,0 12.1,-2.3 15.3,-4.1c-1.3,4.1 -2.7,8.1 -5.4,11.2c-3.1,3.1 -9.4,8.1 -12.1,9.4c3.1,2.7 7.6,4.5 15.3,5.4c7.2,1.4 13.5,-1.8 18.4,-3.2c-2.7,5.4 -5.4,10.8 -13.5,15.7c-8.5,4.5 -9.4,2.7 -11.7,3.6c4.1,9.5 25.6,17.5 29.6,18.4c4,0.9 10.3,1.8 10.3,1.8s-10.3,9.4 -23.8,7.6c-9.7,-1 -11.7,-1.5 -12.1,-1.7c0,-0.1 0,-0.1 0,-0.1s-0.1,0 0,0.1c0.4,1.2 4,11.1 10.3,17.4c6.7,6.7 15.7,13.9 15.7,13.9s-13.5,2.7 -28.7,-3.6c2.2,7.2 5.8,12.6 5.8,21.1c0.4,9 -1.4,12.6 -3.1,18.4c-1.8,-5.8 -5.4,-13 -8.5,-13.5c-4.5,4.9 -10.8,12.1 -18,18.4c-8.1,7.2 -18,13.9 -26.5,14.4c9,-7.6 18.4,-15.3 26.5,-30.5c3.1,-5.8 5.8,-13 8.1,-21.1c8.1,-31 0.9,-63.8 -4.9,-77.2c-0.9,-2.2 -1.8,-4.5 -3.1,-6.7c-5.8,-11.7 -12.6,-22 -12.6,-22s-6.3,12.1 -13.5,12.6c-7.2,0.4 -13.9,0.9 -13.9,0.9s5.4,5.8 13.9,4.5c8.5,-1.8 9,-4.9 9.4,-3.6l4.5,7.6c0,0 -19.8,2.7 -28.7,4.9c-0.9,0 -1.8,0.5 -2.7,0.5c-6.7,2.2 -19.8,7.6 -29.2,13c-9,5.4 -11.7,6.3 -13.9,5.8c-2.2,-0.9 -4.9,-4.5 -2.7,-7.6c2.2,-3.1 4.1,-1.8 4.1,-1.8l0.9,-7.2l4.1,4.9l-0.5,-6.7l4.5,4.9l3.6,-3.1c0,0 7.6,2.2 11.2,-0.5c3.6,-2.2 8.1,-7.6 6.3,-10.3c-1.8,-2.7 -3.2,-3.6 -14.8,-3.6c-12.1,0 -11.2,2.7 -11.2,2.7l-0.9,5.8l-4.1,-4.9l0,7.2l-4.6,-5.1l-0.5,-0.5c0,0 -6.7,1.8 -9,-0.4c-2.3,-2.2 0,-10.3 4,-11.2c2.7,-0.5 3.6,-1.8 5.4,-2.7c0.9,-0.5 2.2,-1.4 3.6,-1.8c4.5,-1.8 8.1,-4.9 11.2,-5.9c0,0 -2.2,-4.9 3.1,-8.5c4.9,-4 6.7,-4 9.9,-5.4c2.3,-3.1 0.9,-8.5 14.4,-13.5c2.2,-0.9 4.9,-1.4 7.6,-1.8c4,-0.5 8.1,-0.5 11.2,-1.4c5.4,-0.9 8.5,-0.9 9.9,-2.7c2.7,-4.5 3.6,-6.7 12.1,-16.6c2.7,-2.7 5.4,-5.8 7.6,-8.5c5.2,-5.7 8.8,-10.1 9,-10.3l-9,23.3c17.1,-4.5 30.1,-9.4 58.8,-26.5c-4.5,6.3 -25.1,22 -32.3,25.2c-7.2,3.6 -16.6,10.3 -25.2,12.1c-0.5,1.8 -0.9,3.1 -1.3,4.9c-2.2,5.4 -5.4,8.5 -9,12.1l9,-1.8l4.5,-0.9c0,0 9.4,-8.5 14.8,-11.7c5.4,-3.2 14.8,-11.2 18.9,-13c-1.3,4.1 -13,17.1 -18.4,25.2c10.5,-0.4 53.7,-21.1 57.7,-22zm-115.9,31.9c2.7,-1.8 2.7,-5.4 2.7,-5.4s-0.5,-0.5 -4.9,0.4l-0.5,0c-4.9,1.4 -4.5,4.1 -4,4.9c0.4,0.9 2.2,1.4 4.5,0.9c0.9,0.1 1.3,-0.3 2.2,-0.8z" class="st0"/>
  <path fill="#13609a" id="svg_6" d="m263.319234,304.34181c0,6.7 -4.1,13 -10.3,15.7c6.3,2.2 10.3,8.1 10.3,14.8c0,8.5 -7.2,15.7 -15.7,15.7c-0.9,0 -1.8,0 -2.7,-0.4l-31.9,0l-10.3,0l0,-35.5l31.9,16.2l-0.5,-3.4l-31.4,-16.2l0.1,-3.6l32.3,16.2l-0.4,-3.2l-31.9,-16.2l0,-3.4l32.3,16.2l-0.5,-3.1l-31.9,-16.2l0.1,-3.6l32.3,16.6l-0.5,-3.7l-31.9,-15.7l-0.1,-3.9l32.3,16.2l-0.4,-3.1l-21.6,-11.2l-4,-1.8l4,0l30.5,0c0.9,-0.5 1.8,-0.5 3.1,-0.5c0.9,0 1.8,0 2.7,0.5c8.2,1.4 14.1,8.1 14.1,16.6z" class="st0"/>
  <polygon fill="#13609a" id="svg_7" points="199.91923713684082,346.1417999267578 199.91923713684082,349.74180603027344 172.11921882629395,349.74180603027344 135.71924018859863,349.74180603027344 135.71924018859863,346.1417999267578 172.11921882629395,346.1417999267578 " class="st0"/>
  <polygon fill="#13609a" id="svg_8" points="199.91923713684082,339.6417999267578 199.91923713684082,343.24180603027344 172.11921882629395,343.24180603027344 135.71924018859863,343.24180603027344 135.71924018859863,339.6417999267578 172.11921882629395,339.6417999267578 " class="st0"/>
  <polygon fill="#13609a" id="svg_9" points="199.91923713684082,332.84181213378906 199.91923713684082,336.4418182373047 172.11921882629395,336.4418182373047 135.71924018859863,336.4418182373047 135.71924018859863,332.84181213378906 172.11921882629395,332.84181213378906 " class="st0"/>
  <polygon fill="#13609a" id="svg_10" points="199.91923713684082,326.34181213378906 199.91923713684082,329.9418182373047 172.11921882629395,329.9418182373047 135.71924018859863,329.9418182373047 135.71924018859863,326.34181213378906 172.11921882629395,326.34181213378906 " class="st0"/>
  <polygon fill="#13609a" id="svg_11" points="199.91923713684082,319.6417999267578 199.91923713684082,323.24180603027344 172.11921882629395,323.24180603027344 135.71924018859863,323.24180603027344 135.71924018859863,286.84181213378906 167.619234085083,286.84181213378906 167.619234085083,319.6417999267578 172.11921882629395,319.6417999267578 " class="st0"/>
  <rect fill="#13609a" id="svg_12" height="3.6" width="10.3" class="st0" y="313.74181" x="122.219234"/>
  <polygon fill="#13609a" id="svg_13" points="132.619234085083,307.1417999267578 132.619234085083,310.6417999267578 122.21922492980957,310.6417999267578 105.2192325592041,310.6417999267578 67.51923561096191,310.6417999267578 67.51923561096191,307.1417999267578 105.2192325592041,307.1417999267578 122.21922492980957,307.1417999267578 " class="st0"/>
  <polygon fill="#13609a" id="svg_14" points="132.619234085083,300.34181213378906 132.619234085083,303.9418182373047 122.21922492980957,303.9418182373047 105.2192325592041,303.9418182373047 67.51923561096191,303.9418182373047 67.51923561096191,300.34181213378906 105.2192325592041,300.34181213378906 122.21922492980957,300.34181213378906 " class="st0"/>
  <polygon fill="#13609a" id="svg_15" points="132.619234085083,293.5418243408203 132.619234085083,297.1417999267578 122.21922492980957,297.1417999267578 105.2192325592041,297.1417999267578 67.51923561096191,297.1417999267578 67.51923561096191,293.5418243408203 105.2192325592041,293.5418243408203 122.21922492980957,293.5418243408203 " class="st0"/>
  <polygon fill="#13609a" id="svg_16" points="132.619234085083,286.84181213378906 132.619234085083,290.4418182373047 122.21922492980957,290.4418182373047 105.2192325592041,290.4418182373047 67.51923561096191,290.4418182373047 67.51923561096191,286.84181213378906 105.2192325592041,286.84181213378906 122.21922492980957,286.84181213378906 " class="st0"/>
  <path fill="#13609a" id="svg_17" d="m131.119234,110.74181c1.1,-0.2 1.9,-0.4 1.9,-0.4s-1.8,0.6 -4.3,1.6c-1.9,0.8 -4.3,1.8 -6.4,2.9c-0.5,0.4 -0.9,0.9 -1.4,1.3c-5.4,3.6 -7.6,7.2 -14.8,16.2c-0.4,0.4 -0.4,0.9 -0.9,0.9c-7.2,8.5 -13.5,9 -18.9,10.8c-3.1,1.2 -7.2,1 -8.6,1.2c2.1,-0.7 11.5,-4.2 17.1,-9.7c4,-3.6 7.2,-7.6 10.3,-10.8c1.8,-2.2 3.6,-4 5.4,-5.8c4.1,-3.6 8.5,-5.8 11.7,-6.7c1.3,-0.5 2.2,-0.5 2.7,-0.5c0.6,-0.1 1.2,-0.2 1.9,-0.3c1.6,-0.2 3.2,-0.5 4.3,-0.7z" class="st0"/>
  <polygon fill="#13609a" id="svg_18" points="122.21922492980957,313.74180603027344 122.21922492980957,317.34181213378906 116.41923713684082,317.34181213378906 116.41923713684082,349.74180603027344 105.2192325592041,349.74180603027344 83.21924018859863,349.74180603027344 83.21924018859863,317.34181213378906 67.51923561096191,317.34181213378906 67.51923561096191,313.74180603027344 105.2192325592041,313.74180603027344 " class="st0"/>
 </g>
</svg>