<?xml version="1.0" encoding="utf-8"?>
<!-- Generator: Adobe Illustrator 18.0.0, SVG Export Plug-In . SVG Version: 6.00 Build 0)  -->
<!DOCTYPE svg PUBLIC "-//W3C//DTD SVG 1.1//EN" "http://www.w3.org/Graphics/SVG/1.1/DTD/svg11.dtd">
<svg version="1.1" id="圖層_1" xmlns="http://www.w3.org/2000/svg" xmlns:xlink="http://www.w3.org/1999/xlink" x="0px" y="0px"
	 viewBox="0 0 613.6 159.8" style="enable-background:new 0 0 613.6 159.8;" xml:space="preserve">
<style type="text/css">
	.st0{fill:#DD2726;}
</style>
<g>
	<g id="text_170_">
		<path class="st0" d="M0,121.1v-10c5.6,2.2,10.9,3.3,15.9,3.3c5.5,0,9.9-1.6,13-4.9c3.2-3.3,4.8-7.8,4.8-13.5
			c0-12.6-8.7-18.9-26.1-18.9c-2,0-4.1,0.1-6.2,0.4V36.7H44v9.8H11.3v22.2c10.8,0,19.2,2.5,25.3,7.4c6.1,5,9.1,11.8,9.1,20.6
			c0,8.2-2.8,14.6-8.3,19.2c-5.5,4.7-13.2,7-22.9,7C10.2,122.9,5.4,122.3,0,121.1z"/>
		<path class="st0" d="M107.5,97.7H95.7l-7.2-10.2l-7.2,10.2H69.4l13.1-18.7L69.7,60.9h11.7l7,9.9l7-9.9h11.9l-13,18.3L107.5,97.7z"
			/>
		<path class="st0" d="M142.9,78.7c2.5,2.5,4.2,4.9,5.1,7.2c0.9,2.3,1.3,5.4,1.3,9.5v26.2l0.1,3.1c0,4,0.4,6.5,1.3,7.5
			c1,1.1,3.1,1.6,6.3,1.6h1.1h2.5v11.8h-4.6c-6.7,0.1-11.7-1.8-14.8-5.6c-3.1-3.8-4.7-9.9-4.7-18.1V95.8c0-3.5-0.5-6.1-1.4-7.6
			c-0.9-1.6-2.6-2.7-4.9-3.3c-0.2-0.1-0.4-0.1-0.6-0.2c-0.2,0-0.3-0.1-0.5-0.1l-0.7-0.2V72.2c0.4-0.5,1-0.8,1.8-1
			c4.2-0.8,6.3-4.2,6.3-10.2V33.1c0-14.6,6.3-21.9,18.9-21.9l3,0.1c1,0,1.8,0.2,2.4,0.6v11.8h-3.7c-3.3,0-5.4,0.7-6.3,2
			c-0.8,1.4-1.3,4.6-1.3,9.8v26.6c0,2.1-0.1,3.9-0.3,5.5c-0.2,1.6-0.6,3.1-1.1,4.4c-0.5,1.3-1.2,2.5-2,3.6
			C145,76.7,144,77.8,142.9,78.7z"/>
		<path class="st0" d="M453.2,72.1h12.7v12.7h-12.7V72.1z"/>
		<path class="st0" d="M510.8,114.8c-5.7,0-10.1-1.6-13.3-4.9c-3.2-3.3-4.8-7.8-4.8-13.6V60.1H485v-8.4h7.7V40.4l11.2-1.1v12.3h16.2
			v8.4h-16.2v34.2c0,8.1,3.5,12.1,10.5,12.1c1.5,0,3.3-0.2,5.4-0.7v7.7C516.4,114.3,513.4,114.8,510.8,114.8z"/>
		<path class="st0" d="M543,113.4l-17.7-61.7h11l13.5,47.8l14.6-47.8h11.2l12.8,47.8l15.5-47.8h9.6l-20.1,61.7h-11.3l-13.1-47.8
			l-14.8,47.8H543z"/>
		<path class="st0" d="M416.5,78.4c-2.4-2.6-4.2-5-5.1-7.3c-0.8-2.5-1.3-5.7-1.3-9.5V35.4l-0.1-3.1c0-3.9-0.5-6.4-1.4-7.5
			c-0.9-1.1-3-1.7-6.2-1.7h-1.1h-2.4V11.3h4.6c6.7-0.1,11.7,1.8,14.8,5.6c3.1,3.8,4.7,9.9,4.7,18.1v26.2c0,3.6,0.5,6.2,1.3,7.7
			c0.9,1.6,2.6,2.6,5,3.2c0.2,0.1,0.4,0.2,0.6,0.2c0.2,0,0.3,0.1,0.5,0.1l0.8,0.2v12.1c-0.4,0.5-1,0.9-1.8,1
			c-4.2,0.8-6.3,4.2-6.3,10.2v27.8c0,14.6-6.3,21.9-18.9,21.9l-3-0.1c-1,0-1.7-0.2-2.3-0.6v-11.8h3.7c3.3,0,5.5-0.7,6.3-2
			c0.9-1.3,1.3-4.6,1.3-9.8V95c0-4.3,0.5-7.6,1.4-9.9C412.5,82.7,414.1,80.4,416.5,78.4z"/>
	</g>
	<g id="ruby_170_">
		<polygon class="st0" points="282.6,83.5 282.6,159.8 333.5,76.2 		"/>
		<polygon class="st0" points="283.9,78 333.9,70.9 301.8,28 		"/>
		<polygon class="st0" points="348.8,12.5 341.6,69.4 384.4,58.7 		"/>
		<polygon class="st0" points="336.8,66.2 343.9,9.8 305.1,23.9 		"/>
		<polygon class="st0" points="219.8,75.1 179.7,65.1 266.6,152 		"/>
		<polygon class="st0" points="277.4,83.5 226.5,76.2 277.4,159.8 		"/>
		<polygon class="st0" points="340.3,75.1 293.5,152 380.4,65.1 		"/>
		<path class="st0" d="M222,6.4L259.6,20h40.9l37.6-13.7C326.9,3.9,305.3,0,280,0C254.8,0,233.2,3.9,222,6.4z"/>
		<polygon class="st0" points="280,73.5 297.3,25.2 262.8,25.2 		"/>
		<polygon class="st0" points="276.2,78 258.3,28 226.1,70.9 		"/>
		<polygon class="st0" points="218.4,69.4 211.3,12.5 175.7,58.7 		"/>
		<polygon class="st0" points="223.2,66.2 254.9,23.9 216.2,9.8 		"/>
	</g>
</g>
</svg>
