<?xml version="1.0" encoding="iso-8859-1"?>
<!-- Generator: Adobe Illustrator 23.0.4, SVG Export Plug-In . SVG Version: 6.00 Build 0)  -->
<svg version="1.1" id="&#x5716;&#x5C64;_1" xmlns="http://www.w3.org/2000/svg" xmlns:xlink="http://www.w3.org/1999/xlink" x="0px"
	 y="0px" viewBox="0 0 349 98" style="enable-background:new 0 0 349 98;" xml:space="preserve">
<g>
	<path style="fill:#B5B5B6;" d="M7.147,53.909l11.754-1.1c0.733,3.946,2.163,6.855,4.329,8.718c2.176,1.846,5.109,2.766,8.8,2.766
		c3.904,0,6.845-0.838,8.843-2.471c1.978-1.678,2.958-3.589,2.958-5.782c0-1.416-0.42-2.656-1.243-3.646
		c-0.835-0.978-2.286-1.866-4.354-2.568c-1.425-0.545-4.652-1.411-9.688-2.688c-6.495-1.603-11.049-3.604-13.642-5.952
		c-3.684-3.341-5.529-7.405-5.529-12.171c0-3.069,0.848-5.967,2.608-8.608c1.723-2.683,4.236-4.729,7.508-6.144
		c3.268-1.365,7.18-2.076,11.836-2.076c7.525,0,13.192,1.666,17.016,4.976c3.814,3.376,5.799,7.798,5.987,13.359l-12.169,0.405
		c-0.543-3.031-1.618-5.267-3.341-6.639c-1.693-1.358-4.251-2.036-7.635-2.036c-3.514,0-6.272,0.72-8.253,2.198
		c-1.295,0.94-1.933,2.158-1.933,3.711c0,1.445,0.593,2.638,1.803,3.659c1.516,1.315,5.239,2.656,11.129,4.034
		c5.899,1.4,10.248,2.853,13.059,4.356c2.828,1.503,5.042,3.554,6.642,6.16c1.578,2.551,2.401,5.814,2.401,9.633
		c0,3.454-0.965,6.717-2.878,9.716c-1.911,3.003-4.622,5.274-8.12,6.747c-3.501,1.436-7.858,2.203-13.082,2.203
		c-7.603,0-13.454-1.778-17.523-5.327C10.365,65.806,7.935,60.656,7.147,53.909z"/>
	<path style="fill:#B5B5B6;" d="M54.492,29.821h12.207l10.429,31.043l10.163-31.043h11.896L83.894,71.863l-2.798,7.673
		c-1.013,2.553-1.968,4.494-2.881,5.837c-0.91,1.37-1.968,2.468-3.153,3.294c-1.211,0.815-2.666,1.473-4.374,1.941
		c-1.746,0.47-3.699,0.735-5.89,0.735c-2.203,0-4.381-0.265-6.525-0.735l-0.95-9.083c1.783,0.383,3.411,0.565,4.854,0.565
		c2.658,0,4.632-0.785,5.907-2.351c1.285-1.601,2.266-3.631,2.946-6.067L54.492,29.821z"/>
	<path style="fill:#B5B5B6;" d="M139.208,73.555h-11.491V51.291c0-4.684-0.238-7.71-0.75-9.106c-0.503-1.38-1.28-2.458-2.413-3.226
		c-1.11-0.76-2.476-1.145-4.031-1.145c-2.021,0-3.811,0.555-5.429,1.658c-1.613,1.09-2.698,2.531-3.291,4.304
		c-0.583,1.828-0.893,5.144-0.893,10.043v19.736H99.442V29.821h10.621v6.407c3.821-4.842,8.628-7.237,14.415-7.237
		c2.569,0,4.899,0.475,7.02,1.355c2.116,0.943,3.734,2.083,4.802,3.526c1.076,1.428,1.831,3.041,2.263,4.834
		c0.425,1.776,0.645,4.396,0.645,7.75V73.555z"/>
	<path style="fill:#B5B5B6;" d="M139.273,51.228c0-3.879,0.958-7.558,2.848-11.174c1.888-3.584,4.569-6.33,8.043-8.235
		c3.471-1.901,7.347-2.828,11.621-2.828c6.625,0,12.031,2.143,16.245,6.442c4.229,4.294,6.35,9.723,6.35,16.27
		c0,6.615-2.141,12.074-6.404,16.433c-4.262,4.329-9.643,6.532-16.115,6.532c-3.996,0-7.81-0.925-11.456-2.731
		c-3.636-1.813-6.395-4.464-8.283-7.975C140.23,60.486,139.273,56.237,139.273,51.228z M151.042,51.808
		c0,4.366,1.02,7.7,3.098,9.966c2.066,2.331,4.602,3.494,7.633,3.494c3.036,0,5.574-1.163,7.637-3.494
		c2.033-2.266,3.054-5.639,3.054-10.023c0-4.317-1.02-7.615-3.054-9.903c-2.063-2.288-4.601-3.479-7.637-3.479
		c-3.031,0-5.567,1.19-7.633,3.479C152.062,44.136,151.042,47.469,151.042,51.808z"/>
	<path d="M198.49,7.406V63.86c0,2.691,0.2,4.476,0.573,5.324c0.395,0.895,0.985,1.553,1.783,1.998
		c0.818,0.445,2.321,0.68,4.501,0.68v1.693h-20.864v-1.693c1.955,0,3.286-0.198,4.031-0.628c0.69-0.42,1.25-1.055,1.658-2.003
		c0.405-0.923,0.587-2.713,0.587-5.372V25.335c0-4.844-0.092-7.812-0.302-8.93c-0.198-1.11-0.548-1.858-1.01-2.253
		c-0.475-0.415-1.063-0.65-1.781-0.65c-0.778,0-1.781,0.285-2.978,0.76l-0.788-1.656l12.524-5.199H198.49z"/>
	<path d="M226.051,29.686c6.472,0,11.649,2.451,15.568,7.352c3.319,4.171,4.979,8.97,4.979,14.385c0,3.829-0.9,7.683-2.736,11.569
		c-1.841,3.899-4.351,6.845-7.583,8.825c-3.218,1.983-6.777,2.973-10.721,2.973c-6.449,0-11.556-2.558-15.337-7.652
		c-3.194-4.299-4.799-9.133-4.799-14.507c0-3.909,0.968-7.76,2.899-11.601c1.961-3.886,4.506-6.705,7.683-8.6
		C219.164,30.616,222.515,29.686,226.051,29.686z M224.623,32.815c-1.651,0-3.294,0.428-4.954,1.43
		c-1.658,0.983-3.008,2.668-4.031,5.087c-1.02,2.471-1.535,5.589-1.535,9.421c0,6.192,1.253,11.471,3.699,15.988
		c2.476,4.444,5.712,6.71,9.738,6.71c3.028,0,5.499-1.266,7.437-3.714c1.963-2.468,2.946-6.71,2.946-12.747
		c0-7.555-1.633-13.449-4.884-17.791C230.83,34.25,228.029,32.815,224.623,32.815z"/>
	<path d="M255.933,57.943c-2.588-1.32-4.554-3.056-5.962-5.327c-1.375-2.303-2.068-4.794-2.068-7.53
		c0-4.216,1.563-7.857,4.727-10.841c3.169-3.033,7.24-4.559,12.179-4.559c4.046,0,7.545,0.955,10.516,2.946h9.001
		c1.34,0,2.105,0.037,2.341,0.12c0.198,0.098,0.335,0.235,0.445,0.39c0.175,0.29,0.288,0.783,0.288,1.488
		c0,0.808-0.09,1.408-0.245,1.688c-0.095,0.153-0.25,0.303-0.488,0.36c-0.235,0.095-1,0.135-2.353,0.135h-5.549
		c1.761,2.238,2.631,5.104,2.631,8.583c0,3.956-1.543,7.368-4.554,10.171c-3.034,2.823-7.1,4.249-12.171,4.249
		c-2.108,0-4.256-0.308-6.46-0.998c-1.298,1.22-2.178,2.236-2.613,3.119c-0.47,0.903-0.703,1.643-0.703,2.238
		c0,0.565,0.25,1.055,0.775,1.581c0.495,0.478,1.508,0.84,2.994,1.043c0.84,0.163,3.028,0.278,6.479,0.38
		c6.362,0.197,10.496,0.443,12.359,0.76c2.878,0.397,5.187,1.485,6.9,3.186c1.71,1.723,2.571,3.824,2.571,6.337
		c0,3.451-1.648,6.737-4.922,9.781c-4.792,4.471-11.076,6.71-18.821,6.71c-5.954,0-10.986-1.308-15.095-3.999
		c-2.316-1.553-3.461-3.141-3.461-4.824c0-0.71,0.173-1.476,0.488-2.218c0.515-1.16,1.581-2.691,3.181-4.734
		c0.21-0.3,1.778-1.958,4.636-4.999c-1.593-0.998-2.731-1.841-3.383-2.628c-0.66-0.755-0.998-1.633-0.998-2.586
		c0-1.103,0.433-2.368,1.293-3.819C250.772,62.664,252.795,60.579,255.933,57.943z M255.551,73.555
		c-1.415,1.531-2.471,3.008-3.206,4.394c-0.738,1.293-1.078,2.566-1.078,3.674c0,1.525,0.878,2.796,2.671,3.901
		c3.096,1.891,7.568,2.876,13.4,2.876c5.559,0,9.646-0.985,12.304-2.933c2.656-1.941,3.966-4.014,3.966-6.225
		c0-1.571-0.788-2.713-2.373-3.394c-1.615-0.688-4.796-1.08-9.595-1.18C264.669,74.463,259.294,74.056,255.551,73.555z
		 M264.034,32.037c-2.288,0-4.174,0.95-5.729,2.771c-1.533,1.813-2.296,4.534-2.296,8.303c0,4.852,1.048,8.615,3.136,11.304
		c1.611,2.023,3.624,3.038,6.07,3.038c2.346,0,4.279-0.898,5.769-2.651c1.508-1.753,2.253-4.489,2.253-8.223
		c0-4.909-1.043-8.72-3.164-11.484C268.478,33.087,266.485,32.037,264.034,32.037z"/>
	<path d="M288.714,30.926h19.914v1.706h-0.96c-1.405,0-2.451,0.325-3.151,0.9c-0.695,0.623-1.033,1.371-1.033,2.251
		c0,1.23,0.493,2.889,1.538,5.022l10.381,21.542l9.503-23.538c0.525-1.293,0.785-2.533,0.785-3.821c0-0.545-0.128-0.955-0.323-1.225
		c-0.25-0.33-0.643-0.628-1.168-0.805c-0.518-0.205-1.458-0.325-2.771-0.325v-1.706h13.775v1.706
		c-1.145,0.12-2.038,0.385-2.651,0.748c-0.635,0.383-1.308,1.063-2.046,2.058c-0.282,0.455-0.835,1.618-1.593,3.574l-17.258,42.456
		c-1.68,4.146-3.881,7.235-6.615,9.343c-2.726,2.128-5.349,3.141-7.878,3.141c-1.836,0-3.339-0.488-4.537-1.576
		c-1.178-1.035-1.768-2.238-1.768-3.621c0-1.283,0.428-2.291,1.283-3.099c0.855-0.823,2.053-1.183,3.539-1.183
		c1.033,0,2.451,0.333,4.222,0.993c1.238,0.425,2.031,0.695,2.348,0.695c0.935,0,1.933-0.505,3.056-1.458
		c1.095-0.945,2.208-2.798,3.316-5.529l3.008-7.415l-15.323-32.033c-0.472-0.97-1.218-2.156-2.228-3.591
		c-0.78-1.078-1.418-1.811-1.913-2.211c-0.718-0.462-1.871-0.908-3.454-1.293V30.926z"/>
	<path d="M335.122,28.103v-8.528h3.746c0.755,0,1.33,0.1,1.733,0.28c0.41,0.135,0.693,0.398,0.935,0.768
		c0.243,0.418,0.35,0.843,0.35,1.283c0,0.628-0.187,1.133-0.593,1.53c-0.375,0.425-0.973,0.703-1.791,0.813
		c0.31,0.143,0.528,0.295,0.67,0.415c0.33,0.295,0.638,0.67,0.923,1.108l1.486,2.331h-1.398l-1.125-1.758
		c-0.338-0.48-0.613-0.903-0.82-1.165c-0.23-0.285-0.39-0.458-0.568-0.605c-0.16-0.098-0.33-0.14-0.503-0.195
		c-0.138-0.035-0.355-0.055-0.64-0.055h-1.283v3.779H335.122z M336.245,23.359h2.401c0.508,0,0.915-0.035,1.198-0.18
		c0.298-0.057,0.508-0.27,0.66-0.495c0.17-0.243,0.233-0.505,0.233-0.778c0-0.388-0.143-0.713-0.44-0.978
		c-0.282-0.252-0.745-0.383-1.36-0.383h-2.691V23.359z"/>
	<path style="fill:none;stroke:#000000;stroke-width:1.0147;" d="M344.613,23.522c0,3.404-2.768,6.205-6.162,6.205
		c-3.419,0-6.187-2.801-6.187-6.205c0-3.428,2.768-6.174,6.187-6.174C341.844,17.347,344.613,20.093,344.613,23.522z"/>
</g>
</svg>
