<svg width="198" height="77" viewBox="0 0 198 77" xmlns="http://www.w3.org/2000/svg" xmlns:xlink="http://www.w3.org/1999/xlink"><title>appier</title><defs><path id="a" d="M85.086 76.686H0V.58h85.086v76.106z"/><path id="c" d="M31.778 59.848H.054V.478h31.724v59.37z"/></defs><g fill="none" fill-rule="evenodd"><g transform="translate(0 .072)"><mask id="b" fill="#fff"><use xlink:href="#a"/></mask><path d="M74.251 42.242c-.226 1.741-.602 3.314-1.138 4.72-.522 1.404-1.243 2.55-2.15 3.427-.903.883-2.012 1.322-3.321 1.322-.907 0-1.638-.187-2.19-.566-.552-.374-.957-.762-1.204-1.167v-21.05c.397-1.255 1.026-2.191 1.884-2.826.853-.624 1.74-.942 2.645-.942.353 0 .842.1 1.469.299.633.207 1.274.693 1.924 1.472.658.779 1.223 1.973 1.703 3.584.474 1.61.72 3.798.72 6.56 0 1.712-.115 3.436-.342 5.167zm-40.718-2.74c0 1.712-.277 3.328-.82 4.846-.55 1.515-1.305 2.86-2.268 4.028a11.501 11.501 0 0 1-3.448 2.804 8.852 8.852 0 0 1-4.197 1.045c-2.791 0-5.165-1.405-7.11-4.2-1.943-2.803-2.913-7.355-2.913-13.661 0-2.88.259-5.896.76-9.044.508-3.156 1.3-6.01 2.39-8.582 1.085-2.563 2.479-4.687 4.198-6.363C21.83 8.698 23.93 7.87 26.416 7.87c2.017 0 3.572.507 4.666 1.512a10.025 10.025 0 0 1 2.451 3.503v26.617zM81.202 23.84c-1.192-1.432-2.546-2.475-4.082-3.134a12.402 12.402 0 0 0-4.872-.974c-1.861 0-3.45.31-4.758.937-1.305.634-2.391 1.394-3.242 2.305v-5.659H53.37V51.15c-.19.108-.35.213-.551.322-.593.31-1.336.517-1.828.517-1.417 0-2.5-.363-3.255-1.11-.745-.754-1.296-1.678-1.655-2.782a14.19 14.19 0 0 1-.647-3.484 50.736 50.736 0 0 1-.12-3.253V.579H33.49v4.823s-2.75-2.12-4.917-2.977c-2.172-.845-4.278-1.269-6.33-1.269-3.946 0-7.33 1.056-10.176 3.185-2.843 2.128-5.144 4.835-6.918 8.103-1.776 3.264-3.079 6.888-3.91 10.868C.42 27.292 0 31.126 0 34.83c0 4.808.61 8.906 1.833 12.294 1.226 3.385 2.782 6.141 4.677 8.268 1.892 2.125 4.037 3.684 6.444 4.669 2.404.982 4.793 1.478 7.157 1.478 3.786 0 7.022-1.081 9.705-3.253 2.675-2.162 4.617-4.79 5.796-7.854.712 4.017 2.043 6.311 4.022 8 1.973 1.695 4.182 2.546 6.627 2.546.83 0 1.63-.094 2.399-.27.063-.007 2.279-.241 4.71-1.674v17.651l10.878-2.723v-18.33c.544.71 1.38 1.32 2.487 1.855 1.11.525 2.618.791 4.534.791 2.667 0 4.894-.593 6.68-1.774 1.79-1.184 3.208-2.732 4.265-4.643 1.06-1.91 1.801-4.071 2.232-6.488.43-2.415.64-4.825.64-7.242 0-3.37-.347-6.234-1.055-8.6-.704-2.362-1.648-4.256-2.83-5.692z" fill="#293795" mask="url(#b)"/></g><g transform="translate(88.898 16.91)"><mask id="d" fill="#fff"><use xlink:href="#c"/></mask><path d="M20.945 25.404c-.23 1.74-.612 3.314-1.137 4.72-.53 1.404-1.249 2.549-2.155 3.426-.904.884-2.011 1.323-3.322 1.323-.906 0-1.636-.187-2.191-.567-.554-.374-.955-.761-1.207-1.166V12.089c.404-1.254 1.029-2.19 1.888-2.825.858-.625 1.735-.942 2.643-.942.35 0 .843.1 1.473.299.627.207 1.273.692 1.923 1.471.658.78 1.224 1.974 1.702 3.584.476 1.61.715 3.798.715 6.56a40.81 40.81 0 0 1-.332 5.168m6.94-18.402c-1.185-1.433-2.54-2.475-4.074-3.135a12.418 12.418 0 0 0-4.87-.974c-1.865 0-3.451.31-4.757.938-1.31.634-2.397 1.394-3.251 2.305V.477H.053v59.371l10.88-2.723v-18.33c.552.71 1.382 1.32 2.492 1.855 1.108.524 2.618.79 4.532.79 2.667 0 4.895-.593 6.68-1.774 1.792-1.184 3.212-2.73 4.268-4.643 1.059-1.909 1.805-4.07 2.23-6.487.426-2.415.643-4.826.643-7.242 0-3.37-.356-6.235-1.053-8.601-.707-2.361-1.66-4.255-2.84-5.69" fill="#293795" mask="url(#d)"/></g><path d="M154.025 33.256c.327-1.852.757-3.467 1.282-4.837.528-1.376 1.149-2.477 1.85-3.308.702-.825 1.485-1.24 2.343-1.24.703 0 1.359.367 1.957 1.089.612.728.913 1.967.913 3.717 0 1.4-.229 2.704-.681 3.907a10.41 10.41 0 0 1-1.883 3.182 9.64 9.64 0 0 1-2.879 2.259 9.128 9.128 0 0 1-3.545 1.01c.102-2 .313-3.928.643-5.78m43.088-9.121a7.89 7.89 0 0 0-1.362-2.145 6.84 6.84 0 0 0-2.039-1.584c-.78-.4-1.651-.602-2.608-.602-1.605 0-3.092.517-4.451 1.543a22.704 22.704 0 0 0-3.7 3.508v-4.677h-10.878V45.09a35.24 35.24 0 0 1-1.699 2.277 13.848 13.848 0 0 1-2.491 2.419 11.663 11.663 0 0 1-3.092 1.624c-1.169.402-2.5.604-4.01.604-2.715 0-4.62-.723-5.704-2.153-1.085-1.434-1.646-3.833-1.697-7.204a19.5 19.5 0 0 0 5.474-1.093c1.792-.63 3.378-1.53 4.757-2.719 1.386-1.176 2.498-2.623 3.327-4.337.833-1.708 1.25-3.69 1.25-5.96 0-.401-.063-1.08-.195-2.033-.125-.957-.505-1.933-1.134-2.944-.63-1.002-1.598-1.886-2.905-2.64-1.312-.753-3.174-1.127-5.588-1.127-3.177 0-5.79.7-7.856 2.106-2.066 1.412-3.702 3.173-4.907 5.28-1.21 2.114-2.053 4.417-2.534 6.902-.475 2.496-.715 4.82-.715 6.981 0 2.835.317 5.297.94 7.378a7.108 7.108 0 0 1-.451.694c-.982 1.26-2.2 1.881-3.662 1.881-1.46 0-2.479-.338-3.06-1.013-.58-.68-.867-2.077-.867-4.188V20.177h-10.879v26.478c0 3.521.781 6.35 2.341 8.488 1.56 2.137 4.28 3.208 8.157 3.208 1.004 0 2.163-.152 3.477-.452 1.312-.307 2.591-.95 3.856-1.931 1.072-.833 2.055-1.992 2.944-3.45.43.652.881 1.258 1.394 1.793a12.18 12.18 0 0 0 4.721 3.052c1.813.662 3.801.988 5.97.988 2.569 0 4.805-.404 6.719-1.208 1.914-.809 3.59-1.86 5.026-3.17a19.56 19.56 0 0 0 3.093-3.629v11.268l10.878-6.196V29.23c.804-.856 1.573-1.572 2.306-2.147.726-.586 1.465-.87 2.224-.87.705 0 1.196.254 1.474.753.278.501.542 1.046.788 1.625a6.018 6.018 0 0 0 1.06 1.62c.45.5 1.256.753 2.418.753 1.557 0 2.678-.465 3.36-1.396.685-.93 1.018-1.942 1.018-3.053 0-.8-.165-1.6-.488-2.38m-67.469-8.483c1.882 0 3.487-.656 4.829-1.969 1.347-1.306 2.014-2.9 2.014-4.78 0-1.88-.667-3.496-2.014-4.828-1.342-1.339-2.947-2.012-4.829-2.012-1.883 0-3.482.673-4.79 2.012-1.315 1.332-1.967 2.947-1.967 4.828 0 1.88.652 3.474 1.966 4.78 1.31 1.313 2.908 1.969 4.791 1.969" fill="#293795"/></g></svg>