<?xml version="1.0" encoding="UTF-8" standalone="no"?>
<svg
   xmlns:dc="http://purl.org/dc/elements/1.1/"
   xmlns:cc="http://creativecommons.org/ns#"
   xmlns:rdf="http://www.w3.org/1999/02/22-rdf-syntax-ns#"
   xmlns:svg="http://www.w3.org/2000/svg"
   xmlns="http://www.w3.org/2000/svg"
   viewBox="0 0 1151.78 566.92932"
   height="566.92932"
   width="1151.78"
   xml:space="preserve"
   id="svg2"
   version="1.1"><metadata
     id="metadata8"><rdf:RDF><cc:Work
         rdf:about=""><dc:format>image/svg+xml</dc:format><dc:type
           rdf:resource="http://purl.org/dc/dcmitype/StillImage" /></cc:Work></rdf:RDF></metadata><defs
     id="defs6"><clipPath
       id="clipPath20"
       clipPathUnits="userSpaceOnUse"><path
         id="path18"
         d="M 0,425.197 H 863.835 V 0 H 0 Z" /></clipPath></defs><g
     transform="matrix(1.3333333,0,0,-1.3333333,0,566.92933)"
     id="g10"><path
       id="path12"
       style="fill:#ffffff;fill-opacity:1;fill-rule:nonzero;stroke:none"
       d="M 0,0 H 863.834 V 425.197 H 0 Z" /><g
       id="g14"><g
         clip-path="url(#clipPath20)"
         id="g16"><g
           transform="translate(260.4624,350.0289)"
           id="g22"><path
             id="path24"
             style="fill:#ff0000;fill-opacity:1;fill-rule:nonzero;stroke:none"
             d="M 0,0 C -0.033,1.731 -1.088,3.288 -2.686,3.966 -4.257,4.627 -6.14,4.293 -7.396,3.133 l -35.33,-32.83 c -1.289,-1.2 -1.737,-3.05 -1.147,-4.707 0.587,-1.653 2.112,-2.803 3.879,-2.915 l 9.525,-0.581 -5.371,-12.641 -14.579,-34.322 c -0.462,-1.081 -0.477,-2.28 -0.037,-3.37 0.439,-1.094 1.274,-1.945 2.359,-2.405 l 7.894,-3.357 c 0.536,-0.223 1.094,-0.338 1.668,-0.359 0.59,0.003 1.162,0.112 1.687,0.328 1.1,0.437 1.952,1.272 2.415,2.368 l 14.623,34.401 5.471,12.867 8.103,-6.977 c 1.274,-1.104 3.096,-1.387 4.751,-0.652 1.572,0.742 2.562,2.329 2.523,4.077 z" /></g><g
           transform="translate(122.6577,169.278)"
           id="g26"><path
             id="path28"
             style="fill:#9c80ff;fill-opacity:1;fill-rule:nonzero;stroke:none"
             d="m 0,0 3.216,-10.195 c 0.505,-1.614 1.906,-2.817 3.7,-3.054 1.727,-0.202 3.407,0.632 4.291,2.133 L 35.563,30.19 c 0.886,1.492 0.808,3.368 -0.193,4.784 -0.986,1.391 -2.762,2.101 -4.444,1.772 l -47.32,-9.309 c -1.73,-0.344 -3.085,-1.679 -3.455,-3.403 -0.371,-1.714 0.319,-3.49 1.762,-4.514 l 7.797,-5.509 -38.39,-27.098 c 1.622,-5.814 3.677,-11.443 6.13,-16.857 0.199,0.101 0.398,0.2 0.586,0.332 z" /></g><g
           transform="translate(126.5205,105.1774)"
           id="g30"><path
             id="path32"
             style="fill:#f06ca8;fill-opacity:1;fill-rule:nonzero;stroke:none"
             d="m 0,0 c 0.583,-1.584 2.049,-2.713 3.85,-2.861 1.737,-0.109 3.372,0.811 4.178,2.353 l 22.181,42.513 c 0.808,1.535 0.634,3.408 -0.439,4.772 -1.057,1.335 -2.87,1.952 -4.53,1.54 L -21.536,36.563 c -1.708,-0.432 -2.992,-1.832 -3.27,-3.574 -0.286,-1.732 0.496,-3.471 1.988,-4.419 l 8.077,-5.098 -17.043,-13.403 c 3.595,-4.576 7.516,-8.878 11.739,-12.873 L -3.74,10.015 Z" /></g><g
           transform="translate(185.5854,81.0426)"
           id="g34"><path
             id="path36"
             style="fill:#f5ea14;fill-opacity:1;fill-rule:nonzero;stroke:none"
             d="M 0,0 C 1.556,-0.65 3.379,-0.353 4.722,0.863 5.981,2.056 6.424,3.878 5.847,5.52 l -15.953,45.224 c -0.57,1.641 -2.059,2.786 -3.787,2.934 -1.699,0.135 -3.387,-0.765 -4.218,-2.266 L -41.427,9.195 c -0.85,-1.544 -0.699,-3.439 0.381,-4.827 1.072,-1.392 2.878,-2.005 4.591,-1.56 l 9.234,2.425 -1.034,-12.244 c 5.573,-1.467 11.308,-2.527 17.173,-3.166 l 1.21,14.272 z" /></g><g
           transform="translate(230.8599,121.9196)"
           id="g38"><path
             id="path40"
             style="fill:#4fc8f4;fill-opacity:1;fill-rule:nonzero;stroke:none"
             d="m 0,0 c 1.662,-0.283 3.37,0.413 4.407,1.894 0.963,1.441 0.992,3.32 0.06,4.793 l -25.63,40.532 c -0.919,1.469 -2.627,2.256 -4.344,2.012 -1.688,-0.245 -3.128,-1.501 -3.606,-3.146 l -13.323,-46.35 c -0.485,-1.695 0.085,-3.51 1.446,-4.628 1.356,-1.108 3.254,-1.308 4.825,-0.493 l 8.461,4.419 6.872,-48.586 c 5.792,1.131 11.431,2.685 16.887,4.633 l -6.596,46.717 z" /></g><g
           transform="translate(275.4854,153.524)"
           id="g42"><path
             id="path44"
             style="fill:#c84980;fill-opacity:1;fill-rule:nonzero;stroke:none"
             d="M 0,0 C 1.686,0.007 3.246,0.99 4.009,2.631 4.707,4.222 4.407,6.074 3.23,7.359 L -29.08,42.8 c -1.162,1.281 -2.979,1.761 -4.629,1.222 -1.619,-0.538 -2.817,-2.027 -3.003,-3.729 L -41.738,-7.67 c -0.181,-1.754 0.696,-3.441 2.231,-4.301 1.529,-0.86 3.433,-0.724 4.837,0.354 l 7.562,5.825 15.852,-48.503 c 0.037,-0.111 0.093,-0.212 0.139,-0.317 4.928,4.274 9.518,8.925 13.681,13.954 l -13.256,40.586 z" /></g><g
           transform="translate(247.5693,215.0524)"
           id="g46"><path
             id="path48"
             style="fill:#a9e637;fill-opacity:1;fill-rule:nonzero;stroke:none"
             d="m 0,0 c 1.633,-0.642 3.5,-0.247 4.746,1.013 l 6.69,6.806 22.343,-45.877 c 0.504,-1.05 1.404,-1.853 2.513,-2.236 1.116,-0.385 2.306,-0.317 3.366,0.202 l 7.714,3.751 c 0.518,0.257 0.972,0.606 1.363,1.027 0.383,0.447 0.677,0.947 0.858,1.484 0.392,1.119 0.323,2.313 -0.201,3.377 l -22.475,46.184 10.581,1.536 c 1.668,0.239 3.08,1.423 3.613,3.155 0.47,1.671 -0.079,3.463 -1.42,4.576 L 2.835,55.683 C 1.507,56.794 -0.36,57.022 -1.92,56.261 -3.451,55.506 -4.433,53.867 -4.383,52.156 L -2.798,3.957 C -2.737,2.193 -1.636,0.644 0,0" /></g><g
           transform="translate(208.4541,191.861)"
           id="g50"><path
             id="path52"
             style="fill:#f5bd14;fill-opacity:1;fill-rule:nonzero;stroke:none"
             d="m 0,0 c 1.276,-1.103 3.097,-1.388 4.753,-0.649 1.57,0.74 2.561,2.327 2.521,4.074 L 6.238,51.366 C 6.203,53.101 5.149,54.654 3.553,55.334 1.979,55.995 0.096,55.659 -1.16,54.501 L -36.49,21.669 c -1.287,-1.2 -1.736,-3.049 -1.145,-4.706 0.587,-1.651 2.11,-2.803 3.877,-2.915 l 9.525,-0.581 -19.95,-46.964 c -0.463,-1.078 -0.476,-2.278 -0.035,-3.368 0.439,-1.093 1.274,-1.947 2.357,-2.406 l 7.896,-3.359 c 0.533,-0.22 1.094,-0.336 1.668,-0.355 0.589,0.004 1.16,0.109 1.686,0.327 1.097,0.439 1.953,1.271 2.414,2.367 l 20.096,47.27 z" /></g><g
           transform="translate(167.6396,256.609)"
           id="g54"><path
             id="path56"
             style="fill:#2294ff;fill-opacity:1;fill-rule:nonzero;stroke:none"
             d="m 0,0 c 0.087,-1.683 1.144,-3.195 2.822,-3.878 1.622,-0.619 3.453,-0.234 4.685,1.005 l 33.865,33.952 c 1.226,1.225 1.618,3.064 1.002,4.685 -0.613,1.593 -2.157,2.718 -3.865,2.82 l -48.153,2.745 c -1.758,0.099 -3.402,-0.86 -4.188,-2.433 -0.786,-1.57 -0.562,-3.464 0.583,-4.818 L -7.071,26.805 -54.764,8.669 c -1.096,-0.413 -1.974,-1.234 -2.451,-2.308 -0.49,-1.075 -0.522,-2.265 -0.102,-3.366 l 3.045,-8.023 c 0.207,-0.535 0.515,-1.021 0.895,-1.451 0.413,-0.418 0.885,-0.76 1.401,-0.985 1.081,-0.49 2.276,-0.527 3.382,-0.104 L -0.58,10.678 Z" /></g><g
           transform="translate(101.3403,203.9459)"
           id="g58"><path
             id="path60"
             style="fill:#659d42;fill-opacity:1;fill-rule:nonzero;stroke:none"
             d="m 0,0 c 0.002,-1.682 0.98,-3.248 2.623,-4.015 1.587,-0.699 3.438,-0.408 4.731,0.767 l 35.534,32.199 c 1.287,1.164 1.771,2.979 1.237,4.628 -0.531,1.621 -2.018,2.824 -3.718,3.016 l -47.951,5.168 c -1.752,0.189 -3.441,-0.684 -4.305,-2.217 -0.866,-1.527 -0.734,-3.429 0.338,-4.838 L -5.708,27.131 -25.837,20.62 C -27.924,14.252 -29.493,7.651 -30.474,0.857 l 30.435,9.836 z" /></g><g
           transform="translate(405.8584,238.0963)"
           id="g62"><path
             id="path64"
             style="fill:#a653e1;fill-opacity:1;fill-rule:nonzero;stroke:none"
             d="M 0,0 C 1.703,0.344 3.058,0.842 4.303,1.543 3.834,0.687 3.435,-0.201 3.174,-1.177 2.166,-4.944 2.966,-8.053 5.519,-10.38 c 2.152,-2.206 4.956,-3.276 8.576,-3.276 3.161,0 5.837,0.819 8.181,2.51 2.484,1.791 4.177,4.321 5.036,7.526 0.921,3.443 0.363,6.379 -1.808,9.073 -1.22,1.079 -2.513,1.785 -3.883,2.521 C 17.088,9.567 13.177,9.122 8.291,6.018 8.389,6.284 8.507,6.537 8.583,6.821 8.871,7.908 8.78,9.217 8.279,10.603 7.91,11.329 7.446,11.972 6.998,12.595 6.775,12.901 6.549,13.218 6.323,13.551 L 3.372,15.78 2.708,16.023 c -1.022,0.299 -1.991,0.585 -2.942,0.585 -1.022,0 -2.252,-0.184 -3.327,-0.377 -0.502,-0.162 -0.991,-0.284 -1.482,-0.407 -0.52,-0.13 -1.04,-0.26 -1.573,-0.435 l -0.6,-0.201 c -0.778,-0.26 -1.45,-0.487 -2.296,-0.64 -0.979,-0.32 -1.99,-0.652 -2.933,-0.812 -7.158,-1.17 -14.497,-2.018 -21.835,-2.519 l -0.833,-0.076 C -42.351,10.481 -49.186,9.859 -55.959,9.53 -58.992,9.197 -61.845,9.197 -64.647,9.197 -67.681,9.029 -70.555,8.859 -73.522,8.682 l -1.352,-0.244 c -0.471,-0.089 -0.939,-0.176 -1.436,-0.259 -1.111,-0.164 -2.195,-0.342 -3.235,-0.742 -1.042,-0.49 -2.118,-1.056 -2.826,-1.796 -0.939,-0.779 -1.571,-1.769 -1.885,-2.942 -0.331,-1.228 -0.295,-2.571 0.083,-3.623 0.297,-1.129 0.91,-2.226 1.813,-3.276 0.749,-1.126 1.875,-2.069 3.02,-2.562 0.918,-0.675 2.031,-1.003 3.401,-1.003 1.947,0 4.102,0.181 6.244,0.52 l 5.838,1 c 2.837,0.164 5.772,0.336 8.621,0.671 2.399,0 4.723,0.117 7.218,0.367 -4.023,-10.525 -7.605,-20.611 -10.933,-30.78 -3.461,-10.154 -6.646,-20.695 -9.737,-32.227 -1.793,-6.703 -3.236,-12.669 -4.278,-17.729 -1.101,-5.37 -1.736,-8.912 -1.687,-11.005 -0.196,-1.463 0.101,-2.679 0.777,-3.425 0.711,-1.07 1.637,-1.803 2.594,-2.103 0.837,-0.523 1.705,-1.064 3.123,-1.459 1.05,-0.167 2.138,-0.339 3.132,-0.339 1.815,0 3.928,0.575 6.476,1.77 2.267,1.148 3.761,3.023 4.446,5.572 0.209,0.773 0.293,1.546 0.383,2.362 l 0.054,0.578 c -0.041,0.947 0.023,1.75 0.133,2.914 -0.079,0.768 -0.016,1.548 0.051,2.375 l 0.009,0.117 -0.022,0.111 c -0.119,0.593 -0.036,1.448 0.055,2.237 1.142,7.096 2.257,12.523 3.621,17.601 l 4.738,17.686 c 2.293,8.559 4.757,16.416 7.534,24.031 2.292,6.589 4.611,13.299 6.94,20.024 l 1.233,3.569 c 4.686,0.49 9.516,0.975 14.476,1.461 4.058,0.285 9.418,0.755 14.9,1.866" /></g><g
           transform="translate(417.6255,209.777)"
           id="g66"><path
             id="path68"
             style="fill:#a653e1;fill-opacity:1;fill-rule:nonzero;stroke:none"
             d="m 0,0 c -1.889,1.184 -3.894,1.809 -5.799,1.809 -1.05,0 -2.26,-0.185 -3.473,-0.527 -1.408,-0.351 -2.687,-1.066 -3.695,-2.057 -1.134,-1.086 -2.075,-2.665 -2.778,-4.652 -0.88,-2.084 -1.722,-4.653 -2.578,-7.847 l -9.433,-34.028 -3.929,-14.656 c -0.486,-1.825 -0.601,-3.324 -0.365,-4.487 0.148,-1.752 0.733,-3.168 1.657,-4.095 0.332,-0.496 1.082,-1.271 2.113,-2.18 1.308,-1.155 2.638,-1.719 4.06,-1.719 1.283,0 2.787,0.411 4.538,1.234 1.82,0.7 3.245,1.928 4.469,3.832 1.771,2.533 2.886,4.712 3.406,6.656 l 0.095,0.359 -0.113,0.168 c 0.012,0.043 0.026,0.092 0.041,0.145 0.048,0.176 0.046,0.342 0.044,0.5 0,0.125 -0.002,0.251 0.024,0.34 l 0.048,0.186 -0.035,0.186 c -0.028,0.149 0.033,0.385 0.101,0.642 0.063,0.232 0.078,0.449 0.087,0.636 0.011,0.185 0.02,0.345 0.076,0.543 l 0.032,0.123 -0.008,0.124 c -0.071,1.584 0.112,3.201 0.541,4.809 0.04,0.143 0.097,0.406 0.18,0.779 0.212,0.953 0.59,2.679 1.243,5.113 l 3.027,11.303 c 0.638,2.386 1.301,4.854 2.185,7.562 0.386,1.442 0.765,2.662 1.087,3.696 0.239,0.778 0.448,1.452 0.605,2.031 l 0.538,2.021 c 0.215,0.794 0.638,1.793 1.083,2.861 0.262,0.972 0.684,1.967 1.127,3.033 0.258,0.967 0.634,1.777 0.965,2.446 0.473,1.236 0.952,2.438 1.648,3.784 0.196,0.736 0.419,1.335 0.576,1.754 0.101,0.267 0.176,0.471 0.211,0.606 0.34,1.269 0.113,2.62 -0.781,4.268 C 1.956,-1.647 1.022,-0.747 0,0" /></g><g
           transform="translate(487.7012,178.6412)"
           id="g70"><path
             id="path72"
             style="fill:#a653e1;fill-opacity:1;fill-rule:nonzero;stroke:none"
             d="m 0,0 c -2.729,-10.189 -6.252,-17.724 -10.476,-22.407 -4.063,-4.623 -8.577,-6.966 -13.424,-6.966 -5.139,0 -8.421,1.82 -10.039,5.569 -1.624,3.758 -1.439,9.202 0.557,16.646 0.725,2.705 1.891,5.865 3.375,9.137 1.352,2.965 3.26,5.936 5.821,9.072 2.234,2.624 4.874,4.953 7.831,6.907 2.998,1.846 6.14,2.743 9.61,2.743 3.621,0 6.193,-1.545 7.64,-4.561 C 2.299,12.886 1.997,7.457 0,0 m -5.153,36.483 c -3.484,0 -6.946,-0.679 -10.577,-2.076 -2.667,-1.025 -5.299,-2.472 -7.991,-4.398 0.298,1.057 0.664,2.277 1.102,3.595 0.299,1.107 0.649,2.289 1.023,3.544 0.419,1.42 0.868,2.931 1.301,4.538 0.723,2.704 1.703,5.763 2.659,8.762 l 2.351,8.754 c 0.918,3.43 1.871,5.889 2.937,7.555 0.629,1.087 1.22,2.11 1.429,2.888 0.095,0.357 0.242,0.714 0.364,1.012 0.11,0.275 0.202,0.509 0.246,0.673 0.491,1.831 -0.365,3.387 -2.639,4.674 -2.165,0.857 -3.906,1.239 -5.642,1.239 -2.107,0 -4.952,-0.966 -8.733,-2.98 -1.864,-1.119 -3.132,-1.937 -4.281,-2.769 -1.433,-1.192 -2.145,-2.141 -2.447,-3.278 -0.285,-1.066 -0.277,-2.517 0.023,-4.102 -0.201,-1.316 -0.483,-2.941 -0.853,-4.875 -0.487,-2.416 -0.916,-4.607 -1.218,-6.889 l -0.2,-0.905 c -0.655,-2.959 -1.274,-5.752 -2.007,-8.498 -0.492,-1.834 -0.843,-3.361 -1.125,-4.58 -0.183,-0.795 -0.336,-1.454 -0.479,-1.981 -0.087,-0.335 -0.236,-0.824 -0.431,-1.458 -0.388,-1.28 -0.957,-3.153 -1.611,-5.589 -1.124,-3.622 -2.425,-7.876 -3.657,-12.469 l -0.104,-0.343 c -1.402,-4.651 -2.727,-9.044 -3.911,-13.47 -1.439,-4.789 -2.397,-8.363 -3.102,-10.991 -0.503,-1.879 -1.128,-4.221 -1.689,-6.888 -0.814,-3.035 -1.582,-5.901 -2.19,-8.759 -0.802,-2.996 -1.322,-5.565 -1.669,-7.409 -0.471,-1.748 -0.671,-2.873 -0.791,-3.538 -0.563,-2.103 -0.717,-3.919 -0.484,-5.382 -0.097,-1.607 0.474,-3.023 1.721,-4.29 1.548,-1.777 3.445,-2.64 5.801,-2.64 1.244,0 2.606,0.24 4.045,0.714 1.106,0.358 2.33,1.193 4.021,2.758 0.947,1.062 1.833,2.49 2.654,4.302 l 0.185,0.499 c 0.234,0.624 0.451,1.212 0.647,1.768 1.435,-2.097 3.64,-3.641 6.562,-4.593 3.255,-1.289 6.996,-1.912 11.434,-1.912 5.888,0 11.075,1.416 15.849,4.328 4.574,2.746 8.522,6.165 12.078,10.458 3.406,4.191 6.342,8.779 8.747,13.645 2.216,4.736 3.925,9.313 5.076,13.61 3.036,11.332 2.511,20.552 -1.561,27.419 -4.232,6.855 -11.923,10.327 -22.863,10.327" /></g><g
           transform="translate(568.6855,169.5221)"
           id="g74"><path
             id="path76"
             style="fill:#a653e1;fill-opacity:1;fill-rule:nonzero;stroke:none"
             d="m 0,0 -3.145,-11.202 c -3.326,-3.12 -7.022,-5.508 -10.981,-7.086 -4.322,-1.663 -8.51,-2.472 -12.796,-2.472 -1.637,0 -2.846,0.192 -4.042,0.654 -1.193,0.272 -2.161,0.794 -3.177,1.748 -1.07,0.669 -1.735,1.402 -2.126,2.369 -0.388,0.768 -0.417,1.737 -0.094,2.958 0.73,2.713 2.539,4.865 5.397,6.407 3.32,1.884 6.605,3.235 10.043,4.132 3.907,1.015 7.788,1.669 11.875,1.997 C -5.51,-0.202 -2.539,-0.04 0,0 m 19.243,31.687 c -1.764,3.413 -4.322,6.184 -7.597,8.232 -3.347,2.096 -7.713,3.156 -12.979,3.156 -2.675,0 -6.175,-0.42 -11.377,-1.364 -4.991,-1.082 -9.707,-2.69 -14.043,-4.791 -4.17,-2.193 -7.601,-4.191 -10.501,-6.113 -3.345,-2.248 -5.463,-4.953 -6.29,-8.043 -0.644,-2.392 -0.375,-4.427 0.787,-6.173 1.131,-1.979 3.043,-2.941 5.849,-2.941 1.388,0 2.588,0.244 3.575,0.715 0.914,0.296 1.746,0.812 2.63,1.356 l 0.761,0.477 c 0.164,0.136 0.358,0.27 0.571,0.421 0.306,0.217 0.649,0.459 1.007,0.755 0.168,0.14 0.364,0.279 0.579,0.433 0.302,0.214 0.641,0.457 0.995,0.749 0.166,0.137 0.362,0.275 0.577,0.428 0.305,0.215 0.64,0.457 1.027,0.779 0.389,0.32 0.952,0.794 1.72,1.298 2.552,1.98 4.974,3.491 7.396,4.625 3.03,1.418 6.292,2.112 9.98,2.112 1.939,0 3.755,-0.425 5.303,-1.202 1.465,-1.018 2.607,-2.133 3.309,-3.159 0.63,-1.63 1.112,-3.286 1.425,-4.792 C 4.019,16.935 3.898,15.371 3.77,13.857 2.262,13.701 0.641,13.578 -1.078,13.449 -2.49,13.344 -3.97,13.232 -5.542,13.089 c -4.044,-0.525 -8.159,-1.21 -12.23,-2.031 -4.348,-0.883 -8.556,-1.909 -12.533,-3.054 -4.149,-1.356 -8.131,-3.066 -11.504,-4.946 -3.898,-2.139 -6.846,-4.389 -9.27,-7.055 -2.735,-2.821 -4.51,-5.859 -5.426,-9.283 -0.925,-3.46 -0.919,-6.409 0.019,-8.767 1.027,-2.578 2.639,-4.678 4.928,-6.414 2.257,-1.712 5.26,-3.119 8.918,-4.174 3.124,-0.942 6.928,-1.382 11.972,-1.382 3.914,0 8.048,0.578 12.265,1.706 3.643,0.846 7.164,2.304 10.709,4.437 -0.512,-2.725 -0.395,-4.9 0.332,-6.577 0.804,-2.618 3.089,-3.944 6.796,-3.944 1.944,0 3.588,0.344 5.21,1.103 1.436,0.757 2.588,1.48 3.53,2.537 0.961,1.082 1.586,2.157 2.339,3.704 0.147,0.557 0.334,1.114 0.526,1.692 0.214,0.639 0.433,1.303 0.623,2.011 0.271,1.014 0.502,2.03 0.736,3.041 0.233,1.008 0.461,2.015 0.733,3.025 l 1.667,6.229 c 1.044,3.891 1.942,7.836 2.808,11.657 0.83,3.671 1.881,7.59 2.908,11.42 1.059,3.954 1.563,7.991 1.544,12.372 -0.171,4.004 -1.089,7.689 -2.815,11.291" /></g><g
           transform="translate(752.998,174.6998)"
           id="g78"><path
             id="path80"
             style="fill:#ff0000;fill-opacity:1;fill-rule:nonzero;stroke:none"
             d="m 0,0 c -4.155,0 -7.059,0.672 -8.7,2.05 -1.636,1.104 -2.642,2.622 -2.925,4.398 2.443,4.671 5.598,8.763 9.371,12.172 3.735,3.372 7.201,5.01 10.596,5.01 1.806,0 3.775,-0.268 5.957,-0.8 1.801,-0.599 3.38,-1.353 5.033,-2.381 1.329,-1.107 2.301,-2.357 3.031,-3.873 0.623,-1.614 0.676,-3.32 0.168,-5.222 C 22.137,9.892 21.222,8.491 19.822,7.198 17.928,5.475 16.267,4.321 14.432,3.46 12.404,2.511 10.056,1.677 7.46,0.987 4.763,0.313 2.392,0 0,0 m 38.304,24.35 c -1.86,3.247 -4.7,6.091 -8.757,8.736 -3.208,1.708 -6.708,3.09 -10.442,4.119 -4.155,0.906 -8.164,1.368 -11.911,1.368 -4.376,0 -8.851,-1.403 -13.304,-4.172 -4.727,-2.98 -8.967,-6.549 -12.956,-10.92 -4.438,-4.851 -7.956,-9.64 -10.743,-14.616 -3.143,-5.344 -5.38,-10.591 -6.841,-16.036 -1.114,-4.171 -1.569,-8.282 -1.344,-12.208 0.188,-4.4 1.259,-8.008 3.265,-11.028 2.145,-3.234 5.237,-5.822 9.186,-7.698 4.111,-1.953 9.418,-2.941 15.772,-2.941 3.125,0 6.714,0.26 11.668,0.851 4.1,0.674 8.007,1.678 11.924,3.06 3.91,1.219 7.225,2.799 10.149,4.84 3.093,2.278 4.88,4.613 5.614,7.351 0.299,1.118 0.279,2.782 -1.61,4.44 -1.623,1.017 -3.051,1.47 -4.628,1.47 -0.318,0 -0.752,-0.094 -1.362,-0.221 l -0.71,-0.154 c -0.825,-0.267 -1.561,-0.625 -2.34,-1.009 l -0.859,-0.415 c -3.417,-2.05 -6.945,-3.675 -10.824,-4.995 -3.88,-1.548 -7.69,-2.299 -11.646,-2.299 -5.899,0 -9.703,1.839 -11.629,5.62 -1.86,3.651 -2.3,8.006 -1.33,13.283 1.669,-1 3.515,-1.776 5.454,-2.297 2.254,-0.827 5.169,-1.229 8.923,-1.229 4.851,0 9.223,0.599 13.777,1.888 4.981,1.508 9.164,3.299 12.755,5.456 3.761,2.061 7.139,4.604 10.041,7.558 2.835,2.932 4.713,6.056 5.578,9.286 1.293,4.831 1.019,9.038 -0.87,12.912" /></g><g
           transform="translate(724.2617,245.0875)"
           id="g82"><path
             id="path84"
             style="fill:#ff0000;fill-opacity:1;fill-rule:nonzero;stroke:none"
             d="m 0,0 c -2.715,2.151 -4.933,2.486 -6.083,2.484 -1.33,-0.073 -2.82,-0.412 -4.658,-0.726 -2.243,-0.382 -3.971,-1.066 -5.469,-1.918 -2.764,-1.756 -5.978,-4.904 -9.288,-8.977 -3.683,-4.322 -7.3,-9.137 -10.75,-14.236 -3.409,-4.836 -7.026,-10.319 -11.387,-17.236 -1.258,-2.02 -2.503,-4.015 -3.73,-5.973 -2.588,-4.126 -5.032,-8.03 -7.339,-11.893 -1.493,-2.387 -2.883,-4.601 -4.178,-6.663 -1.812,-2.883 -3.437,-5.468 -4.878,-7.805 -1.969,-2.998 -3.86,-5.87 -5.355,-8.061 -1.983,6.204 -3.371,12.755 -4.14,19.525 -1.034,6.82 -1.402,13.434 -1.129,20.247 0.075,6.673 0.561,13.785 1.435,21.115 0.344,2.374 0.755,5.137 1.325,7.868 0.591,2.861 0.908,5.364 0.995,7.909 0.004,1.257 -0.351,2.431 -1.112,3.566 -0.776,0.913 -1.752,1.627 -2.841,2.404 -1.167,0.525 -2.209,0.873 -3.217,1.208 l -0.207,0.045 c -1.199,0.164 -2.439,0.332 -3.421,0.332 -3.031,0 -5.499,-0.665 -6.98,-1.903 -1.365,-1.275 -2.328,-2.933 -2.866,-4.934 l -0.838,-3.121 -0.201,-0.166 -0.145,-0.607 c -4.008,-8.24 -7.654,-17.285 -10.831,-26.87 -3.257,-9.388 -6.351,-19.599 -9.462,-31.217 l -2.935,-10.948 c -0.627,-2.335 -1.059,-4.529 -1.494,-6.735 -0.624,-2.335 -1.269,-4.748 -1.653,-6.772 -0.779,-3.405 -1.338,-6.425 -1.754,-9.503 -0.318,-2.353 -0.423,-3.958 -0.33,-4.858 0.151,-3.489 2.132,-5.331 5.729,-5.331 0.672,0 1.688,0 2.9,0.351 1.115,0.187 2.355,0.553 3.528,1.036 1.265,0.412 2.369,1.242 3.28,2.004 0.839,0.696 1.662,1.513 2,2.772 0.25,0.944 0.339,1.756 0.436,2.612 l 0.043,0.552 c -0.079,0.729 -0.028,1.474 0.089,2.692 -0.172,1.624 -0.189,3.269 -0.059,4.898 0.261,3.204 1.239,8.006 2.834,15.219 1.501,6.769 3.606,14.622 6.042,23.716 0.864,3.216 1.754,6.546 2.819,9.936 0.404,1.515 0.883,3.026 1.401,4.563 -0.068,-2.214 -0.101,-4.336 -0.089,-6.341 -0.131,-3.782 -0.044,-7.889 0.272,-12.553 0.572,-8.18 1.705,-15.717 3.465,-23.024 1.667,-7.583 4.235,-14.025 7.585,-19.051 1.035,-2.09 2.94,-3.151 5.665,-3.151 1.671,0 3.171,0.363 4.581,1.106 1.491,0.783 2.825,1.95 3.897,2.958 0.991,0.825 2.152,2.233 3.878,4.706 l 0.12,0.18 c 1.294,1.968 2.588,3.941 4.131,6.254 l 4.136,6.597 0.868,1.512 c 0.761,1.329 1.414,2.479 2.003,3.358 l 15.257,25.266 c 3.84,6.361 8.202,12.985 13.003,19.752 -0.902,-2.482 -1.715,-4.877 -2.474,-7.108 -1.484,-4.369 -2.817,-8.748 -3.964,-13.02 l -3.653,-13.645 c -0.723,-2.689 -1.405,-5.23 -1.872,-7.579 l -1.584,-5.898 c -0.274,-1.016 -0.729,-2.719 -1.152,-4.88 -0.649,-2.439 -1.165,-4.967 -1.531,-7.5 -0.409,-2.703 -0.815,-5.402 -1.133,-7.747 -0.425,-2.79 -0.609,-4.693 -0.33,-6.079 0.138,-1.922 1,-3.681 2.409,-4.995 1.231,-1.571 3.015,-2.331 5.446,-2.331 0.536,0 1.053,0.096 1.705,0.217 l 1.161,0.236 c 0.625,0.147 1.332,0.315 2.261,0.693 0.391,0.262 0.744,0.521 1.096,0.779 0.335,0.246 0.665,0.492 1.107,0.79 0.77,0.641 1.335,1.468 1.546,2.268 0.266,0.987 0.171,1.94 -0.08,3.186 -0.124,0.344 -0.141,0.678 -0.048,1.022 l 0.096,0.356 -0.2,0.307 c -0.072,0.106 -0.095,0.357 -0.052,0.517 l 0.048,0.17 -0.028,0.172 c -0.327,2.087 -0.386,3.785 -0.184,5.587 0.022,1.793 0.248,3.782 0.669,5.933 0.579,3.33 1.447,6.561 2.295,9.737 0.735,3.351 1.469,6.639 2.388,10.068 l 6.047,22.573 c 1.744,6.503 3.401,11.943 5.212,17.117 1.929,5.469 3.973,10.798 6.282,16.398 0.132,0.494 0.404,1.131 0.722,1.872 l 0.241,0.568 c 0.431,1.015 0.838,1.974 1.477,3.176 0.447,1.056 0.813,1.847 1.351,2.774 l 0.082,0.198 c 0.112,0.419 0.254,0.792 0.388,1.143 C 0.779,-4.394 0.907,-4.052 1,-3.707 1.317,-2.524 1.036,-1.63 0.687,-0.851 0.476,-0.531 0.241,-0.261 0,0" /></g></g></g></g></svg>