<?xml version="1.0" encoding="utf-8"?>
<!-- Generator: Adobe Illustrator 18.0.0, SVG Export Plug-In . SVG Version: 6.00 Build 0)  -->
<!DOCTYPE svg PUBLIC "-//W3C//DTD SVG 1.1//EN" "http://www.w3.org/Graphics/SVG/1.1/DTD/svg11.dtd">
<svg version="1.1" id="Layer_1" xmlns="http://www.w3.org/2000/svg" xmlns:xlink="http://www.w3.org/1999/xlink" x="0px" y="0px"
	 viewBox="0 0 200 200" style="enable-background:new 0 0 200 200;" xml:space="preserve">
<style type="text/css">
	.st0{fill-rule:evenodd;clip-rule:evenodd;}
	.st1{fill:#231F20;}
	.st2{fill:#232323;}
</style>
<g>
	<g>
		<g>
			<path class="st0" d="M42.7,68.6c1.5-1.1,2.9-2.6,4.6-3.3c7.2-3,14.4-5.9,21.7-8.6c2.7-1,3.8-2.4,4.3-5.4
				c2-11.6,7.1-21.7,16.5-29.2c0.2-0.1,0.3-0.3,0.4-0.5c0.1,0,0.3,0,0.4,0c3.4,6.4,5.1,13.2,5,20.4c3.9,0.6,7.7,0.8,11.2,1.9
				c3.5,1.1,6.1,0.3,8.5-2.2c3.9-4.1,7.8-8.2,11.8-12.3c1.3-1.4,2.8-2.6,4.4-4c0.6,1.2,1.1,1.9,1.3,2.6c0.8,4.2,2,8.4,2.1,12.6
				c0.3,12.2,0,24.4,0.1,36.5c0,8.1,0.3,16.2,0.4,24.3c0,3.1,0,6.1,0,9.2c-0.1,0.2-0.2,0.4-0.3,0.5c-0.8,0.9-1.6,2.5-2.5,2.5
				c-1.6,0.1-2.7-1.4-2.9-3c-0.4-3.2-0.7-6.4-0.8-9.7c-0.1-3.7,0-7.5,0-11.2c-0.1-8-0.1-16-0.3-24.1c-0.2-8.4,0.4-16.9-1.8-25.6
				c-1.6,1.1-3.1,2.1-4.5,3.3c-2.7,2.2-5.3,4.5-7.9,6.7c-1.1,1-2.2,1.1-3.6,0.4c-4.1-2.3-8.8-2.3-13.3-3c-0.1,0-0.3,0-0.4,0
				c-4.8-0.7-5-1-5.4-5.8c-0.4-4.1-1.1-8.2-1.7-13c-1.7,1.3-3.1,2.1-4,3.3c-1.6,2.2-2.9,4.7-4.2,7.1c-2.4,4.4-3,9.3-3.8,14.1
				c-0.5,3.3-2,5.8-5.6,7c-8.3,2.9-16.4,6.2-24.6,9.2c-1.6,0.6-3.4,0.4-5.1,0.6C42.7,69.4,42.7,69,42.7,68.6z"/>
			<path class="st0" d="M72.2,114.4c-0.1-0.7-0.4-1.3-0.3-2c0-5,0-10.1-0.1-15.1c-0.1-2.7-0.3-2.8-2.9-2.8c-2.1-0.1-4.1-0.3-6.2-0.5
				c-1.2-0.1-2.1-0.7-2-2.1c0.1-1.4,1.2-1.2,2.2-1.2c3.5,0,7.1-0.3,10.5,0.1c3.1,0.3,4,1.7,4,4.8c0.1,4.6,0.1,9.3,0.2,13.9
				c0.1,2.2-0.5,3.9-2.5,5C74.2,114.4,73.2,114.4,72.2,114.4z"/>
			<path class="st0" d="M82.6,82.1c0.8-2.3,1.4-4.3,2.2-6.8c1.4,1.9,2.5,3.4,3.8,5.2c0.6-1.7,1-3.2,1.5-4.6c0.8-1.9,1.8-2,3-0.4
				c0.3,0.4,0.5,0.8,0.7,1.2c1.6,3.1,1.3,3.4-1.6,5c-8.4,4.6-17.6,4.9-26.8,5.2c-2.9,0.1-5.8-0.3-8.7-0.6c-0.6,0-1.3-0.2-1.7-0.6
				c-0.5-0.5-0.8-1.3-1.1-2c0.6-0.3,1.3-0.8,1.9-0.8c3.7,0.3,7.4,0.7,11.1,0.9c2.1,0.1,4.2,0,6.2-0.4c0.9-0.2,1.7-1.2,2.2-2.1
				c0.8-1.4,1.4-2.9,2.4-5C79.6,78.5,80.9,80.1,82.6,82.1z"/>
			<path class="st0" d="M51.9,71.1c1.8,0,3.4,1.5,3.4,3.3c0,1.9-2.9,3.8-5.7,3.8c-2,0-2.9-1.2-2.9-3.6
				C46.7,72.3,48.4,71.2,51.9,71.1z"/>
			<path class="st0" d="M101.4,67.9c-0.5-0.4-1.4-1-2.2-1.8c-0.7-0.8-0.5-1.8,0.5-2.2c2-0.7,4-1.5,6.1-1.8c1.8-0.3,2.5,1.1,1.5,2.7
				C106.1,66.6,104.3,67.7,101.4,67.9z"/>
		</g>
		<path class="st1" d="M62.1,129.9H64l4.4,10.3l4.5-10.3h0.3l4.6,10.3l4.4-10.3l1.9,0l-6.2,14.2l-0.3,0l-4.5-10.2l-4.5,10.2l-0.3,0
			L62.1,129.9z"/>
		<path class="st1" d="M101.3,129.6c2.2,0,4,0.8,5.4,2.4c1.3,1.4,2,3.2,2,5.1c0,2-0.7,3.7-2.1,5.2c-1.4,1.5-3.2,2.2-5.3,2.2
			c-2.2,0-4-0.7-5.3-2.2c-1.4-1.5-2.1-3.2-2.1-5.2c0-2,0.6-3.7,2-5.1C97.2,130.3,99.1,129.5,101.3,129.6z M101.2,131.3
			c-1.5,0-2.8,0.6-3.9,1.7c-1.1,1.1-1.6,2.5-1.6,4.1c0,1,0.2,2,0.7,2.9c0.5,0.9,1.2,1.6,2,2.1c0.8,0.5,1.8,0.7,2.8,0.7
			c1,0,1.9-0.2,2.8-0.7c0.8-0.5,1.5-1.2,2-2.1c0.5-0.9,0.8-1.8,0.8-2.9c0-1.6-0.5-2.9-1.6-4.1C104.1,131.9,102.8,131.3,101.2,131.3z
			"/>
		<path class="st1" d="M118.3,124.4h1.8v19.7h-1.8V124.4z"/>
		<path class="st1" d="M137.1,124.4v1.8c-0.7-0.3-1.2-0.4-1.7-0.4c-0.4,0-0.7,0.1-0.9,0.2c-0.2,0.1-0.4,0.3-0.4,0.5
			c-0.1,0.2-0.1,0.7-0.1,1.5v1.9h3v1.6h-3l0,12.6l-1.8,0v-12.6h-1.9v-1.6h1.9v-2.2c0-1,0.1-1.7,0.3-2.2c0.2-0.4,0.5-0.8,1-1.1
			c0.4-0.3,1-0.4,1.6-0.4C135.6,124.1,136.3,124.2,137.1,124.4z"/>
		<path class="st1" d="M73.2,156.7h1.8l0,5.3H78v1.6h-2.9l0,12.6l-1.8,0v-12.6l-2.5,0V162h2.5V156.7z"/>
		<path class="st1" d="M106.6,171.5l1.5,0.8c-0.5,1-1.1,1.8-1.8,2.4c-0.7,0.6-1.4,1.1-2.2,1.4c-0.8,0.3-1.8,0.5-2.8,0.5
			c-2.3,0-4.1-0.8-5.4-2.3c-1.3-1.5-2-3.2-2-5.1c0-1.8,0.6-3.4,1.7-4.8c1.4-1.8,3.3-2.7,5.6-2.7c2.4,0,4.4,0.9,5.8,2.8
			c1,1.3,1.6,2.9,1.6,4.9l-12.8,0c0,1.7,0.6,3,1.6,4.1c1,1.1,2.3,1.6,3.8,1.6c0.7,0,1.4-0.1,2.1-0.4c0.7-0.2,1.3-0.6,1.7-1
			C105.5,173.1,106,172.4,106.6,171.5z M106.6,167.6c-0.2-1-0.6-1.8-1.1-2.3c-0.5-0.6-1.1-1.1-1.8-1.4c-0.8-0.4-1.6-0.5-2.4-0.5
			c-1.4,0-2.6,0.4-3.6,1.3c-0.7,0.7-1.3,1.6-1.7,2.9L106.6,167.6z"/>
		<path class="st1" d="M134.9,162v14.2l-1.8,0v-2.4c-0.8,0.9-1.6,1.6-2.6,2.1c-1,0.5-2,0.7-3.1,0.7c-2,0-3.7-0.7-5.1-2.2
			c-1.4-1.5-2.1-3.2-2.1-5.3c0-2,0.7-3.8,2.2-5.2c1.4-1.4,3.2-2.2,5.2-2.2c1.2,0,2.2,0.2,3.2,0.7c0.9,0.5,1.8,1.2,2.5,2.2l0-2.6
			H134.9z M127.6,163.4c-1,0-1.9,0.2-2.8,0.8c-0.9,0.5-1.5,1.2-2.1,2.1c-0.5,0.9-0.8,1.9-0.8,2.9c0,1,0.3,1.9,0.8,2.9
			c0.5,0.9,1.2,1.6,2.1,2.1c0.9,0.5,1.8,0.8,2.8,0.8c1,0,1.9-0.3,2.8-0.8c0.9-0.5,1.6-1.2,2.1-2c0.5-0.9,0.7-1.8,0.7-2.9
			c0-1.6-0.5-3-1.6-4.1C130.5,163.9,129.2,163.4,127.6,163.4z"/>
	</g>
	<path class="st2" d="M100,200C44.9,200,0,155.1,0,100C0,44.9,44.9,0,100,0c55.1,0,100,44.9,100,100S155.1,200,100,200z M100,3.9
		C47,3.9,3.9,47,3.9,100c0,53,43.1,96.1,96.1,96.1c53,0,96.1-43.1,96.1-96.1C196.1,47,153,3.9,100,3.9z"/>
</g>
</svg>
