<?xml version="1.0" standalone="no"?>
<!DOCTYPE svg PUBLIC "-//W3C//DTD SVG 20010904//EN"
 "http://www.w3.org/TR/2001/REC-SVG-20010904/DTD/svg10.dtd">
<svg version="1.0" xmlns="http://www.w3.org/2000/svg"
 width="3000.000000pt" height="726.000000pt" viewBox="0 0 3000.000000 726.000000"
 preserveAspectRatio="xMidYMid meet">
<metadata>
Created by potrace 1.15, written by Peter Selinger 2001-2017
</metadata>
<g transform="translate(0.000000,726.000000) scale(0.100000,-0.100000)"
fill="#000000" stroke="none">
<path d="M350 4790 l0 -2380 400 0 400 0 0 489 0 489 236 246 c131 135 240
246 243 246 3 0 237 -331 519 -735 l514 -735 464 0 465 0 -19 28 c-1022 1471
-1385 1997 -1386 2008 0 7 303 324 674 704 371 380 677 695 678 700 2 6 -172
10 -480 10 l-483 0 -710 -757 -710 -758 -3 1413 -2 1412 -400 0 -400 0 0
-2380z"/>
<path d="M4110 4785 l0 -2385 405 0 405 0 0 2385 0 2385 -405 0 -405 0 0
-2385z"/>
<path d="M12858 5757 l-3 -1413 -710 758 -710 758 -483 0 c-321 0 -483 -3
-480 -10 2 -6 307 -321 678 -701 371 -379 675 -696 675 -702 0 -7 -316 -468
-702 -1024 -387 -556 -703 -1014 -703 -1017 0 -3 208 -6 463 -6 l462 1 515
739 c283 407 519 738 523 737 5 -1 114 -112 243 -247 l234 -244 0 -493 0 -493
400 0 400 0 0 2385 0 2385 -400 0 -400 0 -2 -1413z"/>
<path d="M14220 4785 l0 -2385 405 0 405 0 0 494 0 495 236 245 c130 135 240
246 243 245 3 0 238 -333 521 -739 l515 -740 463 0 c254 0 462 2 462 5 0 2
-318 462 -706 1020 -388 559 -704 1020 -702 1026 2 5 307 321 678 700 371 380
677 695 678 700 2 5 -185 9 -480 9 l-484 0 -709 -757 -710 -757 -3 1412 -2
1412 -405 0 -405 0 0 -2385z"/>
<path d="M18070 4785 l0 -2385 405 0 405 0 0 2385 0 2385 -405 0 -405 0 0
-2385z"/>
<path d="M28840 5755 l0 -1416 -712 761 -713 760 -483 0 c-313 0 -482 -3 -480
-10 2 -5 307 -321 678 -701 371 -380 674 -696 674 -703 -1 -7 -314 -464 -697
-1015 -383 -551 -699 -1006 -702 -1011 -4 -6 165 -10 459 -10 l464 0 512 732
c281 403 515 734 519 736 4 1 114 -109 244 -244 l237 -247 0 -488 0 -489 400
0 400 0 0 2380 0 2380 -400 0 -400 0 0 -1415z"/>
<path d="M5690 6755 l0 -375 430 0 430 0 0 375 0 375 -430 0 -430 0 0 -375z"/>
<path d="M8748 5919 c-116 -11 -265 -42 -380 -79 -126 -41 -372 -165 -488
-248 -122 -86 -316 -280 -403 -402 -85 -120 -194 -336 -241 -477 -181 -544
-101 -1156 210 -1615 237 -350 608 -609 1019 -713 172 -44 274 -55 490 -55
466 1 739 91 1100 364 89 68 295 263 295 280 0 6 -108 116 -240 244 l-239 233
-98 -86 c-185 -163 -377 -274 -549 -317 -129 -32 -361 -32 -488 0 -472 119
-786 549 -786 1077 0 337 117 627 338 836 211 200 474 290 758 260 196 -20
323 -66 477 -170 80 -53 233 -179 276 -225 14 -14 28 -26 31 -26 4 0 119 120
255 266 l248 267 -101 96 c-216 207 -460 354 -705 425 -222 64 -524 89 -779
65z"/>
<path d="M24605 5918 c-610 -61 -1162 -451 -1421 -1004 -130 -278 -181 -535
-171 -864 7 -239 39 -403 119 -603 168 -426 462 -743 874 -943 243 -118 442
-164 741 -171 450 -12 732 59 1036 261 129 86 231 170 346 284 l94 94 -240
240 -241 241 -108 -93 c-235 -203 -430 -303 -645 -330 -325 -40 -618 55 -844
275 -188 183 -301 433 -324 717 -58 715 457 1271 1107 1198 250 -28 421 -112
669 -331 52 -46 99 -84 104 -84 10 0 489 515 489 526 0 4 -40 46 -88 94 -171
168 -402 319 -603 394 -239 90 -593 130 -894 99z"/>
<path d="M20795 5904 c-282 -22 -445 -50 -653 -114 -122 -37 -294 -100 -404
-148 l-47 -21 106 -313 c58 -172 109 -316 113 -321 3 -4 60 13 126 38 340 130
567 171 897 162 227 -6 311 -23 456 -93 159 -78 267 -205 320 -378 19 -63 47
-294 36 -304 -2 -3 -46 7 -97 22 -238 66 -397 92 -655 106 -409 22 -776 -35
-1024 -161 -227 -114 -409 -304 -495 -518 -105 -260 -108 -616 -7 -861 135
-326 429 -552 825 -634 268 -55 597 -40 838 40 174 58 374 182 522 323 l88 83
0 -206 0 -206 395 0 396 0 -4 1158 c-3 1131 -4 1159 -25 1267 -119 619 -491
967 -1133 1060 -100 15 -471 27 -574 19z m423 -1935 c135 -14 321 -53 442 -91
l103 -32 -6 -156 c-7 -212 -34 -299 -140 -438 -89 -117 -273 -228 -463 -279
-90 -25 -115 -27 -289 -27 -218 -1 -267 8 -405 76 -60 29 -103 59 -145 102
-99 99 -131 192 -123 357 4 81 10 107 36 162 83 178 283 295 567 330 67 9 332
6 423 -4z"/>
<path d="M5720 4130 l0 -1730 405 0 405 0 0 1730 0 1730 -405 0 -405 0 0
-1730z"/>
<path d="M7630 1140 l0 -70 70 0 70 0 0 70 0 70 -70 0 -70 0 0 -70z"/>
<path d="M10630 1140 l0 -70 70 0 70 0 0 70 0 70 -70 0 -70 0 0 -70z"/>
<path d="M741 1184 c-170 -46 -306 -178 -366 -357 -30 -91 -35 -246 -10 -342
48 -182 210 -344 385 -384 70 -16 238 -13 301 5 84 25 161 68 220 123 l54 50
-42 42 -42 43 -60 -48 c-33 -26 -86 -59 -118 -74 -52 -24 -69 -27 -168 -27
-100 0 -115 2 -167 28 -82 40 -149 105 -190 184 -77 147 -77 289 -1 435 67
128 190 208 333 216 117 7 205 -23 307 -105 23 -18 45 -33 50 -33 5 0 28 20
52 44 l42 43 -48 43 c-58 51 -139 93 -220 114 -76 20 -239 20 -312 0z"/>
<path d="M9990 1020 l0 -120 -55 0 -55 0 0 -55 0 -55 54 0 54 0 4 -272 c3
-263 4 -275 26 -321 17 -34 37 -55 70 -75 41 -24 57 -27 132 -27 50 0 99 6
118 14 31 13 32 16 32 68 0 53 -1 55 -22 48 -55 -17 -135 -17 -167 0 -56 28
-61 56 -61 325 l0 240 125 0 125 0 0 55 0 55 -125 0 -125 0 0 120 0 120 -65 0
-65 0 0 -120z"/>
<path d="M1795 900 c-240 -76 -355 -355 -241 -585 42 -85 112 -154 196 -194
50 -23 67 -26 175 -26 115 0 123 1 186 32 339 167 300 670 -60 777 -73 21
-181 20 -256 -4z m254 -125 c62 -31 125 -103 146 -166 24 -73 21 -169 -8 -232
-32 -71 -66 -108 -129 -142 -46 -26 -63 -30 -128 -30 -61 0 -84 5 -126 27 -59
31 -108 84 -138 147 -29 64 -29 188 0 252 40 85 112 147 199 170 48 13 132 1
184 -26z"/>
<path d="M2871 903 c-25 -9 -66 -37 -93 -64 l-48 -48 0 54 0 55 -65 0 -65 0 0
-400 0 -400 65 0 65 0 0 248 c0 136 5 263 10 283 13 48 46 95 93 133 31 25 49
31 101 34 111 7 184 -52 206 -167 5 -30 10 -161 10 -292 l0 -239 59 0 60 0 3
268 c3 264 3 268 29 317 37 74 92 109 177 113 78 3 131 -20 168 -76 36 -53 44
-119 44 -377 l0 -245 66 0 66 0 -5 293 c-3 175 -9 307 -16 329 -20 65 -72 129
-131 162 -51 29 -62 31 -155 31 -92 0 -104 -2 -153 -29 -29 -17 -69 -47 -88
-69 l-35 -38 -41 46 c-58 66 -106 88 -203 92 -56 2 -94 -2 -124 -14z"/>
<path d="M4371 895 c-30 -14 -72 -44 -93 -67 l-38 -41 0 56 0 57 -60 0 -60 0
0 -400 0 -400 60 0 60 0 0 235 c0 264 8 317 54 378 50 66 98 88 177 85 78 -4
125 -33 162 -101 21 -40 22 -54 25 -319 l3 -278 59 0 58 0 4 263 c4 292 9 317
78 384 43 42 88 56 161 51 66 -5 100 -24 136 -78 38 -55 43 -96 43 -362 l0
-258 66 0 66 0 -4 297 c-5 344 -9 365 -88 444 -113 113 -321 107 -441 -13
l-50 -50 -17 23 c-54 78 -121 112 -227 117 -69 2 -87 -1 -134 -23z"/>
<path d="M6901 903 c-26 -9 -67 -38 -98 -67 l-53 -52 0 58 0 58 -60 0 -60 0 0
-400 0 -400 59 0 59 0 4 263 c3 251 4 264 27 310 42 84 115 127 218 127 92 0
168 -58 193 -149 5 -20 10 -152 10 -293 l0 -258 66 0 65 0 -3 298 -3 297 -33
68 c-37 74 -74 108 -152 138 -62 23 -175 24 -239 2z"/>
<path d="M8329 906 c-146 -39 -263 -173 -291 -333 -31 -183 62 -368 227 -449
56 -27 67 -29 180 -29 111 0 124 2 177 28 32 16 79 48 105 72 l48 44 -42 42
-42 42 -40 -36 c-81 -73 -180 -102 -268 -78 -144 39 -244 202 -214 350 31 154
133 245 276 245 79 0 113 -14 188 -76 l49 -41 44 44 44 43 -23 24 c-94 102
-272 148 -418 108z"/>
<path d="M9245 914 c-11 -2 -45 -9 -75 -15 -30 -6 -76 -20 -103 -31 -51 -22
-51 -22 -21 -94 l14 -32 72 26 c98 35 232 37 293 5 22 -11 48 -29 57 -40 25
-27 48 -87 48 -123 l0 -31 -47 8 c-27 4 -111 8 -188 8 -133 0 -143 -1 -197
-28 -105 -52 -158 -146 -145 -258 16 -131 115 -209 278 -217 108 -5 175 13
247 68 l52 40 0 -50 0 -50 66 0 66 0 -4 298 c-3 276 -4 300 -24 342 -30 64
-69 107 -124 135 -68 34 -194 53 -265 39z m195 -424 c103 -23 93 -13 88 -90
-3 -50 -9 -77 -24 -97 -38 -51 -88 -82 -157 -99 -58 -15 -76 -15 -123 -5 -171
39 -190 226 -29 285 46 17 180 20 245 6z"/>
<path d="M11320 902 c-353 -118 -387 -616 -53 -775 59 -28 81 -32 162 -36 114
-4 181 13 261 67 103 70 168 186 178 318 12 178 -75 329 -233 404 -61 29 -82
34 -165 37 -73 2 -108 -1 -150 -15z m246 -121 c55 -25 114 -85 144 -146 34
-71 34 -188 1 -263 -81 -181 -316 -226 -456 -87 -59 59 -87 132 -87 222 0 66
4 84 33 141 39 75 86 117 161 144 62 22 138 18 204 -11z"/>
<path d="M12407 904 c-30 -9 -66 -32 -97 -63 l-50 -47 0 53 0 53 -65 0 -65 0
0 -400 0 -400 65 0 65 0 0 264 0 264 28 53 c70 135 279 162 364 48 44 -60 48
-87 48 -365 l0 -264 66 0 65 0 -3 303 -3 302 -28 57 c-30 61 -65 96 -131 130
-54 28 -190 35 -259 12z"/>
<path d="M13277 906 c-110 -31 -177 -112 -177 -215 0 -116 58 -171 238 -227
138 -43 189 -69 208 -106 19 -36 18 -57 -5 -94 -53 -87 -225 -84 -369 6 -25
16 -49 27 -52 25 -4 -2 -20 -23 -35 -46 -29 -40 -29 -41 -10 -56 39 -29 136
-73 192 -88 75 -20 176 -19 244 1 175 52 229 282 89 383 -23 16 -96 48 -163
70 -179 60 -226 96 -212 160 21 98 164 116 323 41 l61 -29 25 44 c15 24 26 48
26 52 0 11 -56 39 -130 65 -73 25 -191 32 -253 14z"/>
<path d="M5620 612 c0 -327 4 -349 72 -427 66 -75 104 -90 228 -90 122 0 159
13 228 82 l42 42 0 -59 0 -60 65 0 65 0 0 400 0 400 -64 0 -65 0 -3 -262 c-3
-247 -4 -265 -25 -303 -25 -47 -65 -86 -112 -110 -25 -13 -52 -16 -106 -13
-91 4 -142 34 -176 105 -23 46 -24 58 -27 316 l-4 267 -59 0 -59 0 0 -288z"/>
<path d="M7640 500 l0 -400 60 0 60 0 0 400 0 400 -60 0 -60 0 0 -400z"/>
<path d="M10640 500 l0 -400 60 0 60 0 0 400 0 400 -60 0 -60 0 0 -400z"/>
</g>
</svg>
