<?xml version="1.0" encoding="utf-8"?>
<!-- Generator: Adobe Illustrator 18.0.0, SVG Export Plug-In . SVG Version: 6.00 Build 0)  -->
<!DOCTYPE svg PUBLIC "-//W3C//DTD SVG 1.1//EN" "http://www.w3.org/Graphics/SVG/1.1/DTD/svg11.dtd">
<svg version="1.1" id="圖層_1" xmlns="http://www.w3.org/2000/svg" xmlns:xlink="http://www.w3.org/1999/xlink" x="0px" y="0px"
	 viewBox="0 0 201.7 58.8" enable-background="new 0 0 201.7 58.8" xml:space="preserve">
<g>
	<g>
		<rect x="185.9" y="4.1" fill="#009E96" width="14.8" height="4"/>
		<path fill="#009E96" d="M184.6,5.7c-2,2.5-4.5,5.2-7.2,6.9l-1.9-3.9c2.1-1.3,4.1-3.3,5.7-5.3C182.3,4.1,183.4,4.9,184.6,5.7z"/>
		<polygon fill="#009E96" points="122.1,24.4 127.9,24.4 127.9,7.4 132.1,7.4 132.1,30 127.9,30 127.9,28.5 111.9,28.4 111.8,29.9 
			107.6,29.9 107.6,7.2 111.8,7.2 111.8,24.4 117.8,24.3 117.8,3.5 122.1,3.5 		"/>
		<polygon fill="#009E96" points="97.8,8.2 88.3,8.2 88.2,8.3 88.2,14.1 97.1,14.2 97.1,18.3 88.2,18.3 88.1,25.5 98.9,25.6 
			98.9,29.7 73,29.7 73,25.6 83.8,25.6 83.8,18.3 75,18.3 75,14.1 83.8,14.1 83.8,8.2 74.4,8.1 74.4,4 97.8,4 		"/>
		<path fill="#009E96" d="M201.7,12.3v3.9h-3.9l-0.1,11c-0.2,0.8-0.8,1.6-1.6,2c-1.8,0.8-4.1,0.5-6.1,0.5l-1.6-4l4.8-0.1
			c0.2-0.1,0.4-0.3,0.4-0.5l0-8.8l-9.2-0.1c0-1,0-2-0.1-2.8c-0.4,0.7-0.8,1.4-1.3,2v14.6h-4c0-3.2,0-6.4,0-9.6
			c-0.7,0.5-1.3,1.2-2,1.7l-1.8-4.3c2.7-2,4.7-4.8,6.4-7.5l2.9,2L201.7,12.3z"/>
		<g>
			<path fill="#009E96" d="M166,24.8c-0.3,0.1-0.2-0.3-0.4-0.3c-0.1-0.3-0.4-0.4-0.6-0.6c-0.1-0.3-0.4-0.3-0.4-0.7
				c0.1,0,0-0.4,0.3-0.2V23c0.4-0.2,0.6-0.4,0.9-0.6c0.1-0.1,0.3-0.1,0.3-0.3c0,0,0.1,0,0.2,0V22c0-0.1,0.2,0,0.2,0v-0.1
				c0-0.1,0.1,0,0.2,0v-0.1c0-0.1,0.2,0,0.2,0v-0.1c0.1-0.1,0.2,0,0.2,0v-0.1c0,0,0.1,0,0.1,0v-0.1c0-0.1,0.1,0,0.2,0v-0.3
				c-0.3-0.1-0.2-0.6-0.5-0.6c-0.1,0,0-0.2-0.2-0.2c-0.2-0.2-0.1-0.4-0.3-0.5c-0.1-0.1-0.1-0.3-0.2-0.4c-0.2-0.1-0.2-0.4-0.4-0.4
				c-0.1-0.4-0.4-0.6-0.6-0.8c-0.1,0.1-0.1,0.2-0.3,0.2c0,0,0,0.1,0,0.1c-0.5,0.2-0.8,0.8-1.3,1c-0.2,0.2-0.4,0.3-0.7,0.5
				c-0.4,0.1-0.3-0.2-0.4-0.3c-0.1-0.5-0.5-1.2,0-1.6h4V4h-12.7l-0.1,4.1c-1.8-1-3.2-2.9-4.2-4.6h-3.6c-1.2,2.2-2.9,4.3-5,5.9
				c0.4,1.4,0.9,2.9,1.5,4.3l1-0.6c0.2,0.2,0.1,0.6,0.1,0.9l2,0c0,0.3,0,0.7,0,1h-4v3.5l4.1,0.1l0,6.5l-0.7,0.3l-3.4,0.3l0.2,4
				c3.5-0.5,6.9-1.1,10.2-1.8c0.6,0.3,0.3,1.2,0.4,1.8c0.3,0.2,0.8,0.1,1.1,0c0.6,0.1,0.8-0.4,1.4-0.2c0.2-0.3,0.8,0,1-0.2
				c0.8-0.1,1.5-0.3,2.2-0.4c0.4-0.1,1-0.1,1.4-0.3c0.4-0.1,1.1,0,1.4-0.4v-2.6l0.2-0.1c0.2,0.1,0.4,0.3,0.4,0.6
				c0.2,0.1,0.3,0.4,0.5,0.5c0.1,0,0,0.3,0.2,0.2c0,0.4,0.5,0.3,0.5,0.7c0.4,0.1,0.4,0.5,0.7,0.6c0.1,0.3,0.4,0.4,0.6,0.6
				c0,0.3,0.4,0.2,0.4,0.6c0.3,0.2,0.6,0.3,0.8,0.6c0.3,0,0.2,0.1,0.4,0c0.2-0.3,0.4-0.5,0.5-0.8c0.2-0.1,0.2-0.4,0.4-0.4
				c0.1-0.2,0.2-0.2,0.2-0.4c0.2,0,0.2-0.2,0.3-0.4c0.2-0.3,0.4-0.5,0.6-0.9c0.2,0,0.2-0.2,0.3-0.4v-0.2
				C167,25.7,166.4,25.4,166,24.8z M147.6,8.2c0.6,0.6,1.4,1.3,1.7,2.1l-3.1,0C146.6,9.6,147.1,8.9,147.6,8.2z M153.6,25.5h-0.9
				c0-0.5,0-1,0-1.5c-0.2,0-0.2-0.2-0.2-0.2c0.4-1.3,0.6-2.7,0.8-4c-0.9-0.3-1.9-0.5-2.9-0.7l-0.8,4.1l0.1,0.2l2.2,0.5
				c-0.8,0.2-1.6,0.5-2.6,0.5v-5.7h3.7l0-3.6l-3.7-0.1V14c0.8-0.1,1.7,0,2.6,0c0.1-0.5,0-1,0.1-1.5c0.2-0.2,0.4,0.2,0.6,0.2
				c0.4-0.6,0.6-1.3,1-1.8V25.5z M157.7,8.1l0.2-0.2h4.3c0.2,0.3,0.1,0.8,0.1,1.3l-0.1,0.1h-4.3C157.5,9.2,157.8,8.5,157.7,8.1z
				 M157.5,24.8v-6.9c0.2-0.2,1.1-0.4,1,0.3c0.3,2.1,0.8,4.1,1.6,6C159.3,24.4,158.4,24.8,157.5,24.8z M157.8,14.2
				c-0.2-0.3-0.1-1,0-1.3h4.4c0.3,0.3,0.1,0.8,0.2,1.2C160.9,14.2,159.3,14.2,157.8,14.2z"/>
			<path fill="#009E96" d="M142.4,24.9c0.6-0.1,1.3-0.3,1.9-0.4c0.2-0.1,0.6-0.1,0.7-0.3c0-1.6-0.4-3.2-0.4-4.7
				c-0.4-0.3-0.9,0-1.3,0c-0.6,0.1-1.1,0.3-1.6,0.4l0.3,5L142,25C142.2,25,142.3,25.1,142.4,24.9z"/>
		</g>
		<path fill="#009E96" d="M94.5,20.6c0.4,0.6,0.5,1.3,0.3,2c-0.2,0.8-0.9,1.6-1.7,1.8c-1,0.3-2,0-2.8-0.8c-0.4-0.5-0.6-1.2-0.6-1.9
			c0.1-1,0.8-1.9,1.8-2.2C92.7,19.2,93.9,19.5,94.5,20.6z"/>
	</g>
	<g>
		<path fill="#009E96" d="M57.5,18.6c4.4,11.3,1.3,24.6-7.7,32.5c-7.8,7-19.3,9.6-29.6,6.2C8.7,53.5,0.7,43.1,0,30.9
			C-0.6,19.4,5.5,9,15.6,3.5c9.2-5.3,23.1-4.4,31.5,2C51.7,8.6,55.4,13.5,57.5,18.6z"/>
		<path fill="#FFFFFF" d="M28.3,13.7c1.1-0.3,2.4-1.1,3.5-0.3c0.7,1.1,2.8,1.5,2.2,3c1,1.3,2.2,2.8,3.6,3.8c0.3,0.1,0.4-0.1,0.6-0.3
			l-0.4-0.2c0.4-0.4,1.5,0.2,2.2-0.1c0.4,0,1,0.1,1.4,0.6c0.3,0.5,0.4,1.1,0.8,1.6l0.2-0.1c0.3,0.6,0.4,1,0.8,1.5
			c2.2,0.7,3.3,3.4,5.2,4.5c2.4,1.8,4.9,3.6,7.8,4.6c-0.1,0.4,0.3,0.4,0.5,0.5v0.1c-0.4-0.2-0.9-0.4-1.2-0.2
			c0.4,0.6,1.3,0.3,1.5,0.9h-1c0,0.2,0.2,0.2,0.4,0.2c-0.5-0.2-1,0.2-1.3-0.4c-2-0.9-3.9-2.1-5.7-3.2l-0.1,0.1
			c1.4,1.4,3.4,2.3,5,3.3c0.6,0.3,1.4,0.5,1.7,1c-0.2,0.1-0.5,0.1-0.6,0.3l-0.4-0.2c-0.1,0.1,0,0.2-0.1,0.2l0.3,0.2
			c-2.1-0.9-4.4-2.2-6.3-3.7c-0.9-0.6-1.9-1.1-2.8-1.8c-0.1,0-0.3-0.1-0.4,0.1c1,0.8,2.2,1.3,3.2,2c-1.9-0.9-4.2-2.3-5.7-4.1
			c-0.7-0.7-1.7-2.1-2.8-1.8c-0.4,0.2-1.1,0.2-1.6,0.4c-0.4,0-0.7-0.4-1.1-0.1c-0.3,0.7-1.3,0.1-1.5,0.9c-0.6,0.2-1.7,0.1-1.9,0.8
			l0.1,0.3c-1.2,0.6-2.9,0.4-3.8,1.5c-0.2,0.2-0.7-0.1-1,0.2c0.1-0.1-0.1-0.2-0.2-0.2c-0.3-0.1-0.5,0.2-0.7,0.2
			c-0.2-0.3,0.2-0.4,0.2-0.6C28.3,29,28,29.7,27.6,30c0.1-0.5,0.6-0.6,0.8-1c-0.3-0.2-0.6,0.1-0.8,0.2c0.1-0.1,0.4-0.5,0-0.5
			c0.3-0.5,1-0.3,1.2-0.9h-0.5c0.5-0.4,1-0.8,1.5-1.2c-0.2,0-0.6-0.5-0.9-0.1c0-0.1,0.1-0.1,0.1-0.2c-0.2-0.2-0.6,0.2-0.9,0.2
			c0,0.1,0.1-0.2-0.1-0.2h-0.2c0.2-0.1,0.4-0.4,0.7-0.6l-0.1-0.1c0.9-0.6,1.8-1.2,2.8-1.6l0.2-0.2c-0.2-0.3-0.7-0.3-1,0
			c0.8-0.1,0.1-0.9,0.9-1.1c0.1-0.7,0.7-1.2,1.2-1.5c-0.8-0.7-1.1-2.1-2-2.5c-0.1-0.6-0.6,0-0.7-0.6c-1.1-0.1-2.4,0.5-3.1-0.5
			c-0.6-0.2-1.3-0.1-1.8-0.1c-0.5,0.4-0.7,1-1,1.5c-0.5,0.4-0.7,1-1.1,1.5c-0.6,0.7-1.2,1.7-2.2,2c0-0.1,0-0.1,0-0.1
			c-0.7,0.9-2.2,0.6-3,1.5l-0.1-0.2c-0.3-0.1-0.6,0.1-0.6,0.4v0.1c-0.4-0.1-0.7,0.4-0.9,0.6c-1,1.1-2.8,1.1-3.9,2
			c-0.1,0.1,0.1,0,0-0.1c-2,0.4-3,2-4.4,3.4c-0.4,0.6-1,1-1.5,1.5c0.1,0.5-0.6,0.7-0.9,0.9C5.4,32.4,6,32,6,31.5
			c-0.5,0.2-0.6,0.8-1.2,1c-0.3-0.2,0.3-0.4,0.1-0.7l-0.7,0.6l0.7-0.9c-0.4,0.1-0.7,0.7-1.2,0.7c-0.1,0.2-0.3,0.2-0.6,0.2v-0.1
			c0.2-0.2,0.7-0.6,1-1c-0.4-0.2-0.9,0.3-1.2,0.2c-0.1-0.1-0.1-0.4-0.4-0.2c0.3-0.2,0.6-0.4,0.7-0.8c-0.2-0.1-0.6,0.1-0.8,0.2
			c0.1-0.3,0.7-0.5,0.5-1c-0.8-0.1-0.7,0.7-1.4,0.9c0.7-0.9,1.7-1.5,2.3-2.5L4,28.2c1.3-1.4,2.9-2.3,4.5-3.2c1.3-0.7,3-1.1,3.9-2.3
			c0.4-0.5,0.7-0.9,1-1.4c0.2,0.1,0.2-0.1,0.3-0.2c0.9-0.6,1.9-0.9,3-0.9c0.5-0.5,1.4-0.2,1.8-0.9c1.3-1.5,1.8-3.4,2.9-5
			c0.4-0.5,0.8-1.3,1.5-1.5C24.8,12.9,26.6,13.2,28.3,13.7z"/>
		<g>
			<polygon fill="#009E96" points="42.1,21 41.8,20.2 42.1,20.9 			"/>
			<path fill="#009E96" d="M42.5,22.3c-0.2-0.1-0.2-0.2-0.3-0.4C42.3,21.9,42.4,22.1,42.5,22.3z"/>
			<path fill="#009E96" d="M13.1,22.7c-0.2-0.4,0.3-0.5,0.5-0.8C13.5,22.2,13.4,22.5,13.1,22.7z"/>
			<polygon fill="#009E96" points="19,22.8 19,22.8 19.2,22.8 			"/>
			<path fill="#009E96" d="M17.7,23.2c-0.1,0.1-0.2,0.3-0.4,0.2C17.4,23.2,17.6,23.1,17.7,23.2z"/>
			<path fill="#FFFFFF" d="M29.6,24.2c-0.3,0.2-0.9,0.4-1,0.8c-0.6-0.1-0.9,0.5-1.4,0.5c0.1-0.5,0.8-0.2,0.9-0.7l0.5-0.4l0.1,0.2
				c0.2-0.2,0.8-0.1,0.6-0.6L29.6,24.2z"/>
			<path fill="#009E96" d="M27.6,24.6c-0.1,0.2-0.4,0.4-0.7,0.5C27,24.8,27.3,24.8,27.6,24.6z"/>
			<path fill="#009E96" d="M14.9,25.3c0.1,0.2-0.1,0-0.2,0.1C14.8,25.4,14.8,25.3,14.9,25.3z"/>
			<rect x="28.8" y="25.7" fill="#009E96" width="0.2" height="0.2"/>
			<path fill="#009E96" d="M28.5,26.1c0,0.1-0.1,0.1-0.2,0.2h-0.2c-0.1-0.2,0.1-0.2,0.2-0.3C28.4,26,28.4,26.1,28.5,26.1z"/>
			<path fill="#009E96" d="M29.7,27.3c-0.1,0.2-0.4,0.2-0.5,0.3c-0.2-0.1,0.1-0.1,0.1-0.2C29.4,27.4,29.5,27.2,29.7,27.3z"/>
			<path fill="#009E96" d="M29.8,27.6c-0.1,0.2-0.5,0.2-0.7,0.4c-0.1-0.2,0.3-0.4,0.5-0.5C29.6,27.6,29.8,27.6,29.8,27.6z"/>
			<path fill="#009E96" d="M44.6,28.2c0.2,0.1,0.4,0.4,0.6,0.6L45,29c-0.4-0.4-0.7-0.9-0.9-1.4C44.2,27.8,44.3,28.1,44.6,28.2z"/>
			<path fill="#009E96" d="M53.5,31.5c-0.2,0.1-0.4-0.1-0.6-0.2L53.5,31.5z"/>
			<path fill="#009E96" d="M55.2,32.4c-0.5-0.3-1.2-0.3-1.5-0.7C54.2,31.8,54.8,32.1,55.2,32.4z"/>
			<polygon fill="#009E96" points="49.8,32.4 49,31.8 49.5,32.1 			"/>
			<polygon fill="#009E96" points="55,34.2 55.1,34.1 55.3,34.2 			"/>
			<path fill="#009E96" d="M54.8,34.5h-0.2v-0.1C54.6,34.5,54.7,34.5,54.8,34.5z"/>
		</g>
	</g>
	<g>
		<path fill="#009E96" d="M181.2,49.1c0,0.1,0.1,0,0.2,0l0-8h2.8v13.1h-2.8l-5-8.5l-0.1,0v8.4h-2.8V41.2l3.1,0L181.2,49.1z"/>
		<path fill="#009E96" d="M192.1,46c0.1,0,0.2,0.1,0.3,0l4.4-4.8h3.6l-4.9,5.1l0,0.4l5.2,7.6l-3.2,0c-1.4-1.9-2.7-3.9-4-5.8l-0.2,0
			l-1.1,1.1v4.7h-2.8V41.2h2.8V46z"/>
		<path fill="#009E96" d="M165.7,41.1h-2.9l-4.5,13l-0.1,0.3h3l0.7-2.3c0.1-0.2,0.1-0.3,0.2-0.4l4.6,0l0.9,2.7h2.9v0L165.7,41.1z
			 M162.7,49.3c0.5-1.6,1-3.3,1.5-4.9h0.1c0.5,1.6,1.1,3.3,1.5,4.9C165.7,49.4,163.8,49.3,162.7,49.3z"/>
		<path fill="#009E96" d="M153,47.3v-0.2c0.4-0.2,0.8-0.5,1.1-0.9c0.7-0.9,0.7-2.3,0.2-3.3c-0.6-1.2-1.8-1.6-3-1.8l-6.4,0v13.1h6.6
			c0.7-0.1,1.3-0.2,1.9-0.6c1-0.6,1.6-1.6,1.7-2.7C155.2,49.4,154.3,48.1,153,47.3z M147.8,43.3c1.5,0.1,3.7-0.4,4.1,1
			c0.1,0.6,0.1,1.3-0.5,1.6c-0.2,0.2-0.5,0.3-0.8,0.3h-2.8V43.3z M151.8,51.5c-1,1-2.4,0.5-4,0.6v-3.4l3.2,0
			c0.4,0.1,0.8,0.4,1.1,0.8C152.2,50,152.4,51,151.8,51.5z"/>
		<g>
			<path fill="#009E96" d="M74.2,41.5h9.4v2.1h-6.9v2.8h6.4v2.1h-6.4v3.4h7.1v2.1h-9.7V41.5z"/>
			<path fill="#009E96" d="M95,49.9c0.1,0.7,0.5,2.4,2.8,2.4c1.8,0,2.5-0.9,2.5-1.8c0-1.1-0.9-1.3-3.2-1.9c-1.3-0.3-4.1-1-4.1-3.8
				c0-1.4,0.9-3.5,4.6-3.5c2.5,0,4.8,1,4.9,3.8l-2.6,0.1c-0.1-0.7-0.3-1.9-2.3-1.9c-0.8,0-2.1,0.2-2.1,1.3c0,0.8,0.8,1.2,2.8,1.7
				c1.9,0.5,4.6,1.1,4.6,4.2c0,1.5-1,2.8-2.1,3.3c-1.1,0.5-2.4,0.6-3,0.6c-1.4,0-4.7-0.1-5.2-4.4L95,49.9z"/>
			<path fill="#009E96" d="M110,41.5v6.9c0,1.5,0,2.1,0.3,2.7c0.5,0.9,1.5,1.1,2.3,1.1c2.4,0,2.4-1.5,2.4-3.7v-7h2.6v6.7
				c0,2.3-0.1,3.5-0.7,4.5c-1,1.5-2.8,1.8-4.2,1.8c-5.2,0-5.2-3.2-5.2-6.1v-6.8H110z"/>
			<path fill="#009E96" d="M122.8,41.5h2.5l5.2,8.5h0v-8.5h2.4v12.7h-2.6l-5.1-8.3h0v8.3h-2.4V41.5z"/>
			<circle fill="#009E96" cx="88.6" cy="52.6" r="1.6"/>
		</g>
	</g>
</g>
</svg>
