<?xml version="1.0" encoding="UTF-8"?>
<svg width="500px" height="204px" viewBox="0 0 500 204" version="1.1" xmlns="http://www.w3.org/2000/svg" xmlns:xlink="http://www.w3.org/1999/xlink">
    <!-- Generator: Sketch 45.2 (43514) - http://www.bohemiancoding.com/sketch -->
    <title>Page 1</title>
    <desc>Created with Sketch.</desc>
    <defs>
        <polygon id="path-1" points="0 0.7814 0 203.9994 216.0248 203.9994 216.0248 0.7814"></polygon>
    </defs>
    <g id="web-UI" stroke="none" stroke-width="1" fill="none" fill-rule="evenodd">
        <g id="Page-1" transform="translate(0.000000, -1.000000)">
            <g id="Group-3" transform="translate(0.000000, 0.219000)">
                <mask id="mask-2" fill="white">
                    <use xlink:href="#path-1"></use>
                </mask>
                <g id="Clip-2"></g>
                <path d="M188.4378,116.1844 C187.8548,120.6174 186.8978,124.6254 185.5428,128.2134 C184.2098,131.7974 182.3758,134.7224 180.0668,136.9594 C177.7638,139.2054 174.9488,140.3164 171.6128,140.3164 C169.3038,140.3164 167.4438,139.8424 166.0348,138.8824 C164.6208,137.9214 163.5918,136.9324 162.9658,135.8994 L162.9658,82.2444 C163.9808,79.0414 165.5828,76.6524 167.7658,75.0414 C169.9348,73.4494 172.1948,72.6354 174.4978,72.6354 C175.4018,72.6354 176.6498,72.8944 178.2378,73.4044 C179.8538,73.9234 181.4808,75.1674 183.1408,77.1534 C184.8138,79.1404 186.2548,82.1864 187.4718,86.2884 C188.6798,90.3954 189.3098,95.9694 189.3098,103.0144 C189.3098,107.3814 189.0148,111.7734 188.4378,116.1844 L188.4378,116.1844 Z M85.7488,100.7274 C85.7488,105.1794 85.0368,109.3894 83.6228,113.3354 C82.2138,117.2894 80.2408,120.7884 77.7138,123.8164 C75.1868,126.8584 72.2078,129.2914 68.7708,131.1124 C65.3398,132.9284 61.7038,133.8364 57.8748,133.8364 C50.6048,133.8364 44.4398,130.1914 39.4028,122.9044 C34.3338,115.6084 31.8198,103.7714 31.8198,87.3524 C31.8198,79.8644 32.4738,72.0264 33.7928,63.8224 C35.1038,55.6184 37.1748,48.1734 40.0058,41.5034 C42.8208,34.8074 46.4608,29.2954 50.8998,24.9384 C55.3368,20.5814 60.7998,18.4034 67.2718,18.4034 C72.5158,18.4034 76.5558,19.7224 79.3818,22.3534 C82.2138,24.9914 84.3258,28.0254 85.7488,31.4694 L85.7488,100.7274 Z M206.1348,69.2704 C203.1058,65.6254 199.6528,62.9624 195.7428,61.2904 C191.8228,59.6264 187.6908,58.7934 183.3418,58.7934 C178.5998,58.7934 174.5518,59.5904 171.2278,61.1964 C167.8958,62.8024 165.1308,64.7434 162.9658,67.0594 L162.9658,52.6424 L135.2658,52.6424 L135.2658,132.4954 C133.7488,133.3044 131.8428,133.8364 130.5898,133.8364 C126.9538,133.8364 124.1798,132.8884 122.2568,130.9644 C120.3368,129.0454 118.9328,126.6694 118.0158,123.8464 C117.1118,121.0114 116.5478,118.0414 116.3418,114.9004 C116.1458,111.7784 116.0468,108.9964 116.0468,106.5714 L116.0468,0.7814 L85.7488,0.7814 L85.7488,12.9494 C85.7488,12.9494 78.7248,7.4914 73.1688,5.3174 C67.6168,3.1384 62.2178,2.0424 56.9608,2.0424 C46.8648,2.0424 38.1868,4.7634 30.9078,10.2294 C23.6428,15.6784 17.7378,22.6024 13.1788,30.9864 C8.6388,39.3704 5.3098,48.6574 3.1848,58.8474 C1.0608,69.0604 -0.0002,78.8924 -0.0002,88.3914 C-0.0002,100.7144 1.5698,111.2234 4.6928,119.9024 C7.8368,128.5984 11.8278,135.6574 16.6718,141.1134 C21.5178,146.5594 27.0248,150.5504 33.1888,153.0844 C39.3358,155.6044 45.4558,156.8574 51.5168,156.8574 C61.2028,156.8574 69.4818,154.0954 76.3538,148.5374 C83.2168,142.9834 88.1728,136.2624 91.1968,128.3834 C93.0178,138.6914 96.4488,146.0134 101.4898,150.3624 C106.5408,154.6954 112.2128,156.8574 118.4678,156.8574 C124.3238,156.8574 129.5798,155.1424 134.2228,151.7154 C134.5988,151.4384 134.9348,151.1524 135.2658,150.8474 L135.2658,203.9994 L162.9658,197.0654 L162.9658,150.3184 C164.3558,152.1264 166.4858,153.6834 169.3038,155.0434 C172.1308,156.3834 175.9658,157.0544 180.8418,157.0544 C187.6318,157.0544 193.3098,155.5424 197.8498,152.5304 C202.4088,149.5214 206.0188,145.5754 208.7158,140.7024 C211.4178,135.8364 213.3058,130.3264 214.3968,124.1744 C215.4838,118.0144 216.0248,111.8684 216.0248,105.7074 C216.0248,97.1184 215.1358,89.8134 213.3408,83.7834 C211.5478,77.7614 209.1408,72.9304 206.1348,69.2704 L206.1348,69.2704 Z" id="Fill-1" fill="#214EA0" mask="url(#mask-2)"></path>
            </g>
            <path d="M276.2972,116.4034 C275.7152,120.8364 274.7402,124.8444 273.4122,128.4324 C272.0562,132.0164 270.2272,134.9414 267.9192,137.1784 C265.6142,139.4244 262.8002,140.5354 259.4642,140.5354 C257.1512,140.5354 255.2942,140.0614 253.8802,139.1014 C252.4712,138.1404 251.4432,137.1514 250.8122,136.1184 L250.8122,82.4634 C251.8362,79.2604 253.4292,76.8714 255.6152,75.2604 C257.7952,73.6684 260.0362,72.8544 262.3402,72.8544 C263.2342,72.8544 264.4862,73.1134 266.0972,73.6234 C267.6942,74.1424 269.3412,75.3864 270.9962,77.3724 C272.6692,79.3594 274.1062,82.4054 275.3262,86.5074 C276.5382,90.6144 277.1512,96.1884 277.1512,103.2334 C277.1512,107.6004 276.8612,111.9924 276.2972,116.4034 M293.9722,69.4894 C290.9562,65.8444 287.5042,63.1814 283.6032,61.5094 C279.6752,59.8454 275.5372,59.0124 271.2022,59.0124 C266.4472,59.0124 262.4162,59.8094 259.0832,61.4154 C255.7452,63.0214 252.9852,64.9624 250.8122,67.2784 L250.8122,52.8614 L223.1072,52.8614 L223.1072,204.2184 L250.8122,197.2844 L250.8122,150.5374 C252.2162,152.3454 254.3232,153.9024 257.1512,155.2624 C259.9782,156.6024 263.8172,157.2734 268.6932,157.2734 C275.4842,157.2734 281.1592,155.7614 285.7052,152.7494 C290.2632,149.7404 293.8832,145.7944 296.5752,140.9214 C299.2682,136.0554 301.1652,130.5454 302.2482,124.3934 C303.3302,118.2334 303.8852,112.0874 303.8852,105.9264 C303.8852,97.3374 302.9822,90.0324 301.1962,84.0024 C299.3982,77.9804 296.9782,73.1494 293.9722,69.4894" id="Fill-4" fill="#214EA0"></path>
            <path d="M388.2249,93.3072 C389.0569,88.5962 390.1489,84.4762 391.4909,80.9782 C392.8369,77.4702 394.4149,74.6612 396.2039,72.5542 C397.9899,70.4472 399.9859,69.3952 402.1629,69.3952 C403.9569,69.3952 405.6309,70.3262 407.1519,72.1652 C408.7039,74.0212 409.4779,77.1752 409.4779,81.6402 C409.4779,85.2092 408.8969,88.5282 407.7379,91.5982 C406.5919,94.6532 404.9869,97.3642 402.9429,99.7182 C400.8899,102.0842 398.4509,103.9942 395.6199,105.4662 C392.8139,106.9332 389.7899,107.7922 386.5869,108.0432 C386.8469,102.9432 387.3879,98.0352 388.2249,93.3072 M497.9329,70.0672 C497.0919,68.0852 495.9419,66.2512 494.4749,64.5962 C493.0019,62.9272 491.2679,61.5712 489.2769,60.5522 C487.2899,59.5322 485.0799,59.0132 482.6379,59.0132 C478.5489,59.0132 474.7609,60.3372 471.3019,62.9492 C467.8269,65.5802 464.6899,68.5592 461.8809,71.8922 L461.8809,59.9742 L434.1899,59.9742 L434.1899,123.4762 C432.7719,125.5152 431.3539,127.4622 429.8599,129.2882 C427.9359,131.6672 425.8259,133.7202 423.5159,135.4522 C421.1989,137.1792 418.5779,138.5562 415.6379,139.5802 C412.6719,140.6162 409.2819,141.1172 405.4289,141.1172 C398.5139,141.1172 393.6679,139.2852 390.9089,135.6352 C388.1489,131.9852 386.7209,125.8642 386.5869,117.2752 C391.3459,117.0162 395.9819,116.0862 400.5319,114.4882 C405.0889,112.8832 409.1239,110.5832 412.6449,107.5642 C416.1699,104.5622 418.9939,100.8672 421.1049,96.5002 C423.2299,92.1532 424.2899,87.0882 424.2899,81.3082 C424.2899,80.2892 424.1289,78.5572 423.7979,76.1292 C423.4759,73.6902 422.5139,71.1982 420.9079,68.6222 C419.3109,66.0682 416.8369,63.8222 413.5089,61.8942 C410.1719,59.9742 405.4289,59.0132 399.2879,59.0132 C391.1999,59.0132 384.5419,60.8032 379.2829,64.3942 C374.0219,67.9912 369.8559,72.4782 366.7879,77.8512 C363.7049,83.2362 361.5579,89.1062 360.3409,95.4402 C359.1199,101.7972 358.5159,107.7212 358.5159,113.2312 C358.5159,120.4652 359.3209,126.7332 360.9099,132.0532 C360.5469,132.6462 360.1889,133.2552 359.7549,133.8132 C357.2629,137.0212 354.1559,138.6092 350.4369,138.6092 C346.7189,138.6092 344.1209,137.7462 342.6529,136.0282 C341.1719,134.2982 340.4389,130.7312 340.4389,125.3492 L340.4389,59.9742 L312.7429,59.9742 L312.7429,127.4672 C312.7429,136.4402 314.7289,143.6492 318.7019,149.0962 C322.6739,154.5472 329.5949,157.2732 339.4729,157.2732 C342.0269,157.2732 344.9749,156.8892 348.3259,156.1202 C351.6619,155.3432 354.9149,153.7152 358.1359,151.2092 C360.8699,149.0782 363.3699,146.1352 365.6379,142.4152 C366.7249,144.0692 367.8829,145.6152 369.1899,146.9752 C372.5769,150.5102 376.5979,153.0982 381.2059,154.7702 C385.8219,156.4412 390.8859,157.2732 396.4029,157.2732 C402.9429,157.2732 408.6369,156.2452 413.5089,154.1982 C418.3839,152.1402 422.6539,149.4542 426.3119,146.1172 C429.3399,143.3452 431.9489,140.2502 434.1899,136.8692 L434.1899,165.5952 L461.8809,149.7942 L461.8809,83.0492 C463.9249,80.8662 465.8849,79.0412 467.7449,77.5692 C469.6019,76.0882 471.4909,75.3592 473.4129,75.3592 C475.2109,75.3592 476.4599,76.0032 477.1719,77.2792 C477.8739,78.5572 478.5489,79.9402 479.1759,81.4162 C479.8249,82.8842 480.7089,84.2622 481.8769,85.5492 C483.0229,86.8202 485.0799,87.4682 488.0289,87.4682 C491.9959,87.4682 494.8499,86.2832 496.5859,83.9032 C498.3269,81.5412 499.1809,78.9562 499.1809,76.1292 C499.1809,74.0792 498.7559,72.0532 497.9329,70.0672" id="Fill-6" fill="#214EA0"></path>
            <path d="M326.1497,48.4376 C330.9367,48.4376 335.0257,46.7646 338.4477,43.4186 C341.8707,40.0896 343.5747,36.0196 343.5747,31.2326 C343.5747,26.4366 341.8707,22.3266 338.4477,18.9206 C335.0257,15.5126 330.9367,13.8036 326.1497,13.8036 C321.3587,13.8036 317.2837,15.5126 313.9517,18.9206 C310.6047,22.3266 308.9497,26.4366 308.9497,31.2326 C308.9497,36.0196 310.6047,40.0896 313.9517,43.4186 C317.2837,46.7646 321.3587,48.4376 326.1497,48.4376" id="Fill-8" fill="#214EA0"></path>
        </g>
    </g>
</svg>