<?xml version="1.0" encoding="utf-8"?>
<!-- Generator: Adobe Illustrator 18.0.0, SVG Export Plug-In . SVG Version: 6.00 Build 0)  -->
<!DOCTYPE svg PUBLIC "-//W3C//DTD SVG 1.1//EN" "http://www.w3.org/Graphics/SVG/1.1/DTD/svg11.dtd">
<svg version="1.1" id="圖層_1" xmlns="http://www.w3.org/2000/svg" xmlns:xlink="http://www.w3.org/1999/xlink" x="0px" y="0px"
	 viewBox="21.5 46.1 259.1 104.5" style="enable-background:new 21.5 46.1 259.1 104.5;" xml:space="preserve">
<style type="text/css">
	.st0{fill:#333333;}
</style>
<title>White</title>
<desc>Created with Sketch.</desc>
<g id="Page-1">
	<g id="White">
		<path id="_xF15C_" class="st0" d="M98.5,55.7c0.2,0.2,0.4,0.4,0.6,0.7h-9.5v-9.5c0.3,0.2,0.5,0.4,0.7,0.6L98.5,55.7z M88.9,59
			h10.9v21.2c0,1.1-0.9,1.9-1.9,1.9h-27c-1.1,0-1.9-0.9-1.9-1.9V48.1c0-1.1,0.9-1.9,1.9-1.9H87v10.9C87,58.1,87.9,59,88.9,59z
			 M92.1,73.8v-1.3c0-0.4-0.3-0.6-0.6-0.6H77.4c-0.4,0-0.6,0.3-0.6,0.6v1.3c0,0.4,0.3,0.6,0.6,0.6h14.1
			C91.9,74.4,92.1,74.1,92.1,73.8z M92.1,68.6v-1.3c0-0.4-0.3-0.6-0.6-0.6H77.4c-0.4,0-0.6,0.3-0.6,0.6v1.3c0,0.4,0.3,0.6,0.6,0.6
			h14.1C91.9,69.3,92.1,69,92.1,68.6z M92.1,63.5v-1.3c0-0.4-0.3-0.6-0.6-0.6H77.4c-0.4,0-0.6,0.3-0.6,0.6v1.3
			c0,0.4,0.3,0.6,0.6,0.6h14.1C91.9,64.1,92.1,63.9,92.1,63.5z"/>
		<path id="HackMD" class="st0" d="M110.2,53.4h3v9.9h11v-9.9h3V77h-3V65.9h-11V77h-3V53.4z M132.6,72.5c0-1.9,0.9-3.4,2.6-4.4
			c1.7-1,4.4-1.7,8.2-2.1c0-0.6-0.1-1.1-0.2-1.6c-0.1-0.5-0.3-1-0.6-1.4s-0.6-0.7-1.1-1c-0.5-0.3-1-0.4-1.8-0.4c-1,0-2,0.2-2.9,0.6
			s-1.7,0.8-2.4,1.3l-1.2-2.1c0.8-0.5,1.8-1,3-1.5c1.2-0.5,2.5-0.7,3.9-0.7c2.1,0,3.7,0.7,4.6,2s1.4,3.1,1.4,5.2V77h-2.4l-0.3-2.1
			h-0.1c-0.8,0.7-1.7,1.3-2.7,1.8c-1,0.5-2,0.7-3.1,0.7c-1.5,0-2.7-0.4-3.7-1.3C133,75.3,132.6,74,132.6,72.5z M135.5,72.2
			c0,1,0.3,1.7,0.9,2.2c0.6,0.4,1.3,0.6,2.2,0.6c0.8,0,1.6-0.2,2.4-0.6c0.8-0.4,1.6-1,2.4-1.7v-4.9c-1.5,0.2-2.7,0.4-3.7,0.7
			c-1,0.3-1.8,0.6-2.4,0.9c-0.6,0.4-1.1,0.8-1.3,1.2C135.6,71.2,135.5,71.7,135.5,72.2z M150.6,68.3c0-1.5,0.2-2.8,0.7-3.9
			c0.5-1.1,1.1-2.1,1.8-2.9s1.7-1.4,2.7-1.8c1-0.4,2.1-0.6,3.2-0.6c1.2,0,2.1,0.2,3,0.6s1.5,0.9,2.1,1.5l-1.5,1.9
			c-0.5-0.5-1.1-0.8-1.6-1.1c-0.6-0.3-1.2-0.4-1.9-0.4c-0.8,0-1.5,0.2-2.2,0.5c-0.7,0.3-1.2,0.8-1.7,1.4c-0.5,0.6-0.9,1.3-1.1,2.1
			c-0.3,0.8-0.4,1.7-0.4,2.8s0.1,1.9,0.4,2.7c0.3,0.8,0.6,1.5,1.1,2.1c0.5,0.6,1,1,1.7,1.4c0.7,0.3,1.4,0.5,2.2,0.5
			c0.8,0,1.6-0.2,2.3-0.5c0.7-0.3,1.3-0.8,1.8-1.2l1.3,1.9c-0.8,0.7-1.7,1.2-2.6,1.7s-2,0.6-3,0.6c-1.2,0-2.2-0.2-3.2-0.6
			s-1.9-1-2.6-1.8c-0.7-0.8-1.3-1.7-1.7-2.9C150.8,71,150.6,69.7,150.6,68.3z M168.3,51.4h2.9v17.4h0.1l7.5-9.2h3.3l-5.9,7l6.7,10.5
			h-3.2l-5.1-8.4l-3.3,3.8V77h-2.9V51.4z M186.4,53.4h3.5l4.6,12.7l1.7,4.8h0.1l1.7-4.8l4.5-12.7h3.5V77h-2.8V64
			c0-1.1,0-2.2,0.1-3.5s0.2-2.4,0.3-3.5h-0.1l-1.9,5.3L197,74.6h-1.7l-4.6-12.3l-1.9-5.3h-0.1c0.1,1.1,0.2,2.2,0.3,3.5
			c0.1,1.3,0.1,2.4,0.1,3.5v13h-2.8V53.4z M212.6,53.4h5.9c3.6,0,6.4,1,8.3,3s2.8,4.9,2.8,8.7c0,1.9-0.2,3.5-0.7,5
			c-0.5,1.5-1.2,2.7-2.1,3.7s-2.1,1.8-3.5,2.3c-1.4,0.5-2.9,0.8-4.7,0.8h-6V53.4z M218.2,74.6c2.8,0,4.8-0.8,6.2-2.5s2.1-4,2.1-7
			s-0.7-5.3-2.1-6.9s-3.4-2.4-6.2-2.4h-2.7v18.7H218.2z"/>
		<path id="Best-way-to-write-an" class="st0" d="M21.5,107.8H25c1.3,0,2.4,0.3,3.2,0.8c0.8,0.5,1.2,1.3,1.2,2.4
			c0,0.7-0.2,1.3-0.6,1.8s-1,0.9-1.8,1.1v0.1c1,0.1,1.7,0.5,2.3,1c0.6,0.5,0.8,1.2,0.8,2.2c0,0.6-0.1,1.2-0.4,1.7
			c-0.2,0.5-0.6,0.9-1,1.2s-0.9,0.6-1.5,0.7c-0.6,0.2-1.3,0.2-2,0.2h-3.8V107.8z M24.6,113.6c1.4,0,2.3-0.2,2.9-0.7s0.9-1.1,0.9-2
			c0-0.9-0.3-1.5-0.9-1.8c-0.6-0.4-1.5-0.6-2.8-0.6h-2.4v5H24.6z M25,120.2c1.3,0,2.4-0.2,3.1-0.7c0.8-0.5,1.1-1.3,1.1-2.3
			c0-0.9-0.4-1.7-1.1-2.1c-0.7-0.5-1.8-0.7-3.1-0.7h-2.7v5.9H25z M32.1,116.2c0-0.8,0.1-1.5,0.3-2.1s0.5-1.2,0.9-1.6
			c0.4-0.4,0.8-0.8,1.3-1c0.5-0.2,1-0.3,1.5-0.3c1.1,0,2,0.4,2.7,1.2c0.7,0.8,1,1.9,1,3.3v0.4c0,0.1,0,0.2,0,0.4H33
			c0,0.6,0.1,1.2,0.3,1.7c0.2,0.5,0.4,1,0.7,1.3s0.7,0.7,1.1,0.9c0.4,0.2,0.9,0.3,1.5,0.3c0.5,0,1-0.1,1.4-0.2s0.8-0.4,1.2-0.6
			l0.4,0.7c-0.4,0.2-0.8,0.4-1.3,0.6c-0.5,0.2-1,0.3-1.8,0.3c-0.6,0-1.2-0.1-1.7-0.3c-0.5-0.2-1-0.6-1.4-1c-0.4-0.4-0.7-1-1-1.6
			S32.1,117,32.1,116.2z M39.1,115.6c0-1.2-0.3-2.2-0.8-2.8c-0.5-0.6-1.2-0.9-2.1-0.9c-0.4,0-0.8,0.1-1.2,0.3
			c-0.4,0.2-0.7,0.4-1,0.7c-0.3,0.3-0.5,0.7-0.7,1.2c-0.2,0.5-0.3,1-0.4,1.6H39.1z M41.9,119.3c0.4,0.3,0.9,0.6,1.3,0.9
			c0.5,0.2,1,0.4,1.7,0.4c0.8,0,1.3-0.2,1.7-0.6c0.4-0.4,0.6-0.8,0.6-1.3c0-0.3-0.1-0.6-0.2-0.8c-0.1-0.2-0.3-0.4-0.5-0.6
			c-0.2-0.2-0.5-0.3-0.8-0.4c-0.3-0.1-0.5-0.2-0.8-0.3c-0.4-0.1-0.7-0.3-1.1-0.4s-0.7-0.3-1-0.5c-0.3-0.2-0.5-0.5-0.7-0.7
			c-0.2-0.3-0.3-0.6-0.3-1c0-0.3,0.1-0.7,0.2-1c0.1-0.3,0.3-0.6,0.6-0.8c0.3-0.2,0.6-0.4,1-0.6c0.4-0.1,0.8-0.2,1.3-0.2
			s1,0.1,1.5,0.3c0.5,0.2,0.9,0.4,1.2,0.7l-0.5,0.6c-0.3-0.2-0.7-0.4-1-0.6c-0.4-0.2-0.8-0.2-1.3-0.2c-0.4,0-0.7,0.1-1,0.2
			s-0.5,0.2-0.7,0.4c-0.2,0.2-0.3,0.3-0.4,0.6c-0.1,0.2-0.1,0.4-0.1,0.6c0,0.3,0.1,0.5,0.2,0.7c0.1,0.2,0.3,0.4,0.5,0.5
			s0.5,0.3,0.7,0.4c0.3,0.1,0.5,0.2,0.8,0.3l1.1,0.4c0.4,0.1,0.7,0.3,1,0.5c0.3,0.2,0.5,0.5,0.7,0.8c0.2,0.3,0.3,0.7,0.3,1.2
			c0,0.4-0.1,0.7-0.2,1c-0.1,0.3-0.3,0.6-0.6,0.9c-0.3,0.2-0.6,0.4-1,0.6c-0.4,0.1-0.9,0.2-1.4,0.2c-0.7,0-1.4-0.1-2-0.4
			s-1.1-0.6-1.5-0.9L41.9,119.3z M50.9,112.2h-1.5v-0.7l1.5-0.1l0.1-2.8h0.8v2.8h2.8v0.8h-2.8v6.3c0,0.3,0,0.6,0.1,0.8
			c0,0.2,0.1,0.5,0.2,0.6c0.1,0.2,0.3,0.3,0.5,0.4c0.2,0.1,0.5,0.2,0.8,0.2c0.2,0,0.4,0,0.6-0.1c0.2-0.1,0.4-0.1,0.6-0.2l0.2,0.7
			c-0.3,0.1-0.6,0.2-0.8,0.3c-0.3,0.1-0.5,0.1-0.7,0.1c-0.5,0-0.9-0.1-1.2-0.2c-0.3-0.1-0.6-0.3-0.7-0.6s-0.3-0.6-0.4-0.9
			c-0.1-0.4-0.1-0.8-0.1-1.2V112.2z M59.5,111.4h1l1.7,6.2c0.1,0.4,0.2,0.9,0.3,1.3c0.1,0.4,0.2,0.8,0.3,1.3H63
			c0.1-0.4,0.2-0.8,0.3-1.3c0.1-0.4,0.2-0.8,0.4-1.3l1.7-6.2h1.1l1.7,6.2c0.1,0.4,0.2,0.9,0.4,1.3c0.1,0.4,0.2,0.8,0.4,1.3H69
			c0.1-0.4,0.2-0.8,0.3-1.3c0.1-0.4,0.2-0.8,0.3-1.3l1.7-6.2h0.9l-2.8,9.6h-1.2l-1.7-6c-0.1-0.5-0.3-0.9-0.4-1.4
			c-0.1-0.4-0.2-0.9-0.4-1.4h-0.1c-0.1,0.5-0.2,0.9-0.3,1.4c-0.1,0.5-0.3,0.9-0.4,1.4l-1.7,5.9h-1.1L59.5,111.4z M73.8,118.6
			c0-1.1,0.5-1.9,1.5-2.4c1-0.6,2.6-1,4.7-1.2c0-0.4,0-0.7-0.1-1.1c-0.1-0.4-0.2-0.7-0.3-1c-0.2-0.3-0.4-0.5-0.7-0.7
			c-0.3-0.2-0.7-0.3-1.2-0.3c-0.7,0-1.2,0.1-1.8,0.4c-0.5,0.3-1,0.5-1.3,0.7l-0.4-0.7c0.2-0.1,0.4-0.3,0.6-0.4s0.5-0.3,0.8-0.4
			s0.6-0.2,1-0.3c0.4-0.1,0.7-0.1,1.1-0.1c0.6,0,1.1,0.1,1.4,0.3c0.4,0.2,0.7,0.5,0.9,0.8c0.2,0.3,0.4,0.7,0.5,1.2
			c0.1,0.4,0.2,0.9,0.2,1.4v6.1h-0.7l-0.1-1.2h0c-0.5,0.4-1,0.7-1.6,1c-0.6,0.3-1.2,0.4-1.8,0.4c-0.4,0-0.7-0.1-1.1-0.2
			s-0.6-0.3-0.9-0.5s-0.5-0.5-0.6-0.8S73.8,119.1,73.8,118.6z M74.8,118.6c0,0.7,0.2,1.2,0.6,1.5s0.9,0.4,1.4,0.4
			c0.6,0,1.1-0.1,1.6-0.4c0.5-0.3,1.1-0.7,1.7-1.2v-3.3c-1,0.1-1.8,0.3-2.5,0.4c-0.7,0.2-1.2,0.4-1.6,0.6c-0.4,0.2-0.7,0.5-0.9,0.8
			C74.9,117.8,74.8,118.2,74.8,118.6z M83.2,124.4c0.1,0,0.2,0.1,0.4,0.1s0.3,0,0.4,0c0.6,0,1.1-0.2,1.5-0.7c0.4-0.5,0.7-1.1,1-1.8
			l0.3-0.8l-3.9-9.8h1l2.3,6c0.1,0.4,0.3,0.8,0.5,1.3s0.4,0.9,0.5,1.4h0.1c0.1-0.4,0.3-0.9,0.5-1.4c0.2-0.5,0.3-0.9,0.4-1.3l2.1-6
			H91l-3.8,10.8c-0.1,0.4-0.3,0.8-0.5,1.2c-0.2,0.4-0.4,0.7-0.7,1s-0.6,0.5-0.9,0.7s-0.7,0.3-1.2,0.3c-0.4,0-0.7-0.1-1-0.2
			L83.2,124.4z M97.3,112.2h-1.5v-0.7l1.5-0.1l0.1-2.8h0.8v2.8h2.8v0.8h-2.8v6.3c0,0.3,0,0.6,0.1,0.8c0,0.2,0.1,0.5,0.2,0.6
			c0.1,0.2,0.3,0.3,0.5,0.4c0.2,0.1,0.5,0.2,0.8,0.2c0.2,0,0.4,0,0.6-0.1c0.2-0.1,0.4-0.1,0.6-0.2l0.2,0.7c-0.3,0.1-0.6,0.2-0.8,0.3
			c-0.3,0.1-0.5,0.1-0.7,0.1c-0.5,0-0.9-0.1-1.2-0.2c-0.3-0.1-0.6-0.3-0.7-0.6s-0.3-0.6-0.4-0.9c-0.1-0.4-0.1-0.8-0.1-1.2V112.2z
			 M102.3,116.2c0-0.8,0.1-1.5,0.4-2.2c0.2-0.6,0.5-1.2,0.9-1.6c0.4-0.4,0.8-0.8,1.4-1s1.1-0.3,1.6-0.3s1.1,0.1,1.7,0.3
			c0.5,0.2,1,0.6,1.4,1c0.4,0.4,0.7,1,0.9,1.6c0.2,0.6,0.3,1.3,0.3,2.2s-0.1,1.5-0.3,2.1c-0.2,0.6-0.5,1.1-0.9,1.6
			c-0.4,0.4-0.9,0.8-1.4,1c-0.5,0.2-1.1,0.3-1.7,0.3s-1.1-0.1-1.6-0.3s-1-0.6-1.4-1c-0.4-0.4-0.7-0.9-0.9-1.6
			C102.4,117.7,102.3,117,102.3,116.2z M103.2,116.2c0,0.6,0.1,1.2,0.3,1.7c0.2,0.5,0.4,1,0.7,1.3c0.3,0.4,0.7,0.7,1.1,0.9
			c0.4,0.2,0.9,0.3,1.3,0.3s0.9-0.1,1.3-0.3c0.4-0.2,0.8-0.5,1.1-0.9s0.5-0.8,0.7-1.3s0.3-1.1,0.3-1.7c0-0.6-0.1-1.2-0.3-1.7
			c-0.2-0.5-0.4-1-0.7-1.4c-0.3-0.4-0.7-0.7-1.1-0.9c-0.4-0.2-0.9-0.3-1.3-0.3s-0.9,0.1-1.3,0.3c-0.4,0.2-0.8,0.5-1.1,0.9
			c-0.3,0.4-0.5,0.8-0.7,1.4C103.3,115,103.2,115.6,103.2,116.2z M116.4,111.4h1l1.7,6.2c0.1,0.4,0.2,0.9,0.3,1.3
			c0.1,0.4,0.2,0.8,0.3,1.3h0.1c0.1-0.4,0.2-0.8,0.3-1.3c0.1-0.4,0.2-0.8,0.4-1.3l1.7-6.2h1.1l1.7,6.2c0.1,0.4,0.2,0.9,0.4,1.3
			c0.1,0.4,0.2,0.8,0.4,1.3h0.1c0.1-0.4,0.2-0.8,0.3-1.3c0.1-0.4,0.2-0.8,0.3-1.3l1.7-6.2h0.9l-2.8,9.6h-1.2l-1.7-6
			c-0.1-0.5-0.3-0.9-0.4-1.4c-0.1-0.4-0.2-0.9-0.4-1.4h-0.1c-0.1,0.5-0.2,0.9-0.3,1.4c-0.1,0.5-0.3,0.9-0.4,1.4l-1.7,5.9h-1.1
			L116.4,111.4z M131.5,111.4h0.8l0.1,1.8h0.1c0.3-0.6,0.7-1.1,1.2-1.5s1-0.6,1.6-0.6c0.2,0,0.4,0,0.5,0c0.1,0,0.3,0.1,0.5,0.2
			l-0.2,0.8c-0.2-0.1-0.3-0.1-0.4-0.1c-0.1,0-0.3,0-0.5,0c-0.4,0-0.9,0.2-1.4,0.6s-0.9,1-1.3,1.9v6.5h-0.9V111.4z M138.3,109.1
			c-0.2,0-0.4-0.1-0.6-0.2s-0.2-0.3-0.2-0.6c0-0.3,0.1-0.5,0.2-0.6s0.3-0.2,0.6-0.2c0.2,0,0.4,0.1,0.6,0.2s0.2,0.3,0.2,0.6
			c0,0.2-0.1,0.4-0.2,0.6S138.5,109.1,138.3,109.1z M137.8,111.4h0.9v9.6h-0.9V111.4z M142.6,112.2h-1.5v-0.7l1.5-0.1l0.1-2.8h0.8
			v2.8h2.8v0.8h-2.8v6.3c0,0.3,0,0.6,0.1,0.8c0,0.2,0.1,0.5,0.2,0.6c0.1,0.2,0.3,0.3,0.5,0.4c0.2,0.1,0.5,0.2,0.8,0.2
			c0.2,0,0.4,0,0.6-0.1c0.2-0.1,0.4-0.1,0.6-0.2l0.2,0.7c-0.3,0.1-0.6,0.2-0.8,0.3s-0.5,0.1-0.7,0.1c-0.5,0-0.9-0.1-1.2-0.2
			c-0.3-0.1-0.6-0.3-0.7-0.6c-0.2-0.3-0.3-0.6-0.4-0.9c-0.1-0.4-0.1-0.8-0.1-1.2V112.2z M147.6,116.2c0-0.8,0.1-1.5,0.4-2.1
			s0.5-1.2,0.9-1.6c0.4-0.4,0.8-0.8,1.3-1c0.5-0.2,1-0.3,1.6-0.3c1.1,0,2,0.4,2.7,1.2s1,1.9,1,3.3v0.4c0,0.1,0,0.2,0,0.4h-6.9
			c0,0.6,0.1,1.2,0.3,1.7c0.2,0.5,0.4,1,0.7,1.3s0.7,0.7,1.1,0.9c0.4,0.2,0.9,0.3,1.5,0.3c0.5,0,1-0.1,1.4-0.2s0.8-0.4,1.2-0.6
			l0.4,0.7c-0.4,0.2-0.8,0.4-1.3,0.6c-0.5,0.2-1,0.3-1.8,0.3c-0.6,0-1.2-0.1-1.7-0.3s-1-0.6-1.4-1c-0.4-0.4-0.7-1-0.9-1.6
			S147.6,117,147.6,116.2z M154.7,115.6c0-1.2-0.3-2.2-0.8-2.8s-1.2-0.9-2.1-0.9c-0.4,0-0.8,0.1-1.2,0.3s-0.7,0.4-1,0.7
			c-0.3,0.3-0.5,0.7-0.7,1.2c-0.2,0.5-0.3,1-0.4,1.6H154.7z M161.6,118.6c0-1.1,0.5-1.9,1.5-2.4c1-0.6,2.6-1,4.7-1.2
			c0-0.4,0-0.7-0.1-1.1c-0.1-0.4-0.2-0.7-0.3-1c-0.2-0.3-0.4-0.5-0.7-0.7s-0.7-0.3-1.1-0.3c-0.7,0-1.2,0.1-1.8,0.4
			c-0.5,0.3-1,0.5-1.3,0.7l-0.4-0.7c0.2-0.1,0.4-0.3,0.6-0.4c0.2-0.1,0.5-0.3,0.8-0.4s0.6-0.2,1-0.3c0.4-0.1,0.7-0.1,1.1-0.1
			c0.6,0,1.1,0.1,1.4,0.3c0.4,0.2,0.7,0.5,0.9,0.8s0.4,0.7,0.5,1.2c0.1,0.4,0.2,0.9,0.2,1.4v6.1h-0.7l-0.1-1.2h0
			c-0.5,0.4-1,0.7-1.6,1c-0.6,0.3-1.2,0.4-1.8,0.4c-0.4,0-0.7-0.1-1.1-0.2c-0.3-0.1-0.6-0.3-0.9-0.5c-0.3-0.2-0.5-0.5-0.6-0.8
			S161.6,119.1,161.6,118.6z M162.5,118.6c0,0.7,0.2,1.2,0.6,1.5c0.4,0.3,0.9,0.4,1.4,0.4c0.6,0,1.1-0.1,1.6-0.4
			c0.5-0.3,1.1-0.7,1.7-1.2v-3.3c-1,0.1-1.8,0.3-2.5,0.4c-0.7,0.2-1.2,0.4-1.6,0.6c-0.4,0.2-0.7,0.5-0.9,0.8
			C162.6,117.8,162.5,118.2,162.5,118.6z M172.1,111.4h0.8l0.1,1.5h0.1c0.5-0.5,1-0.9,1.5-1.2s1.1-0.5,1.8-0.5c1,0,1.7,0.3,2.2,0.9
			c0.5,0.6,0.7,1.5,0.7,2.8v6.2h-0.9v-6c0-1-0.2-1.8-0.5-2.3c-0.3-0.5-0.9-0.7-1.7-0.7c-0.6,0-1.1,0.2-1.6,0.5
			c-0.5,0.3-1,0.7-1.6,1.3v7.2h-0.9V111.4z M181.9,116.2c0-0.8,0.1-1.5,0.3-2.1s0.5-1.2,0.9-1.6c0.4-0.4,0.8-0.8,1.4-1
			c0.5-0.2,1.1-0.3,1.6-0.3c0.6,0,1.1,0.1,1.5,0.3c0.4,0.2,0.9,0.5,1.4,0.9l0-1.8v-4h0.9V121h-0.8l-0.1-1.2H189
			c-0.4,0.4-0.8,0.7-1.4,1s-1.1,0.4-1.8,0.4c-1.2,0-2.2-0.4-2.9-1.3C182.3,119.1,181.9,117.8,181.9,116.2z M182.9,116.2
			c0,0.6,0.1,1.2,0.2,1.7s0.3,1,0.6,1.3s0.6,0.7,1,0.9c0.4,0.2,0.8,0.3,1.3,0.3c0.5,0,1-0.1,1.5-0.4c0.5-0.3,1-0.7,1.5-1.2v-5.7
			c-0.5-0.5-1-0.8-1.4-1c-0.4-0.2-0.9-0.3-1.4-0.3c-0.5,0-0.9,0.1-1.3,0.3s-0.8,0.5-1.1,0.9c-0.3,0.4-0.5,0.8-0.7,1.4
			C182.9,115.1,182.9,115.6,182.9,116.2z M196.9,119.3c0.4,0.3,0.9,0.6,1.3,0.9c0.5,0.2,1,0.4,1.7,0.4c0.8,0,1.3-0.2,1.7-0.6
			c0.4-0.4,0.6-0.8,0.6-1.3c0-0.3-0.1-0.6-0.2-0.8c-0.1-0.2-0.3-0.4-0.6-0.6c-0.2-0.2-0.5-0.3-0.8-0.4c-0.3-0.1-0.6-0.2-0.8-0.3
			c-0.4-0.1-0.7-0.3-1.1-0.4s-0.7-0.3-1-0.5c-0.3-0.2-0.5-0.5-0.7-0.7c-0.2-0.3-0.3-0.6-0.3-1c0-0.3,0.1-0.7,0.2-1
			c0.1-0.3,0.3-0.6,0.6-0.8c0.3-0.2,0.6-0.4,1-0.6c0.4-0.1,0.8-0.2,1.3-0.2c0.5,0,1,0.1,1.5,0.3s0.9,0.4,1.2,0.7l-0.5,0.6
			c-0.3-0.2-0.7-0.4-1-0.6c-0.4-0.2-0.8-0.2-1.3-0.2c-0.4,0-0.7,0.1-1,0.2c-0.3,0.1-0.5,0.2-0.7,0.4c-0.2,0.2-0.3,0.3-0.4,0.6
			c-0.1,0.2-0.1,0.4-0.1,0.6c0,0.3,0.1,0.5,0.2,0.7c0.1,0.2,0.3,0.4,0.5,0.5c0.2,0.1,0.5,0.3,0.7,0.4c0.3,0.1,0.5,0.2,0.8,0.3
			l1.1,0.4c0.4,0.1,0.7,0.3,1,0.5s0.5,0.5,0.7,0.8c0.2,0.3,0.3,0.7,0.3,1.2c0,0.4-0.1,0.7-0.2,1s-0.3,0.6-0.6,0.9
			c-0.3,0.2-0.6,0.4-1,0.6c-0.4,0.1-0.9,0.2-1.4,0.2c-0.7,0-1.4-0.1-2-0.4s-1.1-0.6-1.5-0.9L196.9,119.3z M205.7,106.6h0.9v6.3
			c0.5-0.5,1-0.9,1.5-1.2s1.1-0.5,1.8-0.5c1,0,1.7,0.3,2.2,0.9c0.5,0.6,0.7,1.5,0.7,2.8v6.2h-0.9v-6c0-1-0.2-1.8-0.5-2.3
			c-0.3-0.5-0.9-0.7-1.7-0.7c-0.6,0-1.1,0.2-1.6,0.5c-0.5,0.3-1,0.7-1.6,1.3v7.2h-0.9V106.6z M215.7,118.6c0-1.1,0.5-1.9,1.5-2.4
			s2.6-1,4.7-1.2c0-0.4,0-0.7-0.1-1.1c-0.1-0.4-0.2-0.7-0.3-1c-0.2-0.3-0.4-0.5-0.7-0.7s-0.7-0.3-1.1-0.3c-0.7,0-1.2,0.1-1.8,0.4
			c-0.5,0.3-1,0.5-1.3,0.7l-0.4-0.7c0.2-0.1,0.4-0.3,0.6-0.4c0.2-0.1,0.5-0.3,0.8-0.4s0.6-0.2,1-0.3c0.4-0.1,0.7-0.1,1.1-0.1
			c0.6,0,1.1,0.1,1.4,0.3c0.4,0.2,0.7,0.5,0.9,0.8s0.4,0.7,0.5,1.2c0.1,0.4,0.2,0.9,0.2,1.4v6.1H222l-0.1-1.2h0
			c-0.5,0.4-1,0.7-1.6,1s-1.2,0.4-1.8,0.4c-0.4,0-0.7-0.1-1.1-0.2c-0.3-0.1-0.6-0.3-0.9-0.5c-0.3-0.2-0.5-0.5-0.6-0.8
			S215.7,119.1,215.7,118.6z M216.6,118.6c0,0.7,0.2,1.2,0.6,1.5c0.4,0.3,0.9,0.4,1.4,0.4c0.6,0,1.1-0.1,1.6-0.4
			c0.5-0.3,1.1-0.7,1.7-1.2v-3.3c-1,0.1-1.8,0.3-2.5,0.4c-0.7,0.2-1.2,0.4-1.6,0.6c-0.4,0.2-0.7,0.5-0.9,0.8
			C216.7,117.8,216.6,118.2,216.6,118.6z M226.2,111.4h0.8l0.1,1.8h0.1c0.3-0.6,0.7-1.1,1.2-1.5s1-0.6,1.6-0.6c0.2,0,0.4,0,0.5,0
			c0.1,0,0.3,0.1,0.5,0.2l-0.2,0.8c-0.2-0.1-0.3-0.1-0.4-0.1c-0.1,0-0.3,0-0.5,0c-0.4,0-0.9,0.2-1.4,0.6s-0.9,1-1.3,1.9v6.5h-0.9
			V111.4z M231.6,116.2c0-0.8,0.1-1.5,0.3-2.1c0.2-0.6,0.5-1.2,0.9-1.6c0.4-0.4,0.8-0.8,1.3-1c0.5-0.2,1-0.3,1.6-0.3
			c1.1,0,2,0.4,2.7,1.2c0.7,0.8,1,1.9,1,3.3v0.4c0,0.1,0,0.2,0,0.4h-6.9c0,0.6,0.1,1.2,0.3,1.7c0.2,0.5,0.4,1,0.7,1.3
			c0.3,0.4,0.7,0.7,1.1,0.9c0.4,0.2,0.9,0.3,1.5,0.3c0.5,0,1-0.1,1.4-0.2c0.4-0.2,0.8-0.4,1.2-0.6l0.4,0.7c-0.4,0.2-0.8,0.4-1.3,0.6
			c-0.5,0.2-1,0.3-1.8,0.3c-0.6,0-1.2-0.1-1.7-0.3c-0.5-0.2-1-0.6-1.4-1c-0.4-0.4-0.7-1-1-1.6C231.7,117.7,231.6,117,231.6,116.2z
			 M238.6,115.6c0-1.2-0.3-2.2-0.8-2.8s-1.2-0.9-2.1-0.9c-0.4,0-0.8,0.1-1.2,0.3c-0.4,0.2-0.7,0.4-1,0.7c-0.3,0.3-0.5,0.7-0.7,1.2
			c-0.2,0.5-0.3,1-0.4,1.6H238.6z M244.8,124.4c0.1,0,0.2,0.1,0.4,0.1s0.3,0,0.4,0c0.6,0,1.1-0.2,1.5-0.7c0.4-0.5,0.7-1.1,1-1.8
			l0.3-0.8l-3.9-9.8h1l2.3,6c0.1,0.4,0.3,0.8,0.5,1.3c0.2,0.5,0.4,0.9,0.6,1.4h0.1c0.1-0.4,0.3-0.9,0.5-1.4s0.3-0.9,0.4-1.3l2.1-6
			h0.9l-3.8,10.8c-0.1,0.4-0.3,0.8-0.5,1.2c-0.2,0.4-0.4,0.7-0.7,1c-0.3,0.3-0.6,0.5-0.9,0.7c-0.3,0.2-0.7,0.3-1.1,0.3
			c-0.4,0-0.7-0.1-1-0.2L244.8,124.4z M253.9,116.2c0-0.8,0.1-1.5,0.3-2.2c0.2-0.6,0.5-1.2,0.9-1.6c0.4-0.4,0.8-0.8,1.4-1
			c0.5-0.2,1.1-0.3,1.6-0.3s1.1,0.1,1.6,0.3c0.5,0.2,1,0.6,1.4,1c0.4,0.4,0.7,1,0.9,1.6s0.4,1.3,0.4,2.2s-0.1,1.5-0.4,2.1
			s-0.5,1.1-0.9,1.6c-0.4,0.4-0.9,0.8-1.4,1c-0.5,0.2-1.1,0.3-1.6,0.3s-1.1-0.1-1.6-0.3c-0.5-0.2-1-0.6-1.4-1
			c-0.4-0.4-0.7-0.9-0.9-1.6C254,117.7,253.9,117,253.9,116.2z M254.8,116.2c0,0.6,0.1,1.2,0.3,1.7c0.2,0.5,0.4,1,0.7,1.3
			s0.7,0.7,1.1,0.9c0.4,0.2,0.9,0.3,1.3,0.3c0.5,0,0.9-0.1,1.4-0.3c0.4-0.2,0.8-0.5,1.1-0.9c0.3-0.4,0.5-0.8,0.7-1.3
			s0.3-1.1,0.3-1.7c0-0.6-0.1-1.2-0.3-1.7c-0.2-0.5-0.4-1-0.7-1.4c-0.3-0.4-0.7-0.7-1.1-0.9s-0.9-0.3-1.4-0.3
			c-0.5,0-0.9,0.1-1.3,0.3s-0.8,0.5-1.1,0.9c-0.3,0.4-0.5,0.8-0.7,1.4C254.9,115,254.8,115.6,254.8,116.2z M265.3,111.4h0.9v6
			c0,1,0.2,1.8,0.5,2.3s0.9,0.7,1.7,0.7c0.6,0,1.1-0.2,1.6-0.5c0.5-0.3,1-0.8,1.5-1.5v-7.1h0.9v9.6h-0.7l-0.1-1.6h0
			c-0.5,0.6-1,1-1.5,1.3c-0.5,0.3-1.1,0.5-1.8,0.5c-1,0-1.7-0.3-2.2-0.9c-0.5-0.6-0.7-1.5-0.7-2.8V111.4z M276,111.4h0.8l0.1,1.8
			h0.1c0.3-0.6,0.7-1.1,1.2-1.5s1-0.6,1.5-0.6c0.2,0,0.4,0,0.5,0c0.1,0,0.3,0.1,0.5,0.2l-0.2,0.8c-0.2-0.1-0.3-0.1-0.4-0.1
			c-0.1,0-0.3,0-0.5,0c-0.4,0-0.9,0.2-1.3,0.6c-0.5,0.4-0.9,1-1.3,1.9v6.5H276V111.4z M49.9,131.6h0.9v10.6h0l4.7-5.8h1l-3.1,3.8
			l3.6,5.8h-1l-3.2-5.1l-2.2,2.5v2.6h-0.9V131.6z M59.2,136.4H60l0.1,1.5h0.1c0.5-0.5,1-0.9,1.5-1.2c0.5-0.3,1.1-0.5,1.8-0.5
			c1,0,1.7,0.3,2.2,0.9c0.5,0.6,0.7,1.5,0.7,2.8v6.2h-0.9v-6c0-1-0.2-1.8-0.5-2.3S64,137,63.2,137c-0.6,0-1.1,0.1-1.6,0.4
			c-0.5,0.3-1,0.8-1.6,1.3v7.2h-0.9V136.4z M69,141.2c0-0.8,0.1-1.5,0.3-2.1c0.2-0.6,0.5-1.2,0.9-1.6s0.8-0.8,1.4-1
			c0.5-0.2,1.1-0.3,1.6-0.3c0.6,0,1.1,0.1,1.7,0.3c0.5,0.2,1,0.6,1.4,1s0.7,1,0.9,1.6c0.2,0.6,0.3,1.3,0.3,2.1s-0.1,1.5-0.3,2.1
			c-0.2,0.6-0.5,1.1-0.9,1.6s-0.9,0.8-1.4,1c-0.5,0.2-1.1,0.3-1.7,0.3c-0.6,0-1.1-0.1-1.6-0.3c-0.5-0.2-1-0.6-1.4-1
			s-0.7-0.9-0.9-1.6C69.1,142.7,69,142,69,141.2z M69.9,141.2c0,0.6,0.1,1.2,0.3,1.7s0.4,1,0.7,1.3s0.7,0.7,1.1,0.9
			c0.4,0.2,0.9,0.3,1.3,0.3s0.9-0.1,1.3-0.3c0.4-0.2,0.8-0.5,1.1-0.9s0.5-0.8,0.7-1.3s0.3-1.1,0.3-1.7c0-0.6-0.1-1.2-0.3-1.7
			s-0.4-1-0.7-1.3c-0.3-0.4-0.7-0.7-1.1-0.9c-0.4-0.2-0.9-0.3-1.3-0.3s-0.9,0.1-1.3,0.3c-0.4,0.2-0.8,0.5-1.1,0.9
			c-0.3,0.4-0.5,0.8-0.7,1.3S69.9,140.6,69.9,141.2z M79.2,136.4h1l1.7,6.2c0.1,0.4,0.2,0.9,0.3,1.3s0.2,0.8,0.3,1.3h0.1
			c0.1-0.4,0.2-0.8,0.3-1.3s0.2-0.9,0.4-1.3l1.7-6.2h1.1l1.7,6.2c0.1,0.4,0.2,0.9,0.4,1.3c0.1,0.4,0.2,0.8,0.4,1.3h0.1
			c0.1-0.4,0.2-0.8,0.3-1.3s0.2-0.9,0.3-1.3l1.7-6.2h0.9l-2.8,9.6H88l-1.7-6c-0.1-0.5-0.3-0.9-0.4-1.4c-0.1-0.4-0.2-0.9-0.4-1.4
			h-0.1c-0.1,0.5-0.2,0.9-0.3,1.4c-0.1,0.5-0.3,0.9-0.4,1.4l-1.7,5.9H82L79.2,136.4z M94.2,131.6h0.9v13.2c0,0.2,0,0.4,0.1,0.5
			c0.1,0.1,0.2,0.2,0.3,0.2h0.1c0,0,0.1,0,0.2,0l0.2,0.7c-0.1,0-0.2,0.1-0.3,0.1c-0.1,0-0.2,0-0.4,0c-0.8,0-1.2-0.5-1.2-1.5V131.6z
			 M98.2,141.2c0-0.8,0.1-1.5,0.3-2.1c0.2-0.6,0.5-1.2,0.9-1.6s0.8-0.8,1.3-1c0.5-0.2,1-0.3,1.5-0.3c1.1,0,2,0.4,2.7,1.2
			c0.7,0.8,1,1.9,1,3.3v0.4c0,0.1,0,0.2,0,0.4h-6.9c0,0.6,0.1,1.2,0.3,1.7s0.4,1,0.7,1.3c0.3,0.4,0.7,0.7,1.1,0.9s0.9,0.3,1.5,0.3
			c0.5,0,1-0.1,1.4-0.2c0.4-0.2,0.8-0.4,1.2-0.6l0.4,0.7c-0.4,0.2-0.8,0.4-1.3,0.6s-1,0.3-1.8,0.3c-0.6,0-1.2-0.1-1.7-0.3
			c-0.5-0.2-1-0.6-1.4-1s-0.7-1-1-1.6C98.3,142.7,98.2,142,98.2,141.2z M105.2,140.6c0-1.2-0.3-2.2-0.8-2.8
			c-0.5-0.6-1.2-0.9-2.1-0.9c-0.4,0-0.8,0.1-1.2,0.3c-0.4,0.2-0.7,0.4-1,0.7s-0.5,0.7-0.7,1.2c-0.2,0.5-0.3,1-0.4,1.6H105.2z
			 M107.8,141.2c0-0.8,0.1-1.5,0.3-2.1c0.2-0.6,0.5-1.2,0.9-1.6s0.8-0.8,1.4-1c0.5-0.2,1.1-0.3,1.6-0.3c0.6,0,1.1,0.1,1.5,0.3
			s0.9,0.5,1.4,0.9l0-1.8v-4h0.9V146h-0.8l-0.1-1.2h-0.1c-0.4,0.4-0.8,0.7-1.4,1c-0.5,0.3-1.1,0.5-1.8,0.5c-1.2,0-2.2-0.4-2.9-1.3
			C108.2,144.1,107.8,142.8,107.8,141.2z M108.8,141.2c0,0.6,0.1,1.2,0.2,1.7c0.1,0.5,0.3,1,0.6,1.3c0.3,0.4,0.6,0.7,1,0.9
			c0.4,0.2,0.8,0.3,1.3,0.3c0.5,0,1-0.1,1.5-0.4s1-0.7,1.5-1.2v-5.7c-0.5-0.5-1-0.8-1.4-1c-0.4-0.2-0.9-0.3-1.4-0.3
			c-0.5,0-0.9,0.1-1.3,0.3c-0.4,0.2-0.8,0.5-1.1,0.9s-0.5,0.8-0.7,1.4S108.8,140.6,108.8,141.2z M119.6,147.9c0,0.6,0.3,1.1,0.8,1.5
			c0.6,0.4,1.3,0.6,2.4,0.6c0.5,0,1-0.1,1.5-0.2s0.8-0.3,1.1-0.6c0.3-0.2,0.5-0.5,0.7-0.8s0.2-0.6,0.2-0.9c0-0.5-0.2-0.9-0.6-1.1
			c-0.4-0.2-0.9-0.3-1.7-0.3H122c-0.1,0-0.3,0-0.5,0c-0.2,0-0.5-0.1-0.7-0.1c-0.4,0.3-0.8,0.6-1,1
			C119.7,147.2,119.6,147.5,119.6,147.9z M118.7,148c0-0.4,0.1-0.8,0.4-1.2c0.3-0.4,0.6-0.8,1-1.1v-0.1c-0.2-0.1-0.4-0.3-0.6-0.6
			c-0.2-0.3-0.2-0.6-0.2-0.9c0-0.4,0.1-0.8,0.4-1.1c0.2-0.3,0.5-0.5,0.7-0.7v-0.1c-0.3-0.3-0.6-0.6-0.8-1.1c-0.2-0.5-0.4-1-0.4-1.6
			c0-0.5,0.1-0.9,0.3-1.4c0.2-0.4,0.4-0.8,0.7-1.1s0.7-0.5,1.1-0.7c0.4-0.2,0.9-0.2,1.3-0.2c0.3,0,0.5,0,0.7,0.1
			c0.2,0,0.4,0.1,0.5,0.2h3.3v0.7h-2.2c0.3,0.3,0.6,0.6,0.8,1c0.2,0.4,0.3,0.9,0.3,1.4c0,0.5-0.1,0.9-0.3,1.4
			c-0.2,0.4-0.4,0.8-0.7,1.1s-0.7,0.5-1.1,0.7s-0.8,0.2-1.3,0.2c-0.3,0-0.5,0-0.8-0.1s-0.5-0.2-0.8-0.3c-0.2,0.2-0.4,0.4-0.6,0.6
			s-0.2,0.5-0.2,0.8c0,0.3,0.1,0.6,0.4,0.9c0.3,0.2,0.7,0.4,1.5,0.4h2.1c1.1,0,1.9,0.2,2.4,0.5c0.5,0.4,0.8,0.9,0.8,1.7
			c0,0.4-0.1,0.8-0.3,1.2c-0.2,0.4-0.5,0.7-0.9,1s-0.9,0.5-1.4,0.7c-0.6,0.2-1.2,0.3-1.9,0.3c-1.2,0-2.2-0.2-2.9-0.7
			C119.1,149.4,118.7,148.8,118.7,148z M122.5,142.2c0.3,0,0.6-0.1,0.9-0.2s0.6-0.3,0.8-0.6s0.4-0.5,0.5-0.9s0.2-0.7,0.2-1.1
			c0-0.4-0.1-0.8-0.2-1.1c-0.1-0.3-0.3-0.6-0.5-0.8s-0.5-0.4-0.8-0.5c-0.3-0.1-0.6-0.2-1-0.2c-0.3,0-0.7,0.1-1,0.2
			c-0.3,0.1-0.6,0.3-0.8,0.5s-0.4,0.5-0.5,0.8c-0.1,0.3-0.2,0.7-0.2,1.1c0,0.4,0.1,0.8,0.2,1.1s0.3,0.6,0.6,0.9
			c0.2,0.2,0.5,0.4,0.8,0.6S122.2,142.2,122.5,142.2z M128.2,141.2c0-0.8,0.1-1.5,0.4-2.1c0.2-0.6,0.5-1.2,0.9-1.6
			c0.4-0.4,0.8-0.8,1.3-1c0.5-0.2,1-0.3,1.6-0.3c1.1,0,2,0.4,2.7,1.2c0.7,0.8,1,1.9,1,3.3v0.4c0,0.1,0,0.2,0,0.4h-6.9
			c0,0.6,0.1,1.2,0.3,1.7c0.2,0.5,0.4,1,0.7,1.3s0.7,0.7,1.1,0.9s0.9,0.3,1.5,0.3c0.5,0,1-0.1,1.4-0.2s0.8-0.4,1.2-0.6l0.4,0.7
			c-0.4,0.2-0.8,0.4-1.3,0.6s-1,0.3-1.8,0.3c-0.6,0-1.2-0.1-1.7-0.3c-0.5-0.2-1-0.6-1.4-1c-0.4-0.4-0.7-1-0.9-1.6
			C128.3,142.7,128.2,142,128.2,141.2z M135.2,140.6c0-1.2-0.3-2.2-0.8-2.8c-0.5-0.6-1.2-0.9-2.1-0.9c-0.4,0-0.8,0.1-1.2,0.3
			c-0.4,0.2-0.7,0.4-1,0.7s-0.5,0.7-0.7,1.2c-0.2,0.5-0.3,1-0.4,1.6H135.2z M143.1,134.1c-0.2,0-0.4-0.1-0.6-0.2s-0.2-0.3-0.2-0.6
			c0-0.3,0.1-0.4,0.2-0.6c0.2-0.1,0.3-0.2,0.6-0.2s0.4,0.1,0.6,0.2c0.2,0.1,0.2,0.3,0.2,0.6c0,0.2-0.1,0.4-0.2,0.6
			S143.4,134.1,143.1,134.1z M142.7,136.4h0.9v9.6h-0.9V136.4z M147.2,136.4h0.8l0.1,1.5h0.1c0.5-0.5,1-0.9,1.5-1.2
			c0.5-0.3,1.1-0.5,1.8-0.5c1,0,1.7,0.3,2.2,0.9c0.5,0.6,0.7,1.5,0.7,2.8v6.2h-0.9v-6c0-1-0.2-1.8-0.5-2.3c-0.3-0.5-0.9-0.7-1.7-0.7
			c-0.6,0-1.1,0.1-1.6,0.4c-0.5,0.3-1,0.8-1.6,1.3v7.2h-0.9V136.4z M161.9,136.4h0.8l0.1,1.5h0.1c0.4-0.5,0.9-0.9,1.4-1.2
			c0.5-0.3,1.1-0.5,1.6-0.5c0.8,0,1.4,0.2,1.8,0.5c0.4,0.4,0.7,0.8,0.9,1.4c0.6-0.6,1.1-1.1,1.6-1.4s1.1-0.5,1.6-0.5
			c1.9,0,2.9,1.2,2.9,3.7v6.2h-0.9v-6c0-1-0.2-1.8-0.5-2.3s-0.9-0.7-1.6-0.7c-0.9,0-1.8,0.6-2.9,1.8v7.2h-0.9v-6
			c0-1-0.2-1.8-0.5-2.3c-0.3-0.5-0.9-0.7-1.6-0.7c-0.9,0-1.8,0.6-2.9,1.8v7.2h-0.9V136.4z M177.6,143.6c0-1.1,0.5-1.9,1.5-2.4
			c1-0.6,2.6-1,4.7-1.2c0-0.4,0-0.7-0.1-1.1s-0.2-0.7-0.3-1s-0.4-0.5-0.7-0.7c-0.3-0.2-0.7-0.3-1.2-0.3c-0.7,0-1.2,0.1-1.8,0.4
			c-0.5,0.3-1,0.5-1.3,0.7l-0.4-0.7c0.2-0.1,0.4-0.3,0.6-0.4c0.2-0.1,0.5-0.3,0.8-0.4c0.3-0.1,0.6-0.2,1-0.3
			c0.4-0.1,0.7-0.1,1.1-0.1c0.6,0,1.1,0.1,1.4,0.3c0.4,0.2,0.7,0.5,0.9,0.8c0.2,0.3,0.4,0.7,0.5,1.2s0.1,0.9,0.1,1.4v6.1h-0.7
			l-0.1-1.2h0c-0.5,0.4-1,0.7-1.6,1c-0.6,0.3-1.2,0.5-1.8,0.5c-0.4,0-0.7-0.1-1.1-0.2c-0.3-0.1-0.6-0.3-0.9-0.5
			c-0.3-0.2-0.5-0.5-0.6-0.8C177.6,144.4,177.6,144.1,177.6,143.6z M178.5,143.6c0,0.7,0.2,1.2,0.6,1.5c0.4,0.3,0.9,0.4,1.4,0.4
			c0.6,0,1.1-0.1,1.6-0.4s1.1-0.7,1.7-1.2v-3.3c-1,0.1-1.8,0.3-2.5,0.4c-0.7,0.2-1.2,0.4-1.6,0.6c-0.4,0.2-0.7,0.5-0.9,0.8
			C178.6,142.8,178.5,143.2,178.5,143.6z M188.1,136.4h0.8l0.1,1.8h0.1c0.3-0.6,0.7-1.1,1.2-1.5c0.5-0.4,1-0.6,1.6-0.6
			c0.2,0,0.4,0,0.5,0c0.1,0,0.3,0.1,0.5,0.2l-0.2,0.8c-0.2-0.1-0.3-0.1-0.4-0.1c-0.1,0-0.3,0-0.5,0c-0.4,0-0.9,0.2-1.3,0.6
			c-0.5,0.4-0.9,1-1.3,1.9v6.5h-0.9V136.4z M194.4,131.6h0.9v10.6h0l4.7-5.8h1l-3.1,3.8l3.6,5.8h-1l-3.2-5.1l-2.2,2.5v2.6h-0.9
			V131.6z M202.7,141.2c0-0.8,0.1-1.5,0.3-2.1c0.2-0.6,0.5-1.2,0.9-1.6c0.4-0.4,0.8-0.8,1.4-1c0.5-0.2,1.1-0.3,1.6-0.3
			c0.6,0,1.1,0.1,1.5,0.3s0.9,0.5,1.4,0.9l0-1.8v-4h0.9V146h-0.8l-0.1-1.2h-0.1c-0.4,0.4-0.8,0.7-1.4,1c-0.5,0.3-1.1,0.5-1.8,0.5
			c-1.2,0-2.2-0.4-2.9-1.3S202.7,142.8,202.7,141.2z M203.6,141.2c0,0.6,0.1,1.2,0.2,1.7c0.1,0.5,0.3,1,0.6,1.3
			c0.3,0.4,0.6,0.7,1,0.9c0.4,0.2,0.8,0.3,1.4,0.3c0.5,0,1-0.1,1.5-0.4c0.5-0.3,1-0.7,1.5-1.2v-5.7c-0.5-0.5-1-0.8-1.4-1
			c-0.4-0.2-0.9-0.3-1.4-0.3c-0.5,0-0.9,0.1-1.3,0.3c-0.4,0.2-0.8,0.5-1.1,0.9s-0.5,0.8-0.7,1.4
			C203.7,140.1,203.6,140.6,203.6,141.2z M213.6,141.2c0-0.8,0.1-1.5,0.3-2.1c0.2-0.6,0.5-1.2,0.9-1.6c0.4-0.4,0.9-0.8,1.4-1
			c0.5-0.2,1.1-0.3,1.6-0.3c0.6,0,1.1,0.1,1.6,0.3s1,0.6,1.4,1c0.4,0.4,0.7,1,0.9,1.6c0.2,0.6,0.3,1.3,0.3,2.1s-0.1,1.5-0.3,2.1
			c-0.2,0.6-0.5,1.1-0.9,1.6c-0.4,0.4-0.9,0.8-1.4,1s-1.1,0.3-1.6,0.3c-0.6,0-1.1-0.1-1.6-0.3c-0.5-0.2-1-0.6-1.4-1
			c-0.4-0.4-0.7-0.9-0.9-1.6C213.7,142.7,213.6,142,213.6,141.2z M214.5,141.2c0,0.6,0.1,1.2,0.3,1.7c0.2,0.5,0.4,1,0.7,1.3
			s0.7,0.7,1.1,0.9c0.4,0.2,0.9,0.3,1.3,0.3c0.5,0,0.9-0.1,1.3-0.3c0.4-0.2,0.8-0.5,1.1-0.9s0.5-0.8,0.7-1.3
			c0.2-0.5,0.3-1.1,0.3-1.7c0-0.6-0.1-1.2-0.3-1.7c-0.2-0.5-0.4-1-0.7-1.3c-0.3-0.4-0.7-0.7-1.1-0.9s-0.9-0.3-1.3-0.3
			c-0.5,0-0.9,0.1-1.3,0.3c-0.4,0.2-0.8,0.5-1.1,0.9c-0.3,0.4-0.5,0.8-0.7,1.3C214.6,140,214.5,140.6,214.5,141.2z M223.7,136.4h1
			l1.7,6.2c0.1,0.4,0.2,0.9,0.3,1.3c0.1,0.4,0.2,0.8,0.3,1.3h0.1c0.1-0.4,0.2-0.8,0.3-1.3c0.1-0.4,0.2-0.9,0.4-1.3l1.7-6.2h1.1
			l1.7,6.2c0.1,0.4,0.2,0.9,0.4,1.3c0.1,0.4,0.2,0.8,0.4,1.3h0.1c0.1-0.4,0.2-0.8,0.3-1.3c0.1-0.4,0.2-0.9,0.3-1.3l1.7-6.2h0.9
			l-2.8,9.6h-1.2l-1.7-6c-0.1-0.5-0.3-0.9-0.4-1.4c-0.1-0.4-0.2-0.9-0.4-1.4H230c-0.1,0.5-0.2,0.9-0.3,1.4s-0.3,0.9-0.4,1.4
			l-1.7,5.9h-1.1L223.7,136.4z M238.8,136.4h0.8l0.1,1.5h0.1c0.5-0.5,1-0.9,1.5-1.2c0.5-0.3,1.1-0.5,1.8-0.5c1,0,1.7,0.3,2.2,0.9
			c0.5,0.6,0.7,1.5,0.7,2.8v6.2H245v-6c0-1-0.2-1.8-0.5-2.3c-0.3-0.5-0.9-0.7-1.7-0.7c-0.6,0-1.1,0.1-1.6,0.4
			c-0.5,0.3-1,0.8-1.6,1.3v7.2h-0.9V136.4z M248.9,145.3c0-0.3,0.1-0.5,0.3-0.7c0.2-0.2,0.4-0.2,0.6-0.2s0.4,0.1,0.6,0.2
			s0.2,0.4,0.2,0.7c0,0.3-0.1,0.5-0.2,0.7s-0.4,0.2-0.6,0.2s-0.4-0.1-0.6-0.2C249,145.8,248.9,145.6,248.9,145.3z"/>
	</g>
</g>
</svg>
