<?xml version="1.0" encoding="utf-8"?>
<!-- Generator: Adobe Illustrator 18.0.0, SVG Export Plug-In . SVG Version: 6.00 Build 0)  -->
<!DOCTYPE svg PUBLIC "-//W3C//DTD SVG 1.1//EN" "http://www.w3.org/Graphics/SVG/1.1/DTD/svg11.dtd">
<svg version="1.1" id="Layer_1" xmlns="http://www.w3.org/2000/svg" xmlns:xlink="http://www.w3.org/1999/xlink" x="0px" y="0px"
	 viewBox="0 0 306.7 53.7" enable-background="new 0 0 306.7 53.7" xml:space="preserve">
<g>
	<path fill="#6D6E71" d="M80.7,12.9c1.8,0,3.4,0.3,4.8,0.8c1.4,0.5,2.7,1.2,3.7,1.8c1,0.7,1.8,1.4,2.4,2.1c0.6,0.7,0.8,1.2,0.8,1.6
		c0,0.5-0.2,0.9-0.6,1.3C91.4,20.8,91,21,90.5,21c-0.6,0-1.1-0.2-1.5-0.6c-1.1-1-2.4-1.8-3.8-2.4c-1.4-0.6-3-0.9-4.6-0.9
		c-1.7,0-3.2,0.3-4.7,0.9c-1.5,0.6-2.7,1.5-3.8,2.6c-1.1,1.1-2,2.4-2.6,3.9c-0.6,1.5-0.9,3-0.9,4.7c0,1.7,0.3,3.2,0.9,4.7
		c0.6,1.5,1.5,2.7,2.6,3.8c1.1,1.1,2.4,2,3.8,2.6c1.5,0.6,3,0.9,4.7,0.9c1.7,0,3.2-0.3,4.6-0.9c1.4-0.6,2.7-1.4,3.8-2.5
		c0.4-0.4,0.9-0.6,1.5-0.6c0.5,0,1,0.2,1.4,0.6c0.4,0.4,0.6,0.9,0.6,1.4c0,0.4-0.3,0.9-0.8,1.6c-0.5,0.7-1.3,1.4-2.3,2
		c-1,0.7-2.3,1.3-3.8,1.7c-1.5,0.5-3.2,0.7-5.1,0.7c-2.2,0-4.3-0.4-6.3-1.2c-1.9-0.8-3.7-1.9-5.1-3.4c-1.5-1.4-2.6-3.1-3.5-5.1
		c-0.9-2-1.3-4.1-1.3-6.4c0-2.2,0.4-4.3,1.2-6.3c0.8-1.9,2-3.6,3.4-5.1c1.5-1.5,3.2-2.6,5.2-3.5C76.2,13.4,78.4,13,80.7,12.9"/>
	<path fill="#6D6E71" d="M126.3,29.1c0-1.7-0.3-3.2-0.9-4.7c-0.6-1.5-1.5-2.8-2.6-3.9c-1.1-1.1-2.4-2-3.9-2.6
		c-1.5-0.6-3-0.9-4.7-0.9c-1.7,0-3.2,0.3-4.7,0.9c-1.5,0.6-2.7,1.5-3.8,2.6c-1.1,1.1-2,2.4-2.6,3.9c-0.6,1.5-0.9,3-0.9,4.7
		c0,1.7,0.3,3.2,0.9,4.7c0.6,1.5,1.5,2.7,2.6,3.8c1.1,1.1,2.4,2,3.8,2.6c1.5,0.6,3,0.9,4.7,0.9c1.6,0,3.1-0.3,4.6-0.9
		c1.4-0.6,2.7-1.4,3.8-2.5c1.1-1.1,2-2.3,2.6-3.8C125.9,32.5,126.3,30.9,126.3,29.1 M126.3,39.2c-1.5,1.7-3.3,3.1-5.3,4.3
		c-2.1,1.2-4.3,1.8-6.7,1.8c-2.2,0-4.3-0.4-6.3-1.2c-1.9-0.8-3.7-1.9-5.1-3.4c-1.5-1.4-2.6-3.1-3.5-5.1c-0.9-2-1.3-4.1-1.3-6.4
		c0-2.2,0.4-4.4,1.2-6.3c0.8-2,2-3.7,3.4-5.2c1.5-1.5,3.2-2.6,5.2-3.5c2-0.8,4.2-1.3,6.5-1.3c2.1,0,4.2,0.4,6.1,1.3
		c1.9,0.9,3.7,2,5.1,3.5c1.5,1.5,2.7,3.2,3.5,5.2s1.3,4.1,1.3,6.3v14.2c0,0.6-0.2,1.1-0.6,1.5s-0.9,0.6-1.5,0.6
		c-0.6,0-1.1-0.2-1.5-0.6c-0.4-0.4-0.6-0.9-0.6-1.5V39.2z"/>
	<path fill="#6D6E71" d="M136.4,14.7c0-0.6,0.2-1.1,0.6-1.5c0.4-0.4,0.9-0.6,1.5-0.6c0.6,0,1.1,0.2,1.5,0.6s0.6,0.9,0.6,1.5V18
		c1.4-1.6,3.2-2.9,5.2-3.9c2-1,4.2-1.5,6.6-1.5c0.7,0,1.3,0.2,1.7,0.6c0.4,0.4,0.6,0.9,0.6,1.5c0,0.6-0.2,1.1-0.6,1.5
		c-0.4,0.4-1,0.6-1.7,0.6c-1.6,0-3.1,0.3-4.5,0.9c-1.4,0.6-2.6,1.5-3.7,2.6c-1.1,1.1-1.9,2.3-2.6,3.7c-0.7,1.4-1,2.8-1,4.4v14.8
		c0,0.6-0.2,1.1-0.6,1.5c-0.4,0.4-0.9,0.6-1.5,0.6c-0.6,0-1.1-0.2-1.5-0.6c-0.4-0.4-0.6-0.9-0.6-1.5V14.7z"/>
	<path fill="#6D6E71" d="M172.1,17c-1.7,0-3.2,0.3-4.7,0.9c-1.5,0.6-2.7,1.5-3.8,2.6c-1.1,1.1-2,2.4-2.6,3.9c-0.6,1.5-0.9,3-0.9,4.7
		c0,1.7,0.3,3.2,0.9,4.7c0.6,1.5,1.5,2.7,2.6,3.8c1.1,1.1,2.4,2,3.8,2.6c1.5,0.6,3,0.9,4.7,0.9c1.7,0,3.2-0.3,4.7-0.9
		s2.8-1.5,3.9-2.6c1.1-1.1,2-2.4,2.6-3.8c0.6-1.5,0.9-3,0.9-4.7c0-1.7-0.3-3.2-0.9-4.7c-0.6-1.5-1.5-2.8-2.6-3.9
		c-1.1-1.1-2.4-2-3.9-2.6C175.3,17.3,173.8,17,172.1,17 M172.3,12.8c2.1,0,4.2,0.4,6.1,1.3c1.9,0.9,3.7,2,5.1,3.5
		c1.5,1.5,2.7,3.2,3.5,5.2c0.9,2,1.3,4.1,1.3,6.3c0,2.2-0.4,4.3-1.3,6.2c-0.9,1.9-2,3.7-3.5,5.1c-1.5,1.5-3.2,2.6-5.1,3.5
		c-2,0.9-4.1,1.3-6.4,1.3c-2.2,0-4.3-0.4-6.3-1.2c-1.9-0.8-3.7-1.9-5.1-3.4c-1.5-1.4-2.6-3.1-3.5-5.1c-0.9-2-1.3-4.1-1.3-6.4
		c0-2.2,0.4-4.3,1.2-6.3c0.8-1.9,2-3.6,3.4-5.1c1.5-1.5,3.2-2.6,5.2-3.5C167.8,13.4,169.9,12.9,172.3,12.8"/>
	<path fill="#6D6E71" d="M194.1,14.8c0-0.6,0.2-1.1,0.6-1.5c0.4-0.4,0.9-0.6,1.5-0.6c0.6,0,1.1,0.2,1.5,0.6c0.4,0.4,0.6,0.9,0.6,1.5
		v18.4c0,1.1,0.2,2.1,0.6,3.1c0.4,1,1,1.8,1.7,2.5c0.7,0.7,1.6,1.3,2.5,1.7c1,0.4,2,0.6,3.1,0.6c1.1,0,2.1-0.2,3-0.6
		c0.9-0.4,1.8-0.9,2.5-1.6c0.7-0.7,1.3-1.5,1.7-2.4c0.4-0.9,0.7-1.9,0.7-2.9V14.8c0-0.6,0.2-1.1,0.6-1.5c0.4-0.4,0.9-0.6,1.5-0.6
		c0.6,0,1.1,0.2,1.5,0.6c0.4,0.4,0.6,0.9,0.6,1.5v28.4c0,0.6-0.2,1.1-0.6,1.5c-0.4,0.4-0.9,0.6-1.5,0.6c-0.6,0-1.1-0.2-1.5-0.6
		c-0.4-0.4-0.6-0.9-0.6-1.5v-0.9c-1,0.9-2.2,1.6-3.6,2.1c-1.3,0.5-2.8,0.8-4.3,0.8c-1.7,0-3.2-0.3-4.7-0.9c-1.5-0.6-2.8-1.5-3.9-2.6
		s-2-2.4-2.6-3.9c-0.6-1.5-0.9-3-0.9-4.7V14.8z"/>
	<path fill="#6D6E71" d="M225.1,21.2c0-1.6,0.3-2.9,0.9-4c0.6-1.1,1.5-1.9,2.5-2.6c1-0.7,2.2-1.2,3.5-1.4c1.3-0.3,2.6-0.4,3.9-0.4
		c1.1,0,2.2,0.1,3.4,0.4c1.2,0.2,2.3,0.6,3.4,1.1c1,0.5,1.9,1.1,2.6,1.8c0.7,0.7,1,1.6,1,2.6c0,0.5-0.2,1-0.5,1.4s-0.9,0.7-1.6,0.7
		c-0.9,0-1.5-0.5-1.9-1.5c-0.4-0.8-1.2-1.5-2.4-1.9c-1.2-0.4-2.5-0.6-3.9-0.6c-0.8,0-1.5,0.1-2.3,0.2c-0.8,0.1-1.5,0.3-2.1,0.7
		c-0.6,0.3-1.2,0.8-1.6,1.4c-0.4,0.6-0.6,1.3-0.6,2.3c0,0.7,0.2,1.3,0.6,1.7c0.4,0.5,1,0.9,1.6,1.2c0.6,0.3,1.4,0.6,2.1,0.8
		c0.8,0.2,1.5,0.3,2.2,0.5c1.7,0.3,3.2,0.7,4.7,1.2c1.5,0.5,2.7,1.2,3.8,2c1.1,0.8,2,1.8,2.6,2.9c0.6,1.1,1,2.4,1,3.9
		c0,1.5-0.3,2.8-0.9,4.1c-0.6,1.2-1.5,2.3-2.6,3.2c-1.1,0.9-2.4,1.5-3.9,2c-1.5,0.5-3,0.7-4.7,0.7c-2.8,0-5.3-0.6-7.4-1.9
		c-2.1-1.3-3.5-3.1-4.3-5.4c0-0.1-0.1-0.3-0.1-0.6c0-0.6,0.2-1.1,0.6-1.5c0.4-0.4,0.9-0.7,1.5-0.7c0.5,0,0.9,0.1,1.3,0.4
		c0.4,0.3,0.7,0.7,0.9,1.2c0.6,1.4,1.6,2.5,3,3.3c1.4,0.7,2.9,1.1,4.5,1.1c2.2,0,4.1-0.5,5.6-1.5c1.5-1,2.3-2.4,2.3-4.3
		c0-1.5-0.8-2.7-2.3-3.8c-1.5-1-3.4-1.7-5.6-2c-3.2-0.4-5.8-1.3-7.8-2.7C226.1,25.6,225.1,23.7,225.1,21.2"/>
	<path fill="#6D6E71" d="M281.4,26.9c-0.3-1.4-0.8-2.7-1.5-3.9c-0.7-1.2-1.6-2.2-2.7-3.1c-1.1-0.9-2.2-1.6-3.6-2.1
		c-1.3-0.5-2.7-0.8-4.2-0.8c-1.5,0-2.9,0.3-4.2,0.8c-1.3,0.5-2.5,1.2-3.6,2.1c-1.1,0.9-1.9,1.9-2.6,3.1c-0.7,1.2-1.2,2.5-1.4,3.9
		H281.4z M257.6,31.1c0.2,1.4,0.7,2.8,1.4,4c0.7,1.2,1.6,2.3,2.7,3.2c1.1,0.9,2.2,1.6,3.6,2.1c1.3,0.5,2.8,0.8,4.2,0.8
		c1.7,0,3.2-0.3,4.6-0.9c1.4-0.6,2.7-1.4,3.8-2.5c0.4-0.4,0.9-0.6,1.5-0.6c0.6,0,1.1,0.2,1.5,0.6c0.4,0.4,0.6,0.9,0.6,1.5
		c0,0.6-0.2,1.1-0.6,1.5c-1.5,1.7-3.1,2.8-5,3.5c-1.9,0.7-4,1-6.4,1c-2.2,0-4.3-0.4-6.3-1.2c-1.9-0.8-3.7-1.9-5.1-3.4
		c-1.5-1.4-2.6-3.1-3.5-5.1c-0.9-2-1.3-4.1-1.3-6.4c0-2.2,0.4-4.3,1.2-6.3c0.8-1.9,2-3.6,3.4-5.1c1.5-1.5,3.2-2.6,5.2-3.5
		c2-0.9,4.2-1.4,6.5-1.4c2.1,0,4.1,0.4,6.1,1.3c1.9,0.9,3.7,2,5.1,3.5c1.5,1.5,2.7,3.2,3.6,5.1c0.9,1.9,1.3,4,1.3,6.3
		c0,0.7-0.2,1.2-0.7,1.5c-0.4,0.4-0.9,0.5-1.4,0.5H257.6z"/>
	<path fill="#6D6E71" d="M291.7,4.5c0-0.6,0.2-1.1,0.6-1.5c0.4-0.4,0.9-0.6,1.5-0.6c0.6,0,1.1,0.2,1.5,0.6c0.4,0.4,0.6,0.9,0.6,1.5
		v38.7c0,0.6-0.2,1.1-0.6,1.5c-0.4,0.4-0.9,0.6-1.5,0.6c-0.6,0-1.1-0.2-1.5-0.6c-0.4-0.4-0.6-0.9-0.6-1.5V4.5z"/>
	<path fill="#6D6E71" d="M302.6,4.5c0-0.6,0.2-1.1,0.6-1.5c0.4-0.4,0.9-0.6,1.5-0.6c0.6,0,1.1,0.2,1.5,0.6c0.4,0.4,0.6,0.9,0.6,1.5
		v38.7c0,0.6-0.2,1.1-0.6,1.5c-0.4,0.4-0.9,0.6-1.5,0.6c-0.6,0-1.1-0.2-1.5-0.6c-0.4-0.4-0.6-0.9-0.6-1.5V4.5z"/>
	<path fill="#D2232A" d="M25.1,13.5c-8.5,0-15.4,6.9-15.4,15.4c0,8.5,6.9,15.4,15.4,15.4c8.5,0,15.4-6.9,15.4-15.4
		C40.4,20.4,33.6,13.5,25.1,13.5 M25.1,47.4c-10.2,0-18.6-8.3-18.6-18.6c0-10.2,8.3-18.6,18.6-18.6s18.6,8.3,18.6,18.6
		C43.7,39.1,35.3,47.4,25.1,47.4"/>
	<path fill="#D2232A" d="M25.1,23.2c-3.1,0-5.6,2.5-5.6,5.6c0,3.1,2.5,5.6,5.6,5.6c3.1,0,5.6-2.5,5.6-5.6
		C30.7,25.7,28.2,23.2,25.1,23.2 M25.1,37.3c-4.7,0-8.5-3.8-8.5-8.5c0-4.7,3.8-8.5,8.5-8.5c4.7,0,8.5,3.8,8.5,8.5
		C33.6,33.5,29.8,37.3,25.1,37.3"/>
	<path fill="#D2232A" d="M8.2,9.5C7,9.5,6,10.4,6,11.6c0,1.2,1,2.1,2.1,2.1c1.2,0,2.1-1,2.1-2.1C10.3,10.4,9.3,9.5,8.2,9.5"/>
	<path fill="#D2232A" d="M47,46.2c0,4-3.6,4.3-4.3,4.3H7.5c-4,0-4.3-3.6-4.3-4.3V11c0-4,3.6-4.3,4.3-4.3h35.2c4,0,4.3,3.6,4.3,4.3
		V46.2z M50.2,46.2V11c0-2.5-1.4-6.1-5.2-7.2V2.1C45,0.7,44,0,43,0h-6.9C34.7,0,34,1.1,34,2.1v1.4H7.5c-3,0-7.5,2-7.5,7.5v35.2
		c0,3,2,7.5,7.5,7.5h35.2C45.7,53.7,50.2,51.7,50.2,46.2"/>
	<path fill="#D2232A" d="M25.1,19.6L25.1,19.6c-0.5,0-0.9-0.4-0.9-0.9l0-3.8c0-0.5,0.4-0.9,0.9-0.9h0c0.5,0,0.9,0.4,0.9,0.9l0,3.8
		C25.9,19.2,25.5,19.6,25.1,19.6"/>
	<path fill="#D2232A" d="M25.1,43.6L25.1,43.6c-0.5,0-0.9-0.4-0.9-0.9l0-3.8c0-0.5,0.4-0.9,0.9-0.9h0c0.5,0,0.9,0.4,0.9,0.9l0,3.8
		C25.9,43.2,25.5,43.6,25.1,43.6"/>
	<path fill="#D2232A" d="M34.3,28.8L34.3,28.8c0-0.5,0.4-0.9,0.9-0.9l3.8,0c0.5,0,0.9,0.4,0.9,0.9v0c0,0.5-0.4,0.9-0.9,0.9l-3.8,0
		C34.7,29.7,34.3,29.3,34.3,28.8"/>
	<path fill="#D2232A" d="M10.3,28.8L10.3,28.8c0-0.5,0.4-0.9,0.9-0.9l3.8,0c0.5,0,0.9,0.4,0.9,0.9v0c0,0.5-0.4,0.9-0.9,0.9l-3.8,0
		C10.7,29.7,10.3,29.3,10.3,28.8"/>
	<path fill="#D2232A" d="M31.6,22.3C31.6,22.3,31.6,22.3,31.6,22.3c-0.3-0.3-0.3-0.9,0-1.2l2.7-2.7c0.3-0.3,0.9-0.3,1.2,0
		c0,0,0,0,0,0c0.3,0.3,0.3,0.9,0,1.2l-2.7,2.7C32.5,22.6,31.9,22.6,31.6,22.3"/>
	<path fill="#D2232A" d="M14.6,39.2C14.6,39.2,14.6,39.2,14.6,39.2c-0.3-0.3-0.3-0.9,0-1.2l2.7-2.7c0.3-0.3,0.9-0.3,1.2,0
		c0,0,0,0,0,0c0.3,0.3,0.3,0.9,0,1.2l-2.7,2.7C15.5,39.6,15,39.6,14.6,39.2"/>
	<path fill="#D2232A" d="M31.6,35.3L31.6,35.3c0.3-0.3,0.9-0.3,1.2,0l2.7,2.7c0.3,0.3,0.3,0.9,0,1.2l0,0c-0.3,0.3-0.9,0.3-1.2,0
		l-2.7-2.7C31.3,36.2,31.3,35.6,31.6,35.3"/>
	<path fill="#D2232A" d="M14.6,18.3L14.6,18.3c0.3-0.3,0.9-0.3,1.2,0l2.7,2.7c0.3,0.3,0.3,0.9,0,1.2l0,0c-0.3,0.3-0.9,0.3-1.2,0
		l-2.7-2.7C14.3,19.2,14.3,18.7,14.6,18.3"/>
	<path fill="#D2232A" d="M27.5,19.9C27.5,19.9,27.4,19.9,27.5,19.9c-0.5-0.1-0.7-0.6-0.6-1.1l1-3.7c0.1-0.5,0.6-0.7,1.1-0.6
		c0,0,0,0,0,0c0.5,0.1,0.7,0.6,0.6,1.1l-1,3.7C28.4,19.8,27.9,20,27.5,19.9"/>
	<path fill="#D2232A" d="M21.2,43.1C21.2,43.1,21.2,43.1,21.2,43.1c-0.5-0.1-0.7-0.6-0.6-1.1l1-3.7c0.1-0.5,0.6-0.7,1.1-0.6
		c0,0,0,0,0,0c0.5,0.1,0.7,0.6,0.6,1.1l-1,3.7C22.2,42.9,21.7,43.2,21.2,43.1"/>
	<path fill="#D2232A" d="M34,31.2C34,31.2,34,31.2,34,31.2c0.1-0.5,0.6-0.7,1.1-0.6l3.7,1c0.5,0.1,0.7,0.6,0.6,1.1c0,0,0,0,0,0
		c-0.1,0.5-0.6,0.7-1.1,0.6l-3.7-1C34.1,32.1,33.8,31.6,34,31.2"/>
	<path fill="#D2232A" d="M10.8,25C10.8,25,10.8,25,10.8,25c0.1-0.5,0.6-0.7,1.1-0.6l3.7,1c0.5,0.1,0.7,0.6,0.6,1.1c0,0,0,0,0,0
		c-0.1,0.5-0.6,0.7-1.1,0.6l-3.7-1C10.9,25.9,10.7,25.4,10.8,25"/>
	<path fill="#D2232A" d="M33,24.2C33,24.2,33,24.2,33,24.2c-0.2-0.4-0.1-0.9,0.3-1.2l3.3-1.9c0.4-0.2,0.9-0.1,1.2,0.3c0,0,0,0,0,0
		c0.2,0.4,0.1,0.9-0.3,1.2l-3.3,1.9C33.8,24.7,33.3,24.6,33,24.2"/>
	<path fill="#D2232A" d="M12.3,36.2C12.3,36.2,12.3,36.2,12.3,36.2c-0.2-0.4-0.1-0.9,0.3-1.2l3.3-1.9c0.4-0.2,0.9-0.1,1.2,0.3
		c0,0,0,0,0,0c0.2,0.4,0.1,0.9-0.3,1.2l-3.3,1.9C13,36.7,12.5,36.6,12.3,36.2"/>
	<path fill="#D2232A" d="M29.7,36.8C29.7,36.8,29.7,36.8,29.7,36.8c0.4-0.2,0.9-0.1,1.2,0.3l1.9,3.3c0.2,0.4,0.1,0.9-0.3,1.2
		c0,0,0,0,0,0c-0.4,0.2-0.9,0.1-1.2-0.3l-1.9-3.3C29.1,37.5,29.3,37,29.7,36.8"/>
	<path fill="#D2232A" d="M17.7,16C17.7,16,17.7,16,17.7,16c0.4-0.2,0.9-0.1,1.2,0.3l1.9,3.3c0.2,0.4,0.1,0.9-0.3,1.2c0,0,0,0,0,0
		c-0.4,0.2-0.9,0.1-1.2-0.3l-1.9-3.3C17.1,16.8,17.3,16.2,17.7,16"/>
	<path fill="#D2232A" d="M29.7,20.8C29.7,20.8,29.7,20.8,29.7,20.8c-0.4-0.2-0.6-0.8-0.3-1.2l1.9-3.3c0.2-0.4,0.8-0.6,1.2-0.3
		c0,0,0,0,0,0c0.4,0.2,0.6,0.8,0.3,1.2l-1.9,3.3C30.6,20.9,30.1,21.1,29.7,20.8"/>
	<path fill="#D2232A" d="M17.7,41.6C17.7,41.6,17.7,41.6,17.7,41.6c-0.4-0.2-0.6-0.8-0.3-1.2l1.9-3.3c0.2-0.4,0.8-0.6,1.2-0.3
		c0,0,0,0,0,0c0.4,0.2,0.6,0.8,0.3,1.2l-1.9,3.3C18.6,41.7,18.1,41.8,17.7,41.6"/>
	<path fill="#D2232A" d="M33.1,33.4C33.1,33.4,33.1,33.4,33.1,33.4c0.2-0.4,0.8-0.6,1.2-0.3l3.3,1.9c0.4,0.2,0.6,0.8,0.3,1.2
		c0,0,0,0,0,0c-0.2,0.4-0.8,0.6-1.2,0.3l-3.3-1.9C33,34.3,32.8,33.8,33.1,33.4"/>
	<path fill="#D2232A" d="M12.3,21.4C12.3,21.4,12.3,21.4,12.3,21.4c0.2-0.4,0.8-0.6,1.2-0.3l3.3,1.9c0.4,0.2,0.6,0.8,0.3,1.2
		c0,0,0,0,0,0c-0.2,0.4-0.8,0.6-1.2,0.3l-3.3-1.9C12.2,22.3,12,21.8,12.3,21.4"/>
	<path fill="#D2232A" d="M34,26.4C34,26.4,34,26.4,34,26.4c-0.1-0.5,0.2-0.9,0.6-1.1l3.7-1c0.5-0.1,0.9,0.2,1.1,0.6c0,0,0,0,0,0
		c0.1,0.5-0.2,0.9-0.6,1.1L35,27C34.6,27.1,34.1,26.9,34,26.4"/>
	<path fill="#D2232A" d="M10.8,32.6C10.8,32.6,10.8,32.6,10.8,32.6c-0.1-0.5,0.2-0.9,0.6-1.1l3.7-1c0.5-0.1,0.9,0.2,1.1,0.6
		c0,0,0,0,0,0c0.1,0.5-0.2,0.9-0.6,1.1l-3.7,1C11.4,33.4,10.9,33.1,10.8,32.6"/>
	<path fill="#D2232A" d="M27.5,37.7C27.5,37.7,27.5,37.7,27.5,37.7c0.5-0.1,0.9,0.2,1.1,0.6l1,3.7c0.1,0.5-0.2,0.9-0.6,1.1
		c0,0,0,0,0,0c-0.5,0.1-0.9-0.2-1.1-0.6l-1-3.7C26.7,38.3,27,37.8,27.5,37.7"/>
	<path fill="#D2232A" d="M21.3,14.5C21.3,14.5,21.3,14.5,21.3,14.5c0.5-0.1,0.9,0.2,1.1,0.6l1,3.7c0.1,0.5-0.2,0.9-0.6,1.1
		c0,0,0,0,0,0c-0.5,0.1-0.9-0.2-1.1-0.6l-1-3.7C20.5,15.1,20.8,14.6,21.3,14.5"/>
</g>
</svg>
