<?xml version="1.0" encoding="utf-8"?>
<!-- Generator: Adobe Illustrator 18.0.0, SVG Export Plug-In . SVG Version: 6.00 Build 0)  -->
<!DOCTYPE svg PUBLIC "-//W3C//DTD SVG 1.1//EN" "http://www.w3.org/Graphics/SVG/1.1/DTD/svg11.dtd">
<svg version="1.1" id="圖層_1" xmlns="http://www.w3.org/2000/svg" xmlns:xlink="http://www.w3.org/1999/xlink" x="0px" y="0px"
	 viewBox="0 0 283.5 283.5" enable-background="new 0 0 283.5 283.5" xml:space="preserve">
<g>
	<path fill="#005699" d="M283.5,141.7c0,78.3-63.5,141.7-141.7,141.7C63.5,283.5,0,220,0,141.7C0,63.5,63.5,0,141.7,0
		C220,0,283.5,63.5,283.5,141.7z"/>
	<path fill="#FFFFFF" d="M35,141.7c0,58.8,47.9,106.7,106.7,106.7c58.8,0,106.7-47.9,106.7-106.7C248.4,82.9,200.6,35,141.7,35
		C82.9,35,35,82.9,35,141.7z"/>
	<g>
		<path fill="#FFFFFF" d="M21.6,99.4c0.1-0.4,0.2-0.8,0.3-1.3c0.1-0.1,0.1-0.2,0.3-0.2c0.2-1.3,0.5-2.9,0.9-4.7l-4.4-1.7
			c-0.2-0.1-0.5-0.1-0.8-0.1c-0.1-0.1-0.2-0.2-0.3-0.4c-0.1-0.2,0-0.6,0.2-1.1c0.1-0.3,0.4-0.7,0.7-1.1c0.3-0.2,0.5-0.3,0.6-0.3
			c0.1,0.1,0.4,0.2,0.6,0.4c0.5,0.4,1.5,0.9,2.8,1.5c0.4,0.2,0.7,0.3,1.1,0.5c0.6-2,1.1-3.6,1.6-4.8c0.2-0.4,0.6-0.9,1.4-1.5
			c0.8-0.7,1.3-1,1.5-0.9c0.1,0.1,0.3,0.3,0.5,0.8c0.4,0.7,1.6,1.9,3.5,3.7c0.3,0.2,0.4,0.6,0.4,1.1c0,0.4-0.1,0.7-0.2,0.9
			c-0.2,0.4-0.4,0.7-0.6,0.7c-0.4,1.2-0.7,2.2-1,3.1c2.8,1.2,4.9,2.1,6.2,2.6c0.4,0.1,0.7,0.2,0.9,0.3c0.4,0.1,0.8,0.2,1.1,0.3
			c0.2,0.1,0.1,0.4,0,0.8c-0.3,0.7-0.6,1.1-0.8,1.1c-0.2-0.1-0.3-0.1-0.4-0.2c-0.2-0.1-0.4-0.2-0.6-0.3l-6.9-2.7
			c0,0.2-0.1,0.4-0.1,0.5c-0.3,1.3-0.4,2.2-0.3,2.7c0,0.5,0,0.9-0.1,1.2c-0.1,0.2-0.3,0.2-0.7,0.2c-0.6,0-1.3,0-1.9,0.2
			c-0.5,0.1-1.3,0.2-2.2,0.1c-1.2,0-2.2-0.2-3.1-0.5C21.6,100.1,21.5,99.9,21.6,99.4L21.6,99.4z M28.2,96.7c0.1-0.5,0.2-0.9,0.4-1.4
			l-4.1-1.6c-0.2,0.9-0.4,1.8-0.5,2.7c0,0.9,0,1.6-0.1,2C25,98.7,26.1,99,27,99c0.3-0.1,0.6-0.2,0.7-0.6
			C27.8,98.2,27.9,97.6,28.2,96.7L28.2,96.7z M29.1,93.3c0.4-1.1,0.8-2.3,1.3-3.4c-2-1.8-3.2-2.7-3.4-2.8c-0.4-0.2-0.7,0-0.8,0.4
			c-0.5,1.4-0.9,2.7-1.3,4.1C26.5,92.1,27.9,92.7,29.1,93.3L29.1,93.3z"/>
		<path fill="#FFFFFF" d="M33.5,74.2c-0.3-0.2-0.3-0.5,0-0.9l0,0c0.1-0.1,0.4-0.4,0.9-0.8l0,0c0.3-0.9,0.7-2,1.3-3.3
			c-0.4-0.3-0.7-0.5-1.1-0.8l-3.2-1.8c-0.2-0.3-0.2-0.6,0.1-0.9c0.9-1.2,1.5-1.7,1.7-1.5c0.7,0.9,1.9,1.9,3.3,3c0,0,0,0,0,0.1
			c0.6-1,1.1-1.9,1.5-2.5c0.2-0.3,0.8-0.7,1.6-1.1c0.9-0.5,1.4-0.6,1.6-0.5c0.1,0.1,0.2,0.3,0.3,0.7c0.3,0.6,1.1,1.7,2.4,3.4
			c0.3-0.6,0.6-1.2,0.8-1.7c0.3-0.7,0.5-1.2,0.7-1.6c0.2-0.2,1-0.1,2.4,0.3c0.1,0.1,0.1,0.4-0.1,0.7L47,66.1c-0.7,1-2.1,3.2-4.2,6.7
			c0,0.1,0,0.1-0.1,0.1c0.9,1.1,1.5,2.2,1.7,3.1c0.2,0.8,0.6,1.4,1.1,1.9c0,1.3-0.1,2.6-0.4,3.7c-0.3,0.8-0.7,1.4-1,1.9
			c-0.4,0.6-0.7,0.9-0.9,0.7c0,0,0-0.3,0-1c0.3-2.2,0.3-4.1-0.1-5.8c-0.2-1-0.7-2-1.5-3c-1.1,2-1.9,3.9-2.5,5.5
			c-0.1,0.1-0.4,0.2-0.8,0.3c-0.6-0.1-0.9-0.1-1-0.2c-0.2-0.1-0.2-0.3-0.1-0.6c0.6-0.9,1.2-2,1.8-3.3c-0.4,0-0.9-0.1-1.5-0.3
			C36.1,75.7,34.8,75,33.5,74.2L33.5,74.2z M36.9,73.5c0.7,0.4,1.6,1,2.9,1.5c0.1-0.2,0.1-0.3,0.2-0.5c0.2-0.4,0.4-0.8,0.6-1.2
			c-0.2-0.2-0.5-0.4-0.7-0.6c-0.8-0.8-1.8-1.7-3.1-2.7c-0.2,0.6-0.4,1.1-0.6,1.7c0,0.5-0.1,0.8-0.2,1.1
			C36.4,73.2,36.7,73.4,36.9,73.5L36.9,73.5z M38.8,66.3c-0.4,0.7-0.8,1.3-1.1,2c1.6,1.3,2.9,2.4,3.9,3.4c0.4-0.7,0.8-1.5,1.2-2.3
			c-1.9-2.1-3-3.2-3.1-3.3C39.3,65.9,39,66,38.8,66.3L38.8,66.3z M44.3,72.9c-0.1-0.1-0.1-0.2,0.1-0.5c1.5-1.1,3.6-2.1,6.3-3
			c0.6-0.3,1-0.3,1.4-0.1c1.2,1,1.6,1.6,1.4,2c-0.1,0.2-0.4,0.3-0.9,0.3c-2.4,0.2-4.8,0.7-7.2,1.3C44.8,73.1,44.5,73.1,44.3,72.9
			L44.3,72.9z"/>
		<path fill="#FFFFFF" d="M46.9,53.6c0.5-0.5,1.9-2.4,4.3-5.7c0.2-0.2,0.6,0.1,1.3,0.8c0.2,0.2,0.1,0.5-0.2,1
			c-0.3,0.6-0.7,1.2-1,1.7c0.1,0,0.2,0.1,0.3,0.1c0.1,0.1,0.1,0.2,0.1,0.3c0,0.4,0.1,1.1,0.3,2.3c0.1,0.5,0.2,1.1,0.2,1.7
			c0.7-1,1.2-1.7,1.6-2.2c0.4-0.5,0.6-0.8,0.6-0.8c0.2-0.2,0.5-0.3,0.9-0.3c-0.1-0.1,0-0.3,0.1-0.5c0.6-0.6,1.2-1.3,1.9-2.2
			c-0.4-0.5-0.8-0.9-1.2-1.4c-0.4-0.4-0.8-0.8-1.2-1.2c-0.1,0-0.2-0.1-0.2-0.1c-0.2,0.3-0.4,0.5-0.6,0.8c-0.2,0.2-0.5,0.2-1-0.1
			c-0.3-0.2-0.6-0.4-0.9-0.6c-0.1-0.1-0.1-0.3,0.1-0.5c0.7-0.7,2.9-3.3,6.5-7.6c0.2-0.2,0.6,0.1,1.2,0.7c0.1,0.1,0.1,0.4-0.2,0.9
			c-0.3,0.4-0.6,0.8-0.9,1.2c0,0.1,0.1,0.1,0.2,0.2c0.3,0.3,0.8,0.9,1.5,1.6c0.4,0.4,0.8,0.8,1.1,1.2c0.5-0.5,0.9-1,1.2-1.5
			c0.3-0.5,0.5-0.8,0.8-1c0.2-0.2,0.9,0.1,2.2,0.8c0.1,0.2,0.1,0.4-0.2,0.6l-1.1,0.9c-0.3,0.3-0.9,0.9-1.6,1.6
			c2.4,2.6,4.1,4.4,5.1,5.4c0.2,0.3,0.5,0.5,0.7,0.7c0.4,0.2,0.7,0.5,0.9,0.7c0.1,0.2,0,0.4-0.4,0.8c-0.6,0.5-1,0.7-1.2,0.6
			C68,54.3,68,54.1,67.9,54c-0.1-0.1-0.2-0.3-0.4-0.5l-5.9-5.7c-0.2,0.2-0.5,0.5-0.7,0.7c-0.4,0.4-0.8,0.9-1.2,1.3c0,0,0,0,0,0.1
			c0.5,0.8,1,1.9,1.4,3.3c0.1,0.4,0.2,0.7,0.3,0.8c0.1,0.1,0.2,0.2,0.3,0.2c0.1,0,0.2,0.1,0.3,0.2c0.1,0.1,0,0.8-0.3,2
			c-0.3,1.3-0.7,2.2-1.1,2.6c-0.2,0.2-0.4,0.3-0.6,0.1C60,58.9,60,58.7,60,58.2c0.1-2.4-0.1-4.2-0.6-5.4c-0.2-0.5-0.5-1-0.8-1.5
			c-0.4,0.6-0.8,1.1-1.2,1.6C57.2,53,57,53,56.7,53c0,0.1,0,0.2,0,0.3c0.1,0.3,0.5,1.2,1.3,2.7c0.2,0.4,0.3,0.6,0.3,0.7
			c-0.1,0.1-0.3,0.2-0.7,0.2c-1,1.4-1.5,2.3-1.5,2.5c0,0.2-0.1,0.4-0.2,0.5c-0.3,0.2-1.1-0.1-2.5-0.8c-0.5-0.3-0.9-0.6-1.3-0.8
			c0,0.4-0.1,0.8-0.2,1.2c-0.2,0.9-0.3,1.5-0.5,1.6c-0.3,0.3-0.5,0.3-0.6,0.2c-0.1-1-0.1-2-0.1-3c0-1.5-0.4-3.2-1-4.9
			c-0.3,0.5-0.6,1-1,1.6c-0.2,0.2-0.6,0.2-1.1,0c-0.4-0.2-0.7-0.4-0.9-0.7C46.6,54,46.7,53.8,46.9,53.6L46.9,53.6z M53.4,57
			c0.9,0.9,1.5,1.3,1.6,1.2c0.2-0.2,0.6-0.8,1.2-1.9c0-0.1,0-0.2-0.1-0.4c-0.2-0.3-0.5-0.7-0.7-1c-0.4-0.4-0.6-0.5-0.8-0.4
			c-0.3,0.2-0.5,0.6-0.9,1.1C53.4,56.4,53.3,56.8,53.4,57L53.4,57z M58.7,48.3c0.5-0.6,1-1.1,1.6-1.7l-2.9-2.7
			c-0.2,0.2-0.4,0.5-0.6,0.7c-0.2,0.2-0.4,0.4-0.6,0.6c0,0.1,0.1,0.2,0.1,0.4c0.1,0.2,0.2,0.4,0.5,0.6
			C57.5,46.8,58.1,47.6,58.7,48.3L58.7,48.3z"/>
		<path fill="#FFFFFF" d="M70.2,34.8c0.1-0.2,0.2-0.4,0.3-0.4c0.1,0,0.2,0.1,0.2,0.2c0,0,0,0.1,0,0.3c0.1,1.2,0.4,2.1,0.8,2.8
			c0.1,0.2,0,0.3-0.2,0.4c-0.3,0.2-0.8,0.3-1.5,0.4c-0.5,0-0.8-0.1-0.9-0.2C68.9,38.1,69.3,37,70.2,34.8L70.2,34.8z M71.1,32.9
			c2.6-2.7,4.7-4.6,6.5-5.6c1.9-1.1,3.4-1.4,4.7-0.7c1.1,0.8,1.7,1.4,2,1.8c0.1,0.2,0.1,0.4-0.2,0.6c-0.1,0.1-0.3,0.2-0.6,0.3
			c-0.4,0.2-0.8,0.4-1.2,0.6c-0.3,0.2-0.8,0.4-1.4,0.7c0.2,0.1,0.3,0.2,0.4,0.3c0.2,0.3,0.2,0.6,0,0.9c-0.3,0.5-1,1.1-1.9,1.6
			c-0.4,0.3-0.9,0.3-1.4,0.1c-0.4-0.2-0.8-0.6-1.2-1.2c-0.2-0.4-0.5-0.8-0.7-1.3c-0.1-0.2-0.2-0.4-0.3-0.6c-0.2,0.2-0.4,0.4-0.7,0.6
			c-0.3,0.3-0.6,0.6-0.9,0.9c0.1,0.1,0.1,0.4,0.2,0.6c0.3,0.8,0.5,1.3,0.8,1.7c0,0.1,0.2,0.2,0.4,0.3c0.1,0.1,0.2,0.2,0.3,0.3
			c0.2-0.1,0.7-0.2,1.4-0.1c0.7,0.1,1.1,0.2,1.2,0.3c0.1,0.1,0.1,0.2,0.2,0.4c-0.1,0.3-0.1,0.7,0,1.3c0.3-0.2,0.5-0.5,0.7-0.8
			c0.6-0.7,1.3-1.3,2.1-1.8c0.8-0.4,1.2-0.5,1.4-0.3c0,0.1,0,0.2-0.1,0.4c-0.3,0.7-0.3,1.5-0.1,2.3c0.4,1.5,0.7,2.5,1.1,3.1
			c0.4,0.5,0.9,0.8,1.5,0.9c0.5,0.1,1.1,0,1.8-0.5c1-0.6,1.6-1.2,1.8-1.7c0.1-0.5-0.5-1.9-2-4.3c-0.2-0.4-0.3-0.7-0.2-0.7
			c1.7,1.1,2.9,2.1,3.6,3c0.6,0.7,1,1.2,1.3,1.5c0.2,0.2,0.4,0.3,0.6,0.4c0.1,0.2,0,0.5-0.4,0.8c-0.9,0.8-2.1,1.6-3.7,2.6
			c-1,0.6-2,0.9-2.8,0.9c-1.1-0.2-2.1-0.8-2.9-2c-0.2-0.3-0.5-0.9-0.8-1.8c-0.2-0.6-0.4-1.1-0.6-1.3c-0.2-0.2-0.4-0.2-0.5-0.1
			c-0.6,0.5-1.1,1-1.5,1.5c0.1,1.1,0.2,2.6,0.3,4.3c0.1,0.4,0.3,0.7,0.6,0.9c0.1,0.8-0.3,1.9-1.2,3.2c-0.6,0.6-1.2,1-1.7,1.3
			c-0.3,0.2-0.5,0.2-0.6,0.2c-0.1-0.1,0-0.5,0.2-1c1-2.5,1.5-4.5,1.3-6c-0.1-0.6-0.1-1.1-0.2-1.6c-0.9,0.8-1.5,1.5-1.9,1.9
			c-0.3,0.4-0.5,0.7-0.6,0.7c-0.2,0.1-0.5-0.1-0.9-0.4c-0.3-0.2-0.5-0.4-0.6-0.5c-0.1-0.1,0-0.3,0.2-0.6c1.3-1.1,2.4-2.2,3.4-3.2
			c0-0.2-0.1-0.3-0.1-0.4c-0.1-0.5-0.3-1-0.6-1.5l-0.8-0.7c-0.1,0.2-0.2,0.5-0.4,0.8c-0.7,1.1-1.3,1.8-1.6,2.1
			c-0.2,0.1-0.3,0.1-0.4,0c0-0.1,0-0.4,0.2-1.1c0.3-1,0.3-1.7,0.2-2.3c0-0.3-0.3-1-0.7-1.9c-0.4,0.4-0.6,0.7-0.7,0.9
			c-0.1,0.4-0.1,0.6-0.2,0.6c-0.2,0.1-0.4,0.1-0.8-0.2c-0.2-0.2-0.4-0.3-0.5-0.4C70.6,33.6,70.7,33.3,71.1,32.9L71.1,32.9z
			 M71.6,26.6c-0.1-0.7,0-1.1,0.2-1.3c0.2-0.1,0.4,0,0.7,0.3c0.5,0.6,1,1,1.6,1.1c0.5,0.1,0.9,0.4,1.2,0.8c0.2,0.3,0,0.5-0.4,0.8
			c-0.5,0.3-1.1,0.4-2,0.5c-0.5,0-0.8-0.2-0.9-0.4C71.8,28.1,71.6,27.4,71.6,26.6L71.6,26.6z M78.3,28.4c-0.4,0.2-0.8,0.5-1.2,0.8
			c0.1,0.2,0.2,0.4,0.2,0.8c0.3,0.8,0.6,1.3,0.8,1.6c0.2,0.4,0.5,0.4,0.8,0.2c0.2-0.1,0.4-0.4,0.6-0.7c0-0.3,0.1-0.5,0.3-0.6
			c0.1-0.1,0.2-0.1,0.4-0.1c0-0.1,0.1-0.2,0.2-0.4c0.8-1,1-1.9,0.5-2.6C80.6,27.1,79.8,27.5,78.3,28.4L78.3,28.4z"/>
		<path fill="#FFFFFF" d="M94.6,18.7c0.4-0.2,0.6-0.4,0.7-0.4c0.2-0.1,0.5,0,1.1,0.1c0.4,0.2,0.6,0.3,0.6,0.4c0,0.1,0,0.3-0.1,0.5
			c-0.3,0.4-0.6,1-0.9,1.9c-0.2,0.5-0.2,1-0.1,1.2c0.1,0.2,0.2,0.3,0.5,0.5c0.3,0.2,0.6,0.4,0.9,0.7c0.1-0.4,0.6-1.1,1.3-2.3
			c0.1-0.2,0.2-0.3,0.3-0.3c0.1,0,0.1,0.1,0.2,0.2c0,0,0,0.1,0,0.2c0.1,0.9,0.3,1.7,0.5,2.4c0.1,0.2,0,0.3-0.2,0.4
			c-0.4,0.1-0.8,0.1-1.4,0c-0.1,0-0.1,0-0.2-0.1c0.1,0.1,0.2,0.3,0.3,0.4c0.4,0.4,0.6,0.9,0.8,1.3c0.1,0.4,0.2,0.7,0.1,1
			c0,0.3,0,0.5-0.2,0.5c-0.1,0-0.1,0-0.2,0c-0.2,0-0.5,0.1-0.9,0.2c-1.1-0.1-2.1-0.4-2.9-0.7c1.1,3.4,1.9,5.9,2.4,7.3
			c0.1,0.3,0.2,0.5,0.3,0.8c0.1,0.3,0.3,0.6,0.3,0.8c0,0.1-0.2,0.3-0.6,0.4c-0.6,0.2-1,0.2-1.2,0.1c0-0.1,0-0.2,0-0.4
			c0-0.1-0.1-0.3-0.1-0.5l-4.8-13.8c-0.1-0.2-0.1-0.3-0.3-0.5c0-0.1,0-0.1,0.1-0.3c0.1-0.1,0.3-0.3,0.6-0.4c0.2-0.1,0.4-0.1,0.7-0.1
			c0.3-0.2,0.6-0.4,0.8-0.6C93.6,19.2,94.1,18.9,94.6,18.7L94.6,18.7z M93.5,20.6c-0.2,0.2-0.4,0.4-0.5,0.5c0.1,0.5,0.3,1.1,0.5,1.9
			c0.3,1.1,0.7,2,1,3c0.8,0.1,1.4,0.1,1.9-0.1c0.2-0.1,0.3-0.4,0.1-0.9c-0.1-0.4-0.5-0.8-1-1.3c-0.5-0.6-0.7-0.9-0.8-1.1
			c-0.1-0.3-0.1-0.7-0.1-1.2c0.1-0.7,0.1-1.1,0-1.3C94.6,20,94.4,19.9,94,20C93.9,20.1,93.7,20.3,93.5,20.6L93.5,20.6z M99.5,19.9
			c1.9-1.4,3.5-2.4,4.8-2.8c1.9-0.6,3.3-0.6,4.2,0.1c0.8,0.8,1.2,1.4,1.3,1.7c0.1,0.3,0,0.6-0.4,0.7c-0.1,0-0.3,0.1-0.7,0.2
			c-0.4,0.1-0.8,0.2-1.2,0.3c-0.4,0.1-0.9,0.3-1.7,0.4c0.1,0.2,0.2,0.4,0.4,0.6c0,0.1-0.1,0.2-0.3,0.3c-1.3,1-2.3,1.6-3.1,2
			c-0.6,0.3-1.1,0.6-1.3,0.8c-0.2,0.1-0.4-0.2-0.7-0.8c-0.2-0.3-0.3-0.5-0.3-0.6c-0.1-0.2,0-0.3,0.2-0.4c1.7-0.6,3-1.3,4.1-2.1
			c0.2-0.2,0.4-0.3,0.5-0.4c0.1,0,0.2,0.1,0.4,0.3c0.1-0.1,0.1-0.1,0.2-0.2c0.8-0.7,1.1-1.3,0.8-1.9c-0.1-0.4-0.8-0.3-1.9,0.1
			c-0.7,0.3-1.5,0.6-2.4,1.2c-1.1,0.7-1.8,1.2-2,1.5c-0.1,0.2-0.2,0.4-0.2,0.4c-0.2,0.1-0.4,0-0.6-0.3c-0.2-0.2-0.3-0.4-0.4-0.5
			C99.1,20.3,99.2,20.1,99.5,19.9L99.5,19.9z M108,24.3c-0.3,0.1-0.6,0.2-1.2,0.5c0,0.1,0,0.1-0.1,0.2c-0.1,0.4-0.1,0.8,0,1.3
			c0.1,0.7,0.3,1.5,0.6,2.4c0.2,0.5,0.5,0.8,0.9,0.9c0.5,0.2,1.1,0.1,1.9-0.2c0.9-0.3,1.4-0.7,1.6-1.3c0.1-0.5,0-1.6-0.5-3.2
			c0-0.2,0-0.3,0-0.3c0.2-0.1,0.4,0.2,0.8,0.6c0.3,0.2,0.6,0.6,1,1.2c0.2,0.7,0.5,1.3,1,1.7c0.4,0.5,0.6,0.8,0.7,1.1
			c0,0.1-0.1,0.3-0.6,0.6c-0.6,0.3-1.7,0.8-3.5,1.4c-0.9,0.3-1.6,0.4-2.2,0.4c-0.4,0-0.9-0.2-1.4-0.6c-0.5-0.5-0.9-1-1.1-1.7
			l-1.2-3.5c-0.1,0-0.2,0.1-0.3,0.1c-0.1,0.1-0.3,0.1-0.4,0.2c0,0.2,0,0.4,0,0.7c0,0.9,0,1.8-0.3,2.8c-0.1,0.5-0.1,1,0,1.6
			c0.1,0.6-0.1,1.1-0.6,1.5c-0.9,0.8-1.7,1.3-2.5,1.6c-0.5,0.2-0.8,0.2-0.8,0.1c0-0.1,0.1-0.4,0.4-0.8c1.2-1.5,1.9-2.8,2.1-3.8
			c0.2-0.9,0.2-1.8,0.1-2.7c-0.6,0.3-1,0.7-1.5,1.1c-0.1,0-0.4-0.1-0.7-0.4c-0.4-0.4-0.7-0.7-0.7-0.8c0-0.1,0.1-0.3,0.3-0.4
			c0.7-0.3,1.6-0.7,2.6-1.4c0.8-0.4,1.7-0.9,2.7-1.4c0.8-0.3,1.4-0.7,1.9-1c0.3-0.3,0.6-0.4,0.8-0.5c0.3-0.1,0.8,0.4,1.6,1.4
			c0,0.2-0.1,0.4-0.4,0.5L108,24.3z M100,14.3c0.1-0.3,0.3-0.6,0.5-0.7c0.2,0.1,0.4,0.3,0.6,0.6c0.3,0.4,0.7,0.7,1.1,1
			c0.4,0.4,0.7,0.8,0.9,1.4c0.1,0.4,0,0.6-0.4,0.7c-0.6-0.1-1-0.1-1.5-0.1c-0.4,0-0.8-0.3-1.1-1.1C100,15.4,99.9,14.8,100,14.3
			L100,14.3z"/>
		<path fill="#FFFFFF" d="M123.6,13.9c0.3-0.2,0.5-0.3,0.5-0.3c0.1,0,0.2,0.1,0.2,0.2c0,0-0.1,0.2-0.3,0.5c-0.9,1.3-1.9,2.4-2.8,3.3
			c-0.3,0.3-0.6,0.7-0.8,1.1c-0.1,0.2-0.2,0.4-0.3,0.4c-0.1,0-0.5-0.1-1-0.5c-0.5-0.4-0.8-0.7-0.8-0.9c0-0.1,0-0.2,0.2-0.4
			c1.3-0.8,2.3-1.5,3-2C122.4,14.6,123.1,14.1,123.6,13.9L123.6,13.9z M119.7,10c0.1-0.3,0.3-0.4,0.4-0.5c0.2,0.1,0.5,0.3,0.7,0.6
			c0.3,0.3,0.7,0.7,1.2,1c0.5,0.3,0.8,0.7,0.8,1.2c0,0.4-0.2,0.5-0.5,0.6c-0.7-0.1-1.3-0.2-1.8-0.2c-0.6,0-0.9-0.4-1-1.1
			C119.5,10.9,119.5,10.4,119.7,10L119.7,10z M126.1,7.5c0.2-0.6,0.4-0.9,0.6-0.9c0.2,0,0.4,0.2,0.9,0.5c0.5,0.4,0.7,0.7,0.7,0.9
			c0,0.1,0,0.2-0.1,0.2c-0.2,0.2-0.5,0.7-0.9,1.4c-0.1,0.2-0.3,0.4-0.4,0.6c0.3-0.1,0.5-0.2,0.7-0.4c0.8-0.4,1.7-0.7,2.6-0.8
			c1-0.1,1.9,0.1,2.6,0.6c1.3,1,2,1.6,2,1.8c0,0.1-0.1,0.2-0.4,0.3c-0.3,0.1-0.7,0.2-1.2,0.4c-0.3,0.1-0.6,0.2-0.9,0.3
			c-1.4,0.2-2.1,0.1-2.2-0.1c0-0.1,0.2-0.2,0.6-0.4c0.9-0.5,1.3-1,1.3-1.6c-0.1-0.4-0.6-0.5-1.4-0.4c-0.3,0.1-0.9,0.2-1.6,0.6
			c-0.3,0.1-0.5,0.2-0.8,0.4c0.1,0,0.2,0.1,0.3,0.1c0.4,0.2,0.6,0.3,0.6,0.5c0,0.1-0.1,0.2-0.4,0.4c-0.2,0.2-0.4,0.5-0.5,1
			c0.4,0.3,1.3,0.7,2.5,1.2c1.8,0.7,3.2,1.2,4.1,1.4c0.7,0.1,1.3,0.2,1.8,0.4c0.4,0.2,0.6,0.4,0.6,0.5c0,0.1-0.2,0.2-0.5,0.2
			c-1.5,0.2-2.8,0.3-3.9,0.3c-0.6,0-1-0.1-1.1-0.3c0-0.3-0.2-0.5-0.4-0.6c-0.9-0.5-2.1-1-3.7-1.4c-0.1,0-0.1,0-0.2,0
			c-0.4,0.7-0.9,1.4-1.5,1.9c-0.6,0.5-1.4,1-2.3,1.4c0.4-0.1,0.9-0.3,1.5-0.5c1.4-0.4,2.6-0.7,3.6-0.8c0.3,0,1,0.1,1.9,0.4
			c0.8,0.2,1.2,0.4,1.2,0.7c0,0.1-0.1,0.3-0.2,0.5c-0.1,0.5,0,2.4,0.3,5.6c0.1,0.6-0.4,1.1-1.5,1.5c-0.3,0-0.5-0.1-0.5-0.4
			c0-0.3-0.1-0.5-0.1-0.8c-0.5,0.1-1,0.2-1.5,0.4c-0.2,0-0.3,0.1-0.5,0.1c0,0,0,0.1,0,0.1c-0.5,0.8-1.2,1.7-2.2,2.7
			c-0.3,0.4-0.6,0.9-0.8,1.7c-0.8,0.5-1.5,0.7-2.3,0.8c-0.9,0-1.3-0.1-1.4-0.4c0-0.1,0.2-0.3,0.6-0.5c1-0.6,1.9-1.2,2.6-2.1
			c0.5-0.6,1-1.2,1.3-1.8c-0.3,0.1-0.5,0.1-0.8,0.2c0,0.1-0.1,0.1-0.2,0.2c-0.2,0.3-0.4,0.4-0.7,0.5c-0.3,0-0.5-0.3-0.6-0.9
			l-0.8-6.5c0-0.1,0-0.2,0-0.3c-0.3,0.1-0.5,0.2-0.8,0.3c-0.1,0-0.2,0-0.2-0.2c2.3-1.7,3.7-3.2,4.3-4.6c0.4-0.9,0.7-1.6,0.7-2.2
			c-0.2,0.1-0.5,0.3-0.7,0.4c-0.1,0-0.3-0.1-0.5-0.4c-0.4,0.4-0.8,0.7-1.2,1.1c-0.6,0.5-1,0.7-1.1,0.7c-0.4,0-0.6,0-0.7-0.2
			c0.4-0.7,0.9-1.3,1.4-1.8C125,10.4,125.6,9.1,126.1,7.5L126.1,7.5z M124.9,23.2c0,0.2,0.1,0.5,0.2,0.8c2.4-0.6,4-1,4.8-1.2
			c-0.1-1.4-0.3-2.8-0.4-4c-0.1-0.8-0.4-1.1-1-1.1c-1.2,0.1-2.4,0.4-3.5,0.9c-0.1,0-0.1,0.1-0.2,0.1c0,0.1,0,0.3,0,0.5
			c0,0.1,0,0.2,0,0.4c2.2-0.5,3.3-0.7,3.4-0.7c0.2,0,0.3,0.3,0.4,0.7c0,0.2-0.1,0.4-0.5,0.5c-0.3,0.1-0.7,0.2-1.2,0.4
			c-0.4,0.1-0.7,0.2-1.1,0.3c-0.3,0.1-0.7,0.2-1,0.3c0,0.3,0,0.6,0,0.8c2.3-0.6,3.5-0.9,3.6-0.9c0.2,0,0.3,0.3,0.4,0.8
			c0,0.2-0.1,0.3-0.5,0.5c-0.4,0.1-0.8,0.2-1.2,0.4c-0.4,0.1-0.8,0.3-1.1,0.3C125.7,23,125.3,23.1,124.9,23.2L124.9,23.2z
			 M128.4,25.6c0-0.2,0-0.3,0.1-0.3c1.7,0.2,3.2,0.4,4.5,0.7c0.4,0.1,0.6,0.2,0.7,0.4c0.1,0.4,0,1.1,0,2c-0.1,0.5-0.2,0.8-0.4,0.8
			c-0.1,0-0.3-0.1-0.5-0.3c-0.9-0.9-2.2-1.9-4-2.9C128.5,25.9,128.4,25.7,128.4,25.6L128.4,25.6z"/>
		<path fill="#FFFFFF" d="M143.3,13.2c0.8,0,3.6-0.2,8.3-0.6c0.2,0,0.3,0.4,0.2,1.1c0,0.2-0.2,0.3-0.7,0.4c-1.7,0.4-3,0.6-4.1,0.6
			c-1,0-2.1,0.2-3.6,0.5c-0.2,0-0.4-0.3-0.5-0.7c-0.1-0.4-0.1-0.7-0.1-1C142.9,13.3,143,13.2,143.3,13.2L143.3,13.2z M143.7,21.4
			c0-0.4,0.2-0.6,0.4-0.5l0.6,0.2c1.7-0.3,2.9-0.5,3.7-0.5c0.6-0.1,1-0.1,1-0.1c0.3,0,0.6,0.2,1,0.6c0.3,0.4,0.4,0.7,0.4,0.9
			c0,0.1-0.1,0.2-0.3,0.3c-0.2,0.2-0.6,1-1.2,2.4c-0.2,0.4-0.3,0.6-0.4,0.6c-0.2,0-0.3-0.1-0.5-0.4c-1.6,0.1-2.5,0.3-2.7,0.4
			c-0.2,0.1-0.3,0.1-0.4,0.1c-0.4-0.1-0.7-0.7-1.1-2C143.8,22.4,143.7,21.7,143.7,21.4L143.7,21.4z M145.1,18.4
			c3.1-0.3,4.8-0.5,4.9-0.5c0.3,0.1,0.4,0.4,0.3,0.9c0,0.3-0.2,0.4-0.7,0.5c-0.4,0-0.9,0.1-1.5,0.2c-0.5,0.1-1,0.2-1.4,0.2
			c-0.6,0-1.2,0.2-1.8,0.3c-0.3,0-0.4-0.4-0.4-1C144.6,18.7,144.8,18.5,145.1,18.4L145.1,18.4z M145.3,15.9c3.1-0.3,4.7-0.5,4.8-0.5
			c0.3,0.1,0.4,0.4,0.3,0.9c0,0.2-0.2,0.4-0.7,0.4c-0.4,0-0.9,0.1-1.5,0.3c-0.5,0.1-0.9,0.1-1.3,0.2c-0.6,0-1.2,0.1-1.8,0.3
			c-0.3,0-0.4-0.4-0.4-1C144.8,16.1,145,15.9,145.3,15.9L145.3,15.9z M145.6,22.4c-0.1,1,0,1.5,0.2,1.5c0.2,0,0.9,0,1.9-0.1
			c0.1,0,0.2-0.1,0.3-0.3c0.1-0.4,0.2-0.7,0.3-1.1c0-0.5,0-0.7-0.2-0.7c-0.3,0-0.8,0-1.3,0.1C146,21.9,145.7,22.1,145.6,22.4
			L145.6,22.4z M147.8,8.7c0.4-0.6,0.8-0.8,1.1-0.8c0.2,0.1,0.4,0.3,0.4,0.8c0,0.7,0.1,1.2,0.4,1.6c0.2,0.3,0.3,0.7,0.3,1.2
			c0,0.4-0.4,0.6-1,0.5c-0.5,0-1-0.3-1.6-0.9c-0.3-0.3-0.5-0.6-0.4-0.9C146.9,9.9,147.2,9.4,147.8,8.7L147.8,8.7z M156.4,11.9
			c1.4-0.3,2.5-0.4,3.1-0.4c0.5,0.1,1.4,0.3,2.5,0.9c0.5,0.2,0.8,0.5,0.8,0.7c0,0.1-0.2,0.3-0.6,0.6c-0.8,0.5-1.4,1.4-1.9,2.5
			c-0.5,1.6-0.9,3.4-1,5.2c-0.1,1.3,0.2,2.4,0.8,3.3c0.7,0.8,1.2,1.3,1.7,1.3c0.4,0,0.6-0.2,0.7-0.8c0.1-1.4,0.3-3.1,0.6-5.1
			c0-0.1,0.1-0.1,0.2-0.2c0.9,2.4,1.3,4.6,1.2,6.5c0,0.7,0,1.4,0,2.1c0,0.2-0.1,0.4-0.2,0.4c-0.5-0.1-1.2-0.3-2.1-0.8
			c-1.4-0.8-2.5-1.7-3.2-2.8c-0.8-1.1-1.1-2.5-1.1-4c0.1-0.9,0.3-2.9,0.7-6.2c0-1.1-0.3-1.6-1-1.7c-0.6,0-1.3,0.1-2.1,0.2
			c0.1,0,0.1,0,0.1,0.1c0.6,0.4,0.8,0.7,0.8,0.9c0,0.1-0.1,0.1-0.3,0.2c-0.2,0.1-0.3,0.3-0.5,0.7c-0.2,0.5-0.3,1.4-0.5,2.6
			c0.4-0.1,0.8-0.1,1.3-0.2c0.4-0.1,0.6-0.1,0.7-0.2c0.2,0.1,0.2,0.3,0.2,0.8c-0.1,0.4-0.3,0.8-0.7,1c-0.6,0.2-1.2,0.3-1.8,0.3
			c-0.1,0.3-0.1,0.6-0.1,0.9c-0.3,2.9-0.4,4.9-0.3,5.9c0,0.4-0.2,0.6-0.5,0.6c-0.1,0-0.4-0.2-0.8-0.5c-0.5-0.2-0.7-0.5-0.7-0.8
			c0,0,0.1-0.3,0.4-0.7c0.1-0.5,0.3-2.3,0.6-5.4c-0.6,0-1.3,0.1-2,0.3c-0.2,0-0.3-0.3-0.3-0.9c0-0.4,0-0.7,0-0.7
			c0-0.2,0.2-0.3,0.4-0.3c0.6,0,1.3,0,2.1-0.1c0.1-0.9,0.2-1.9,0.3-2.9l0-1.4c-0.1,0-0.3,0.1-0.4,0.1c-0.4,0.2-0.7,0.2-0.8,0.2
			c-0.2,0-0.4-0.4-0.3-1.2c0-0.4,0.4-0.6,1-0.6C154,12.3,155,12.1,156.4,11.9L156.4,11.9z"/>
		<path fill="#FFFFFF" d="M176.5,19.6c0.7,0.1,1.5,0.1,2.4,0.2c0.3,0.1,0.2,0.6-0.1,1.6c-0.1,0.2-0.3,0.3-0.8,0.2
			c-0.8,0-1.5,0-2.1,0c-0.1,0.3-0.2,0.5-0.2,0.8c0.4,0.2,0.9,0.7,1.4,1.3c0.2,0.3,0.3,0.6,0.2,1c0.1,0,0.2,0,0.3,0
			c0.9,0.2,2.2,0.4,3.9,0.3c0.6,0.1,1.2,0.1,1.9,0.2l2.9-8.9c0.1-0.2,0.1-0.4,0-0.6c0-0.1,0.1-0.2,0.3-0.2c0.2-0.1,0.5,0,0.9,0.1
			c0.2,0.1,0.5,0.2,0.9,0.5c0.2,0.2,0.3,0.4,0.2,0.5c0,0.1-0.1,0.4-0.3,0.7c-0.3,0.6-0.7,1.5-1.1,2.7c-0.7,2-1.3,3.9-1.9,5.5
			c0.1,0,0.2,0,0.3,0c1.1,0.3,2,0.3,2.9,0.2c0.5-0.1,1-0.1,1.2,0c0.4,0.1,0.5,1,0.5,2.7c-0.1,0.2-0.3,0.2-0.7,0.1l-1.6-0.6
			c-0.6-0.2-1.6-0.4-3.2-0.8c-1,3.1-1.8,5.3-2.2,6.7c-0.1,0.3-0.2,0.6-0.3,0.9c-0.1,0.4-0.2,0.7-0.2,1c-0.1,0.2-0.4,0.2-0.9,0.1
			c-0.8-0.2-1.1-0.5-1.1-0.7c0.1-0.2,0.2-0.3,0.3-0.4c0.1-0.2,0.2-0.4,0.3-0.7l2.3-7.2c-2-0.3-3.7-0.3-5.3,0c-0.1,0-0.3-0.3-0.4-0.7
			c-0.1-0.3-0.1-0.5-0.1-0.7c-0.3,0.6-0.7,0.9-0.9,0.9c-0.1-0.1-0.2-0.3-0.3-0.7c-0.1-0.5-0.3-1.1-0.6-1.7c-0.2,0.6-0.4,1.1-0.6,1.6
			c-0.5,1.2-1.1,2.9-1.8,5.1c0,0.1-0.1,0.3-0.1,0.5c0,0.1,0.1,0.3,0,0.4c-0.1,0.1-0.3,0.1-0.8,0c-0.8-0.4-1.2-0.7-1.1-1
			c0.1-0.1,0.3-0.2,0.5-0.3c0.1-0.2,0.2-0.4,0.3-0.6l1.9-5.8l-4,2.3c-0.8,0.4-1.4,0.6-1.6,0.6c-0.2-0.1-0.4-0.2-0.7-0.5
			c-0.2-0.2-0.2-0.4-0.2-0.6c0.1-0.2,0.2-0.3,0.5-0.3c1-0.3,2.1-0.9,3.3-1.8c0.8-0.6,1.6-1.2,2.2-1.8c-0.8-0.1-1.8-0.2-3-0.2
			c-0.2-0.1-0.4-0.4-0.4-0.9c0-0.4,0-0.8,0.1-1.1c0.1-0.2,0.3-0.3,0.6-0.2c0.6,0.1,2,0.3,4.4,0.5l0.9-2.6c0.1-0.2,0.2-0.3,0.3-0.3
			c0.1,0.1,0.4,0.3,0.8,0.6c0.5,0.3,0.7,0.6,0.7,0.7C177.1,18.2,176.8,18.8,176.5,19.6L176.5,19.6z M178,14.3c0.7-0.1,1.2-0.1,1.4,0
			c0.3,0.1,0.7,0.7,1.4,1.9c-0.1,0.2-0.2,0.3-0.5,0.3c-0.5-0.2-1-0.3-1.3-0.3c-0.6,0.1-1.3,0-1.8,0c-0.4-0.1-0.9,0-1.4,0.2
			c-0.3,0.2-0.7,0.3-1.2,0.3c-0.8-0.1-1.5-0.1-2.4-0.2c-0.1,0-0.2-0.1-0.2-0.2c1.1-0.4,2.3-0.8,3.5-1.3
			C175.9,14.7,176.7,14.5,178,14.3L178,14.3z M179.9,19.6c0.2-0.1,0.3-0.2,0.5-0.2c0.2,0.2,0.4,0.5,0.6,1c0.2,0.6,0.5,1.1,1,1.6
			c0.4,0.6,0.6,1.2,0.5,1.8c-0.1,0.2-0.3,0.3-0.5,0.2c-0.7-0.5-1.4-1-2.1-1.3c-0.7-0.4-0.9-1-0.6-2
			C179.4,20.3,179.6,19.9,179.9,19.6L179.9,19.6z M182.4,16.1c0.2-0.2,0.4-0.3,0.6-0.2c0.2,0.2,0.3,0.5,0.3,1
			c0.1,0.6,0.3,1.1,0.6,1.7c0.3,0.6,0.3,1.2,0.2,1.8c-0.1,0.3-0.3,0.4-0.6,0.3c-0.5-0.5-1.1-1-1.6-1.3c-0.6-0.3-0.7-1-0.3-2.1
			C181.8,16.9,182,16.4,182.4,16.1L182.4,16.1z"/>
		<path fill="#FFFFFF" d="M195.9,29.4c0.2,0,0.3,0,0.4,0c0,0.1,0,0.1,0,0.2c0,0-0.1,0.1-0.2,0.2c-0.7,0.7-1.2,1.4-1.6,2
			c-0.1,0.2-0.2,0.2-0.4,0.1c-0.3-0.2-0.7-0.6-1-1.1c-0.2-0.4-0.2-0.6-0.2-0.7C193.1,30,194.1,29.7,195.9,29.4L195.9,29.4z
			 M202.1,33.4c1.4,0.4,2.3,0.7,2.9,1c0.3,0.2,0.8,0.7,1.2,1.6c0.3,0.6,0.4,1,0.2,1.2c-0.1,0.1-0.3,0.1-0.6,0.1
			c-0.7-0.2-1.8-0.3-3.3-0.4c0.1,0.2,0.1,0.4,0.1,0.5c0.4,0.2,0.8,0.3,1.3,0.5c1.2,0.6,2.2,1.1,3.2,1.4c0.6,0.1,1,0.3,1.3,0.5
			c0.2,0.1,0.2,0.9-0.2,2.3c-0.1,0.2-0.3,0.2-0.6,0l-1.1-0.8c-0.7-0.4-2.1-1.1-4.3-2.2c-0.2,0.4-0.5,1-0.8,1.5
			c-0.6,1.1-1.4,1.9-2.2,2.4c-0.3,0.2-0.5,0.5-0.7,0.8c-0.2,0.1-0.4,0.2-0.6,0c-0.1-0.1-0.2-0.2-0.3-0.4c-0.1-0.3-0.3-0.6-0.6-0.9
			c-0.5-0.5-0.9-1.2-1.1-2.2c-0.2-0.7-0.3-1.2-0.2-1.4c0.1-0.1,0.2-0.1,0.3-0.1c0.2,0.1,0.4,0.4,0.5,0.9c0.4,0.5,0.8,0.8,1.1,0.9
			c0.4,0.2,0.8,0.4,1,0.4c0.4-0.1,0.8-0.5,1.3-1.3c0.3-0.4,0.5-0.9,0.7-1.4c-2.1-0.9-4-1.6-5.7-2c-0.1-0.1-0.3-0.4-0.3-0.8
			c0-0.7,0-1,0.1-1.1c0.1-0.2,0.3-0.2,0.7-0.1c1,0.6,2.5,1.2,4.3,1.8c0.5,0.2,1,0.5,1.6,0.7c0-0.3-0.1-0.7-0.4-1.1
			c-0.1-0.2-0.2-0.3-0.2-0.3c0.1-0.2,0.3-0.1,0.7,0.1c0.4,0.3,0.8,0.5,1.1,0.9c1.3-0.5,2.1-0.8,2.2-0.9c0.1-0.2,0-0.5-0.4-0.7
			c-0.3-0.1-1-0.2-1.9-0.3c-1,0-1.9,0-2.5,0.1c-0.2,0.1-0.4,0.1-0.5,0c-0.2-0.1-0.2-0.5-0.1-1.1c0-0.5,0-0.8,0-0.9
			c0-0.1,0.2-0.1,0.4,0C199.8,32.9,200.7,33.1,202.1,33.4L202.1,33.4z M205.2,23.7c0.1,0,0.2,0,0.2,0c0.1,0.1,0.2,0.3,0.1,0.6
			c-0.1,0.3-0.1,0.5-0.2,0.7c0,0-0.1,0.1-0.3,0l-1.8-0.1c-0.2,0-0.4,0-0.5-0.1c-0.1,0.3-0.2,0.6-0.4,0.9c1.4,0.3,2.1,0.4,2.1,0.4
			c0.2,0.1,0.1,0.4-0.1,0.8c-0.1,0.2-0.3,0.2-0.7,0.1c-0.2-0.1-0.5-0.1-0.8-0.1c-0.2,0-0.5-0.1-0.7-0.1c-0.1,0-0.3-0.1-0.4-0.1
			c-0.1,0.4-0.3,0.7-0.5,1c1.3,0.3,2,0.5,2,0.5c0.2,0.1,0.1,0.4-0.1,0.8c-0.1,0.2-0.3,0.2-0.7,0.1c-0.2-0.1-0.4-0.1-0.7-0.1
			c-0.3,0-0.5-0.1-0.7-0.2c-0.1,0-0.3-0.1-0.4-0.1c-0.2,0.4-0.4,0.9-0.7,1.3c2.1,0.7,3.9,1.4,5.4,2.1c0-0.1-0.1-0.2-0.1-0.2
			c-0.1-0.5-0.3-1.1-0.5-1.6c-0.5,0.1-1.1,0.1-1.8,0.1c-0.5,0-0.8,0-0.9-0.1c-0.2-0.1-0.3-0.3-0.3-0.4c0.5-0.1,1.1-0.2,1.6-0.3
			c0.4-0.1,0.7-0.2,1-0.3c-0.1-0.4-0.3-0.7-0.5-1.1c-0.1-0.3-0.1-0.4,0-0.5c0-0.1,0.1-0.1,0.2,0c0.4,0.4,0.7,0.8,1.1,1.3
			c0.3-0.1,0.6-0.3,0.9-0.5c0.3-0.2,0.5-0.3,0.6-0.3c0.1,0.1,0.2,0.3,0.3,0.7c0.1,0.4,0.1,0.7,0,0.8c0,0.1-0.1,0.1-0.2,0.1
			c-0.2,0-0.5,0.1-0.9,0.2c0.2,0.2,0.3,0.5,0.5,0.7c0.2,0.3,0.2,0.5,0.1,0.7c-0.3,0.4-0.6,0.7-0.8,0.8c0.8,0.4,1.5,0.7,2.1,1.1
			c0.4-0.4,0.7-0.8,1-1.2c-0.1,0-0.1,0-0.2-0.1c-0.2-0.1-0.5-0.2-0.6-0.3c-0.3-0.1-0.5-0.2-0.9-0.3c-0.1-0.1-0.1-0.3,0.1-0.7
			c0.1-0.2,0.3-0.2,0.5-0.2c0.8,0.4,1.4,0.6,1.8,0.8c0.3-0.4,0.6-0.7,0.9-1c-0.1,0-0.2-0.1-0.3-0.1c-0.2-0.1-0.5-0.2-0.7-0.3
			c-0.3-0.1-0.6-0.2-0.9-0.3c-0.2-0.1-0.1-0.3,0.1-0.7c0.1-0.2,0.3-0.2,0.6-0.1c0.9,0.4,1.5,0.6,1.9,0.8c0.3-0.4,0.5-0.6,0.6-0.7
			c0.1-0.2,0.1-0.4-0.1-0.5c-0.4-0.2-1-0.4-1.9-0.7c-0.2-0.1-0.1-0.4,0.1-0.8c0.1-0.1,0.2-0.1,0.4-0.1c0.5,0.3,0.9,0.4,1.2,0.5
			c0.7,0.3,1.1,0.5,1.2,0.6c0.2,0.1,0.5,0.5,0.9,1c0.3,0.5,0.4,0.8,0.3,1c-0.2,0.3-0.6,0.6-1.2,0.9c-0.8,0.6-2,1.8-3.7,3.4
			c1.4,1,2.2,2.1,2.4,3.1c-0.1,1.2-0.2,1.9-0.4,2.3c-0.2,0.3-0.5,0.3-0.8,0.1c-0.1-0.1-0.3-0.2-0.5-0.4c-0.2-0.3-0.5-0.6-0.9-0.8
			c-0.4-0.2-0.9-0.8-1.5-1.6c0.1-0.1,0.2-0.1,0.5-0.1c0.8,0.1,1.4,0,1.7-0.5c0.2-0.3-0.5-0.9-2-1.8c-1.4-0.8-3.1-1.6-5-2.4
			c-2.6-1-4.2-1.6-5-1.7c-0.4,0.1-0.6,0.1-0.7,0.1c-0.1-0.1-0.2-0.3-0.1-0.6c0-0.2,0.1-0.4,0.1-0.5c0.1-0.2,0.6-0.2,1.2,0
			c0.2,0.1,0.4,0.2,0.7,0.2l2.8-6.9c0-0.1,0.1-0.1,0.2,0c0.4,0.3,0.7,0.6,0.9,0.8c0.3,0,0.6,0.1,1,0.1
			C204.3,23.8,204.8,23.8,205.2,23.7L205.2,23.7z M208.9,25.2c0.3-0.2,0.5-0.2,0.6-0.2c0.1,0.1,0.2,0.3,0.3,0.6
			c0.1,0.4,0.1,0.7,0,0.8c0,0.1-0.1,0.1-0.2,0.1c-0.2,0-0.6,0.2-1.2,0.5c-0.1,0-0.1,0.1-0.2,0.1c0.1,0.2,0.2,0.4,0.3,0.6
			c0.2,0.3,0.2,0.5,0.1,0.7c-0.5,0.7-0.8,1-1,0.9c-0.1-0.1-0.2-0.3-0.3-0.5c-0.1-0.4-0.3-0.9-0.4-1.3c-0.5,0.1-1.1,0.2-1.7,0.3
			c-0.6,0-0.9,0-1,0c-0.2-0.1-0.3-0.3-0.2-0.4c0.6-0.2,1.1-0.4,1.7-0.5c0.3-0.1,0.6-0.2,0.9-0.3c-0.2-0.5-0.3-0.9-0.6-1.3
			c-0.1-0.3,0-0.5,0-0.6c0,0,0.1,0,0.2,0c0.4,0.4,0.8,0.9,1.2,1.5C208,25.9,208.4,25.6,208.9,25.2L208.9,25.2z"/>
		<path fill="#FFFFFF" d="M220.9,39.2c0.6,0.4,2.6,1.7,6,3.9c0.2,0.2-0.1,0.6-0.7,1.4c-0.1,0.2-0.5,0.1-1-0.1
			c-0.7-0.3-1.2-0.6-1.7-0.9c0,0.1-0.1,0.2-0.1,0.3c-0.1,0.1-0.2,0.1-0.3,0.1c-0.4,0-1.1,0.2-2.2,0.5c-0.5,0.2-1.1,0.3-1.6,0.3
			c1,0.6,1.8,1.1,2.3,1.5c0.5,0.3,0.8,0.5,0.8,0.5c0.2,0.2,0.3,0.4,0.3,0.8c0.1-0.1,0.3,0,0.6,0.1c0.6,0.5,1.4,1.1,2.3,1.8
			c0.4-0.4,0.9-0.8,1.3-1.3c0.4-0.4,0.7-0.8,1.1-1.3c0-0.1,0.1-0.2,0.1-0.2c-0.3-0.2-0.6-0.4-0.8-0.5c-0.2-0.2-0.2-0.5,0-1
			c0.1-0.4,0.3-0.7,0.6-0.9c0.1-0.1,0.3-0.1,0.5,0.1c0.8,0.6,3.5,2.6,8.1,5.9c0.2,0.2,0,0.6-0.6,1.3c-0.1,0.1-0.4,0.1-0.9-0.1
			c-0.4-0.3-0.9-0.5-1.3-0.8c-0.1,0-0.1,0.1-0.2,0.2c-0.3,0.3-0.8,0.9-1.5,1.6c-0.4,0.4-0.8,0.8-1.1,1.2c0.6,0.5,1.1,0.8,1.6,1.1
			c0.5,0.3,0.8,0.5,1,0.7c0.2,0.2,0,0.9-0.7,2.2c-0.2,0.1-0.4,0.1-0.6-0.1l-1-1c-0.3-0.3-0.9-0.8-1.7-1.5c-2.4,2.6-4.1,4.4-5.1,5.5
			c-0.2,0.3-0.5,0.5-0.6,0.8c-0.2,0.4-0.4,0.7-0.6,0.9c-0.2,0.1-0.4,0-0.8-0.3c-0.6-0.5-0.8-0.9-0.7-1.2c0.1-0.1,0.2-0.2,0.4-0.3
			c0.1-0.1,0.3-0.3,0.4-0.4l5.3-6.3c-0.3-0.2-0.5-0.4-0.8-0.7c-0.5-0.4-0.9-0.7-1.4-1.1c0,0,0,0-0.1,0.1c-0.8,0.6-1.8,1.1-3.2,1.7
			c-0.4,0.2-0.7,0.3-0.8,0.4c-0.1,0.1-0.2,0.2-0.1,0.3c0,0.1-0.1,0.2-0.1,0.3c-0.1,0.1-0.8,0-2-0.2c-1.4-0.2-2.2-0.5-2.7-0.9
			c-0.2-0.2-0.3-0.4-0.1-0.5c0.1-0.1,0.3-0.1,0.8-0.2c2.4-0.1,4.2-0.4,5.4-1c0.5-0.3,1-0.6,1.5-0.9c-0.6-0.4-1.2-0.8-1.7-1
			c-0.1-0.1-0.2-0.3-0.2-0.6c-0.1,0-0.2,0-0.3,0.1c-0.3,0.1-1.2,0.6-2.6,1.5c-0.4,0.3-0.6,0.4-0.7,0.3c-0.1-0.1-0.2-0.3-0.3-0.6
			c-1.5-0.9-2.4-1.3-2.6-1.3c-0.2,0-0.4-0.1-0.5-0.2c-0.2-0.2,0-1.1,0.6-2.5c0.3-0.5,0.5-1,0.7-1.3c-0.4,0-0.8,0-1.2-0.1
			c-0.9-0.1-1.5-0.2-1.6-0.4c-0.3-0.3-0.4-0.5-0.2-0.6c1-0.2,2-0.3,3-0.3c1.5-0.2,3.1-0.6,4.8-1.3c-0.5-0.3-1-0.6-1.6-0.9
			c-0.2-0.2-0.2-0.5-0.1-1.1c0.2-0.4,0.4-0.7,0.6-1C220.4,39,220.7,39,220.9,39.2L220.9,39.2z M218,45.9c-0.9,1-1.2,1.5-1.1,1.7
			c0.2,0.2,0.9,0.5,2,1.1c0.1,0,0.2,0,0.4-0.1c0.3-0.2,0.6-0.5,0.9-0.8c0.4-0.4,0.5-0.7,0.3-0.8c-0.3-0.2-0.7-0.5-1.2-0.8
			C218.5,45.9,218.1,45.8,218,45.9L218,45.9z M227.1,50.5c0.6,0.4,1.2,0.9,1.9,1.4l2.6-3c-0.3-0.2-0.5-0.4-0.7-0.5
			c-0.2-0.2-0.4-0.3-0.7-0.5c-0.1,0-0.2,0.1-0.3,0.1c-0.2,0.1-0.4,0.3-0.6,0.5C228.4,49.2,227.7,49.9,227.1,50.5L227.1,50.5z"/>
		<path fill="#FFFFFF" d="M243.3,61.7c2.9,2.3,4.9,4.4,6.1,6.1c1.3,1.8,1.6,3.3,1.1,4.6c-0.7,1.1-1.3,1.8-1.7,2.1
			c-0.2,0.1-0.4,0.1-0.6-0.2c-0.1-0.1-0.2-0.3-0.4-0.6c-0.2-0.4-0.4-0.8-0.7-1.2c-0.2-0.3-0.5-0.7-0.8-1.3c-0.1,0.2-0.1,0.3-0.2,0.4
			c-0.3,0.2-0.6,0.2-0.9,0.1c-0.6-0.3-1.2-0.9-1.8-1.8c-0.3-0.4-0.4-0.9-0.2-1.4c0.2-0.4,0.6-0.9,1.1-1.3c0.3-0.2,0.8-0.5,1.2-0.8
			c0.2-0.1,0.4-0.2,0.6-0.3c-0.2-0.2-0.4-0.4-0.7-0.6c-0.3-0.3-0.6-0.6-0.9-0.8c-0.1,0.1-0.3,0.2-0.6,0.3c-0.7,0.3-1.3,0.6-1.6,0.9
			c-0.1,0.1-0.2,0.2-0.3,0.4c-0.1,0.1-0.2,0.2-0.3,0.3c0.2,0.2,0.2,0.7,0.2,1.4c0,0.7-0.1,1.1-0.2,1.2c-0.1,0.1-0.2,0.1-0.4,0.2
			c-0.3-0.1-0.7-0.1-1.3,0c0.3,0.2,0.5,0.5,0.8,0.7c0.7,0.6,1.4,1.2,1.9,2c0.5,0.7,0.6,1.2,0.4,1.4c-0.1,0-0.2,0-0.4,0
			c-0.8-0.2-1.5-0.2-2.3,0c-1.4,0.5-2.5,0.9-3,1.3c-0.5,0.4-0.7,0.9-0.8,1.5c-0.1,0.5,0.1,1.1,0.6,1.8c0.7,1,1.3,1.5,1.8,1.7
			c0.5,0.1,1.8-0.7,4.2-2.3c0.4-0.3,0.6-0.4,0.7-0.3c-1,1.8-1.9,3.1-2.8,3.8c-0.6,0.6-1.1,1.1-1.4,1.4c-0.2,0.3-0.3,0.4-0.4,0.6
			c-0.2,0.1-0.5,0-0.8-0.3c-0.8-0.8-1.8-2-2.9-3.5c-0.7-1-1.1-1.9-1.1-2.7c0.1-1.1,0.7-2.1,1.8-3c0.3-0.2,0.9-0.5,1.8-0.9
			c0.6-0.3,1.1-0.5,1.3-0.6c0.2-0.2,0.2-0.4,0.1-0.5c-0.6-0.5-1.1-1-1.6-1.4c-1.1,0.2-2.5,0.4-4.3,0.6c-0.4,0.2-0.7,0.4-0.9,0.7
			c-0.8,0.2-1.9-0.2-3.2-1c-0.6-0.5-1.1-1.1-1.5-1.6c-0.2-0.3-0.3-0.5-0.2-0.6c0.1-0.1,0.5-0.1,1,0.1c2.6,0.9,4.6,1.2,6.1,0.9
			c0.6-0.1,1.1-0.2,1.6-0.4c-0.9-0.8-1.6-1.4-2.1-1.8c-0.5-0.3-0.7-0.5-0.8-0.5c-0.1-0.2,0-0.5,0.3-0.9c0.2-0.3,0.4-0.5,0.5-0.6
			c0.1-0.1,0.3,0,0.6,0.2c1.2,1.2,2.3,2.2,3.4,3.2c0.1,0,0.3-0.1,0.4-0.1c0.5-0.1,1-0.3,1.4-0.7l0.6-0.8c-0.2-0.1-0.5-0.2-0.8-0.4
			c-1.2-0.6-1.9-1.1-2.2-1.5c-0.1-0.2-0.1-0.3,0-0.4c0.1-0.1,0.4,0,1.1,0.1c1,0.2,1.8,0.2,2.4,0.1c0.3-0.1,0.9-0.3,1.8-0.8
			c-0.4-0.3-0.7-0.5-0.9-0.6c-0.4,0-0.6-0.1-0.6-0.1c-0.1-0.2-0.1-0.4,0.1-0.8c0.1-0.3,0.3-0.4,0.4-0.5
			C242.6,61.3,242.9,61.4,243.3,61.7L243.3,61.7z M241.4,60.9c0.2,0.1,0.4,0.2,0.4,0.2c0,0.1-0.1,0.2-0.2,0.2c0,0-0.1,0.1-0.3,0.1
			c-1.2,0.2-2.1,0.5-2.7,1c-0.1,0.1-0.3,0-0.5-0.2c-0.2-0.3-0.4-0.8-0.5-1.5c0-0.5,0-0.8,0.1-0.9C238,59.9,239.1,60.2,241.4,60.9
			L241.4,60.9z M248.4,68.5c-0.3-0.4-0.6-0.8-0.9-1.2c-0.2,0.1-0.4,0.2-0.7,0.2c-0.8,0.4-1.3,0.7-1.5,0.9c-0.3,0.2-0.4,0.5-0.2,0.8
			c0.1,0.2,0.4,0.4,0.8,0.5c0.3,0,0.5,0.1,0.6,0.2c0.1,0.1,0.1,0.2,0.1,0.4c0.1,0,0.2,0.1,0.4,0.2c1.1,0.7,2,0.8,2.6,0.4
			C249.8,70.8,249.4,70,248.4,68.5L248.4,68.5z M249.7,61.8c0.7-0.1,1.1-0.1,1.3,0.2c0.1,0.2,0,0.4-0.3,0.7c-0.6,0.5-0.9,1.1-1,1.7
			c-0.1,0.5-0.3,0.9-0.7,1.2c-0.3,0.2-0.5,0.1-0.8-0.4c-0.3-0.4-0.5-1.1-0.6-1.9c0-0.5,0.1-0.8,0.4-1
			C248.2,62,248.8,61.9,249.7,61.8L249.7,61.8z"/>
		<path fill="#FFFFFF" d="M261.1,85.7c0.5,0.3,0.7,0.5,0.8,0.6c0.1,0.2,0,0.6-0.3,1.2c-0.2,0.6-0.4,1-0.6,1.1
			c-0.2,0-0.4-0.1-0.5-0.3c-0.1-0.3-0.6-0.7-1.3-1.2c-1.3-1-2.1-1.7-2.5-2.2c-0.1,0-0.2,0-0.4,0c-0.2,0-0.4,0.1-0.7,0.2
			c-0.2,0.1-0.3,0.1-0.5,0.2c0.3,0.4,0.7,1.1,1.3,1.9c0.6,0.8,0.9,1.3,0.9,1.4c0.1,0.2,0.1,0.7,0.2,1.3c0,0.6-0.1,0.9-0.4,1
			c-0.1,0-0.3,0-0.6,0c-0.7,0-2,0-3.7,0c-0.3,0-0.6-0.4-0.9-1.1c-0.2-0.3-0.4-0.7-0.7-1.1c-0.2-0.3-0.5-0.6-0.6-0.9
			c-0.2-0.3-0.4-0.7-0.7-1.1c-0.6,0.1-1.3,0.2-2.1,0.2c-0.4,0-0.7,0-0.8,0.1c-0.2,0.1-0.2,0.1-0.2,0.2c0,0.1-0.1,0.1-0.2,0.2
			c-0.1,0-0.7-0.2-1.6-0.7c-1-0.5-1.6-1-1.8-1.4c-0.1-0.3-0.1-0.5,0.1-0.6c0.1,0,0.3,0,0.7,0.1c2,0.5,3.6,0.7,4.9,0.5
			c1.5-0.2,3.2-0.7,5.1-1.5c0.5-0.2,1-0.4,1.5-0.7c0.3-0.3,0.5-0.5,0.8-0.6c0.3-0.1,0.6,0,0.8,0.3c0.1,0.3,0.2,0.6,0.2,1.1
			C258.3,84.7,259.7,85.3,261.1,85.7L261.1,85.7z M264.5,94.9c0.3,0.3,0.5,0.5,0.6,0.7c0,0.1-0.3,0.4-1,0.8
			c-0.2,0.1-0.7-0.1-1.4-0.5c-1.2-0.9-1.9-1.7-2.3-2.5c-0.3-0.5-0.5-0.9-0.9-1c0,0,0,0-0.1,0c-0.2,0-0.3,0.1-0.5,0.1
			c-0.9,0.3-1.7,0.5-2.4,0.7c0.3,0.5,0.7,1.1,1.1,1.7c0.5,0.7,1,1.5,1.5,2.3c0.3,0.7,0.7,1.2,1.1,1.6c0.2,0.3,0.4,0.5,0.5,0.7
			c0.1,0.3-0.4,0.9-1.6,1.9c-0.2,0-0.4-0.1-0.5-0.4l-0.5-1.3c-0.1-0.3-0.3-0.7-0.6-1.3c-0.3,0-0.8,0.1-1.5,0.3
			c-3.5,1.3-5.9,2.2-7.1,2.7c-0.3,0.1-0.6,0.3-0.8,0.4c-0.3,0.2-0.6,0.3-0.9,0.4c-0.2,0.1-0.4-0.1-0.6-0.5c-0.3-0.7-0.3-1.1-0.1-1.3
			c0.1-0.1,0.3-0.1,0.4-0.1c0.1,0,0.3-0.1,0.6-0.2l8.6-4c0,0,0,0,0,0c-0.5-0.8-1-1.5-1.6-2c0-0.1,0-0.2,0-0.3
			c-0.5,0.1-0.8,0.2-1.2,0.3c-0.8,0.2-1.3,0.4-1.6,0.5c-0.1,0.1-0.3,0.1-0.4,0.3c-0.1,0.1-0.2,0.2-0.4,0.2c-0.3,0.2-0.8,0.1-1.5-0.2
			c-1.1-0.4-2.2-1.1-3.3-2.1c-0.1-0.2,0-0.3,0.2-0.4c0.2-0.1,0.5,0,0.9,0.1c2,0.6,3.9,0.6,5.6,0.1c1.7-0.5,4.1-1.4,7.1-2.6
			c0.4-0.2,0.7-0.1,0.8,0.2c0.1,0.2,0.2,0.5,0.2,0.8C262.4,92.6,263.5,93.9,264.5,94.9L264.5,94.9z M253.5,85.8
			c-0.7,0.3-1.4,0.4-2,0.6c0.8,1.3,1.4,2.2,1.7,2.6c1,0,1.6-0.1,1.9-0.3c0.4-0.2,0.6-0.4,0.4-0.7c-0.5-0.6-1-1.2-1.5-1.8
			C253.9,86,253.7,85.9,253.5,85.8L253.5,85.8z"/>
	</g>
	<g>
		<path fill="#FFFFFF" d="M13.5,165.9l-0.1-0.7l-0.1-0.4c0-0.2-0.1-0.7-0.2-1.3c-0.1-0.7-0.2-1.1-0.3-1.3l-0.1-0.3l-0.1-0.7l1-0.2
			c0.1,0.6,0.3,0.9,0.5,1c0.2,0.1,0.6,0.1,1.2,0l6.1-1.1c0.6-0.1,1-0.3,1.1-0.4c0.1-0.2,0.1-0.5,0.1-1.1l1-0.2l0.1,0.7l0.1,0.3
			c0,0.2,0.1,0.7,0.2,1.3c0.1,0.7,0.2,1.1,0.3,1.3l0.1,0.3l0.1,0.7l-1,0.2c-0.1-0.6-0.3-0.9-0.5-1c-0.2-0.1-0.6-0.1-1.2,0l-6.1,1.1
			c-0.6,0.1-1,0.3-1.1,0.4c-0.1,0.2-0.1,0.5-0.1,1.1L13.5,165.9z"/>
		<path fill="#FFFFFF" d="M15.7,175.3c-0.1-0.3-0.1-0.6-0.2-0.9c0-0.2-0.1-0.6-0.2-1.1c-0.1-0.5-0.2-0.8-0.3-1.1
			c-0.1-0.2-0.1-0.5-0.2-0.8l0.9-0.2c0.2,0.5,0.3,0.7,0.5,0.8c0.2,0,0.6,0,1.3-0.2l2-0.5c0.7-0.2,1.1-0.4,1.4-0.7
			c0.2-0.3,0.3-0.6,0.2-1.1c-0.2-1-1.1-1.3-2.4-1l-1.8,0.4c-0.7,0.2-1.2,0.3-1.3,0.5c-0.1,0.1-0.1,0.4-0.1,0.9l-0.9,0.2
			c-0.1-0.3-0.1-0.6-0.2-0.9c0-0.2-0.1-0.6-0.3-1.1c-0.1-0.5-0.2-0.9-0.3-1.1c-0.1-0.2-0.1-0.5-0.2-0.9l0.9-0.2
			c0.2,0.5,0.3,0.8,0.5,0.8c0.2,0,0.6,0,1.3-0.2l3-0.7c0.5-0.1,0.8-0.2,0.9-0.3c0.1-0.1,0.1-0.3,0.1-0.7c0,0,0-0.1,0-0.3l0.9-0.2
			c0.1,0.7,0.2,1.1,0.3,1.4l0.3,1.3l-1.1,0.3c0.6,0.3,1.1,0.5,1.3,0.8c0.3,0.3,0.5,0.7,0.6,1.2c0.2,0.8,0.1,1.6-0.3,2.2
			c-0.4,0.5-1.2,0.9-2.4,1.2l-2,0.5c-0.7,0.2-1.2,0.3-1.3,0.4c-0.1,0.1-0.1,0.4-0.1,0.9L15.7,175.3z"/>
		<path fill="#FFFFFF" d="M20.1,181.2c-0.8,0.3-1.5,0.2-2.1-0.2c-0.6-0.4-1-1-1.3-2c-0.3-1-0.4-2-0.3-3c0.4-0.1,0.8-0.2,1.1-0.3
			c0.3-0.1,0.7-0.2,1.1-0.4l0.3,1c-0.4,0.1-0.6,0.2-0.8,0.3c-0.1,0.1-0.2,0.2-0.3,0.4c-0.2,0.4-0.2,0.9,0,1.5
			c0.1,0.4,0.3,0.6,0.5,0.8c0.2,0.2,0.5,0.2,0.8,0.1c0.2-0.1,0.4-0.2,0.4-0.4c0.1-0.2,0.1-0.5,0.2-0.9l0.1-1
			c0.1-1.5,0.6-2.4,1.6-2.7c1.6-0.5,2.7,0.3,3.3,2.3c0.2,0.8,0.4,1.7,0.4,2.6c-0.4,0.1-0.7,0.2-1,0.3c-0.3,0.1-0.6,0.2-1.2,0.4
			l-0.3-1c0.5-0.2,0.9-0.5,1-0.7c0.1-0.3,0.1-0.7,0-1.2c-0.2-0.8-0.6-1.1-1.2-0.9c-0.2,0.1-0.4,0.2-0.4,0.4
			c-0.1,0.2-0.1,0.6-0.2,1.2l0,1c0,0.7-0.2,1.3-0.4,1.6C21.1,180.7,20.7,181,20.1,181.2z"/>
		<path fill="#FFFFFF" d="M22.5,187.2c-1.7,0.6-2.8,0.2-3.3-1.2c-0.4-0.9-0.3-1.7,0.3-2.3c0.3-0.3,0.9-0.6,1.9-1l3.2-1.2l-0.5-1.3
			l1-0.4c0.4,0.8,0.7,1.2,1.1,1.4c0.3,0.2,0.9,0.2,1.6,0.1l0.3,0.9l-1.6,0.6l0.8,2.2l-1.2,0.5l-0.8-2.2l-3.5,1.3
			c-0.6,0.2-1,0.4-1.1,0.5c-0.2,0.2-0.3,0.4-0.2,0.7c0.2,0.4,0.7,0.5,1.5,0.3L22.5,187.2z"/>
		<path fill="#FFFFFF" d="M22.1,192.7l-0.2-0.6l-0.1-0.3c-0.1-0.2-0.2-0.5-0.4-1.1c-0.2-0.5-0.4-0.9-0.5-1.1l-0.1-0.3l-0.2-0.6
			l0.9-0.4c0.3,0.5,0.5,0.7,0.6,0.7c0.2,0,0.6-0.1,1.3-0.4l3.1-1.3c0.4-0.2,0.5-0.3,0.6-0.4c0-0.1,0-0.4-0.2-0.9l0.9-0.4
			c0.1,0.4,0.4,1,0.8,1.9l0.4,0.9l-4.8,2.1c-0.7,0.3-1.1,0.5-1.2,0.7c-0.1,0.1-0.1,0.5,0.1,1L22.1,192.7z M31.2,187.9
			c-0.4,0.2-0.7,0.2-1,0.1c-0.3-0.1-0.5-0.3-0.7-0.7c-0.1-0.3-0.2-0.7,0-1c0.1-0.3,0.4-0.5,0.7-0.7c0.4-0.2,0.7-0.2,1-0.1
			c0.3,0.1,0.5,0.3,0.7,0.7c0.1,0.3,0.2,0.7,0,1C31.8,187.5,31.5,187.7,31.2,187.9z"/>
		<path fill="#FFFFFF" d="M27.2,197.5c-1.6,0.7-2.8,0.4-3.4-0.9c-0.4-0.9-0.4-1.7,0.1-2.3c0.3-0.3,0.9-0.7,1.8-1.2l3.1-1.5l-0.6-1.2
			l1-0.5c0.4,0.7,0.8,1.2,1.2,1.3c0.4,0.2,0.9,0.1,1.6,0l0.4,0.9l-1.6,0.8l1,2.1l-1.2,0.6l-1-2.1l-3.3,1.6c-0.6,0.3-0.9,0.5-1.1,0.6
			c-0.2,0.2-0.3,0.4-0.1,0.7c0.2,0.4,0.7,0.5,1.5,0.1L27.2,197.5z"/>
		<path fill="#FFFFFF" d="M30.3,206.4l-0.8,0.4c0-0.1-0.1-0.3-0.3-0.6c-0.2-0.3-0.3-0.5-0.4-0.7c-0.1-0.2-0.2-0.4-0.4-0.7
			c-0.2-0.3-0.3-0.5-0.3-0.6l0.9-0.5c-0.6-0.1-1.1-0.2-1.4-0.4c-0.3-0.2-0.6-0.5-0.8-0.9c-0.4-0.8-0.5-1.5-0.3-2.1
			c0.2-0.6,0.8-1.1,1.9-1.7l2.5-1.4c0.3-0.2,0.5-0.3,0.5-0.5c0-0.1,0-0.4-0.2-0.8l0.9-0.5c0.1,0.3,0.4,0.9,0.9,1.7l0.5,0.9l-3.9,2.2
			c-0.4,0.2-0.7,0.4-0.9,0.6c-0.1,0.1-0.3,0.3-0.3,0.5c-0.1,0.3-0.1,0.7,0.1,1c0.5,0.9,1.4,1,2.7,0.2l2.1-1.1
			c0.3-0.2,0.5-0.4,0.5-0.5c0-0.1-0.1-0.4-0.3-0.9l0.9-0.5c0.3,0.6,0.6,1.1,0.7,1.4l0.7,1.3l-4.6,2.5c-0.6,0.4-1,0.6-1.1,0.8
			C30,205.6,30.1,205.9,30.3,206.4z"/>
		<path fill="#FFFFFF" d="M35.1,211c-1.5,0.9-2.7,0.8-3.5-0.5c-0.5-0.8-0.6-1.6-0.2-2.3c0.2-0.4,0.8-0.8,1.7-1.4L36,205l-0.7-1.1
			l0.9-0.6c0.5,0.7,1,1.1,1.3,1.2c0.4,0.1,0.9,0,1.6-0.2l0.5,0.8l-1.5,0.9l1.3,2l-1.1,0.7l-1.3-2l-3.1,2c-0.6,0.4-0.9,0.6-1,0.7
			c-0.2,0.2-0.2,0.4-0.1,0.7c0.3,0.4,0.8,0.4,1.5,0L35.1,211z"/>
		<path fill="#FFFFFF" d="M41.2,216.7c-0.2,0.2-0.5,0.3-0.6,0.4l-3.1-4.2c-1.1,0.9-1.4,1.8-0.6,2.8c0.5,0.6,1.1,0.9,2,0.6l0.9,1.3
			c-1.7,0.6-3,0.2-4.1-1.2c-0.7-1-1-2-0.8-3c0.2-1,0.8-1.9,1.8-2.6c1-0.8,2.1-1.1,3.1-1c1,0.1,1.8,0.6,2.5,1.6
			c0.7,0.9,0.9,1.9,0.8,2.8C42.8,215.2,42.2,216,41.2,216.7z M40.4,214.7c1.1-0.8,1.4-1.6,0.8-2.4c-0.5-0.7-1.4-0.8-2.6-0.1
			L40.4,214.7z"/>
		<path fill="#FFFFFF" d="M49.2,226.4c-0.9,0.8-1.9,1.2-2.9,1.2c-1,0-1.9-0.4-2.6-1.2c-0.7-0.8-1.1-1.8-0.9-2.8
			c0.1-1,0.6-1.9,1.6-2.7c0.9-0.8,1.9-1.2,2.9-1.2c1,0,1.9,0.4,2.6,1.3c0.7,0.8,1.1,1.7,0.9,2.7C50.7,224.7,50.2,225.6,49.2,226.4z
			 M47.8,224.8c1.4-1.2,1.7-2.2,1.1-3c-0.7-0.8-1.7-0.5-3.1,0.7c-1.4,1.2-1.7,2.2-1.1,3C45.3,226.3,46.4,226.1,47.8,224.8z"/>
		<path fill="#FFFFFF" d="M57.4,227.8l-0.7-0.7c0.4-0.4,0.6-0.7,0.7-0.9c0-0.2-0.1-0.4-0.3-0.7c-0.5-0.5-1-0.4-1.7,0.2l-0.6,0.6
			l1.4,1.4l-0.9,0.9l-1.4-1.4l-2.8,2.8c-0.5,0.5-0.8,0.9-0.8,1.1c0,0.2,0.2,0.5,0.6,1l-0.7,0.7l-0.5-0.5c-0.1-0.1-0.2-0.2-0.2-0.3
			c-0.2-0.2-0.5-0.5-0.9-0.9c-0.4-0.4-0.7-0.7-0.8-0.8l-0.2-0.2l-0.4-0.4l0.7-0.7c0.4,0.3,0.7,0.5,0.8,0.4c0.2,0,0.5-0.3,1-0.9
			l2.8-2.8l-0.9-0.9l1-0.9l0.9,0.9l0.5-0.5c1.3-1.3,2.6-1.3,3.9,0c0.4,0.4,0.8,1,1.2,1.8l-0.8,0.7c0,0-0.1,0.1-0.2,0.2
			c-0.1,0.1-0.2,0.2-0.3,0.3L57.4,227.8z"/>
		<path fill="#FFFFFF" d="M57.9,239.9l-0.5-0.5l-0.3-0.3c-0.2-0.2-0.5-0.5-1-0.9c-0.5-0.4-0.9-0.7-1-0.9l-0.3-0.2l-0.5-0.5l0.7-0.8
			c0.5,0.4,0.8,0.5,1,0.5c0.2,0,0.5-0.3,0.9-0.8l4-4.7c0.4-0.5,0.6-0.8,0.6-1c0-0.2-0.2-0.5-0.7-0.9l0.7-0.8l0.5,0.5l0.2,0.2
			c0.2,0.2,0.5,0.5,1,0.9c0.5,0.4,0.8,0.7,1,0.9l0.3,0.2l0.5,0.5l-0.7,0.8c-0.5-0.4-0.8-0.5-1-0.5c-0.2,0-0.5,0.3-0.9,0.8l-4,4.7
			c-0.4,0.5-0.6,0.8-0.6,1c0,0.2,0.2,0.5,0.6,0.9L57.9,239.9z"/>
		<path fill="#FFFFFF" d="M65.6,245.9c-0.3-0.2-0.5-0.4-0.7-0.5c-0.2-0.2-0.5-0.4-0.9-0.7c-0.4-0.3-0.7-0.5-0.9-0.7
			c-0.2-0.1-0.4-0.3-0.7-0.5l0.6-0.7c0.4,0.2,0.7,0.3,0.9,0.3c0.1-0.1,0.5-0.4,0.9-1l1.2-1.6c0.4-0.5,0.6-1,0.7-1.4
			c0-0.4-0.1-0.7-0.5-1c-0.8-0.6-1.6-0.4-2.5,0.8l-1.1,1.4c-0.5,0.6-0.7,1-0.7,1.2c0,0.2,0.1,0.4,0.5,0.7l-0.6,0.7
			c-0.3-0.2-0.5-0.4-0.7-0.5c-0.2-0.2-0.5-0.4-0.9-0.7c-0.4-0.3-0.7-0.5-0.9-0.7c-0.2-0.1-0.5-0.3-0.7-0.5l0.6-0.7
			c0.5,0.3,0.8,0.4,0.9,0.3c0.2-0.1,0.5-0.4,0.9-1l1.9-2.4c0.3-0.4,0.5-0.7,0.5-0.8c0-0.1-0.1-0.3-0.3-0.6c0,0-0.1-0.1-0.2-0.2
			l0.6-0.7c0.5,0.5,0.9,0.8,1.1,0.9l1.1,0.8l-0.7,0.9c0.6-0.2,1.2-0.2,1.6-0.2c0.4,0.1,0.8,0.2,1.2,0.6c0.7,0.5,1.1,1.2,1.1,1.9
			c0,0.6-0.3,1.5-1.1,2.5l-1.2,1.6c-0.5,0.6-0.7,1-0.7,1.1c0,0.2,0.1,0.4,0.5,0.7L65.6,245.9z"/>
		<path fill="#FFFFFF" d="M76.1,242.4l-0.8-0.5c0.3-0.5,0.5-0.9,0.5-1c0-0.2-0.1-0.4-0.4-0.6c-0.6-0.4-1.1-0.2-1.6,0.5l-0.5,0.7
			l1.6,1.1l-0.8,1.1l-1.6-1.1l-2.2,3.2c-0.4,0.6-0.6,1-0.6,1.2c0,0.2,0.3,0.5,0.8,0.9l-0.5,0.8l-0.6-0.4c-0.1-0.1-0.2-0.1-0.3-0.2
			c-0.2-0.1-0.5-0.4-1.1-0.8c-0.5-0.3-0.8-0.5-0.9-0.6l-0.3-0.2l-0.5-0.3l0.5-0.8c0.4,0.2,0.7,0.3,0.9,0.3c0.2-0.1,0.4-0.4,0.9-1
			l2.2-3.2l-1-0.7l0.8-1.1l1,0.7l0.4-0.6c1.1-1.5,2.3-1.8,3.9-0.8c0.5,0.3,1,0.8,1.6,1.5l-0.6,0.8c0,0-0.1,0.1-0.1,0.2
			c-0.1,0.1-0.2,0.2-0.2,0.3L76.1,242.4z"/>
		<path fill="#FFFFFF" d="M79,249.8c-0.6,1.1-1.5,1.7-2.4,2c-1,0.3-1.9,0.2-2.9-0.4c-1-0.6-1.5-1.4-1.7-2.4c-0.2-1,0-2,0.7-3.1
			c0.6-1.1,1.4-1.7,2.4-2c1-0.3,1.9-0.2,2.9,0.4c1,0.6,1.5,1.4,1.7,2.4C79.9,247.7,79.7,248.8,79,249.8z M77.1,248.8
			c1-1.6,1-2.7,0.1-3.2c-0.9-0.5-1.8,0-2.8,1.6c-1,1.6-1,2.7-0.1,3.2C75.3,250.9,76.2,250.3,77.1,248.8z"/>
		<path fill="#FFFFFF" d="M85.5,251.9l-1-0.5c0.3-0.6,0.4-1,0.4-1.2c0-0.2-0.1-0.4-0.4-0.5c-0.8-0.4-1.7,0.2-2.5,1.8l-0.6,1.2
			c-0.4,0.7-0.5,1.1-0.5,1.3c0,0.2,0.3,0.4,0.8,0.8l-0.4,0.8l-0.6-0.3c-0.4-0.2-0.7-0.4-1-0.5c-0.3-0.1-0.4-0.2-0.4-0.2
			c-0.5-0.3-0.8-0.4-1-0.5l-0.3-0.1l-0.5-0.3l0.4-0.8c0.5,0.2,0.8,0.3,1,0.2c0.1-0.1,0.4-0.4,0.7-1.1l1.4-2.7
			c0.3-0.5,0.4-0.8,0.4-0.9c0-0.1-0.2-0.3-0.4-0.5c0,0-0.1-0.1-0.2-0.2l0.4-0.8c0.5,0.3,0.9,0.5,1.2,0.7l1.3,0.7l-0.4,0.8
			c0.8-0.4,1.6-0.4,2.4,0c0.3,0.2,0.7,0.4,1,0.8c-0.2,0.4-0.4,0.7-0.6,1.1C86,250.9,85.8,251.3,85.5,251.9z"/>
		<path fill="#FFFFFF" d="M96,262.2c-0.3-0.1-0.6-0.2-0.8-0.3c-0.2-0.1-0.5-0.3-1-0.4c-0.5-0.2-0.8-0.3-1-0.4
			c-0.2-0.1-0.5-0.2-0.8-0.3l0.4-0.9c0.5,0.1,0.8,0.2,0.9,0.1c0.1-0.1,0.4-0.5,0.7-1.2l0.9-2c0.3-0.6,0.4-1.1,0.3-1.4
			c-0.1-0.3-0.3-0.6-0.7-0.7c-1-0.4-1.7,0-2.3,1.3l-0.7,1.7c-0.3,0.7-0.4,1.1-0.4,1.3c0,0.2,0.2,0.4,0.7,0.6l-0.4,0.9
			c-0.3-0.1-0.6-0.3-0.8-0.4c-0.2-0.1-0.6-0.3-1-0.4c-0.4-0.2-0.8-0.3-1-0.4c-0.2-0.1-0.5-0.2-0.8-0.3l0.4-0.9
			c0.5,0.1,0.8,0.2,0.9,0.1c0.1-0.1,0.3-0.5,0.6-1.2l0.9-2c0.3-0.6,0.4-1.1,0.3-1.4c-0.1-0.3-0.3-0.6-0.7-0.7
			c-0.9-0.4-1.7,0-2.2,1.3l-0.8,1.7c-0.3,0.7-0.4,1.1-0.4,1.3c0,0.2,0.2,0.4,0.7,0.6l-0.4,0.9c-0.3-0.1-0.6-0.3-0.8-0.4
			c-0.2-0.1-0.5-0.3-1-0.5c-0.5-0.2-0.8-0.3-1.1-0.4c-0.2-0.1-0.5-0.2-0.8-0.3l0.4-0.9c0.5,0.2,0.8,0.2,1,0.1
			c0.1-0.1,0.4-0.5,0.7-1.2l1.2-2.8c0.2-0.5,0.3-0.8,0.3-0.9s-0.2-0.3-0.4-0.5c0,0-0.1-0.1-0.3-0.2l0.3-0.9c0.6,0.3,1,0.5,1.3,0.6
			l1.3,0.6l-0.4,1c0.9-0.6,1.8-0.6,2.7-0.3c0.9,0.4,1.4,1.1,1.5,2.1c0.7-0.3,1.2-0.5,1.5-0.5c0.4,0,0.8,0.1,1.3,0.3
			c0.9,0.4,1.4,0.9,1.6,1.7c0.1,0.5,0,1.2-0.4,2.2l-0.9,2.2c-0.3,0.7-0.5,1.2-0.5,1.3c0,0.1,0.2,0.3,0.6,0.6L96,262.2z"/>
		<path fill="#FFFFFF" d="M104.4,264.9c-0.6-0.2-1.1-0.4-1.3-0.5c-0.4-0.1-0.7-0.2-0.8-0.3l-0.2,0l-0.2-0.1l-0.2,0l0.4-1.1
			c-0.6,0.4-1.1,0.6-1.4,0.7c-0.4,0.1-0.8,0-1.3-0.1c-0.7-0.2-1.2-0.7-1.6-1.2c-0.3-0.6-0.3-1.2-0.1-2c0.3-0.9,0.8-1.4,1.6-1.6
			c0.8-0.2,1.9,0,3.4,0.5l0.4,0.1c0.2-0.7,0.2-1.2,0.1-1.5c-0.1-0.3-0.5-0.6-1.1-0.8c-0.5-0.2-0.9-0.2-1.1-0.1
			c-0.2,0.1-0.5,0.4-0.7,1l-1-0.3c0.2-0.4,0.3-0.8,0.3-1c0.1-0.3,0.2-0.7,0.3-1c1.1,0,2.1,0.2,3,0.4c1.1,0.4,1.8,0.9,2.1,1.4
			c0.3,0.6,0.2,1.5-0.1,2.6l-0.7,2c-0.2,0.7-0.3,1.1-0.3,1.3c0,0.2,0.3,0.4,0.8,0.6L104.4,264.9z M102.4,261l0.2-0.7
			c0,0-0.1,0-0.2-0.1c-0.2-0.1-0.4-0.1-0.5-0.2c-1.3-0.4-2.1-0.2-2.4,0.8c-0.2,0.7,0,1.3,0.8,1.5c0.4,0.1,0.8,0.1,1.2-0.2
			C102,261.9,102.3,261.5,102.4,261z"/>
		<path fill="#FFFFFF" d="M111.2,264.1c-0.5,1.7-1.5,2.4-2.9,2c-1-0.3-1.5-0.8-1.7-1.6c-0.1-0.4,0-1.1,0.3-2.2l0.9-3.3l-1.3-0.3
			l0.3-1.1c0.8,0.1,1.4,0.1,1.8,0c0.4-0.2,0.7-0.6,1-1.3l0.9,0.3l-0.4,1.7l2.2,0.6l-0.3,1.2l-2.3-0.6l-1,3.6c-0.2,0.6-0.2,1-0.2,1.2
			c0,0.3,0.1,0.5,0.4,0.5c0.4,0.1,0.8-0.2,1.1-1.1L111.2,264.1z"/>
		<path fill="#FFFFFF" d="M115.5,267.6l-0.6-0.1l-0.3-0.1c-0.2-0.1-0.6-0.1-1.1-0.3c-0.6-0.1-0.9-0.2-1.1-0.2l-0.3,0l-0.6-0.1
			l0.2-0.9c0.5,0.1,0.8,0,1-0.1c0.1-0.1,0.3-0.5,0.4-1.3l0.7-3.3c0.1-0.4,0.1-0.6,0-0.7c-0.1-0.1-0.4-0.3-0.8-0.4l0.2-1
			c0.4,0.1,1,0.3,2,0.5l1,0.2l-1.1,5.1c-0.2,0.7-0.2,1.2-0.2,1.4c0.1,0.2,0.3,0.3,0.8,0.5L115.5,267.6z M116.9,257.4
			c-0.1,0.4-0.3,0.7-0.5,0.8c-0.3,0.2-0.6,0.2-1,0.1c-0.4-0.1-0.6-0.3-0.8-0.5c-0.2-0.3-0.2-0.6-0.1-1c0.1-0.4,0.3-0.7,0.5-0.8
			c0.3-0.2,0.6-0.2,1-0.1c0.4,0.1,0.6,0.3,0.8,0.5C116.9,256.7,117,257.1,116.9,257.4z"/>
		<path fill="#FFFFFF" d="M124.2,265.1c-0.2,1.2-0.7,2.2-1.5,2.8c-0.8,0.6-1.7,0.9-2.8,0.7c-1.1-0.2-1.9-0.7-2.5-1.6
			c-0.5-0.8-0.7-1.9-0.5-3.1c0.2-1.2,0.7-2.1,1.5-2.8c0.8-0.6,1.7-0.9,2.8-0.7c1.1,0.2,1.9,0.7,2.5,1.6
			C124.2,262.9,124.4,263.9,124.2,265.1z M122,264.8c0.3-1.8,0-2.8-1.1-3c-1-0.2-1.7,0.7-2,2.5c-0.3,1.8,0,2.8,1,3
			C121.1,267.5,121.7,266.7,122,264.8z"/>
		<path fill="#FFFFFF" d="M133.2,270c-0.3,0-0.6-0.1-0.9-0.1c-0.2,0-0.6-0.1-1.1-0.1c-0.5-0.1-0.9-0.1-1.1-0.1c-0.2,0-0.5,0-0.9-0.1
			l0.1-0.9c0.5,0,0.8-0.1,0.9-0.2c0.1-0.1,0.2-0.6,0.3-1.3l0.2-2c0.1-0.7,0-1.2-0.1-1.5c-0.2-0.3-0.5-0.5-0.9-0.5
			c-1-0.1-1.6,0.6-1.7,2l-0.2,1.8c-0.1,0.8-0.1,1.2,0,1.4c0.1,0.1,0.3,0.3,0.8,0.4l-0.1,0.9c-0.3,0-0.6-0.1-0.9-0.1
			c-0.2,0-0.6-0.1-1.1-0.1c-0.5,0-0.9-0.1-1.1-0.1c-0.2,0-0.6,0-0.9-0.1l0.1-0.9c0.5,0,0.8-0.1,0.9-0.2c0.1-0.1,0.2-0.6,0.3-1.3
			l0.3-3c0.1-0.5,0-0.8,0-1c-0.1-0.1-0.3-0.2-0.6-0.3c0,0-0.1,0-0.3-0.1l0.1-0.9c0.7,0.1,1.2,0.2,1.4,0.2l1.4,0.1l-0.1,1.1
			c0.5-0.5,0.9-0.8,1.2-1c0.4-0.2,0.8-0.2,1.3-0.2c0.9,0.1,1.5,0.4,1.9,1c0.4,0.5,0.5,1.4,0.4,2.7l-0.2,2c-0.1,0.8-0.1,1.2,0,1.4
			c0.1,0.2,0.3,0.3,0.8,0.4L133.2,270z"/>
		<path fill="#FFFFFF" d="M146.7,267c0,1.1-0.4,2-1.2,2.7c-0.7,0.6-1.7,0.9-3.1,0.9c-1.2,0-2.4-0.1-3.5-0.4c0-0.4,0-0.9,0-1.5
			c0-0.6,0-1.2,0-1.7l1.3,0c0,0.7,0.1,1.1,0.2,1.4c0.3,0.6,1,0.8,2,0.8c0.6,0,1.1-0.1,1.4-0.4c0.4-0.3,0.5-0.7,0.5-1.1
			c0-0.6-0.4-1.1-1.3-1.4l-1.4-0.5c-1.1-0.4-1.8-0.9-2.3-1.4c-0.5-0.5-0.7-1.2-0.7-2.1c0-1.1,0.4-1.9,1.1-2.5
			c0.7-0.6,1.7-0.9,3.1-0.9c0.9,0,2,0.1,3.3,0.4c0,0.4,0,0.9,0,1.4c0,0.5,0,1,0,1.7l-1.3,0c0-0.6-0.1-1-0.1-1.2
			c0-0.2-0.1-0.3-0.2-0.5c-0.3-0.4-0.9-0.6-1.7-0.6c-1.3,0-1.9,0.5-1.9,1.6c0,0.4,0.1,0.7,0.4,0.9c0.2,0.2,0.6,0.5,1.2,0.7l1.3,0.5
			c1.1,0.4,1.8,0.8,2.2,1.3C146.5,265.5,146.7,266.2,146.7,267z"/>
		<path fill="#FFFFFF" d="M154,267.1c-0.1,1.9-1,2.9-2.6,3c-1.1,0.1-2-0.2-2.7-1c-0.7-0.7-1.1-1.7-1.2-2.9c-0.1-1.3,0.2-2.3,0.8-3.1
			c0.6-0.8,1.6-1.2,2.7-1.3c0.7-0.1,1.5,0,2.4,0.2c0,0.5,0,0.9,0.1,1.2c0,0.3,0.1,0.8,0.1,1.4l-1.2,0.1c-0.1-0.7-0.2-1.2-0.2-1.3
			c-0.2-0.3-0.5-0.5-1-0.4c-0.6,0-1,0.3-1.3,0.8c-0.3,0.5-0.4,1.2-0.3,2.1c0.1,1.8,0.8,2.7,1.9,2.6c0.4,0,0.6-0.1,0.8-0.4
			c0.2-0.2,0.3-0.6,0.4-1.1L154,267.1z"/>
		<path fill="#FFFFFF" d="M159.1,269.1l-0.6,0.1l-0.3,0c-0.2,0-0.6,0-1.1,0.1c-0.6,0.1-1,0.1-1.2,0.2l-0.3,0.1l-0.6,0.1l-0.1-0.9
			c0.5-0.1,0.8-0.2,0.9-0.4c0.1-0.2,0.1-0.6,0-1.4l-0.4-3.3c0-0.4-0.1-0.6-0.3-0.7c-0.1-0.1-0.4-0.1-0.9-0.1l-0.1-1
			c0.4,0,1.1-0.1,2-0.2l1-0.1l0.6,5.2c0.1,0.8,0.2,1.2,0.3,1.3c0.1,0.1,0.4,0.2,0.9,0.2L159.1,269.1z M157.1,259c0,0.4,0,0.7-0.2,1
			c-0.2,0.2-0.5,0.4-0.9,0.4c-0.4,0-0.7,0-0.9-0.2c-0.2-0.2-0.4-0.5-0.4-0.9c0-0.4,0-0.7,0.2-1c0.2-0.2,0.5-0.4,0.9-0.4
			c0.4,0,0.7,0,0.9,0.2C156.9,258.4,157.1,258.7,157.1,259z"/>
		<path fill="#FFFFFF" d="M166.6,263.7c0,0.3,0.1,0.6,0.1,0.7l-5.2,0.9c0.3,1.4,1.1,2,2.2,1.8c0.8-0.1,1.3-0.6,1.4-1.5l1.5-0.3
			c-0.2,1.8-1.1,2.8-2.9,3.1c-1.2,0.2-2.2,0-3-0.6c-0.8-0.6-1.3-1.5-1.5-2.8c-0.2-1.3,0-2.3,0.5-3.2c0.5-0.9,1.4-1.4,2.5-1.6
			c1.1-0.2,2.1,0,2.8,0.6C165.9,261.6,166.4,262.5,166.6,263.7z M164.4,263.5c-0.2-1.3-0.8-1.9-1.8-1.8c-0.9,0.2-1.3,0.9-1.3,2.3
			L164.4,263.5z"/>
		<path fill="#FFFFFF" d="M176.7,265.6c-0.3,0.1-0.6,0.1-0.9,0.2c-0.2,0-0.6,0.1-1.1,0.2c-0.5,0.1-0.8,0.2-1.1,0.3
			c-0.2,0.1-0.5,0.1-0.8,0.2l-0.2-0.9c0.5-0.2,0.7-0.3,0.8-0.5c0.1-0.2,0-0.6-0.2-1.3l-0.5-2c-0.2-0.7-0.4-1.1-0.6-1.4
			c-0.3-0.2-0.6-0.3-1.1-0.2c-1,0.2-1.3,1-1,2.4l0.4,1.8c0.2,0.7,0.3,1.2,0.4,1.3c0.1,0.1,0.4,0.1,0.9,0.1l0.2,0.9
			c-0.3,0.1-0.6,0.1-0.9,0.2c-0.3,0-0.6,0.1-1.1,0.2c-0.5,0.1-0.9,0.2-1.1,0.3c-0.2,0.1-0.5,0.1-0.9,0.2l-0.2-0.9
			c0.5-0.2,0.8-0.3,0.8-0.5c0-0.2,0-0.6-0.2-1.3l-0.7-3c-0.1-0.5-0.2-0.8-0.3-0.9c-0.1-0.1-0.3-0.1-0.7-0.1c0,0-0.1,0-0.3,0
			l-0.2-0.9c0.7-0.1,1.1-0.2,1.4-0.3l1.3-0.3l0.3,1.1c0.3-0.6,0.6-1.1,0.8-1.3c0.3-0.3,0.7-0.5,1.2-0.6c0.8-0.2,1.6-0.1,2.1,0.3
			c0.5,0.4,0.9,1.2,1.2,2.4l0.5,2c0.2,0.7,0.3,1.2,0.4,1.3c0.1,0.1,0.4,0.1,0.9,0.1L176.7,265.6z"/>
		<path fill="#FFFFFF" d="M182.8,260.9c0.3,1.9-0.3,3-1.8,3.5c-1,0.3-2,0.2-2.8-0.3c-0.9-0.5-1.5-1.4-1.8-2.5
			c-0.4-1.2-0.3-2.3,0.1-3.2c0.4-0.9,1.2-1.6,2.4-1.9c0.7-0.2,1.5-0.3,2.4-0.3c0.1,0.4,0.2,0.8,0.4,1.2c0.1,0.3,0.2,0.8,0.4,1.4
			l-1.1,0.3c-0.2-0.7-0.4-1.1-0.5-1.2c-0.2-0.3-0.6-0.3-1.1-0.2c-0.5,0.2-0.9,0.5-1.1,1.1c-0.2,0.6-0.1,1.3,0.1,2.1
			c0.5,1.8,1.4,2.5,2.4,2.1c0.3-0.1,0.6-0.3,0.7-0.5c0.1-0.3,0.2-0.7,0.1-1.2L182.8,260.9z"/>
		<path fill="#FFFFFF" d="M189.9,256.7c0.1,0.3,0.2,0.5,0.3,0.7l-4.9,1.9c0.6,1.3,1.4,1.8,2.6,1.4c0.7-0.3,1.1-0.9,1.1-1.7l1.4-0.5
			c0.2,1.8-0.6,3-2.2,3.6c-1.1,0.4-2.2,0.4-3.1,0c-0.9-0.4-1.6-1.2-2-2.4c-0.4-1.2-0.5-2.3-0.1-3.2c0.4-0.9,1.1-1.6,2.2-2
			c1.1-0.4,2-0.4,2.9,0C188.9,254.7,189.5,255.5,189.9,256.7z M187.8,256.9c-0.5-1.3-1.2-1.7-2.1-1.4c-0.8,0.3-1.1,1.2-0.8,2.5
			L187.8,256.9z"/>
		<path fill="#FFFFFF" d="M194.9,257l0,4.1l-1.5,0.7l-0.6-3.9L194.9,257z"/>
		<path fill="#FFFFFF" d="M210.8,250.7l-0.3,0.2l-0.3,0.2c-0.4,0.2-0.9,0.5-1.5,0.8c0,0-0.2,0.1-0.4,0.3c-0.3,0.2-0.5,0.3-0.7,0.4
			l-0.3,0.2l-0.3,0.2l-0.3,0.2l-0.5-0.9c0.4-0.2,0.7-0.5,0.8-0.6c0.1-0.2,0.1-0.4-0.1-0.6c-0.1-0.2-0.3-0.4-0.6-0.7l-0.8-0.7
			l-3.1,1.8l0.3,1.3c0.1,0.4,0.2,0.6,0.3,0.8c0.1,0.2,0.3,0.3,0.6,0.2c0.1,0,0.3-0.1,0.7-0.3l0.5,0.9l-0.3,0.2
			c0.1-0.1-0.2,0.1-0.9,0.5c-0.4,0.2-0.6,0.3-0.7,0.4c-0.1,0-0.2,0.1-0.4,0.3c-0.2,0.1-0.4,0.3-0.6,0.4l-0.3,0.2l-0.3,0.2l-0.3,0.2
			l-0.5-0.8c0.3-0.2,0.4-0.5,0.5-0.7c0-0.2,0-0.8-0.2-1.8l-1.4-8.7l2.5-1.4l6.5,5.8c0.3,0.3,0.7,0.6,1,0.8c0.3,0.2,0.5,0.3,0.6,0.3
			c0.1,0,0.4,0,0.7-0.1L210.8,250.7z M204.3,248.5l-3.3-3.2l1,4.5L204.3,248.5z"/>
		<path fill="#FFFFFF" d="M215.1,244.7c0.8,1.7,0.6,3-0.8,3.9c-0.9,0.6-1.8,0.8-2.8,0.5c-1-0.3-1.8-0.9-2.5-1.9
			c-0.7-1-1-2.1-0.8-3.1c0.2-1,0.7-1.8,1.7-2.5c0.6-0.4,1.3-0.7,2.2-1c0.2,0.4,0.5,0.7,0.7,1c0.2,0.3,0.5,0.7,0.8,1.2l-1,0.6
			c-0.4-0.6-0.7-0.9-0.8-1c-0.3-0.2-0.7-0.1-1.1,0.2c-0.5,0.3-0.7,0.8-0.7,1.4c0,0.6,0.3,1.2,0.7,2c1,1.5,2,2,2.9,1.4
			c0.3-0.2,0.5-0.4,0.5-0.7c0-0.3,0-0.7-0.2-1.2L215.1,244.7z"/>
		<path fill="#FFFFFF" d="M223.6,241.5c-0.6,0.4-0.9,0.7-1.1,0.8c-0.4,0.3-0.6,0.4-0.7,0.5l-0.2,0.1l-0.2,0.1l-0.1,0.1l-0.7-0.9
			c0,0.7-0.1,1.2-0.3,1.6c-0.2,0.4-0.4,0.7-0.9,1c-0.6,0.5-1.3,0.7-1.9,0.6c-0.7-0.1-1.2-0.4-1.7-1c-0.6-0.7-0.7-1.5-0.4-2.3
			c0.3-0.8,1.1-1.6,2.3-2.5l0.3-0.2c-0.5-0.6-0.9-0.9-1.2-0.9c-0.3-0.1-0.8,0.1-1.2,0.5c-0.4,0.3-0.7,0.6-0.7,0.8
			c0,0.2,0.1,0.6,0.4,1.2l-0.8,0.6c-0.3-0.4-0.5-0.7-0.6-0.9c-0.2-0.3-0.4-0.6-0.7-0.9c0.7-0.9,1.3-1.7,2.1-2.2
			c0.9-0.7,1.7-1,2.4-0.9c0.6,0.1,1.3,0.6,2.1,1.6l1.3,1.7c0.4,0.6,0.8,0.9,0.9,1c0.2,0.1,0.5,0,0.9-0.3L223.6,241.5z M219.3,240.9
			l-0.4-0.6c0,0-0.1,0.1-0.2,0.1c-0.2,0.1-0.3,0.2-0.4,0.3c-1.1,0.8-1.3,1.6-0.7,2.4c0.5,0.6,1,0.7,1.7,0.2c0.4-0.3,0.5-0.6,0.6-1.1
			C219.8,241.8,219.7,241.3,219.3,240.9z"/>
		<path fill="#FFFFFF" d="M230.6,235.6c-0.1,0-0.2,0.2-0.5,0.4c-0.3,0.2-0.5,0.4-0.6,0.5c-0.1,0.1-0.3,0.3-0.6,0.5
			c-0.2,0.2-0.4,0.4-0.5,0.4l-0.8-0.9c0.1,0.7,0,1.2-0.1,1.6c-0.1,0.4-0.4,0.8-0.9,1.2c-0.7,0.6-1.6,0.9-2.4,0.7
			c-0.9-0.2-1.8-0.8-2.6-1.8c-0.8-1-1.3-1.9-1.4-2.8c-0.1-0.9,0.3-1.7,1-2.3c0.3-0.3,0.7-0.5,1-0.6c0.3-0.1,0.8-0.1,1.4-0.1l-0.9-1
			c-0.5-0.6-0.8-0.9-1-1c-0.2-0.1-0.5-0.1-0.8,0.1c0,0-0.1,0.1-0.3,0.2l-0.6-0.7c0.3-0.2,0.7-0.5,1.2-1c0.5-0.4,0.9-0.8,1.1-1
			l5.6,6.5c0.5,0.6,0.8,0.9,1,0.9c0.2,0,0.5-0.1,0.9-0.4L230.6,235.6z M225.8,234.6c-1.2-1.4-2.2-1.7-3-0.9
			c-0.4,0.3-0.5,0.8-0.5,1.3c0.1,0.5,0.4,1.1,0.9,1.7c0.6,0.7,1.1,1.1,1.7,1.3c0.6,0.2,1,0.1,1.4-0.2c0.4-0.3,0.6-0.8,0.5-1.4
			C226.7,235.8,226.3,235.2,225.8,234.6z"/>
		<path fill="#FFFFFF" d="M233.5,226.8c0.2,0.2,0.4,0.4,0.5,0.5l-3.7,3.7c1.1,1,2,1.1,2.9,0.2c0.6-0.6,0.7-1.2,0.3-2l1.1-1.1
			c0.9,1.6,0.7,3-0.6,4.2c-0.9,0.8-1.8,1.3-2.8,1.2c-1,0-2-0.5-2.8-1.4c-0.9-0.9-1.4-1.9-1.4-2.9c0-1,0.3-1.9,1.2-2.7
			c0.8-0.8,1.7-1.2,2.6-1.2C231.7,225.5,232.6,226,233.5,226.8z M231.6,227.9c-1-1-1.8-1.1-2.5-0.4c-0.6,0.6-0.5,1.5,0.3,2.6
			L231.6,227.9z"/>
		<path fill="#FFFFFF" d="M245.8,219c-0.2,0.2-0.4,0.5-0.6,0.6c-0.2,0.2-0.4,0.4-0.7,0.8c-0.3,0.4-0.6,0.7-0.7,0.9
			c-0.1,0.2-0.3,0.4-0.6,0.7l-0.7-0.6c0.3-0.4,0.4-0.7,0.3-0.8c-0.1-0.2-0.4-0.5-0.9-1l-1.6-1.4c-0.5-0.4-0.9-0.7-1.2-0.7
			c-0.3,0-0.6,0.1-0.9,0.4c-0.7,0.8-0.5,1.7,0.6,2.6l1.4,1.2c0.6,0.5,0.9,0.8,1.1,0.8c0.2,0,0.4-0.1,0.8-0.5l0.7,0.6
			c-0.2,0.3-0.4,0.5-0.6,0.7c-0.2,0.2-0.4,0.5-0.7,0.8c-0.3,0.4-0.5,0.7-0.7,0.8c-0.2,0.2-0.3,0.4-0.6,0.7l-0.7-0.6
			c0.3-0.4,0.4-0.7,0.3-0.8c0-0.2-0.4-0.5-0.9-1l-1.6-1.4c-0.5-0.4-0.9-0.7-1.2-0.7c-0.3,0-0.6,0.1-0.9,0.4
			c-0.7,0.8-0.5,1.6,0.6,2.5l1.4,1.2c0.6,0.5,1,0.8,1.1,0.8c0.2,0,0.4-0.1,0.8-0.5l0.7,0.6c-0.2,0.3-0.4,0.5-0.6,0.7
			c-0.2,0.2-0.4,0.5-0.7,0.8c-0.3,0.4-0.6,0.7-0.7,0.9c-0.2,0.2-0.3,0.4-0.6,0.7l-0.7-0.6c0.3-0.4,0.4-0.7,0.4-0.9
			c0-0.2-0.4-0.5-0.9-1l-2.3-2c-0.4-0.3-0.7-0.5-0.8-0.5c-0.1,0-0.3,0.1-0.6,0.3c0,0-0.1,0.1-0.2,0.2l-0.7-0.6
			c0.5-0.5,0.8-0.9,1-1.1l0.9-1.1l0.8,0.7c-0.3-1.1-0.1-1.9,0.5-2.7c0.7-0.8,1.5-1,2.4-0.8c-0.1-0.7-0.1-1.2,0-1.6
			c0.1-0.4,0.3-0.7,0.6-1.1c0.6-0.7,1.3-1.1,2.1-1c0.5,0,1.2,0.4,2,1.1l1.8,1.5c0.6,0.5,1,0.8,1.1,0.8c0.1,0,0.4-0.1,0.7-0.4
			L245.8,219z"/>
		<path fill="#FFFFFF" d="M239.8,209.7c0.3,0.2,0.5,0.5,0.5,0.8c0,0.3,0,0.6-0.3,0.9c-0.2,0.3-0.5,0.5-0.8,0.5c-0.3,0-0.6,0-0.9-0.3
			c-0.3-0.2-0.5-0.5-0.5-0.8c0-0.3,0-0.6,0.3-0.9c0.2-0.3,0.5-0.5,0.8-0.5C239.2,209.4,239.5,209.5,239.8,209.7z M248.5,215.1
			l-0.4,0.5l-0.2,0.2c-0.1,0.2-0.4,0.5-0.7,0.9c-0.3,0.5-0.6,0.8-0.7,0.9l-0.2,0.3l-0.4,0.5l-0.8-0.6c0.3-0.5,0.4-0.8,0.3-0.9
			c-0.1-0.2-0.4-0.5-1-0.9l-2.7-2c-0.3-0.2-0.5-0.3-0.7-0.3c-0.1,0-0.4,0.2-0.7,0.6l-0.8-0.6c0.2-0.3,0.6-0.8,1.2-1.6l0.6-0.8
			l4.2,3.1c0.6,0.4,1,0.7,1.2,0.7c0.2,0,0.4-0.2,0.8-0.6L248.5,215.1z"/>
		<path fill="#FFFFFF" d="M253.4,207.7c-0.4,0.6-0.7,0.9-0.8,1.2c-0.2,0.4-0.4,0.6-0.5,0.7l-0.1,0.2l-0.1,0.2l-0.1,0.2l-1-0.6
			c0.2,0.7,0.3,1.2,0.3,1.6c0,0.4-0.2,0.8-0.5,1.2c-0.4,0.6-1,1-1.6,1.2c-0.7,0.1-1.3,0-1.9-0.4c-0.8-0.5-1.2-1.2-1.1-2
			c0-0.8,0.5-1.9,1.3-3.2l0.2-0.3c-0.6-0.4-1.1-0.5-1.4-0.5c-0.3,0-0.7,0.3-1,0.8c-0.3,0.4-0.4,0.8-0.4,1c0.1,0.2,0.3,0.6,0.8,1
			l-0.6,0.9c-0.4-0.3-0.7-0.5-0.9-0.6c-0.3-0.2-0.6-0.4-0.9-0.6c0.3-1.1,0.7-2,1.2-2.8c0.6-1,1.3-1.5,1.9-1.6
			c0.6-0.1,1.5,0.2,2.5,0.8l1.8,1.2c0.6,0.4,1,0.6,1.2,0.6c0.2,0,0.4-0.2,0.7-0.6L253.4,207.7z M249.2,208.6l-0.6-0.4
			c0,0-0.1,0.1-0.2,0.2c-0.1,0.2-0.2,0.3-0.3,0.4c-0.7,1.1-0.7,2,0.1,2.5c0.7,0.4,1.2,0.3,1.7-0.4c0.2-0.4,0.3-0.8,0.1-1.2
			C249.9,209.3,249.6,208.9,249.2,208.6z"/>
		<path fill="#FFFFFF" d="M257.1,194.4c1,0.5,1.6,1.3,1.8,2.3c0.2,0.9,0,2-0.7,3.2c-0.6,1.1-1.2,2-2,2.9c-0.4-0.2-0.8-0.5-1.3-0.7
			c-0.5-0.3-1-0.5-1.5-0.7l0.6-1.1c0.6,0.3,1,0.4,1.3,0.4c0.6,0,1.2-0.5,1.6-1.4c0.3-0.5,0.4-1,0.3-1.5c-0.1-0.4-0.3-0.8-0.8-1
			c-0.6-0.3-1.2-0.1-1.9,0.4l-1.1,1c-0.8,0.8-1.6,1.2-2.3,1.4c-0.7,0.2-1.4,0-2.2-0.4c-0.9-0.5-1.5-1.2-1.7-2.1
			c-0.2-0.9,0-2,0.6-3.1c0.4-0.8,1.1-1.7,1.9-2.7c0.3,0.2,0.8,0.4,1.3,0.7c0.4,0.2,0.9,0.5,1.6,0.8l-0.6,1.1
			c-0.5-0.2-0.9-0.4-1.1-0.4c-0.2-0.1-0.4-0.1-0.5,0c-0.5,0.1-0.9,0.5-1.3,1.2c-0.6,1.1-0.4,2,0.5,2.4c0.3,0.2,0.6,0.2,1,0.1
			c0.3-0.1,0.7-0.3,1.1-0.7l1-0.9c0.8-0.8,1.6-1.2,2.2-1.4C255.7,193.9,256.4,194,257.1,194.4z"/>
		<path fill="#FFFFFF" d="M252.4,187.7c0.4,0.2,0.6,0.4,0.7,0.7c0.1,0.3,0.1,0.6-0.1,1c-0.2,0.3-0.4,0.6-0.7,0.7
			c-0.3,0.1-0.6,0.1-1-0.1c-0.4-0.2-0.6-0.4-0.7-0.7c-0.1-0.3-0.1-0.6,0.1-1c0.2-0.3,0.4-0.6,0.7-0.7
			C251.7,187.5,252,187.6,252.4,187.7z M262,191.2l-0.2,0.5l-0.1,0.3c-0.1,0.2-0.3,0.5-0.5,1c-0.2,0.5-0.4,0.9-0.5,1.1l-0.1,0.3
			l-0.2,0.6l-0.9-0.4c0.2-0.5,0.2-0.8,0.1-1c-0.1-0.1-0.5-0.4-1.2-0.7l-3-1.4c-0.3-0.2-0.6-0.2-0.7-0.1c-0.1,0.1-0.3,0.3-0.5,0.7
			l-0.9-0.4c0.2-0.3,0.5-0.9,0.9-1.8l0.4-0.9l4.8,2.1c0.7,0.3,1.1,0.5,1.3,0.4c0.2,0,0.4-0.3,0.6-0.7L262,191.2z"/>
		<path fill="#FFFFFF" d="M265.5,182.3c-0.1,0.3-0.2,0.6-0.3,0.8c-0.1,0.2-0.2,0.6-0.4,1c-0.2,0.5-0.3,0.8-0.4,1
			c-0.1,0.2-0.2,0.5-0.3,0.8l-0.9-0.3c0.1-0.5,0.1-0.8,0-0.9c-0.1-0.1-0.5-0.3-1.2-0.6l-1.9-0.7c-0.6-0.2-1.1-0.3-1.5-0.3
			c-0.4,0.1-0.6,0.3-0.8,0.8c-0.4,0.9,0.1,1.7,1.4,2.2l1.7,0.7c0.7,0.3,1.1,0.4,1.3,0.4c0.2,0,0.4-0.3,0.6-0.7l0.9,0.3
			c-0.1,0.3-0.2,0.6-0.3,0.8c-0.1,0.2-0.2,0.6-0.4,1c-0.2,0.5-0.3,0.8-0.4,1.1c-0.1,0.2-0.2,0.5-0.3,0.8l-0.9-0.3
			c0.1-0.5,0.2-0.8,0.1-1c-0.1-0.1-0.5-0.3-1.2-0.6l-2.9-1.1c-0.5-0.2-0.8-0.3-0.9-0.2c-0.1,0-0.3,0.2-0.5,0.5c0,0-0.1,0.1-0.1,0.3
			l-0.9-0.3c0.3-0.6,0.5-1.1,0.6-1.3l0.5-1.3l1,0.4c-0.3-0.6-0.5-1.1-0.6-1.4c-0.1-0.4,0-0.8,0.2-1.3c0.3-0.8,0.8-1.3,1.5-1.6
			c0.6-0.2,1.5-0.1,2.7,0.4l1.9,0.7c0.7,0.3,1.1,0.4,1.3,0.4c0.2,0,0.4-0.3,0.6-0.7L265.5,182.3z"/>
		<path fill="#FFFFFF" d="M257,175.3c0.4,0.1,0.6,0.3,0.8,0.6c0.1,0.3,0.2,0.6,0,1c-0.1,0.4-0.3,0.6-0.6,0.8c-0.3,0.1-0.6,0.2-1,0
			c-0.4-0.1-0.6-0.3-0.8-0.6c-0.1-0.3-0.2-0.6,0-1c0.1-0.4,0.3-0.6,0.6-0.8C256.3,175.2,256.6,175.2,257,175.3z M267,177.7l-0.2,0.6
			l-0.1,0.3c-0.1,0.2-0.2,0.5-0.4,1.1c-0.2,0.5-0.3,0.9-0.3,1.1l-0.1,0.3l-0.2,0.6l-0.9-0.3c0.1-0.5,0.1-0.8,0-1
			c-0.1-0.1-0.5-0.3-1.2-0.5l-3.2-1c-0.4-0.1-0.6-0.1-0.7-0.1c-0.1,0.1-0.3,0.3-0.5,0.8l-0.9-0.3c0.1-0.3,0.4-1,0.7-1.9l0.3-1l5,1.6
			c0.7,0.2,1.2,0.3,1.3,0.3c0.2,0,0.3-0.3,0.6-0.8L267,177.7z"/>
		<path fill="#FFFFFF" d="M266.4,170c1.7,0.7,2.4,1.9,2,3.4c-0.3,1-0.9,1.8-1.8,2.2c-0.9,0.5-2,0.5-3.1,0.2
			c-1.2-0.3-2.1-0.9-2.6-1.8c-0.5-0.9-0.7-1.9-0.3-3c0.2-0.7,0.5-1.4,1-2.2c0.4,0.1,0.8,0.2,1.2,0.3c0.3,0.1,0.8,0.2,1.4,0.4
			l-0.3,1.1c-0.7-0.2-1.1-0.2-1.3-0.2c-0.3,0-0.6,0.3-0.7,0.8c-0.1,0.6,0,1,0.4,1.5c0.4,0.4,1,0.8,1.9,1c1.8,0.5,2.8,0.2,3.1-0.9
			c0.1-0.3,0.1-0.6-0.1-0.9c-0.1-0.2-0.5-0.5-1-0.7L266.4,170z"/>
		<path fill="#FFFFFF" d="M270.8,162c-0.2,0.7-0.3,1.1-0.3,1.4c-0.1,0.4-0.1,0.7-0.2,0.8l0,0.2l0,0.2l0,0.2l-1.1-0.2
			c0.4,0.5,0.7,1,0.8,1.4c0.1,0.4,0.1,0.8,0,1.3c-0.2,0.8-0.5,1.3-1.1,1.7c-0.5,0.4-1.2,0.5-1.9,0.3c-0.9-0.2-1.5-0.7-1.8-1.4
			c-0.3-0.8-0.2-1.9,0.1-3.4l0.1-0.4c-0.7-0.1-1.2-0.1-1.5,0.1c-0.3,0.2-0.5,0.6-0.6,1.2c-0.1,0.5-0.1,0.9,0,1.1
			c0.1,0.2,0.5,0.4,1.1,0.6l-0.2,1c-0.5-0.1-0.8-0.2-1-0.2c-0.4-0.1-0.7-0.1-1.1-0.2c-0.1-1.1-0.1-2.1,0.1-3
			c0.2-1.1,0.6-1.9,1.2-2.2c0.6-0.4,1.4-0.4,2.6-0.2l2.1,0.4c0.7,0.2,1.2,0.2,1.3,0.1c0.2-0.1,0.3-0.3,0.5-0.8L270.8,162z
			 M267.1,164.4l-0.7-0.1c0,0,0,0.1-0.1,0.2c-0.1,0.2-0.1,0.4-0.1,0.5c-0.3,1.3,0.1,2.1,1,2.3c0.8,0.2,1.2-0.2,1.4-1
			c0.1-0.4,0-0.8-0.3-1.2C268.1,164.7,267.7,164.5,267.1,164.4z"/>
	</g>
	<g>
		<path d="M102,206c-0.6-0.8-1.3-1.2-2.2-1.2c-0.6,0-1,0.2-1.4,0.5c-0.4,0.3-0.6,0.8-0.6,1.4c0,0.6,0.7,1.3,2.1,2.1
			c1.4,0.8,2.1,1.2,2.1,1.2c1,0.8,1.5,1.6,1.5,2.6c0,1.4-0.4,2.5-1.2,3.4c-0.8,0.9-1.9,1.3-3.3,1.3c-1.8,0-3.2-0.9-4.2-2.6l1.5-1.4
			c0.2,0.5,0.6,1,1.1,1.4c0.5,0.4,1.1,0.6,1.6,0.6c0.7,0,1.2-0.2,1.6-0.7c0.4-0.4,0.6-1,0.6-1.6c0-0.5-0.1-0.9-0.4-1.2
			c-0.3-0.4-1.2-0.9-2.9-1.6c-1.6-0.7-2.5-1.8-2.5-3.1c0-1.2,0.4-2.1,1.1-2.9c0.8-0.8,1.7-1.2,2.8-1.2c1.6,0,2.8,0.5,3.7,1.5
			L102,206z"/>
		<path d="M107.3,216.9H105v-13.6h2.3V216.9z"/>
		<path d="M109.4,202.9h1.7l7.7,10.2l0-9.9h2.3v13.9h-1.7l-7.7-10.2l0,10h-2.3V202.9z"/>
		<path d="M132.2,206.5c-0.8-1-1.8-1.4-3-1.4c-1.2,0-2.3,0.5-3.1,1.5c-0.8,1-1.3,2.2-1.3,3.5c0,1.3,0.4,2.4,1.2,3.4
			c0.8,1,1.9,1.5,3.1,1.5c1.2,0,2.2-0.5,3-1.4v2.8c-1.1,0.5-2.1,0.8-3.1,0.8c-1.9,0-3.5-0.7-4.8-2.1c-1.3-1.4-1.9-3-1.9-5
			c0-2,0.6-3.7,1.9-5.1c1.3-1.4,2.9-2.1,4.8-2.1c1,0,2,0.3,3,0.8V206.5z"/>
		<path d="M136.2,205.2v3.5h4.6v2h-4.6v4.2h4.7v2h-7v-13.6h7v2H136.2z"/>
		<path d="M151.9,205.2v-2h4.3v13.6h-2.3v-11.7H151.9z"/>
		<path d="M163.1,205.6c0.5-0.6,1.1-0.9,1.8-0.9c0.8,0,1.4,0.3,1.8,0.9c0.4,0.6,0.7,1.2,0.7,2c0,0.8-0.2,1.5-0.7,2
			c-0.5,0.6-1.1,0.9-1.8,0.9c-0.8,0-1.4-0.3-1.8-0.9c-0.5-0.6-0.7-1.2-0.7-2C162.4,206.9,162.6,206.2,163.1,205.6z M164.4,217.5
			l3.6-5.4c1.1-1.7,1.7-3.2,1.7-4.5c0-1.4-0.5-2.5-1.4-3.4c-0.9-0.9-2-1.3-3.4-1.3c-1.4,0-2.6,0.4-3.4,1.3c-0.9,0.9-1.3,2.1-1.3,3.5
			c0,1.2,0.4,2.3,1.1,3.2c0.7,0.9,1.7,1.3,2.9,1.3c0.5,0,1-0.1,1.5-0.2l-2.9,4.2L164.4,217.5z"/>
		<path d="M173.8,211.4c0.4-0.4,0.9-0.7,1.5-0.7c0.6,0,1.1,0.2,1.5,0.6c0.4,0.4,0.6,1,0.6,1.6c0,0.7-0.2,1.3-0.6,1.8
			c-0.4,0.5-0.9,0.7-1.5,0.7c-0.6,0-1.1-0.2-1.5-0.7c-0.4-0.4-0.6-1-0.6-1.8C173.2,212.3,173.4,211.8,173.8,211.4z M173,209.8
			c-1.5,0.6-2.2,1.7-2.2,3.4c0,1.2,0.4,2.1,1.3,2.9c0.8,0.7,1.9,1.1,3.1,1.1c1.2,0,2.3-0.4,3.1-1.1c0.9-0.7,1.3-1.7,1.3-2.9
			c0-1.8-0.7-2.9-2.2-3.4c1.2-0.6,1.8-1.6,1.8-3c0-1.1-0.4-2.1-1.1-2.8c-0.8-0.7-1.7-1.1-2.9-1.1c-1.1,0-2.1,0.4-2.8,1.1
			c-0.8,0.7-1.1,1.7-1.1,2.8C171.3,208.2,171.9,209.2,173,209.8z M173.9,205.1c0.4-0.4,0.8-0.6,1.4-0.6c0.6,0,1,0.2,1.4,0.6
			c0.3,0.4,0.5,1,0.5,1.6c0,0.7-0.2,1.2-0.5,1.5c-0.4,0.4-0.8,0.6-1.4,0.6c-0.6,0-1-0.2-1.4-0.6c-0.4-0.4-0.6-0.9-0.6-1.5
			C173.3,206.1,173.5,205.5,173.9,205.1z"/>
		<path d="M190.1,214.9v2H181l3.5-4.4c1.6-2,2.6-3.3,2.9-3.8c0.3-0.5,0.4-0.9,0.4-1.3c0-0.1,0-0.2,0-0.3c0-0.6-0.2-1.1-0.6-1.6
			c-0.4-0.5-0.9-0.7-1.6-0.7c-0.6,0-1.1,0.3-1.5,0.8c-0.4,0.5-0.5,1.2-0.5,1.9h-2.4c0-1.3,0.4-2.5,1.2-3.3c0.8-0.9,1.9-1.3,3.3-1.3
			c1.2,0,2.3,0.4,3.1,1.3c0.8,0.8,1.3,1.9,1.3,3.1c0,1.2-0.9,2.8-2.7,4.9l-2.3,2.7H190.1z"/>
	</g>
	<g>
		<g>
			
				<linearGradient id="SVGID_1_" gradientUnits="userSpaceOnUse" x1="-1728.9773" y1="450.1335" x2="-1640.3102" y2="365.4666" gradientTransform="matrix(0.6394 0 0 0.6394 1167.6888 -99.0353)">
				<stop  offset="0" style="stop-color:#00A7EA"/>
				<stop  offset="0.1236" style="stop-color:#00A3E7"/>
				<stop  offset="0.3252" style="stop-color:#0097DA"/>
				<stop  offset="0.5797" style="stop-color:#0081C3"/>
				<stop  offset="0.8744" style="stop-color:#0064A6"/>
				<stop  offset="1" style="stop-color:#005699"/>
			</linearGradient>
			<polygon fill="url(#SVGID_1_)" points="138.7,145.2 100.4,122.9 61.9,189.3 			"/>
			
				<linearGradient id="SVGID_2_" gradientUnits="userSpaceOnUse" x1="-1601.8402" y1="240.9626" x2="-1569.7158" y2="360.9196" gradientTransform="matrix(0.6394 0 0 0.6394 1167.6888 -99.0353)">
				<stop  offset="0" style="stop-color:#00A7EA"/>
				<stop  offset="0.1236" style="stop-color:#00A3E7"/>
				<stop  offset="0.3252" style="stop-color:#0097DA"/>
				<stop  offset="0.5797" style="stop-color:#0081C3"/>
				<stop  offset="0.8744" style="stop-color:#0064A6"/>
				<stop  offset="1" style="stop-color:#005699"/>
			</linearGradient>
			<polygon fill="url(#SVGID_2_)" points="144.6,53.3 144.6,141.7 182.9,119.7 			"/>
			
				<linearGradient id="SVGID_3_" gradientUnits="userSpaceOnUse" x1="-1636.1985" y1="377.4364" x2="-1635.8611" y2="239.8408" gradientTransform="matrix(0.6394 0 0 0.6394 1167.6888 -99.0353)">
				<stop  offset="0" style="stop-color:#00A7EA"/>
				<stop  offset="0.1236" style="stop-color:#00A3E7"/>
				<stop  offset="0.3252" style="stop-color:#0097DA"/>
				<stop  offset="0.5797" style="stop-color:#0081C3"/>
				<stop  offset="0.8744" style="stop-color:#0064A6"/>
				<stop  offset="1" style="stop-color:#005699"/>
			</linearGradient>
			<polygon fill="url(#SVGID_3_)" points="140.8,53.2 102.3,119.6 140.8,141.9 			"/>
			
				<linearGradient id="SVGID_4_" gradientUnits="userSpaceOnUse" x1="-1479.0365" y1="457.7998" x2="-1598.8051" y2="422.2099" gradientTransform="matrix(0.6394 0 0 0.6394 1167.6888 -99.0353)">
				<stop  offset="0" style="stop-color:#00A7EA"/>
				<stop  offset="0.1236" style="stop-color:#00A3E7"/>
				<stop  offset="0.3252" style="stop-color:#0097DA"/>
				<stop  offset="0.5797" style="stop-color:#0081C3"/>
				<stop  offset="0.8744" style="stop-color:#0064A6"/>
				<stop  offset="1" style="stop-color:#005699"/>
			</linearGradient>
			<polygon fill="url(#SVGID_4_)" points="144.6,148.6 144.6,192.8 220.8,192.9 			"/>
			
				<linearGradient id="SVGID_5_" gradientUnits="userSpaceOnUse" x1="-1564.5161" y1="367.5448" x2="-1479.1685" y2="456.8963" gradientTransform="matrix(0.6394 0 0 0.6394 1167.6888 -99.0353)">
				<stop  offset="0" style="stop-color:#00A7EA"/>
				<stop  offset="0.1236" style="stop-color:#00A3E7"/>
				<stop  offset="0.3252" style="stop-color:#0097DA"/>
				<stop  offset="0.5797" style="stop-color:#0081C3"/>
				<stop  offset="0.8744" style="stop-color:#0064A6"/>
				<stop  offset="1" style="stop-color:#005699"/>
			</linearGradient>
			<polygon fill="url(#SVGID_5_)" points="146.3,145.2 223.1,189.7 184.8,123.1 			"/>
			
				<linearGradient id="SVGID_6_" gradientUnits="userSpaceOnUse" x1="-1605.7382" y1="421.5455" x2="-1725.6204" y2="455.4156" gradientTransform="matrix(0.6394 0 0 0.6394 1167.6888 -99.0353)">
				<stop  offset="0" style="stop-color:#00A7EA"/>
				<stop  offset="0.1236" style="stop-color:#00A3E7"/>
				<stop  offset="0.3252" style="stop-color:#0097DA"/>
				<stop  offset="0.5797" style="stop-color:#0081C3"/>
				<stop  offset="0.8744" style="stop-color:#0064A6"/>
				<stop  offset="1" style="stop-color:#005699"/>
			</linearGradient>
			<polygon fill="url(#SVGID_6_)" points="140.8,148.4 63.8,192.6 140.8,192.8 			"/>
		</g>
		<path fill="#FFFFFF" d="M209.7,160.6l0.7-1.3l-24-13.5l8.9-5l-0.7-1.3l-9,5v-22.3h-1.4v22.2L143.6,122l-0.4-0.7l-0.4,0.2l-0.7-0.4
			l-0.6,1.2l-40.1,22.5v-22.3h-1.5v22.2l-10.6-5.9l-0.7,1.3l10.7,6l-24.2,13.6l0.7,1.3l24.2-13.5v45.7h0.7l0.4,0.8l41.8-23.4
			l42.8,23.9l0-0.5v-1.2v-45.4L209.7,160.6z M183.4,145.9l-40.6,22.7l-40.6-22.7l40.6-22.7L183.4,145.9z M101.3,191.9v-44.8l40,22.4
			L101.3,191.9z M144.3,169.5l39.8-22.3v44.6L144.3,169.5z"/>
		<g>
			<path fill="#FFFFFF" d="M104.9,145.5c0,2.4-1.9,4.3-4.3,4.3s-4.3-1.9-4.3-4.3c0-2.4,1.9-4.3,4.3-4.3S104.9,143.1,104.9,145.5z"/>
			<path fill="#FFFFFF" d="M189.3,145.5c0,2.4-1.9,4.3-4.3,4.3c-2.4,0-4.3-1.9-4.3-4.3c0-2.4,1.9-4.3,4.3-4.3
				C187.4,141.1,189.3,143.1,189.3,145.5z"/>
			<circle fill="#FFFFFF" cx="142.6" cy="169" r="4.3"/>
			<path fill="#FFFFFF" d="M146.9,123.5c0,2.4-1.9,4.3-4.3,4.3c-2.4,0-4.3-1.9-4.3-4.3c0-2.4,1.9-4.3,4.3-4.3
				C145,119.2,146.9,121.1,146.9,123.5z"/>
		</g>
	</g>
</g>
</svg>
