<?xml version="1.0" encoding="utf-8"?>
<!-- Generator: Adobe Illustrator 22.1.0, SVG Export Plug-In . SVG Version: 6.00 Build 0)  -->
<svg version="1.1" id="圖層_1" xmlns="http://www.w3.org/2000/svg" xmlns:xlink="http://www.w3.org/1999/xlink" x="0px" y="0px"
	 viewBox="0 0 263.7 340" style="enable-background:new 0 0 263.7 340;" xml:space="preserve">
<style type="text/css">
	.st0{fill:#13609A;}
</style>
<g id="XMLID_2_">
	<g>
		<path class="st0" d="M263.4,258.5v2.7c-0.9,4.5-6.7,8.1-11.7,9.5c9.4-10.3-1.4-13-8.5-15.3c-6.7-2.3-10.8-0.5-15.7,0.5
			c3.6-0.5,10.8,0.4,13.9,5.4c3.1,4.5-1.8,8.1-7.6,13.5c5.4-8.5-2.2-13.5-12.6-11.7c-10.3,1.8-15.3,5-20.7,10.8
			c-1.4-6.7-4.9-9.4-17.5-10.8c-4-0.4-18.4-0.4-37.3-0.4c-12.6,0-26.5,0-40.9,0.4c-18,0-35.9,0-49.8-0.4c-6.8,0-12.6,0-17.1-0.5
			c-2.7,0-4.9,0-6.3,0c-18.9-2.2-27.4,1.4-31,9.4c4.1-20.7,7.2-20.7,22.5-40.4c3.6-4.5,9-10.3,14.8-16.2
			c5.4-5.4,11.2-11.2,17.1-17.5c14.8-14.4,29.6-29.6,36.4-40.9c8.1-14.4,11.7-26.1,13.5-35.5c0.9-4.9,1.4-9,1.8-13
			c2.2,8.1,8.1,22.9-1.8,51.7c-1.8,5.8-4.5,12.1-7.6,18.8c-4.1,7.6-12.1,17.5-16.6,23.4C71.2,214,62.7,222.6,55,229.3
			c-6.8,5.8-12.6,10.3-17.1,13.9c-1.3,1.4-2.2,2.3-3.6,3.2c1.4,0.4,2.2,0.4,3.6,0.9c5.8,1.8,11.7,3.1,17.1,3.6
			c17.5,2.2,34.6-0.9,49.8-8.5c1.8-0.9,3.6-1.8,5.4-2.7c12.1,6.3,24.3,9.9,35.5,11.2c21.1,3.1,38.6,0,45.8-0.9
			c10.8-1.4,18-8.1,22.9-11.7c4.9-3.6,18.4-7.2,27.4-7.6c9-0.5,13.9,0.9,13.5,5.8c0,4.9-5.8,7.6-7.2,7.6c1.3-2.7,1.3-3.6-0.5-5.8
			c-1.8-2.2-13-0.9-16.6,0.5c-3.1,1.3-5.4,3.1-7.6,6.7c3.6,1.8,6.7-2.3,24.7,2.7C258.5,251.3,263,254.9,263.4,258.5z"/>
		<polygon class="st0" points="263.2,291.4 263,295.4 246.7,303.4 241.7,303.4 241.1,302.2 		"/>
		<path class="st0" d="M262.9,277.9l0.1,3.7l-30.7,15.1l0.1,2.8l30.3-15l0.1,3.7l-30.7,15.1l0,3.2l8.8-4.3l0.6,1.2l1.9,1.5
			l-11.3,5.5v3.2l13.8-6.9l4.2,1.7l-18,9l-0.1,3l21.4-10.3l9.3,4.4v25.2h-28.7c-1.4,0-2.7,0-3.6,0c-17.5,0-31.4-13.9-31.4-31
			c0-16.6,13-30.5,29.2-31.4h29.5l-25.6,12.6v3.1L262.9,277.9z"/>
		<path class="st0" d="M223,30.3c4-0.9,15.3-5.8,23.8-5.8c-14.4,6.3-27.8,14.8-51.2,26.9c-23.8,12.1-38.2,11.2-39.5,12.1
			c-2.2,4.5-3.1,9.4-8.1,10.8c3.6,4,7.6,6.3,13.9,6.3c6.3,0,12.1-2.3,15.3-4.1c-1.3,4.1-2.7,8.1-5.4,11.2c-3.1,3.1-9.4,8.1-12.1,9.4
			c3.1,2.7,7.6,4.5,15.3,5.4c7.2,1.4,13.5-1.8,18.4-3.2c-2.7,5.4-5.4,10.8-13.5,15.7c-8.5,4.5-9.4,2.7-11.7,3.6
			c4.1,9.5,25.6,17.5,29.6,18.4c4,0.9,10.3,1.8,10.3,1.8s-10.3,9.4-23.8,7.6c-9.7-1-11.7-1.5-12.1-1.7c0-0.1,0-0.1,0-0.1
			s-0.1,0,0,0.1c0.4,1.2,4,11.1,10.3,17.4c6.7,6.7,15.7,13.9,15.7,13.9s-13.5,2.7-28.7-3.6c2.2,7.2,5.8,12.6,5.8,21.1
			c0.4,9-1.4,12.6-3.1,18.4c-1.8-5.8-5.4-13-8.5-13.5c-4.5,4.9-10.8,12.1-18,18.4c-8.1,7.2-18,13.9-26.5,14.4
			c9-7.6,18.4-15.3,26.5-30.5c3.1-5.8,5.8-13,8.1-21.1c8.1-31,0.9-63.8-4.9-77.2c-0.9-2.2-1.8-4.5-3.1-6.7
			c-5.8-11.7-12.6-22-12.6-22s-6.3,12.1-13.5,12.6c-7.2,0.4-13.9,0.9-13.9,0.9s5.4,5.8,13.9,4.5c8.5-1.8,9-4.9,9.4-3.6l4.5,7.6
			c0,0-19.8,2.7-28.7,4.9c-0.9,0-1.8,0.5-2.7,0.5c-6.7,2.2-19.8,7.6-29.2,13c-9,5.4-11.7,6.3-13.9,5.8c-2.2-0.9-4.9-4.5-2.7-7.6
			c2.2-3.1,4.1-1.8,4.1-1.8l0.9-7.2l4.1,4.9l-0.5-6.7l4.5,4.9l3.6-3.1c0,0,7.6,2.2,11.2-0.5c3.6-2.2,8.1-7.6,6.3-10.3
			c-1.8-2.7-3.2-3.6-14.8-3.6c-12.1,0-11.2,2.7-11.2,2.7l-0.9,5.8l-4.1-4.9v7.2L55,94.6l-0.5-0.5c0,0-6.7,1.8-9-0.4
			c-2.3-2.2,0-10.3,4-11.2c2.7-0.5,3.6-1.8,5.4-2.7c0.9-0.5,2.2-1.4,3.6-1.8c4.5-1.8,8.1-4.9,11.2-5.9c0,0-2.2-4.9,3.1-8.5
			c4.9-4,6.7-4,9.9-5.4c2.3-3.1,0.9-8.5,14.4-13.5c2.2-0.9,4.9-1.4,7.6-1.8c4-0.5,8.1-0.5,11.2-1.4c5.4-0.9,8.5-0.9,9.9-2.7
			c2.7-4.5,3.6-6.7,12.1-16.6c2.7-2.7,5.4-5.8,7.6-8.5c5.2-5.7,8.8-10.1,9-10.3l-9,23.3c17.1-4.5,30.1-9.4,58.8-26.5
			c-4.5,6.3-25.1,22-32.3,25.2c-7.2,3.6-16.6,10.3-25.2,12.1c-0.5,1.8-0.9,3.1-1.3,4.9c-2.2,5.4-5.4,8.5-9,12.1l9-1.8l4.5-0.9
			c0,0,9.4-8.5,14.8-11.7c5.4-3.2,14.8-11.2,18.9-13c-1.3,4.1-13,17.1-18.4,25.2C175.8,51.9,219,31.2,223,30.3z M107.1,62.2
			c2.7-1.8,2.7-5.4,2.7-5.4s-0.5-0.5-4.9,0.4h-0.5c-4.9,1.4-4.5,4.1-4,4.9c0.4,0.9,2.2,1.4,4.5,0.9
			C105.8,63.1,106.2,62.7,107.1,62.2z"/>
		<path class="st0" d="M196.1,293.5c0,6.7-4.1,13-10.3,15.7c6.3,2.2,10.3,8.1,10.3,14.8c0,8.5-7.2,15.7-15.7,15.7
			c-0.9,0-1.8,0-2.7-0.4h-31.9h-10.3v-35.5l31.9,16.2l-0.5-3.4l-31.4-16.2l0.1-3.6l32.3,16.2l-0.4-3.2l-31.9-16.2v-3.4l32.3,16.2
			l-0.5-3.1l-31.9-16.2l0.1-3.6l32.3,16.6l-0.5-3.7l-31.9-15.7l-0.1-3.9l32.3,16.2l-0.4-3.1l-21.6-11.2l-4-1.8h4h30.5
			c0.9-0.5,1.8-0.5,3.1-0.5c0.9,0,1.8,0,2.7,0.5C190.2,278.3,196.1,285,196.1,293.5z"/>
		<polygon class="st0" points="132.7,335.3 132.7,338.9 104.9,338.9 68.5,338.9 68.5,335.3 104.9,335.3 		"/>
		<polygon class="st0" points="132.7,328.8 132.7,332.4 104.9,332.4 68.5,332.4 68.5,328.8 104.9,328.8 		"/>
		<polygon class="st0" points="132.7,322 132.7,325.6 104.9,325.6 68.5,325.6 68.5,322 104.9,322 		"/>
		<polygon class="st0" points="132.7,315.5 132.7,319.1 104.9,319.1 68.5,319.1 68.5,315.5 104.9,315.5 		"/>
		<polygon class="st0" points="132.7,308.8 132.7,312.4 104.9,312.4 68.5,312.4 68.5,276 100.4,276 100.4,308.8 104.9,308.8 		"/>
		<rect x="55" y="302.9" class="st0" width="10.3" height="3.6"/>
		<polygon class="st0" points="65.4,296.3 65.4,299.8 55,299.8 38,299.8 0.3,299.8 0.3,296.3 38,296.3 55,296.3 		"/>
		<polygon class="st0" points="65.4,289.5 65.4,293.1 55,293.1 38,293.1 0.3,293.1 0.3,289.5 38,289.5 55,289.5 		"/>
		<polygon class="st0" points="65.4,282.7 65.4,286.3 55,286.3 38,286.3 0.3,286.3 0.3,282.7 38,282.7 55,282.7 		"/>
		<polygon class="st0" points="65.4,276 65.4,279.6 55,279.6 38,279.6 0.3,279.6 0.3,276 38,276 55,276 		"/>
		<path class="st0" d="M63.9,99.9c1.1-0.2,1.9-0.4,1.9-0.4s-1.8,0.6-4.3,1.6c-1.9,0.8-4.3,1.8-6.4,2.9c-0.5,0.4-0.9,0.9-1.4,1.3
			c-5.4,3.6-7.6,7.2-14.8,16.2c-0.4,0.4-0.4,0.9-0.9,0.9c-7.2,8.5-13.5,9-18.9,10.8c-3.1,1.2-7.2,1-8.6,1.2
			c2.1-0.7,11.5-4.2,17.1-9.7c4-3.6,7.2-7.6,10.3-10.8c1.8-2.2,3.6-4,5.4-5.8c4.1-3.6,8.5-5.8,11.7-6.7c1.3-0.5,2.2-0.5,2.7-0.5
			c0.6-0.1,1.2-0.2,1.9-0.3C61.2,100.4,62.8,100.1,63.9,99.9z"/>
		<polygon class="st0" points="55,302.9 55,306.5 49.2,306.5 49.2,338.9 38,338.9 16,338.9 16,306.5 0.3,306.5 0.3,302.9 38,302.9 
					"/>
	</g>
	<g>
	</g>
</g>
</svg>
