<svg xmlns="http://www.w3.org/2000/svg" xmlns:xlink="http://www.w3.org/1999/xlink" viewBox="0 0 125.53 123.26"><defs><style>.cls-1,.cls-2{fill:none;}.cls-2{clip-path:url(#clip-path);clip-rule:evenodd;}.cls-3{fill:#60bc8a;}.cls-4{clip-path:url(#clip-path-31);}.cls-5{fill:#fff;}.cls-6{clip-path:url(#clip-path-32);}.cls-7{clip-path:url(#clip-path-33);}.cls-8{clip-path:url(#clip-path-34);}.cls-9{clip-path:url(#clip-path-35);}.cls-10{clip-path:url(#clip-path-36);}.cls-11{clip-path:url(#clip-path-37);}.cls-12{clip-path:url(#clip-path-38);}.cls-13{clip-path:url(#clip-path-39);}.cls-14{clip-path:url(#clip-path-40);}.cls-15{clip-path:url(#clip-path-41);}.cls-16{clip-path:url(#clip-path-42);}.cls-17{clip-path:url(#clip-path-43);}.cls-18{clip-path:url(#clip-path-44);}.cls-19{clip-path:url(#clip-path-45);}.cls-20{clip-path:url(#clip-path-46);}.cls-21{clip-path:url(#clip-path-47);}.cls-22{clip-path:url(#clip-path-48);}.cls-23{clip-path:url(#clip-path-49);}.cls-24{clip-path:url(#clip-path-50);}.cls-25{clip-path:url(#clip-path-51);}.cls-26{clip-path:url(#clip-path-52);}.cls-27{clip-path:url(#clip-path-53);}.cls-28{clip-path:url(#clip-path-54);}.cls-29{clip-path:url(#clip-path-55);}.cls-30{clip-path:url(#clip-path-56);}.cls-31{clip-path:url(#clip-path-57);}.cls-32{clip-path:url(#clip-path-58);}.cls-33{clip-path:url(#clip-path-59);}.cls-34{clip-path:url(#clip-path-60);}</style><clipPath id="clip-path"><rect class="cls-1" width="127.13" height="126.17"/></clipPath><clipPath id="clip-path-31" transform="translate(-0.8 -1.45)"><path class="cls-2" d="M25.09,98.38,24.65,98a.64.64,0,0,0-.19-.53.73.73,0,0,1-.78.29A1.69,1.69,0,0,1,22.9,97l-.15-.43V96l-.05,0v-.58l0,0v-1l.1-.24v-.63a4,4,0,0,1,.81-2,1.05,1.05,0,0,1,.68-.15,1.22,1.22,0,0,1,.73.48l.25.63-.24.2-.44-.34-.05-.28-.29,0-.48.53-.33,1.3v.48l-.09.43.05.2,0,.2,0,0v.86l.24,1,.25,0a1.7,1.7,0,0,0,.77-.88l.19-1.44-.25-.09-.19.05L24,94.35v-.19l.09-.1h.53l.63-.1.39.29.05.14a3,3,0,0,0-.28,1.06V96l-.1.43v.48l0,0v.48a1.39,1.39,0,0,1,.15.81l-.3.1Z"/></clipPath><clipPath id="clip-path-32" transform="translate(-0.8 -1.45)"><path class="cls-2" d="M29.22,97.14a1.94,1.94,0,0,0,.85-1l0-.15v-.6l-.45-1.08H29.3l-.49.5a9,9,0,0,0-.45.94v.59l0,.34.21.55.25.1.44-.2Zm-.39.8a1.52,1.52,0,0,1-.8-.35L27.68,97V95.81a4.38,4.38,0,0,1,1-2,1.59,1.59,0,0,1,.79-.2l.51.29a4.42,4.42,0,0,1,.81,2,2.52,2.52,0,0,1-.94,1.59,1.86,1.86,0,0,1-1,.46Z"/></clipPath><clipPath id="clip-path-33" transform="translate(-0.8 -1.45)"><path class="cls-2" d="M34.29,97.11a1.94,1.94,0,0,0,.85-1l0-.15v-.6l-.45-1.08h-.36l-.49.5a9,9,0,0,0-.45.94v.59l0,.34.21.55.25.1.44-.2Zm-.39.8a1.52,1.52,0,0,1-.8-.35L32.75,97V95.78a4.38,4.38,0,0,1,1-2,1.59,1.59,0,0,1,.79-.2l.51.29a4.42,4.42,0,0,1,.81,2,2.52,2.52,0,0,1-.94,1.59,1.86,1.86,0,0,1-1,.46Z"/></clipPath><clipPath id="clip-path-34" transform="translate(-0.8 -1.45)"><path class="cls-2" d="M39.54,96.89l.26-.2v-.5l0,0v-.89L39.23,95l-.64.46a2.47,2.47,0,0,0-.4,1.19l.25.49.36.14.74-.35Zm-1,.95-.61-.4a1.84,1.84,0,0,1-.5-1.28,2.47,2.47,0,0,1,.93-1.58,1.27,1.27,0,0,1,.7-.2l.7.19,0-.15v-.5l.05,0v-.69a8.18,8.18,0,0,1,.68-2.58l.4-.05.25.19v.4a5.79,5.79,0,0,0-.64,2.33v.64l-.1.26v.73l-.05,0v1l.15.55v.49l-.2.24h-.15l-.3-.14-.8.51Z"/></clipPath><clipPath id="clip-path-35" transform="translate(-0.8 -1.45)"><path class="cls-2" d="M44.28,97.8l-.3-.34V95.39l0,0V94.15l.15-.2h.3l.25.14.1.34-.1.26v.59l0,.15.05.2,0,0v.93l0,.5,0,0v.54a.41.41,0,0,1-.39.1m.31-5a.75.75,0,0,1-.55-.34l-.2-.6.35-.15.4.24.1.4.15,0,.05.15a.27.27,0,0,1-.29.25"/></clipPath><clipPath id="clip-path-36" transform="translate(-0.8 -1.45)"><path class="cls-2" d="M49.68,96.82l.26-.2v-.5l0,0v-.89l-.51-.29-.64.46a2.47,2.47,0,0,0-.4,1.19l.25.49.36.14.74-.35Zm-1,.95-.61-.4a1.84,1.84,0,0,1-.5-1.28,2.47,2.47,0,0,1,.93-1.58,1.27,1.27,0,0,1,.7-.2l.7.19,0-.15v-.5l.05,0v-.69a8.19,8.19,0,0,1,.68-2.58l.4-.05.25.19v.4a5.79,5.79,0,0,0-.64,2.33V94l-.1.26V95l-.05,0v1l.15.55v.49l-.2.24h-.15l-.3-.14-.8.51Z"/></clipPath><clipPath id="clip-path-37" transform="translate(-0.8 -1.45)"><path class="cls-2" d="M54.13,95.23l.58-.4v-.15l-.64-.52a1.48,1.48,0,0,0-.44.58l-.15.64.25,0,.39-.2Zm-.23,2.58a1,1,0,0,1-.7-.43,2.05,2.05,0,0,1-.39-1.22v-1a2,2,0,0,1,.62-1.42,1,1,0,0,1,.69-.15,4,4,0,0,1,1.33,1.21v.34a4.74,4.74,0,0,1-1.87,1l0,0v.49l.2.44.3,0q1.08-.45,2.11-.94a.55.55,0,0,1,.09.44,4.45,4.45,0,0,1-2.35,1.13Z"/></clipPath><clipPath id="clip-path-38" transform="translate(-0.8 -1.45)"><path class="cls-2" d="M58.79,96.87a4.51,4.51,0,0,0,1.12-2v-.64l-.1-.24-.34,0a2.24,2.24,0,0,0-.79,1l-.24.78v.78l.15.29.15,0,0,0Zm-.24.78-.5-.38a1.85,1.85,0,0,1-.29-1V95.7a3.32,3.32,0,0,1,1-2.14L59,93.4h.5a1.72,1.72,0,0,1,.88.48A3.58,3.58,0,0,1,60.65,95v.87l.35.73.15,0,.19.44-.24.2a.88.88,0,0,1-.65-.44l-.25-.44-.15,0a3.59,3.59,0,0,1-1.12,1.32Z"/></clipPath><clipPath id="clip-path-39" transform="translate(-0.8 -1.45)"><path class="cls-2" d="M64.4,97.66A1.92,1.92,0,0,1,63.35,97l-.2-.34.1-.25.35-.05a1.73,1.73,0,0,0,.71.74h.3a1.57,1.57,0,0,0,.74-.55v-.15a7.62,7.62,0,0,1-1.7-1.85L63.58,94a1.19,1.19,0,0,1,.75-.64l.94-.15a1.31,1.31,0,0,1,.89.44l.05.34-.35.1-.1-.19-.54-.1-.79.35-.1.34.4.65.89.73a1.54,1.54,0,0,1,.4.88l-.34.5a1.68,1.68,0,0,1-1.28.45"/></clipPath><clipPath id="clip-path-40" transform="translate(-0.8 -1.45)"><path class="cls-2" d="M68.23,94.28l-.29-.54q1.56-.18,3.14-.3l.32.27V94l-.28.27-.15,0-.24-.13-.49,0q-1,.13-2,.18"/></clipPath><clipPath id="clip-path-41" transform="translate(-0.8 -1.45)"><path class="cls-2" d="M74.07,97.66a1,1,0,0,0-.69-.24l-.26-.69.36-.1.2.15.25.2h.6l1-.6a.74.74,0,0,0,.14-.59,10.89,10.89,0,0,1-2.07-2.52l-.15-.94a1.55,1.55,0,0,1,.59-1,2.17,2.17,0,0,1,.9-.41h.9a1.53,1.53,0,0,1,.66.4l.05.29-.31.15-.35-.19h-.6l-.89.55-.21.31v.49L74.75,94a7.58,7.58,0,0,1,1.56,1.72l.05.64a1.56,1.56,0,0,1-.54.75,2.57,2.57,0,0,1-1.6.55l0,0-.1,0Z"/></clipPath><clipPath id="clip-path-42" transform="translate(-0.8 -1.45)"><path class="cls-2" d="M79.9,97.69l-.15,0-.2-.44,0-2.85h-.44l-.75.25-.5-.44V94L78,93.8h.5l0,0h.8l.25-.15,0,0V92.27l0,0V90.45l-.05-.15a.35.35,0,0,1,.39-.2l.4.24.05.39-.1.39v1.33l0,.15,0,0v.83l.35.1.7-.15.4.19.1.35-.39.2h-1l-.15.2v.79l0,.15.05,0v.49l0,.3,0,0v.55l.15.93Z"/></clipPath><clipPath id="clip-path-43" transform="translate(-0.8 -1.45)"><path class="cls-2" d="M86.35,97.95a3.28,3.28,0,0,1-.81-1.64l-.15,0-.89.91-.41.05a1.32,1.32,0,0,1-.61-.59l-.15-.6v-1.2l0,0v-.6l.46-.1c.26.1.36.33.3.7L84,95v.55l0,.35.15.49h.2a2.9,2.9,0,0,0,1-1.24v-.79l-.05-.3a.63.63,0,0,1,.49-.1l.31.4v1.09a6.93,6.93,0,0,0,.72,2.33l-.4.21Z"/></clipPath><clipPath id="clip-path-44" transform="translate(-0.8 -1.45)"><path class="cls-2" d="M90.23,96.57l.26-.2v-.5l0,0v-.89l-.51-.29-.64.46a2.46,2.46,0,0,0-.4,1.19l.25.49.36.14.74-.35Zm-1,.95-.61-.4a1.84,1.84,0,0,1-.5-1.28,2.47,2.47,0,0,1,.93-1.58,1.27,1.27,0,0,1,.7-.2l.7.19,0-.15v-.5l.05,0v-.69a8.18,8.18,0,0,1,.68-2.58l.4-.05.25.19v.4a5.81,5.81,0,0,0-.64,2.33v.64l-.1.26v.73l-.05,0v1l.15.55v.49l-.2.24h-.15l-.3-.14-.8.51Z"/></clipPath><clipPath id="clip-path-45" transform="translate(-0.8 -1.45)"><path class="cls-2" d="M95,97.48l-.3-.34V95.07l0,0V93.84l.15-.2h.3l.25.14.1.34-.1.26V95l0,.15.05.2,0,0v.93l0,.5,0,0v.54a.41.41,0,0,1-.39.1m.31-5a.75.75,0,0,1-.55-.34l-.2-.6.35-.15.4.24.1.4.15,0,.05.15a.27.27,0,0,1-.3.25"/></clipPath><clipPath id="clip-path-46" transform="translate(-0.8 -1.45)"><path class="cls-2" d="M100.19,96.7a1.93,1.93,0,0,0,.85-1l0-.15V95l-.45-1.08h-.36l-.49.5a9,9,0,0,0-.45.94v.59l0,.34.21.55.25.1.44-.2Zm-.39.8a1.51,1.51,0,0,1-.8-.35l-.35-.59V95.37a4.38,4.38,0,0,1,1-2,1.59,1.59,0,0,1,.79-.2l.51.29a4.42,4.42,0,0,1,.81,2,2.52,2.52,0,0,1-.94,1.59,1.86,1.86,0,0,1-1,.46Z"/></clipPath><clipPath id="clip-path-47" transform="translate(-0.8 -1.45)"><path class="cls-2" d="M25.25,83.83V83.3L25.92,81l-.6-.21-1.06.38a3.21,3.21,0,0,0-.34,1.89l.17.44,1.16.27Zm5.1,3.8a2,2,0,0,1-1.22-.7l-.08-.26,0,0h1.49a5.7,5.7,0,0,0,1.66-1.88l.32-1.3-.88-.29-1.23.32h-1l-.7-.6v-.07l.35-.22h1.82l1.47-.39v-.59a3.19,3.19,0,0,0-2-1.79l-3,1.23a11.72,11.72,0,0,0-1.09,3.27l1.28.73.07.31a.68.68,0,0,1-.65.15l-1-.21-.82,1.09h-.36l-.38-.24-.07-.2.29-1.43-1.87-1.22-.29-1,.36-.87-1.1-.62-.05-.25a10,10,0,0,1,1.64-.47q.54-1.43.91-2.5H25l.27.19v.54a2.66,2.66,0,0,0-.5,1.79H26l.29-.23h1.19l.4.1L30,79.59l.56-.61h.21l1-2a3.89,3.89,0,0,1-2.28-1l-.05-.25.07-.08h1.16a20.37,20.37,0,0,1,2.51,1l.12.51A8.32,8.32,0,0,0,32,79.86l1.12.86.64,1.37h1.86L35.7,82h2l.53.21v.07a2.78,2.78,0,0,1-1.74.52H35.44l-.1.12h-1l-.63.61a6,6,0,0,1-1.8,3.59l-1.56.5Z"/></clipPath><clipPath id="clip-path-48" transform="translate(-0.8 -1.45)"><path class="cls-2" d="M53.15,85l-.64-.78-.28-2h.36l.77.64.38,1.85-.59.3ZM50.23,85l-.65-.55-.28-1.94.43-.13.62.34L50.84,84v.9a.67.67,0,0,1-.61.15Zm1.72-9.13.24-1-.75-.46H50.3l-.85-.08-.59.46v.56a7.66,7.66,0,0,0,2.92.72l.16-.18Zm.11,1.82.16-.56a13.13,13.13,0,0,0-3.44-.64l-.14.85q1.66.32,3.25.51l.16-.16Zm-.09,2,.26-.71a3.78,3.78,0,0,0-2-.58H48.6l-.13,1.18a1,1,0,0,0,1,.37l.08-.08h2.24l.16-.18Zm-3.42,1.2-1-.45-.19-.74.08-.07v-2l.12-.1V76.3l.29-1.91-.19-1,.74-.07.9.19h1.33a7.72,7.72,0,0,1,2.72.64l.05.36-.07.08v1.13l-.11.69.12.1v2l-.1.51.19,1.35-.21.3-2.52,0-.1.1h-1l-.08.1Zm1.12,7.17a4.11,4.11,0,0,1-2.33-1.41,5.79,5.79,0,0,1-1.18-2.88V82.5l.35-.07.58.42a6.22,6.22,0,0,0,1.48,3.8l1,.32.81-.51.18,0,.27.87-.53.61-.65.1Zm-6.31-.78-.6-.7V85.9L43.55,83l-.93-.73V81l.12-.08,0-2.46-.6-.14L40.7,79.59h-.3l-.73-.72v-.16l2.71-2.1.48-.94-.57-.31L40,76.1a1,1,0,0,1-.57-.88,12.76,12.76,0,0,1,3.26-.76l.16-.2V73.21l-.19-.66a.92.92,0,0,1,.68-.12l.52.42V74.2l.76.36.28-.1L46,75l.05.31-1,.29-.75-.23a1.15,1.15,0,0,0-.39,1.3l.1.36a17.15,17.15,0,0,1,2.84,1.26l.07.46v0h-.9a3.57,3.57,0,0,0-2.09-.81l-.11.94,0,3.89.73.31.09.89A13.33,13.33,0,0,0,44,86.26v.9l-.61.15Z"/></clipPath><clipPath id="clip-path-49" transform="translate(-0.8 -1.45)"><path class="cls-2" d="M63.49,86.5a2.46,2.46,0,0,0-1.83-.43l-.66.28H59.14l-.65-.54v-.25l.22-.22h2.12l1.77-.44.28-.81,0-3L63,81V79.63l-.15-.85H61.22l-1,.1a1.23,1.23,0,0,1-.82-.8l.36-.23H62l.78-.23h1.09l1.62-.36h2.11l.27.13v.56a1.64,1.64,0,0,1-1.11.37l-.48-.11-1.9.26-.18.84.13.15,0,2.76-.11.38.09.39-.08.12v1.4l.35.37h1.28l2.5-.38a.58.58,0,0,1,.48.51v.48a1.27,1.27,0,0,1-.93.32l-2.55,0a4.15,4.15,0,0,0-1.85.72"/></clipPath><clipPath id="clip-path-50" transform="translate(-0.8 -1.45)"><path class="cls-2" d="M83.49,87.49l-.65-.69,0-4.27.08-.1V80.05L83,80V78l-.17-.48h-.56l-1,.51L80.56,81l-.48.12-.77-.49V80.5A9.16,9.16,0,0,0,80,76.87l-.36-1.69a.84.84,0,0,1,.94-.2l.52.44.22,1.3.66.16,1-.27,2.87,0,1.84-.21,1,.4.07.41-.08.07H86.92l-.43.18-.07-.06H84.7l-.48.46v1.72a1.26,1.26,0,0,0,1.23.45l.12-.12,2.85,0q.5.16.57.52l-.31.38-3.85,0-.59.45L84.14,83a1.5,1.5,0,0,0,1.28.32l3-.48.3.26.07.34-.39.41h-1l-3,.46-.23.23V86.1l.12.1v1a.83.83,0,0,1-.79.27ZM77,87l-.55-.57-.21-1,0-5.29-.66-.21-2,3.39-.51.07-.62-.44v-.48q2.5-3.69,5.19-7.16h.18l.75.26.07.48-1,1.07V78.2l-.32,1.35v2.28l.1.1,0,3.35.44,1.2-.15.38L77,87Z"/></clipPath><clipPath id="clip-path-51" transform="translate(-0.8 -1.45)"><path class="cls-2" d="M94.08,87.34l-.62-.51v-.39l.2-.2h2.19l.28-.1.4.09.7-.2.34-.59V84.35L97,84l-1.62.31-.8-.62v-.15l.4-.25h1.69l.74-.23v-.72L97,81.57a2.88,2.88,0,0,1-1.7-.69l-.05-.41L97,78.52h-.93l-1.36.3-.9-.32-.62,1.15-.55.07-.53-.7v-.92l.6-1.89V75.15a.6.6,0,0,1,.76-.23,1.68,1.68,0,0,0,1.35.62l.1-.1H96.1l.48-.25.11-.41-.49-1.85a.67.67,0,0,1,.79-.2l.65.62.09.54-.1.39.24.72.66.11.08-.1h1.47l2.07-.41.8.34.09.9-.45,2.29-.78.19-.4-.24-.1-.59a2.13,2.13,0,0,0,.29-1.53l-.86-.24-.13.12H99.45l-5.5.86-.26,1.1.68.14,5.58-.82.5.33v.28a5.79,5.79,0,0,0-2,.85l-.64.86h-.25l-.37,1.14,1,.11,1.59-.54.18-.38-.22-.56a.9.9,0,0,1,.68-.14l1.25,1.21v.33l-.19.8-.83.15-.3-.26h-1.1l-.81.32-.08,1.1.72.36.81-.3.9.42.07.46-.3.23H99.07A1.52,1.52,0,0,0,98.6,85l.3.85.18.18,2.72,0,.1-.1h1.61l.62.39v.46a3.22,3.22,0,0,1-1.92.34l-.3-.2h-1.48l-.28.1-.27-.1-.55.1-.43-.11-.12.12H97l-1.72.31Z"/></clipPath><clipPath id="clip-path-52" transform="translate(-0.8 -1.45)"><path class="cls-2" d="M42.72,60l-.07-11.27a.78.78,0,0,1,.36-.66l12.94-7.5a11.06,11.06,0,0,1-1.45-5.75,7.75,7.75,0,0,1,2.27-5.47,9.65,9.65,0,0,1,7-2.66c6.68,0,8.77,4.86,9,7.72a10.54,10.54,0,0,1-1.29,5.85l12.39,7a.78.78,0,0,1,.4.68l.08,12.21a.78.78,0,0,1-1.57,0L82.7,48.42,70,41.21a.79.79,0,0,1-.38-.53.78.78,0,0,1,.15-.63,8.66,8.66,0,0,0,1.48-5.53,7.25,7.25,0,0,0-1.52-3.82,7,7,0,0,0-5.8-2.44,8.3,8.3,0,0,0-6,2.2,6.17,6.17,0,0,0-1.82,4.35,9.31,9.31,0,0,0,1.59,5.48.78.78,0,0,1-.18,1.16L44.22,49.15,44.29,60a.78.78,0,0,1-1.57,0Z"/></clipPath><clipPath id="clip-path-53" transform="translate(-0.8 -1.45)"><path class="cls-2" d="M63.9,61.2,43.07,49.8a.78.78,0,1,1,.73-1.39l20,11L83.07,47.3a.78.78,0,1,1,.83,1.33L63.9,61.2Z"/></clipPath><clipPath id="clip-path-54" transform="translate(-0.8 -1.45)"><path class="cls-2" d="M63.1,71.36,63,60.4a.79.79,0,0,1,1.57,0l.07,11a.78.78,0,0,1-1.57,0Z"/></clipPath><clipPath id="clip-path-55" transform="translate(-0.8 -1.45)"><path class="cls-2" d="M63.82,48.77A.78.78,0,0,1,63,48L63,36.09a.78.78,0,0,1,1.57,0L64.6,48a.78.78,0,0,1-.78.79"/></clipPath><clipPath id="clip-path-56" transform="translate(-0.8 -1.45)"><path class="cls-2" d="M66,49h-.09a.79.79,0,0,1-.7-.86c0-.16.45-4.08,2.93-6.35a.78.78,0,1,1,1.06,1.15c-2,1.87-2.43,5.33-2.43,5.37A.78.78,0,0,1,66,49"/></clipPath><clipPath id="clip-path-57" transform="translate(-0.8 -1.45)"><path class="cls-2" d="M61.47,48.94a.78.78,0,0,1-.77-.64,10.77,10.77,0,0,0-2.63-5.09.78.78,0,0,1,1.07-1.14A12.19,12.19,0,0,1,62.24,48a.78.78,0,0,1-.63.91h-.14"/></clipPath><clipPath id="clip-path-58" transform="translate(-0.8 -1.45)"><path class="cls-2" d="M63.73,49.84c-2.29,0-4,.81-4,1.51s1.72,1.48,4,1.46,4-.81,4-1.51-1.72-1.48-4-1.46m0,3.76c-2.73,0-4.79-.95-4.8-2.24s2-2.28,4.77-2.3,4.79.95,4.8,2.24-2,2.28-4.77,2.3"/></clipPath><clipPath id="clip-path-59" transform="translate(-0.8 -1.45)"><path class="cls-2" d="M63.74,51.71c-2.19,0-3.53.77-3.52,1.31s1.35,1.28,3.54,1.26,3.52-.77,3.52-1.31-1.35-1.28-3.54-1.26m0,3.35c-2.09,0-4.32-.7-4.33-2s2.21-2.08,4.3-2.1,4.32.7,4.33,2-2.21,2.08-4.3,2.1"/></clipPath><clipPath id="clip-path-60" transform="translate(-0.8 -1.45)"><path class="cls-2" d="M63.75,53.58c-1.87,0-3.06.66-3.05,1.1s1.2,1.08,3.07,1.07,3.06-.66,3.05-1.1-1.2-1.08-3.07-1.07m0,3c-2.19,0-3.85-.78-3.85-1.84s1.64-1.88,3.83-1.89,3.85.78,3.86,1.84S66,56.52,63.77,56.53"/></clipPath></defs><title>資產 1</title><g id="圖層_2" data-name="圖層 2"><g id="圖層_1-2" data-name="圖層 1"><rect class="cls-3" width="125.53" height="123.26"/><g class="cls-4"><rect class="cls-5" x="20.65" y="88.76" width="5.41" height="9.37"/></g><g class="cls-6"><rect class="cls-5" x="25.67" y="90.97" width="5.55" height="6.71"/></g><g class="cls-7"><rect class="cls-5" x="30.74" y="90.94" width="5.55" height="6.71"/></g><g class="cls-8"><rect class="cls-5" x="35.45" y="87.89" width="6.16" height="9.69"/></g><g class="cls-9"><rect class="cls-5" x="41.85" y="89.04" width="3.44" height="8.52"/></g><g class="cls-10"><rect class="cls-5" x="45.59" y="87.83" width="6.16" height="9.69"/></g><g class="cls-11"><rect class="cls-5" x="50.81" y="90.91" width="5.86" height="6.64"/></g><g class="cls-12"><rect class="cls-5" x="55.76" y="90.75" width="5.99" height="6.64"/></g><g class="cls-13"><rect class="cls-5" x="61.15" y="90.53" width="5.46" height="6.89"/></g><g class="cls-14"><rect class="cls-5" x="65.95" y="90.78" width="5.87" height="3.25"/></g><g class="cls-15"><rect class="cls-5" x="71.11" y="88.27" width="5.82" height="9.14"/></g><g class="cls-16"><rect class="cls-5" x="75.84" y="87.45" width="6.38" height="9.99"/></g><g class="cls-17"><rect class="cls-5" x="81.32" y="91.26" width="5.83" height="6.44"/></g><g class="cls-18"><rect class="cls-5" x="86.14" y="87.57" width="6.16" height="9.69"/></g><g class="cls-19"><rect class="cls-5" x="92.54" y="88.72" width="3.44" height="8.52"/></g><g class="cls-20"><rect class="cls-5" x="96.64" y="90.53" width="5.55" height="6.71"/></g><g class="cls-21"><rect class="cls-5" x="19.7" y="73" width="18.97" height="14.37"/></g><g class="cls-22"><rect class="cls-5" x="37.46" y="69.76" width="16.68" height="18.08"/></g><g class="cls-23"><rect class="cls-5" x="56.49" y="74.59" width="12.73" height="11.65"/></g><g class="cls-24"><rect class="cls-5" x="70.44" y="72.26" width="18.97" height="14.99"/></g><g class="cls-25"><rect class="cls-5" x="90.11" y="70" width="14.42" height="17.08"/></g><g class="cls-26"><rect class="cls-5" x="40.65" y="24.04" width="44.09" height="36.67"/></g><g class="cls-27"><rect class="cls-5" x="40.65" y="44.53" width="44.02" height="16.42"/></g><g class="cls-28"><rect class="cls-5" x="61.03" y="56.96" width="4.04" height="14.93"/></g><g class="cls-29"><rect class="cls-5" x="60.96" y="32.65" width="4.04" height="15.86"/></g><g class="cls-30"><rect class="cls-5" x="63.24" y="38.94" width="6.65" height="9.83"/></g><g class="cls-31"><rect class="cls-5" x="55.83" y="39.21" width="6.83" height="9.48"/></g><g class="cls-32"><rect class="cls-5" x="56.95" y="46.4" width="11.97" height="6.94"/></g><g class="cls-33"><rect class="cls-5" x="57.44" y="48.27" width="11.03" height="6.54"/></g><g class="cls-34"><rect class="cls-5" x="57.92" y="50.14" width="10.09" height="6.14"/></g></g></g></svg>