<?xml version="1.0" encoding="utf-8"?>
<!-- Generator: Adobe Illustrator 17.1.0, SVG Export Plug-In . SVG Version: 6.00 Build 0)  -->
<!DOCTYPE svg PUBLIC "-//W3C//DTD SVG 1.1//EN" "http://www.w3.org/Graphics/SVG/1.1/DTD/svg11.dtd">
<svg version="1.1" id="Layer_1" xmlns="http://www.w3.org/2000/svg" xmlns:xlink="http://www.w3.org/1999/xlink" x="0px" y="0px"
	 viewBox="0 0 354.3 127.1" enable-background="new 0 0 354.3 127.1" xml:space="preserve">
<g>
	<g>
		<path fill="#8DC63F" d="M146.2,27.9l5.2,19.8h-4.2l-0.9-4.2h-5.3l-0.9,4.2H136l5.2-19.8C141.2,27.9,146.2,27.9,146.2,27.9z
			 M145.6,40.2l-1.9-8.9h-0.1l-1.9,8.9H145.6z"/>
		<path fill="#8DC63F" d="M159.8,27.9c1,0,1.9,0.2,2.6,0.5c0.7,0.3,1.3,0.8,1.7,1.3c0.4,0.6,0.7,1.2,0.9,1.9
			c0.2,0.7,0.3,1.4,0.3,2.2c0,1-0.2,1.9-0.5,2.7s-0.7,1.4-1.3,1.9c-0.5,0.5-1.2,0.8-2,1.1c-0.8,0.2-1.6,0.4-2.6,0.4h-2.1v7.9h-4
			V27.9H159.8z M158.6,36.8c0.8,0,1.4-0.2,1.9-0.7c0.5-0.5,0.7-1.2,0.7-2.2c0-1-0.2-1.8-0.6-2.3c-0.4-0.5-1.1-0.8-2.1-0.8h-1.7v6
			H158.6z"/>
		<path fill="#8DC63F" d="M175,27.9l5.2,19.8H176l-0.9-4.2h-5.3l-0.9,4.2h-4.2l5.2-19.8C170,27.9,175,27.9,175,27.9z M174.4,40.2
			l-1.9-8.9h-0.1l-1.9,8.9H174.4z"/>
		<path fill="#8DC63F" d="M189.5,31.4c-0.3-0.7-1-1-1.9-1c-0.5,0-0.9,0.1-1.2,0.4c-0.3,0.3-0.6,0.7-0.8,1.3
			c-0.2,0.6-0.3,1.4-0.4,2.4c-0.1,1-0.1,2.2-0.1,3.6c0,1.5,0.1,2.7,0.2,3.6c0.1,0.9,0.3,1.6,0.5,2.1c0.2,0.5,0.5,0.9,0.8,1
			c0.3,0.2,0.7,0.3,1.1,0.3c0.4,0,0.7-0.1,1-0.2c0.3-0.1,0.6-0.4,0.8-0.7c0.2-0.4,0.4-0.9,0.5-1.5c0.1-0.7,0.2-1.5,0.2-2.6h4
			c0,1.1-0.1,2.1-0.2,3.1c-0.2,1-0.5,1.8-0.9,2.5c-0.5,0.7-1.1,1.3-1.9,1.7c-0.8,0.4-1.9,0.6-3.2,0.6c-1.5,0-2.7-0.2-3.6-0.7
			c-0.9-0.5-1.6-1.2-2-2.1c-0.5-0.9-0.8-2-0.9-3.2c-0.1-1.3-0.2-2.6-0.2-4.2c0-1.5,0.1-2.9,0.2-4.1c0.1-1.3,0.4-2.4,0.9-3.3
			c0.5-0.9,1.2-1.6,2-2.1c0.9-0.5,2.1-0.8,3.6-0.8c1.4,0,2.5,0.2,3.4,0.7s1.4,1,1.8,1.8c0.4,0.7,0.7,1.5,0.8,2.3
			c0.1,0.8,0.2,1.6,0.2,2.3h-4C190.1,33.1,189.9,32.1,189.5,31.4z"/>
		<path fill="#8DC63F" d="M202.3,47.7c0-0.9,0.1-1.7,0.3-2.4s0.4-1.5,0.8-2.2c0.4-0.7,0.8-1.4,1.4-2c0.5-0.7,1.2-1.3,1.9-2l1.6-1.5
			c0.4-0.4,0.8-0.7,1.1-1.1c0.3-0.3,0.5-0.7,0.6-1c0.1-0.3,0.2-0.7,0.3-1.1c0-0.4,0.1-0.8,0.1-1.3c0-1.6-0.6-2.4-1.9-2.4
			c-0.5,0-0.9,0.1-1.2,0.3c-0.3,0.2-0.5,0.5-0.7,0.8s-0.3,0.8-0.3,1.2c0,0.5-0.1,1-0.1,1.5h-3.8v-0.7c0-1.8,0.5-3.2,1.5-4.2
			c1-1,2.5-1.5,4.6-1.5c2,0,3.5,0.5,4.4,1.4c1,0.9,1.4,2.2,1.4,4c0,0.6-0.1,1.2-0.2,1.8c-0.1,0.5-0.3,1.1-0.5,1.6
			c-0.2,0.5-0.6,1-0.9,1.5s-0.9,1-1.4,1.5l-2.2,2.1c-0.6,0.5-1.1,1.1-1.4,1.6c-0.3,0.5-0.5,0.9-0.6,1.3h7.4v3.1H202.3z"/>
		<path fill="#8DC63F" d="M215.7,34.6c0.1-1.3,0.3-2.4,0.7-3.3c0.4-1,1-1.7,1.8-2.3s2-0.9,3.4-0.9c1.2,0,2.2,0.2,3,0.5
			c0.8,0.3,1.4,0.9,1.9,1.6c0.5,0.8,0.8,1.7,1,3c0.2,1.2,0.3,2.7,0.3,4.4c0,1.4,0,2.7-0.1,3.9s-0.3,2.4-0.7,3.3
			c-0.4,1-1,1.7-1.8,2.3c-0.8,0.6-2,0.8-3.4,0.8c-1.2,0-2.2-0.2-3-0.5c-0.8-0.3-1.4-0.8-1.9-1.6c-0.5-0.8-0.8-1.7-1-3
			c-0.2-1.2-0.3-2.7-0.3-4.4C215.6,37.2,215.6,35.8,215.7,34.6z M219.7,42.4c0.1,0.8,0.2,1.4,0.3,1.9c0.2,0.5,0.4,0.8,0.7,0.9
			s0.6,0.2,1.1,0.2c0.4,0,0.8-0.1,1.1-0.3c0.3-0.2,0.5-0.6,0.7-1.1c0.2-0.5,0.3-1.2,0.3-2c0.1-0.8,0.1-1.9,0.1-3.2v-2.1
			c0-1.2,0-2.3-0.1-3c-0.1-0.8-0.2-1.4-0.3-1.9c-0.2-0.5-0.4-0.8-0.7-0.9s-0.6-0.2-1.1-0.2c-0.4,0-0.8,0.1-1.1,0.3
			c-0.3,0.2-0.5,0.6-0.7,1.1c-0.2,0.5-0.3,1.2-0.3,2c-0.1,0.9-0.1,1.9-0.1,3.2v2.1C219.6,40.6,219.6,41.6,219.7,42.4z"/>
		<path fill="#8DC63F" d="M233.4,33.8h-3.9v-2.6h0.4c1.3,0,2.4-0.2,3.1-0.7s1.3-1.3,1.5-2.4h2.9v19.6h-4L233.4,33.8L233.4,33.8z"/>
		<path fill="#8DC63F" d="M248.6,28h4.1v12.5h1.9v3.1h-1.9v4.1h-3.7v-4.1h-7v-3.3L248.6,28z M249,33l-3.8,7.5h3.9L249,33L249,33z"/>
	</g>
	<g>
		<path fill="#1C75BC" d="M24.6,56.3c3.6,0,6.6,0.6,9,1.8c2.4,1.2,4.4,2.8,5.9,4.7c1.5,2,2.6,4.2,3.2,6.7c0.7,2.5,1,5.1,1,7.7
			c0,3.6-0.5,6.7-1.6,9.4c-1.1,2.7-2.6,4.9-4.5,6.5c-1.9,1.7-4.2,3-7,3.8c-2.7,0.8-5.8,1.3-9.1,1.3h-7.5v27.8H0V56.3H24.6z
			 M20.3,87.9c2.8,0,5.1-0.8,6.8-2.5c1.7-1.7,2.6-4.3,2.6-7.9c0-3.5-0.7-6.2-2.2-8c-1.5-1.8-4-2.7-7.5-2.7h-5.9v21.2L20.3,87.9
			L20.3,87.9z"/>
		<path fill="#1C75BC" d="M71.1,83.3h0.2l9.8-27h15.2L78.3,98.6v27.5H64.2V98.6L46.1,56.3h15.8L71.1,83.3z"/>
		<path fill="#1C75BC" d="M129.5,68.8c-1.2-2.3-3.4-3.5-6.6-3.5c-1.8,0-3.2,0.5-4.3,1.4c-1.1,0.9-2,2.5-2.7,4.6
			c-0.7,2.1-1.1,4.9-1.4,8.3c-0.3,3.4-0.4,7.6-0.4,12.6c0,5.3,0.2,9.5,0.5,12.8c0.4,3.3,0.9,5.8,1.7,7.6c0.7,1.8,1.7,3,2.8,3.6
			c1.1,0.6,2.5,0.9,4,0.9c1.2,0,2.4-0.2,3.5-0.6c1.1-0.4,2-1.3,2.8-2.5c0.8-1.3,1.4-3.1,1.9-5.4c0.5-2.3,0.7-5.4,0.7-9.1H146
			c0,3.8-0.3,7.4-0.9,10.7c-0.6,3.4-1.7,6.4-3.3,8.9c-1.6,2.5-3.8,4.5-6.7,6c-2.9,1.4-6.7,2.1-11.3,2.1c-5.3,0-9.5-0.8-12.6-2.5
			c-3.1-1.7-5.5-4.1-7.2-7.3c-1.7-3.2-2.7-7-3.2-11.4c-0.5-4.4-0.7-9.3-0.7-14.7c0-5.3,0.2-10.1,0.7-14.6c0.5-4.5,1.6-8.3,3.2-11.5
			c1.7-3.2,4.1-5.7,7.2-7.5c3.1-1.8,7.3-2.7,12.6-2.7c5,0,9,0.8,11.9,2.4c2.9,1.6,5.1,3.7,6.5,6.2c1.4,2.5,2.3,5.2,2.7,8.1
			c0.4,2.9,0.5,5.6,0.5,8.2h-14.1C131.3,74.8,130.7,71.1,129.5,68.8z"/>
		<path fill="#1C75BC" d="M241.5,104.1h0.2V56.3h12.9v69.8h-16l-17.2-48.9h-0.2v48.9h-12.9V56.3h16.2L241.5,104.1z"/>
		<path fill="none" d="M171.8,118.4l0.3,0c0,0,0,0,0,0c-0.1,0-0.2-0.1-0.3-0.1C171.8,118.4,171.8,118.4,171.8,118.4z"/>
		<path fill="none" d="M172.6,117.9c0.4,0,0.7,0.4,1.2,0.5s0.1-0.1,0.1-0.6c0-0.5,0.3-0.6,0.5-0.8c0.2-0.2,0.5-0.7,0.4-1
			c-0.1-0.2-0.2-1-0.2-1s0.1-1,0.1-1.3c0-0.4,0.1-0.7,0.1-0.7s-0.4-0.6-0.1-1.3s1.5-3.4,1.5-3.4l0.5-0.6c0,0-0.3-0.5,0-0.7
			c0.3-0.2,2.1-1.1,2.3-1.5c0.2-0.3,0.2-0.4,0.4-0.7c0.2-0.2-0.3-0.4-0.1-0.7c0.2-0.3,0.3-0.1,0.7-0.4s0.6-0.9,0.7-1.2
			c0.1-0.3,1-1.3,1.2-2.3c0.2-0.3,0.6-0.4,0.6-0.4s-0.1-0.8,0-1.3c0.1-0.4,0.3-0.6,0.3-0.6s0,0,0.3-0.6c0.3-0.6,0.5-0.8,0.5-0.8
			s0.7-1.7,0.6-2.3c-0.1-0.7,0.2-1.3,0.4-1.6c0.2-0.3-0.2-0.4,0.1-1c0.3-0.6,0.1-0.5,0.3-1.1s0.2-0.4,0.4-1.4
			c0.3-0.8,0.6-2.5,0.6-2.5s0.4-0.1,0.2-0.6c-0.1-0.5-0.4-0.1-0.3-0.8s0.5-0.6,0.7-0.8c0.2-0.2-0.3-0.8,0.2-1.3
			c0.5-0.4,0.5-0.3,1-0.8s0.6-1,0.6-1s-0.1-0.8,0.2-1c0.2-0.2,0-0.4,0.3-0.7s-0.1-0.2,0.3-0.6s0.1-0.5,0.2-0.7s0.1-0.3,0.4-0.3
			c0.3,0-0.1-1.5-0.1-1.5s-0.4-0.9-0.4-1.4c0-0.5-0.3-0.3-0.2-1c0-0.6,0.1-1.6,1.5-2.8c0.7-0.6,1-0.3,1-0.3c0,0,0.1-0.9-0.1-0.6
			c-0.2,0.3-0.7-0.9-0.7-0.9v-0.4v-0.6l0,0c0,0-2.4,0.7-3.5-0.7c-0.3-0.4-0.4-0.4-0.4-0.4l-0.3-0.3l-0.2-0.2l-0.1-0.4l-0.9-0.4
			l-0.6,0.2l-0.4-0.1l-0.7,0.4l-0.4,0.4l-0.1,0.4l-0.7,1c0,0-2.1,0.7-2.4,0.6c-0.3-0.1-1,0.5-1.5,0.7c-0.5,0.2-1.5,0.6-1.5,0.6
			l-0.8,1.4l-1.3,1.9c0,0,0,0.7-0.1,1c-0.1,0.3-0.8,0.5-0.8,0.5s0.2,0.3,0,0.6c-0.2,0.3-1.1,0.2-1.1,0.2s-0.2,0.3-0.2,0.6
			s-0.6,0.4-0.6,0.4s-0.2,0.1-0.4,0.7c-0.4,1.1-1,1.9-1,1.9l-1,1.1l-0.4,1l-0.4,0.4c0,0,0,0.6-0.1,0.9s-0.5,0.6-0.5,0.6
			s-0.2,0.4-0.4,0.5c-0.2,0.1,0.1,0.2-0.4,1c-0.4,0.8-1.3,1.4-1.3,1.4s-0.2,1.3-0.5,1.6c-0.3,0.3-1.4,1.3-1.6,1.7
			c-0.2,0.3-0.8,1.2-0.8,1.4c0,0.2,0,0.8-0.2,1.2s-0.3,0.8-0.2,1.1c0.2,0.3-0.3,0.6-0.3,0.9c0,0.3,0.3,0,0.3,0.6
			c0.1,0.7-0.1,1.5-0.2,1.8c-0.1,0.3-0.4,1.8-0.7,2.1c-0.2,0.3-0.3,1.1-0.3,1.1s0.4-0.2,0.3,0.1s-0.5,0.5-0.5,0.5s-0.1,0.7,0,1
			c0.2,0.2,0.4-0.1,1,0.4c0.6,0.5,1,0.6,0.9,1c-0.1,0.4,0.2,1.2,0.2,1.2s0.3,0.2,0.3,0.4s-0.2,0.6,0.2,1.1c0.4,0.5,0.4,0.7,0.6,1.1
			c0.2,0.4-0.1,0.7-0.1,0.7s0.3,1.1,0.8,1.5c0.6,0.3,0.8,1.1,1.3,1.3c0.6,0.2,1.7,1.1,1.7,1.1s1.3,0.4,1.9,1.3
			c0.3,0.5,0.3,1.1,0.3,1.1s0.3,0.1,0.6,0.8c0.2,0.7,0.7,2.1,0.5,2.4s-0.6,0.4-0.4,0.7s0.5,0.4,0.4,0.7c0,0.2-0.1,0.4-0.1,0.6
			c0.1,0,0.2,0.1,0.3,0.1C172.1,118.3,172.2,117.9,172.6,117.9z"/>
		<path fill="#1C75BC" d="M199.3,76.6c-0.5-4.5-1.6-8.3-3.2-11.5c-1.7-3.2-4.1-5.7-7.2-7.5c-3.1-1.8-7.3-2.7-12.6-2.7
			s-9.5,0.9-12.6,2.7c-3.1,1.8-5.5,4.3-7.2,7.5c-1.7,3.2-2.7,7-3.2,11.5c-0.5,4.5-0.7,9.3-0.7,14.6c0,5.3,0.2,10.2,0.7,14.7
			c0.5,4.4,1.6,8.2,3.2,11.4c1.7,3.2,4.1,5.6,7.2,7.3c3.1,1.7,7.3,2.5,12.6,2.5s9.5-0.8,12.6-2.5c3.1-1.7,5.5-4.1,7.2-7.3
			c1.7-3.2,2.7-7,3.2-11.4c0.5-4.4,0.7-9.3,0.7-14.7C200,85.9,199.8,81,199.3,76.6z M172.1,118.4l-0.3,0c0,0,0,0,0-0.1
			c0-0.1,0-0.4,0.1-0.6c0.1-0.3-0.2-0.4-0.4-0.7c-0.2-0.3,0.2-0.4,0.4-0.7s-0.3-1.7-0.5-2.4c-0.2-0.7-0.6-0.8-0.6-0.8s0-0.5-0.3-1.1
			c-0.6-1-1.9-1.3-1.9-1.3s-1.2-0.8-1.7-1.1s-0.8-1-1.3-1.3c-0.6-0.3-0.8-1.5-0.8-1.5s0.2-0.3,0.1-0.7s-0.2-0.6-0.6-1.1
			c-0.4-0.5-0.2-1-0.2-1.1s-0.3-0.4-0.3-0.4s-0.3-0.8-0.2-1.2c0.1-0.4-0.3-0.5-0.9-1c-0.6-0.5-0.8-0.2-1-0.4c-0.2-0.2,0-1,0-1
			s0.4-0.3,0.5-0.5c0.1-0.2-0.3-0.1-0.3-0.1s0.1-0.8,0.3-1.1c0.2-0.3,0.6-1.7,0.7-2.1c0.1-0.3,0.2-1.1,0.2-1.8s-0.3-0.4-0.3-0.6
			c0-0.3,0.4-0.6,0.3-0.9s0-0.7,0.2-1.1c0.2-0.4,0.2-1,0.2-1.2s0.6-1.1,0.8-1.4c0.2-0.3,1.3-1.4,1.6-1.7s0.5-1.6,0.5-1.6
			s0.9-0.6,1.3-1.4c0.4-0.8,0.2-0.9,0.4-1c0.2-0.1,0.4-0.5,0.4-0.5s0.4-0.3,0.5-0.6s0.1-0.9,0.1-0.9l0.4-0.4l0.4-1l1-1.1
			c0,0,0.5-0.8,1-1.9c0.2-0.6,0.4-0.7,0.4-0.7s0.6-0.1,0.6-0.4s0.2-0.6,0.2-0.6s0.8,0.1,1.1-0.2c0.2-0.3,0-0.6,0-0.6
			s0.7-0.2,0.8-0.5s0.1-1,0.1-1l1.3-1.9l0.8-1.4c0,0,1-0.4,1.5-0.6c0.5-0.2,1.3-0.8,1.5-0.7c0.4,0.2,2.4-0.6,2.4-0.6l0.7-1l0.1-0.4
			l0.4-0.4l0.7-0.4l0.4,0.1l0.6-0.2l0.9,0.4l0.1,0.4l0.2,0.2l0.3,0.3c0,0,0.1,0,0.4,0.4c1.1,1.4,3.5,0.7,3.5,0.7l0,0v0.6v0.4
			c0,0,0.5,1.2,0.7,0.9c0.2-0.3,0.1,0.6,0.1,0.6c0,0-0.3-0.3-1,0.3c-1.4,1.3-1.5,2.2-1.5,2.8c0,0.6,0.2,0.4,0.2,1s0.4,1.4,0.4,1.4
			s0.4,1.5,0.1,1.5c-0.2,0-0.2,0-0.4,0.3c-0.1,0.2,0.2,0.3-0.2,0.7c-0.4,0.4-0.1,0.3-0.3,0.6s-0.1,0.5-0.3,0.7c-0.2,0.2-0.2,1-0.2,1
			s-0.1,0.5-0.6,1s-0.5,0.4-1,0.8c-0.5,0.4,0,1.1-0.2,1.3c-0.2,0.2-0.6,0.1-0.7,0.8c-0.1,0.7,0.2,0.3,0.3,0.8
			c0.1,0.5-0.2,0.6-0.2,0.6s-0.2,1.7-0.6,2.5c-0.2,1-0.2,0.8-0.4,1.4s0.1,0.5-0.3,1.1c-0.3,0.6,0,0.7-0.1,1
			c-0.2,0.3-0.5,0.9-0.4,1.6c0.1,0.6-0.6,2.3-0.6,2.3s-0.2,0.2-0.5,0.8c-0.3,0.6-0.3,0.6-0.3,0.6s-0.3,0.1-0.3,0.6s0,1.3,0,1.3
			s-0.4,0.1-0.6,0.4c-0.2,0.9-1.1,2-1.2,2.3c-0.1,0.3-0.4,0.9-0.7,1.2c-0.4,0.3-0.4,0.1-0.7,0.4c-0.2,0.3,0.3,0.5,0.1,0.7
			s-0.2,0.3-0.4,0.7s-2,1.3-2.3,1.5c-0.3,0.2,0,0.7,0,0.7l-0.5,0.6c0,0-1.1,2.6-1.5,3.4c-0.4,0.8,0.1,1.3,0.1,1.3s-0.1,0.3-0.1,0.7
			c0,0.4-0.1,1.3-0.1,1.3s0.1,0.7,0.2,1c0.1,0.2-0.2,0.7-0.4,1c-0.2,0.2-0.5,0.3-0.5,0.8c0,0.5,0.3,0.7-0.1,0.6
			c-0.4-0.1-0.7-0.5-1.2-0.5C172.2,117.9,172.1,118.3,172.1,118.4C172.1,118.4,172.1,118.4,172.1,118.4z"/>
	</g>
</g>
<path fill="none" d="M300.1,111c0.1-0.1,0.1-0.2,0.2-0.2C300.2,110.9,300.2,111,300.1,111z"/>
<path fill="none" d="M301.1,109.7c1.5-2.4,2.1-5.1,2.4-8.1C303.1,104.6,302.6,107.2,301.1,109.7z"/>
<path fill="none" d="M300.6,110.4c0.1-0.2,0.3-0.4,0.4-0.5C300.9,110,300.7,110.2,300.6,110.4z"/>
<path fill="none" d="M303.6,100.6c0-0.1,0-0.1,0-0.2c0,0.2,0,0.4-0.1,0.6C303.6,100.9,303.6,100.7,303.6,100.6z"/>
<path fill="#1C75BC" d="M303.6,101c0,0.2,0,0.4-0.1,0.6c-0.4,3-0.9,5.7-2.4,8.1c0,0.1-0.1,0.1-0.1,0.2c-0.1,0.2-0.2,0.4-0.4,0.5
	c-0.1,0.1-0.2,0.3-0.3,0.4c-0.1,0.1-0.1,0.2-0.2,0.2c-1.4,1.7-3.4,3.3-6.3,4.8c-8.3,4.2-5.9,8.5-5.9,8.5s1,2.7,4,2.8
	c1.9,0.1,4.7-0.8,8.6-3.9c8.4-6.3,3.2-22.8,3.2-22.8c0,0.1,0,0.1,0,0.2C303.6,100.7,303.6,100.9,303.6,101z"/>
<path fill="#8DC63F" d="M303.5,101.6c0-0.2,0-0.4,0.1-0.6C303.5,101.2,303.5,101.4,303.5,101.6z"/>
<path fill="#8DC63F" d="M300.3,110.8c0.1-0.1,0.2-0.3,0.3-0.4C300.5,110.5,300.4,110.7,300.3,110.8z"/>
<path fill="#1C75BC" d="M354,23.5l-1.1-0.8l0.8-1c0.2-0.3,0.2-0.7-0.1-0.9c-0.3-0.2-0.7-0.2-0.9,0.1l-1,1.4l-2.6,0.4
	c-0.2-0.4-0.4-0.9-0.7-1.3c0,0-0.1-0.1-0.1-0.1c-3.8-6.5-11.7-10.9-28.4-3.5c-19.3,8.5-19.7,21.3-31,24.1
	c-17.7,4.4-18.1-12.5-18.1-12.5s0,0,0,0c-0.1,0-5.1-2.6-7.8-0.3c-8.8,7.3,5.7,16.2,11.8,20.2c4.9,3.2,11.2,7.8,12.3,13.9
	c0.1,0.5,0.1,0.9,0.1,1.4c0,1.2-0.1,2.5-0.5,3.8c-3.2,10.1-5.2,18.3-5.4,19.1c0.1-0.2,0.2-0.4,0.2-0.7c1.1-2.7,6.3-14.6,9.5-20.7
	c4-7.6,9.2-12.5,23.5-18.6c7.6-3.2,16.8-3.8,22.6-5.5c5.1-1.5,12.7-7.4,13.3-13.9c0.1-1.2-0.1-2.5-0.6-3.7c-0.1-0.4-0.1-0.4-0.1-0.4
	c0-0.1,2.2-0.4,2.2-0.4l1.5,1c0.1,0.1,0.2,0.1,0.4,0.1c0.2,0,0.4-0.1,0.5-0.3C354.3,24.1,354.3,23.7,354,23.5z"/>
<path fill="#8DC63F" d="M349.5,23.9c0.1,0.3,0.1,0.3,0.1,0.3c0.5,1.3,0.7,2.5,0.6,3.8c-0.6,6.5-8.3,12.4-13.3,13.9
	c-5.8,1.7-15,2.3-22.6,5.5c-14.2,6-19.5,10.9-23.5,18.6c-3.2,6.1-8.4,18.1-9.5,20.7c-0.1,0.2-0.2,0.4-0.2,0.7
	c-4.7,12.9-3.7,24.3-0.9,30c4.1,7.8,8.2,9.9,11.7,9.7c-3-0.1-4-2.8-4-2.8s-2.4-4.2,5.9-8.5c2.9-1.5,4.9-3.1,6.3-4.8
	c0.1-0.1,0.1-0.2,0.2-0.2c0.1-0.1,0.2-0.3,0.3-0.4c0.1-0.2,0.3-0.4,0.4-0.5c0-0.1,0.1-0.1,0.1-0.2c1.5-2.4,2.1-5.1,2.4-8.1
	c0-0.2,0-0.4,0.1-0.6c0-0.2,0-0.4,0.1-0.6c-1.9-6.2-11.8-19.1-8.1-27.5c4.3-9.6,11-14.2,25-15.6C333.7,55.9,361.9,50.5,349.5,23.9z"
	/>
<path fill="#8DC63F" d="M301,109.9c0-0.1,0.1-0.1,0.1-0.2C301,109.7,301,109.8,301,109.9z"/>
<path fill="#8DC63F" d="M279.1,9.1c-6.4,5.7-8.5,13.5-8.5,20.3l0,0c0,0,0.4,12.8,12,13.2l0.1,2.8l-1.2,1.3c-0.2,0.3-0.2,0.7,0,0.9
	c0.1,0.1,0.3,0.2,0.4,0.2c0.2,0,0.4-0.1,0.5-0.2l0.9-1l0.9,0.9c0.1,0.1,0.3,0.2,0.5,0.2s0.3-0.1,0.5-0.2c0.3-0.3,0.3-0.7,0-0.9
	l-1.2-1.2l-0.1-2.7c1.4-0.1,3-0.3,4.8-0.7c11.4-2.8,11.7-15.6,31-24.1c16.7-7.4,24.6-3,28.4,3.5C332.5-7.6,292.5-2.2,279.1,9.1z"/>
</svg>
