<?xml version="1.0" encoding="iso-8859-1"?>
<!-- Generator: Adobe Illustrator 16.0.0, SVG Export Plug-In . SVG Version: 6.00 Build 0)  -->
<!DOCTYPE svg PUBLIC "-//W3C//DTD SVG 1.1//EN" "http://www.w3.org/Graphics/SVG/1.1/DTD/svg11.dtd">
<svg version="1.1" id="Capa_1" xmlns="http://www.w3.org/2000/svg" xmlns:xlink="http://www.w3.org/1999/xlink" x="0px" y="0px"
	 width="52.233px" height="52.233px" viewBox="0 0 52.233 52.233" style="enable-background:new 0 0 52.233 52.233; fill:red;"
	 xml:space="preserve">
<g>
	<g>
		<path d="M45.99,13.134l-6.241,2.882c0,0-1.071,0-2.405,0c-0.24,0-0.466,0.134-0.686,0.327v-3.52c0-3.096-2.509-5.604-5.603-5.604
			H5.602C2.507,7.22,0,9.728,0,12.824v20.338c0,3.095,2.507,5.604,5.602,5.604h0.752h9.659h7.035
			c-0.387-1.147-0.606-2.373-0.606-3.652c0-6.32,5.142-11.463,11.463-11.463c5.406,0,9.938,3.765,11.14,8.808
			c0.309,0.137,0.623,0.277,0.945,0.419c3.454,1.53,6.243-2.914,6.243-9.924C52.233,15.934,49.444,11.533,45.99,13.134z"/>
		<path d="M43.967,35.113c0-5.458-4.442-9.901-9.901-9.901s-9.901,4.443-9.901,9.901c0,5.459,4.442,9.9,9.901,9.9
			S43.967,40.572,43.967,35.113z M27.279,35.113c0-3.741,3.046-6.787,6.787-6.787c0.738,0,1.447,0.123,2.114,0.343l-7.32,10.786
			C27.875,38.279,27.279,36.763,27.279,35.113z M39.272,30.769c0.985,1.179,1.58,2.692,1.58,4.344c0,3.741-3.045,6.786-6.786,6.786
			c-0.738,0-1.448-0.123-2.115-0.343L39.272,30.769z"/>
	</g>
</g>
<g>
</g>
<g>
</g>
<g>
</g>
<g>
</g>
<g>
</g>
<g>
</g>
<g>
</g>
<g>
</g>
<g>
</g>
<g>
</g>
<g>
</g>
<g>
</g>
<g>
</g>
<g>
</g>
<g>
</g>
</svg>
