<?xml version="1.0" encoding="utf-8"?>
<!-- Generator: Adobe Illustrator 18.0.0, SVG Export Plug-In . SVG Version: 6.00 Build 0)  -->
<!DOCTYPE svg PUBLIC "-//W3C//DTD SVG 1.1//EN" "http://www.w3.org/Graphics/SVG/1.1/DTD/svg11.dtd">
<svg version="1.1" id="Layer_1" xmlns="http://www.w3.org/2000/svg" xmlns:xlink="http://www.w3.org/1999/xlink" x="0px" y="0px"
	 viewBox="0 0 168 114.1" enable-background="new 0 0 168 114.1" xml:space="preserve">
<path fill-rule="evenodd" clip-rule="evenodd" fill="#5D87A1" d="M114.9,11.6c-0.8,0-1.4,0.1-1.9,0.2v0.1h0.1c0.4,0.7,1,1.3,1.5,1.9
	c0.4,0.7,0.7,1.5,1.1,2.2c0,0,0.1-0.1,0.1-0.1c0.7-0.5,1-1.2,1-2.3c-0.3-0.3-0.3-0.7-0.6-1C115.8,12.2,115.2,11.9,114.9,11.6"/>
<g>
	<path fill="#00758F" d="M40.4,104h-6.5C33.7,93,33.1,82.7,32,73.1H32L22.1,104h-4.9L7.3,73.1H7.3C6.6,82.3,6.1,92.6,5.9,104H0
		c0.4-13.8,1.3-26.7,2.9-38.7h8l9.4,28.5h0.1l9.4-28.5h7.7C39.1,79.3,40.1,92.3,40.4,104"/>
	<path fill="#00758F" d="M68.5,75.4c-2.6,14.3-6.1,24.7-10.4,31.2c-3.4,5-7.1,7.5-11.1,7.5c-1.1,0-2.4-0.3-4-1v-3.5
		c0.8,0.1,1.7,0.2,2.7,0.2c1.9,0,3.4-0.5,4.5-1.6c1.4-1.3,2.1-2.7,2.1-4.2c0-1.1-0.5-3.3-1.6-6.6l-7.1-22.1H50l5.1,16.5
		c1.1,3.8,1.6,6.4,1.4,7.9c2.8-7.5,4.7-15.6,5.9-24.4H68.5z"/>
	<polygon fill="#F29111" points="154.8,104 136.4,104 136.4,65.2 142.6,65.2 142.6,99.2 154.8,99.2 	"/>
	<path fill-rule="evenodd" clip-rule="evenodd" fill="#F29111" d="M131.6,104.9l-7.1-3.5c0.6-0.5,1.2-1.1,1.8-1.7
		c3-3.6,4.5-8.8,4.5-15.8c0-12.8-5-19.2-15.1-19.2c-4.9,0-8.8,1.6-11.5,4.9c-3,3.6-4.5,8.8-4.5,15.7c0,6.8,1.3,11.8,4,15
		c2.4,2.9,6.1,4.3,11.1,4.3c1.8,0,3.5-0.2,5.1-0.7l9.3,5.4L131.6,104.9z M108.5,96.2c-1.6-2.5-2.4-6.6-2.4-12.2
		c0-9.8,3-14.6,8.9-14.6c3.1,0,5.4,1.2,6.8,3.5c1.6,2.5,2.4,6.5,2.4,12.1c0,9.8-3,14.8-8.9,14.8C112.2,99.7,110,98.5,108.5,96.2"/>
	<path fill="#F29111" d="M96.9,93.2c0,3.3-1.2,6-3.6,8.1c-2.4,2.1-5.6,3.2-9.7,3.2c-3.8,0-7.5-1.2-11-3.6l1.7-3.3
		c3.1,1.5,5.8,2.3,8.3,2.3c2.3,0,4.2-0.5,5.5-1.5c1.3-1,2.1-2.5,2.1-4.3c0-2.3-1.6-4.3-4.5-5.9c-2.7-1.5-8.1-4.6-8.1-4.6
		C74.5,81.3,73,79,73,75.2c0-3.1,1.1-5.7,3.3-7.6c2.2-1.9,5-2.9,8.5-2.9c3.6,0,6.9,1,9.8,2.9l-1.5,3.3c-2.5-1.1-5-1.6-7.5-1.6
		c-2,0-3.5,0.5-4.6,1.4c-1.1,1-1.7,2.2-1.7,3.7c0,2.3,1.6,4.3,4.7,6c2.8,1.5,8.3,4.7,8.3,4.7C95.4,87.2,96.9,89.5,96.9,93.2"/>
	<path fill-rule="evenodd" clip-rule="evenodd" fill="#00758F" d="M162.6,52.2c-3.7-0.1-6.6,0.3-9.1,1.3c-0.7,0.3-1.8,0.3-1.9,1.2
		c0.4,0.4,0.4,1,0.8,1.5c0.6,0.9,1.5,2.2,2.4,2.9c1,0.7,2,1.5,3,2.2c1.8,1.1,3.9,1.8,5.7,2.9c1,0.7,2.1,1.5,3.1,2.2
		c0.5,0.4,0.8,1,1.5,1.2v-0.1c-0.3-0.4-0.4-1-0.7-1.5c-0.5-0.5-0.9-0.9-1.4-1.4c-1.4-1.8-3-3.4-4.9-4.7c-1.5-1-4.8-2.4-5.4-4.2
		c0,0,0,0-0.1-0.1c1-0.1,2.2-0.5,3.2-0.8c1.6-0.4,3-0.3,4.7-0.7c0.8-0.2,1.5-0.4,2.3-0.7V53c-0.8-0.8-1.5-2-2.3-2.8
		c-2.4-2.1-5-4.1-7.7-5.8c-1.5-0.9-3.3-1.5-4.9-2.3c-0.6-0.3-1.5-0.4-1.8-0.9c-0.8-1-1.3-2.4-1.9-3.6c-1.4-2.6-2.7-5.4-3.8-8.1
		c-0.8-1.8-1.4-3.6-2.4-5.3c-4.8-8-10.1-12.8-18.1-17.5c-1.7-1-3.8-1.4-6-1.9c-1.2,0-2.3-0.1-3.5-0.2c-0.8-0.3-1.5-1.2-2.2-1.6
		c-2.7-1.7-9.5-5.3-11.5-0.5c-1.3,3,1.9,6,2.9,7.6c0.8,1.1,1.8,2.3,2.4,3.5c0.3,0.8,0.4,1.6,0.8,2.5c0.7,2.1,1.4,4.4,2.4,6.3
		c0.5,1,1.1,2,1.7,2.9c0.4,0.5,1,0.7,1.2,1.6c-0.7,0.9-0.7,2.3-1.1,3.5c-1.7,5.3-1,11.8,1.4,15.7c0.7,1.2,2.5,3.7,4.9,2.8
		c2.1-0.8,1.6-3.5,2.2-5.8c0.1-0.6,0-0.9,0.3-1.3v0.1c0.7,1.3,1.3,2.6,1.9,3.9c1.5,2.3,4,4.7,6.1,6.3c1.1,0.8,2,2.3,3.4,2.8v-0.1
		H130c-0.3-0.4-0.7-0.6-1.1-0.9c-0.8-0.8-1.8-1.9-2.4-2.8c-2-2.6-3.7-5.5-5.2-8.5c-0.8-1.5-1.4-3-2-4.5c-0.3-0.6-0.3-1.4-0.7-1.7
		c-0.7,1-1.7,1.9-2.2,3.2c-0.9,2-1,4.5-1.3,7.1c-0.2,0-0.1,0-0.2,0.1c-1.5-0.4-2-1.9-2.6-3.2c-1.4-3.3-1.6-8.7-0.4-12.5
		c0.3-1,1.7-4.1,1.2-5c-0.3-0.9-1.2-1.4-1.7-2.1c-0.6-0.9-1.3-2-1.7-3c-1.1-2.6-1.7-5.5-2.9-8.1c-0.6-1.2-1.5-2.5-2.3-3.6
		c-0.9-1.3-1.9-2.2-2.6-3.6c-0.2-0.5-0.6-1.4-0.2-1.9c0.1-0.4,0.3-0.5,0.7-0.6c0.6-0.5,2.3,0.1,2.9,0.4c1.7,0.7,3.2,1.4,4.6,2.3
		c0.7,0.5,1.4,1.4,2.2,1.6h1c1.5,0.3,3.2,0.1,4.6,0.5c2.5,0.8,4.7,2,6.7,3.2c6.1,3.9,11.2,9.4,14.6,16c0.6,1.1,0.8,2.1,1.3,3.2
		c1,2.3,2.2,4.6,3.2,6.9c1,2.2,1.9,4.4,3.3,6.3c0.7,1,3.5,1.5,4.8,2c0.9,0.4,2.4,0.8,3.2,1.3c1.6,1,3.2,2.1,4.7,3.2
		C160.1,50.1,162.5,51.3,162.6,52.2"/>
	<path fill="#F29111" d="M167.1,104h1v-4.7h-1.5l-1.2,3.2l-1.3-3.2h-1.4v4.7h0.9v-3.6h0.1l1.4,3.6h0.7l1.3-3.6V104z M159.2,104h1
		V100h1.3v-0.8h-3.8v0.8h1.4V104z"/>
</g>
</svg>
