<?xml version="1.0" encoding="utf-8"?>
<!-- Generator: Adobe Illustrator 18.0.0, SVG Export Plug-In . SVG Version: 6.00 Build 0)  -->
<!DOCTYPE svg PUBLIC "-//W3C//DTD SVG 1.1//EN" "http://www.w3.org/Graphics/SVG/1.1/DTD/svg11.dtd">
<svg version="1.1" id="圖層_1" xmlns="http://www.w3.org/2000/svg" xmlns:xlink="http://www.w3.org/1999/xlink" x="0px" y="0px"
	 viewBox="0 0 950 191.9" style="enable-background:new 0 0 950 191.9;" xml:space="preserve">
<style type="text/css">
	.st0{fill:#595757;}
</style>
<g>
	<g>
		<g>
			<path class="st0" d="M65.6,2.3C29.4,2.3,0,31.6,0,67.8c0,36.2,29.4,65.6,65.6,65.6s65.6-29.4,65.6-65.6
				C131.1,31.6,101.8,2.3,65.6,2.3z M65.6,111.5c-24.1,0-43.7-19.6-43.7-43.7c0-24.1,19.6-43.7,43.7-43.7s43.7,19.6,43.7,43.7
				C109.3,92,89.7,111.5,65.6,111.5z"/>
		</g>
		<rect x="109.3" y="67.8" class="st0" width="21.9" height="109.3"/>
		<g>
			<path class="st0" d="M131.1,67.8c0-24.1,19.6-43.7,43.7-43.7V2.3c-36.2,0-65.6,29.4-65.6,65.6c0,36.2,29.4,65.6,65.6,65.6v-21.9
				C150.7,111.5,131.1,92,131.1,67.8z"/>
		</g>
	</g>
	<g>
		<g>
			<path class="st0" d="M259.1,136.6v24.8c0,5.2-1.6,9-4.7,11.5c-3.2,2.4-7,3.7-11.4,3.7c-4.4,0-8.3-1.2-11.5-3.7
				c-3.2-2.4-4.8-6.3-4.8-11.5v-24.9c0-5.3,1.5-9.3,4.4-12c2.9-2.7,6.9-4.1,12-4.1c5.1,0,9,1.4,11.9,4.3
				C257.7,127.6,259.1,131.6,259.1,136.6z M252.1,160.4v-22.2c0-3.4-0.7-6-2.1-7.7c-1.4-1.8-3.8-2.6-7.1-2.6c-3.3,0-5.7,0.9-7.1,2.6
				c-1.4,1.7-2.1,4.3-2.1,7.7v22.3c0,2.9,0.8,5.1,2.4,6.7c1.6,1.6,3.8,2.4,6.7,2.4c2.8,0,5.1-0.8,6.8-2.4
				C251.3,165.5,252.1,163.2,252.1,160.4z"/>
			<path class="st0" d="M277.3,190.2l-7,1.7V137h6.7l0.2,1.7c1.8-1.5,4.3-2.3,7.6-2.3c4.8,0,8.4,1.4,10.9,4.2
				c2.5,2.8,3.7,6.4,3.7,10.8v10.7c0,4.7-1.3,8.3-3.9,10.8c-2.6,2.5-6.1,3.7-10.4,3.7c-3.1,0-5.7-0.7-7.7-2.2V190.2z M292.3,161.1
				v-10c0-2.6-0.6-4.6-1.9-5.9c-1.3-1.3-3.1-2-5.4-2c-2.3,0-4.2,0.6-5.6,1.9c-1.4,1.3-2.1,3.1-2.2,5.6v11.1c0,5.3,2.6,8,7.7,8
				C289.9,169.8,292.3,166.9,292.3,161.1z"/>
			<path class="st0" d="M318.1,170.2c2.9,0,6.3-1,10.1-3.1l2.6,5.9c-4,2.4-8.1,3.6-12.4,3.6c-9,0-13.4-3.8-13.4-11.3v-15.8
				c0-4.2,1.3-7.4,3.9-9.7c2.6-2.3,6-3.5,10.3-3.5c4.3,0,7.6,1.1,10,3.4c2.4,2.3,3.6,5.5,3.6,9.5v11.1l-20.7,1.2v3
				c0,2.1,0.6,3.5,1.8,4.3C315.1,169.8,316.5,170.2,318.1,170.2z M325.6,154.3v-5c0-2.1-0.7-3.7-2-4.7c-1.3-1-3-1.5-5-1.5
				c-2,0-3.6,0.6-4.8,1.8c-1.2,1.2-1.8,2.8-1.8,4.7v5.4L325.6,154.3z"/>
			<path class="st0" d="M347.6,138.3c2.3-1.2,4.8-1.9,7.5-1.9c2.7,0,5.2,0.5,7.5,1.4c4.4,2,6.6,5.7,6.6,11.2v26.7h-7v-25.1
				c0-2.5-0.7-4.3-2.2-5.6c-1.5-1.3-3.3-1.9-5.6-1.9c-2.2,0-4.5,0.6-6.7,1.8v30.9h-6.9V137h6.4L347.6,138.3z"/>
			<path class="st0" d="M427.6,167.5l1.2,6.5c-4.4,1.7-8.5,2.5-12.5,2.5c-0.8,0-2.1-0.1-3.7-0.2c-1.7-0.2-3.5-0.7-5.3-1.7
				c-1.9-1-3.4-2.6-4.6-4.8c-1.2-2.2-1.7-4.9-1.7-8.1v-24.8c0-3.9,0.6-6.9,1.7-8.9c1.1-2,2.8-3.7,5.1-5.1c2.3-1.3,5.1-1.9,8.3-1.9
				c4,0,7.6,0.8,11,2.5l-2,6c-2.5-0.9-5-1.4-7.7-1.4c-2.7,0-4.9,0.7-6.6,2c-1.8,1.3-2.6,3.3-2.6,6.1v25.3c0,2.3,0.6,4.1,1.7,5.4
				c1.4,1.6,3.8,2.5,6.9,2.5C419.8,169.3,423.5,168.7,427.6,167.5z"/>
			<path class="st0" d="M460.8,175.7h-6.6l-0.2-1.7c-2.1,1.7-4.5,2.5-7.4,2.5c-9.7,0-14.5-4.7-14.5-14.1V137h7v24.8
				c0,5.3,2.5,8,7.5,8c4.8,0,7.3-2.7,7.3-8.2V137h7V175.7z"/>
			<path class="st0" d="M476.8,175.7h-7v-54.1h7V175.7z"/>
			<path class="st0" d="M498.9,171.2l-2.1,5.6c-7-0.6-10.5-4.4-10.5-11.2v-43.9h7.1V137h8l-1.9,6.6h-6.2v21.9
				C493.4,168.8,495.3,170.7,498.9,171.2z"/>
			<path class="st0" d="M534.8,175.7h-6.6L528,174c-2.1,1.7-4.5,2.5-7.4,2.5c-9.7,0-14.5-4.7-14.5-14.1V137h7v24.8
				c0,5.3,2.5,8,7.5,8c4.8,0,7.3-2.7,7.3-8.2V137h7V175.7z"/>
			<path class="st0" d="M549.4,138.2c2.3-1.2,5-1.8,8-1.8c0.9,0,2.9,0.3,5.9,0.8l-1.7,6.7c-1.4-0.7-2.8-1-4.1-1
				c-1.3,0-2.6,0.2-3.8,0.6c-2.8,1-4.2,2.8-4.2,5.4v26.7h-7V137h6.6L549.4,138.2z"/>
			<path class="st0" d="M578.1,170.2c2.9,0,6.3-1,10.1-3.1l2.6,5.9c-4,2.4-8.1,3.6-12.4,3.6c-9,0-13.4-3.8-13.4-11.3v-15.8
				c0-4.2,1.3-7.4,3.9-9.7c2.6-2.3,6-3.5,10.3-3.5c4.3,0,7.6,1.1,10,3.4c2.4,2.3,3.6,5.5,3.6,9.5v11.1l-20.7,1.2v3
				c0,2.1,0.6,3.5,1.8,4.3C575.1,169.8,576.5,170.2,578.1,170.2z M585.6,154.3v-5c0-2.1-0.7-3.7-2-4.7c-1.3-1-3-1.5-5-1.5
				c-2,0-3.6,0.6-4.8,1.8c-1.2,1.2-1.8,2.8-1.8,4.7v5.4L585.6,154.3z"/>
			<path class="st0" d="M630.3,175.7h-7v-54.1H649v7h-18.8v15.2h11.7l-2.5,6.8h-9.2V175.7z"/>
			<path class="st0" d="M677.2,151.3v10.2c0,4.3-1.2,7.9-3.6,10.7c-2.4,2.8-5.9,4.2-10.7,4.2c-4.8,0-8.4-1.4-10.8-4.3
				c-2.4-2.9-3.7-6.4-3.7-10.7v-10.2c0-4.9,1.2-8.6,3.7-11.2c2.5-2.6,6-3.9,10.6-3.9c4.6,0,8.1,1.4,10.7,4.1
				C675.9,142.9,677.2,146.6,677.2,151.3z M670.2,162.3v-11c0-5.5-2.4-8.2-7.3-8.2c-5,0-7.5,2.7-7.5,8.2v11c0,2.4,0.7,4.3,2.1,5.5
				c1.4,1.3,3.2,1.9,5.4,1.9c2.2,0,4-0.6,5.3-1.9C669.5,166.5,670.2,164.7,670.2,162.3z"/>
			<path class="st0" d="M711.6,175.7H705l-0.2-1.7c-2.1,1.7-4.5,2.5-7.4,2.5c-9.7,0-14.5-4.7-14.5-14.1V137h7v24.8
				c0,5.3,2.5,8,7.5,8c4.8,0,7.3-2.7,7.3-8.2V137h7V175.7z"/>
			<path class="st0" d="M726.4,138.3c2.3-1.2,4.8-1.9,7.5-1.9c2.7,0,5.2,0.5,7.5,1.4c4.4,2,6.6,5.7,6.6,11.2v26.7h-7v-25.1
				c0-2.5-0.7-4.3-2.2-5.6c-1.5-1.3-3.3-1.9-5.6-1.9c-2.2,0-4.5,0.6-6.7,1.8v30.9h-7V137h6.4L726.4,138.3z"/>
			<path class="st0" d="M765.7,137.9c2.5-1,5.2-1.5,8-1.5c2.8,0,5.1,0.5,7,1.5v-16.2h7v54.1c-4.4,0.6-8.5,0.9-12.3,0.9
				c-3.8,0-7.2-0.8-10.2-2.3c-4-2.1-6-5.6-6-10.7V149C759.2,143.6,761.4,139.9,765.7,137.9z M780.7,145.1c-2.3-1.2-4.5-1.8-6.6-1.8
				c-2.1,0-4,0.6-5.6,1.8c-1.6,1.2-2.4,3.2-2.4,6V164c0,2.6,1.4,4.4,4.3,5.4c1.5,0.5,3.2,0.8,4.9,0.8s3.5-0.2,5.4-0.6V145.1z"/>
			<path class="st0" d="M804.5,144.8c4.5,0,8.3,1,11.6,3.1c0-4.3-3.2-6.5-9.6-6.5l0.5-4.9c4.2,0,7.3,0.5,9.3,1.5
				c1.1,0.6,2,1.1,2.9,1.7c0.8,0.6,1.5,1.3,1.9,2.2c0.5,0.9,0.8,1.7,1.2,2.4c0.3,0.7,0.5,1.6,0.6,2.8c0.2,1.8,0.2,3.7,0.2,5.6v23
				c-5.4,0.5-9.6,0.8-12.8,0.8c-11.3,0-16.9-4.6-16.9-13.8v-6.4c0-5.1,1.8-8.5,5.3-10.3C800.5,145.2,802.4,144.8,804.5,144.8z
				 M816.1,169.6v-14.8c-2.7-1.6-5.8-2.6-9.3-3c-0.4-0.1-1-0.1-1.8-0.1c-0.8,0-1.8,0.4-2.9,1.1c-1.1,0.7-1.6,2.1-1.6,4.1v5.1
				c0,5.3,3.3,8,10,8C812.1,170.1,814,169.9,816.1,169.6z"/>
			<path class="st0" d="M842.2,171.2l-2.1,5.6c-7-0.6-10.5-4.4-10.5-11.2v-43.9h7.1V137h8l-1.9,6.6h-6.2v21.9
				C836.7,168.8,838.5,170.7,842.2,171.2z"/>
			<path class="st0" d="M860.2,124.7c0,1-0.4,1.9-1.2,2.7c-0.8,0.8-1.7,1.2-2.7,1.2c-1,0-1.9-0.4-2.7-1.2c-0.8-0.8-1.2-1.7-1.2-2.7
				c0-1,0.4-1.9,1.2-2.7c0.8-0.8,1.7-1.2,2.7-1.2c1,0,1.9,0.4,2.7,1.2C859.9,122.8,860.2,123.7,860.2,124.7z M859.8,175.7h-7V137h7
				V175.7z"/>
			<path class="st0" d="M901.3,151.3v10.2c0,4.3-1.2,7.9-3.6,10.7c-2.4,2.8-5.9,4.2-10.7,4.2c-4.8,0-8.4-1.4-10.8-4.3
				c-2.4-2.9-3.7-6.4-3.7-10.7v-10.2c0-4.9,1.2-8.6,3.7-11.2c2.5-2.6,6-3.9,10.6-3.9c4.6,0,8.1,1.4,10.7,4.1
				C900,142.9,901.3,146.6,901.3,151.3z M894.3,162.3v-11c0-5.5-2.4-8.2-7.3-8.2c-5,0-7.5,2.7-7.5,8.2v11c0,2.4,0.7,4.3,2.1,5.5
				c1.4,1.3,3.2,1.9,5.4,1.9c2.2,0,4-0.6,5.3-1.9C893.6,166.5,894.3,164.7,894.3,162.3z"/>
			<path class="st0" d="M916,138.3c2.3-1.2,4.8-1.9,7.5-1.9s5.2,0.5,7.5,1.4c4.4,2,6.6,5.7,6.6,11.2v26.7h-7v-25.1
				c0-2.5-0.7-4.3-2.2-5.6c-1.5-1.3-3.3-1.9-5.6-1.9c-2.2,0-4.5,0.6-6.7,1.8v30.9h-7V137h6.4L916,138.3z"/>
		</g>
	</g>
	<g>
		<path class="st0" d="M237.3,41.3v56.1h-9.7V5.4H267v36H237.3z M237.3,12.6v6.9h20.5v-6.9H237.3z M257.8,34.1v-7.9h-20.5v7.9H257.8
			z M285.4,72.8v23h-8.7v-23h-12.6c-0.8,7-4.2,18-13.8,24.4c-1.5-1.7-4.4-4.3-6.5-5.8c8-4.8,11-12.9,11.9-18.7h-12v-8.1h12.2v-9.9
			h-10.4V47h51v7.9h-11v9.9h13v8.1H285.4z M276.7,64.7v-9.9h-12.4v9.9H276.7z M314.6,85.5c0,5.4-1.2,8.3-4.6,10
			c-3.4,1.6-8.6,1.8-16.4,1.8c-0.4-2.7-1.9-7.2-3.3-10c5.2,0.3,10.7,0.2,12.4,0.2c1.7,0,2.1-0.5,2.1-2.1V41.7h-30.1V5.4h39.9V85.5z
			 M283.9,12.6v6.9h20.9v-6.9H283.9z M304.8,34.3v-8.1h-20.9v8.1H304.8z"/>
		<path class="st0" d="M416.6,29.2c-2.6,16.2-6.6,29.4-12.7,40.4c5.5,8.3,12.5,14.9,21.3,19c-2.1,1.9-5.2,5.7-6.6,8.4
			c-8.5-4.4-15.1-10.7-20.5-18.5c-6.2,7.8-14,14.1-23.7,19.1c-0.9-2.2-3.7-6.6-5.6-8.5c10.3-4.7,18.2-11.2,23.9-19.6
			c-3.9-7.6-6.8-16.3-9.2-25.7c-2,4.1-4.3,7.8-6.7,11c-1.4-1.8-4.4-5-6.7-7c-0.6,30.1-1.4,41.1-3.9,44.6c-1.8,2.4-3.6,3.4-6.5,3.8
			c-2.5,0.4-6.9,0.4-11.2,0.2c-0.3-2.6-1.3-6.4-2.5-8.9c3.8,0.4,7.2,0.4,8.9,0.4c1.5,0,2.4-0.3,3-1.5c1.7-2.2,2.4-11.9,2.9-38.7h-12
			c0,17.1-2.1,34.8-15.5,49.4c-1.7-2.1-4.8-4.7-7.2-6.4c12.1-13.2,13.6-29.1,13.6-43.2v-21h-11.4v-9.1h46v9.1H349v12.3h21.4
			c0,0,0,2.9-0.1,4.2l-0.1,3.1c8.2-10.7,13.5-27.6,16.5-45.1l10,1.6c-1.2,6-2.5,12-4,17.6h31.6v9H416.6z M349.8,17.2
			c-0.9-3.8-3.1-9.9-5-14.3l8.6-2.3c2.1,4.4,4.4,10.2,5.4,14L349.8,17.2z M389.5,29.9c2.1,10.9,4.9,20.9,8.9,29.7
			c4.1-8.7,6.7-18.7,8.5-30.4h-17.1L389.5,29.9z"/>
		<path class="st0" d="M511.9,28.4c-5.6,15.8-13.3,28.6-23.2,39.1c11.2,9.1,24.9,15.9,41,19.9c-2.2,2.1-5,6.2-6.6,9
			c-16.7-4.5-30.6-12-42-21.8c-11.6,9.9-25.9,17.2-42.9,22.5c-1.2-2.5-4.1-7-6.1-9.3c16.9-4.5,30.6-11,41.8-20.1
			c-10.2-10.8-17.9-23.9-23.8-39.2h-16.2V19h45.4c-1.3-4.3-4.2-10.9-7-15.8l10.3-3c3,4.9,6.4,11.6,7.8,15.9l-9.3,2.9h47.1v9.4H511.9
			z M460.3,28.4c5,12.4,12.1,23.2,21,32.4c8.5-8.8,15-19.5,19.7-32.4H460.3z"/>
		<path class="st0" d="M573.8,4.4c-2.8,6.7-6.4,13.4-10.3,19.8v72.9h-9.2V37.7c-4,5.2-8.2,10-12.5,14c-0.8-2.3-3.6-7.6-5.4-9.9
			c11.1-9.5,21.9-24.8,28.4-40.3L573.8,4.4z M616.7,85.4c5.7,0,6.6-4.4,7.4-22c2.3,1.8,6.3,3.7,8.8,4.3
			c-1.4,19.6-3.8,26.5-15.6,26.5h-18.8c-11.5,0-14.8-3.5-14.8-16.1V2.7h9.3v27.7H630v9.3h-36.9v38.6c0,5.9,1,7,6.3,7H616.7z"/>
		<path class="st0" d="M717.4,58.7c5.9,6.1,14.2,11.4,22.2,14.3c-2.1,1.8-4.9,5.2-6.4,7.6c-10.1-4.4-20-12.7-26.4-21.8h-31.3
			c-2.5,3.7-5.8,7.3-9.2,10.6h19.2v-7.9h9.9v7.9h20.8V77h-20.8v9.3h35.3v8.1h-79v-8.1h33.9V77h-20v-6.9c-5.2,4.7-11.3,8.7-17.3,11.5
			c-1.4-2.3-4.2-5.8-6.3-7.4c8.3-3.1,16.7-9,22.7-15.5h-21.6v-8.1h20.4V18.2h-15.2v-8h15.2V1h9.8v9.1h35.7v-9h10v9h15v8h-15v32.4
			h19.7v8.1H717.4z M673,18.2V24h35.7v-5.9H673z M673,37.1h35.7v-6H673V37.1z M673,50.6h35.7v-6.3H673V50.6z"/>
		<path class="st0" d="M800.5,40.7v12.7h35.1v8.8h-35.1v23.4h40.2v8.9h-90v-8.9h39.4V62.2h-34.6v-8.8h34.6V40.7h-21.9v-5.5
			c-4.9,2.6-10,4.8-15.2,6.7c-1.4-2.8-4.1-6.6-6.5-9C766,27,785,15.4,794.9,0l9.1,4.1c-0.9,1.4-1.8,2.7-2.7,4
			c10.3,10.3,27.9,20.2,43.6,25c-2.2,2-5.2,5.9-6.7,8.5c-5.1-1.9-10.4-4.3-15.6-7.2v6.4H800.5z M771.4,63.3c4,5.6,8.2,13.2,9.9,18.2
			l-8.5,3.7c-1.5-4.9-5.6-12.8-9.3-18.7L771.4,63.3z M817.9,31.7c-8.2-4.9-15.9-10.7-22.2-17c-6.1,6.6-13.2,12.3-21.1,17H817.9z
			 M808.5,82c3.6-5,8-13,10.2-18.8l9.4,3.5c-4,6.6-8.6,13.7-12.2,18.5L808.5,82z"/>
		<path class="st0" d="M907.7,3.5c-0.5,0.6-0.9,1.4-1.6,2c9.8,9,27.5,17,43.9,20.5c-2,1.7-4.7,5.1-6.2,7.4c-2.5-0.7-5.2-1.6-7.9-2.5
			V58H865V31.6c-2.6,0.9-5.1,1.8-7.8,2.5c-0.8-1.8-3.6-5.8-5.2-7.4c19-4.8,37.6-14,47.1-26.2L907.7,3.5z M935.5,30.7
			c-5.7-2-11.4-4.4-16.8-7.4v3h-36.3v-2.5c-4.8,2.7-10,4.9-15.2,6.9H935.5z M871,62.2h59.8v34.5h-10v-2.8h-40.2v3.3H871V62.2z
			 M885.3,37.8c2.3,3.6,4.6,8.4,5.4,11.5l-6.9,2.3h12.4V37.1h-22.8v14.5h10.1c-0.7-3.3-2.7-8.1-4.9-11.8L885.3,37.8z M880.6,68.9
			v5.8h40.2v-5.8H880.6z M920.8,87.3v-5.9h-40.2v5.9H920.8z M912.5,19.6c-4.3-2.6-8.2-5.7-11.5-8.8c-3.4,3.1-7.3,6.2-11.4,8.8H912.5
			z M927.3,37.1H904v14.5h11.8l-6.5-2c1.9-3.4,4.1-8.7,5.2-12.3l8.2,2.3c-2.3,4.5-4.6,8.9-6.5,12h11.1V37.1z"/>
	</g>
</g>
</svg>
