<svg xmlns="http://www.w3.org/2000/svg" viewBox="0 0 379.42 110.66"><defs><style>.cls-1{fill:#009e96;}.cls-2{fill:#fff;}</style></defs><title>Asset 4</title><g id="Layer_2" data-name="Layer 2"><g id="圖層_1" data-name="圖層 1"><rect class="cls-1" x="349.69" y="7.62" width="27.79" height="7.48"/><path class="cls-1" d="M347.1,10.71c-3.69,4.76-8.46,9.75-13.51,13L330,16.38a46.4,46.4,0,0,0,10.64-10C342.8,7.77,344.91,9.28,347.1,10.71Z"/><polygon class="cls-1" points="229.61 45.83 240.56 45.83 240.56 13.96 248.41 13.96 248.41 56.4 240.56 56.4 240.56 53.52 210.43 53.45 210.36 56.17 202.28 56.17 202.28 13.59 210.36 13.59 210.36 45.83 221.46 45.75 221.46 6.63 229.61 6.63 229.61 45.83"/><polygon class="cls-1" points="183.84 15.44 166.03 15.47 165.88 15.62 165.88 26.5 182.65 26.64 182.65 34.35 165.81 34.35 165.73 48.02 186.04 48.09 186.04 55.95 137.34 55.95 137.34 48.16 157.58 48.09 157.58 34.42 140.96 34.35 140.96 26.57 157.58 26.57 157.58 15.4 139.83 15.24 139.83 7.54 183.85 7.54 183.84 15.44"/><path class="cls-1" d="M379.42,23.1v7.25H372l-.15,20.76a5.51,5.51,0,0,1-3,3.7c-3.4,1.43-7.7.91-11.48.91l-2.94-7.55,9.06-.16a1.72,1.72,0,0,0,.83-1l.07-16.61L347,30.27c-.08-1.81.07-3.7-.15-5.36a30.77,30.77,0,0,1-2.49,3.78V56.17h-7.55c-.08-6,.07-12-.08-18-1.28,1-2.49,2.19-3.7,3.25l-3.4-8.16c5.13-3.77,8.91-9,12-14.12L347,23Z"/><path class="cls-1" d="M312.15,46.73c-.61.15-.31-.53-.84-.53-.15-.53-.68-.68-1.06-1.05-.14-.53-.75-.53-.68-1.29.23-.07,0-.75.54-.45v-.23a13.54,13.54,0,0,0,1.73-1.13c.15-.22.53-.22.6-.53.08-.07.23,0,.38-.07V41.3c.08-.15.3-.08.38-.08V41c.07-.15.23,0,.3-.07v-.16c.08-.14.3-.07.38-.07v-.22c.15-.16.3-.08.45-.08v-.23c0-.07.15,0,.23-.07v-.15c.07-.15.23-.08.3-.08v-.6c-.6-.15-.3-1.06-1-1.21-.23,0,.07-.46-.3-.3-.31-.31-.23-.76-.61-.91-.15-.22-.22-.61-.45-.76s-.3-.75-.68-.82a2.81,2.81,0,0,0-1.13-1.59c-.15.15-.23.38-.53.3,0,.08.07.23-.07.23-.91.37-1.52,1.43-2.5,1.81-.3.46-.83.61-1.28.91-.68.22-.61-.38-.83-.61-.15-1-1-2.34-.08-3H313V7.54H289l-.16,7.7c-3.39-1.81-6-5.43-7.85-8.6h-6.72A36.15,36.15,0,0,1,265,17.74c.83,2.64,1.74,5.43,2.79,8.08l2-1.21c.38.38.15,1.13.23,1.66l3.84.08c-.07.6,0,1.28-.07,1.88h-7.55v6.65l7.62.15-.07,12.15-1.36.61-6.42.53.38,7.55c6.49-.91,12.91-2.12,19.18-3.47,1.21.53.53,2.19.75,3.32a3.41,3.41,0,0,0,2.12,0c1.13.15,1.43-.68,2.57-.38.3-.61,1.43,0,1.81-.46a32.07,32.07,0,0,0,4.15-.83,13.55,13.55,0,0,0,2.57-.6c.83-.22,2-.08,2.64-.68V47.94l.38-.23a1.41,1.41,0,0,1,.76,1.13c.45.16.52.76,1,1,.23,0-.07.52.31.37,0,.76.9.54.9,1.29.68.15.68,1,1.29,1.13.22.61.75.75,1.13,1.13.08.61.83.46.83,1.06a5.27,5.27,0,0,1,1.51,1.06c.53-.08.3.15.83,0a11.73,11.73,0,0,0,.91-1.59c.3-.23.45-.68.75-.83.15-.3.38-.45.38-.83.38,0,.38-.45.53-.68a9.24,9.24,0,0,0,1.05-1.66c.31,0,.31-.38.53-.68v-.45A11.87,11.87,0,0,1,312.15,46.73ZM277.64,15.47c1.21,1.21,2.64,2.42,3.24,3.93l-5.88.07A27.65,27.65,0,0,1,277.64,15.47ZM288.88,48h-1.65c-.08-1,.07-2-.08-2.86-.3.07-.38-.31-.45-.46.75-2.49,1.05-5.06,1.58-7.55a43.07,43.07,0,0,0-5.51-1.36l-1.59,7.7.15.38,4.23,1a20,20,0,0,1-4.91,1V35h7l.07-6.8-6.94-.15V26.42c1.58-.15,3.25-.07,4.9-.07a18,18,0,0,0,.16-2.88c.37-.37.75.31,1.13.31a37.06,37.06,0,0,0,1.88-3.48Zm7.71-32.69L297,15h8.15c.38.6.15,1.58.23,2.41l-.23.16H297C296.21,17.28,296.74,16.08,296.59,15.32Zm-.38,31.41V33.67c.45-.38,2-.68,1.89.53a43.69,43.69,0,0,0,3.09,11.25A21.81,21.81,0,0,1,296.21,46.73Zm.6-20.09a4,4,0,0,1-.07-2.49h8.31c.52.53.22,1.59.3,2.35A80.77,80.77,0,0,1,296.81,26.64Z"/><path class="cls-1" d="M267.74,46.88c1.21-.22,2.42-.53,3.63-.75.45-.23,1.21-.15,1.36-.61.07-3.09-.68-6-.83-8.9-.76-.54-1.66,0-2.49.07-1.06.23-2.05.53-3.1.75l.53,9.44.22.15C267.36,47,267.67,47.18,267.74,46.88Z"/><path class="cls-1" d="M177.74,38.65a5.18,5.18,0,0,1,.6,3.85A4.83,4.83,0,0,1,170,44.32a4.89,4.89,0,0,1-1.06-3.56,4.83,4.83,0,0,1,8.84-2.11Z"/><path class="cls-1" d="M108.2,35c8.34,21.2,2.44,46.24-14.48,61.18A56.89,56.89,0,0,1,38.09,107.8a55.32,55.32,0,0,1-38-49.71c-1.15-21.67,10.2-41.25,29.2-51.57,17.39-10,43.46-8.34,59.34,3.71C97.31,16.14,104.26,25.41,108.2,35Z"/><path class="cls-2" d="M53.27,25.76c2-.58,4.52-2.08,6.49-.58,1.39,2.1,5.22,2.79,4.17,5.68a39.56,39.56,0,0,0,6.73,7.07c.58.11.81-.23,1-.58L71,37c.82-.7,2.78.45,4.06-.24a3.21,3.21,0,0,1,2.55,1c.58.93.69,2.09,1.51,3l.46-.22a24.62,24.62,0,0,0,1.5,2.89c4.18,1.39,6.14,6.37,9.85,8.45,4.53,3.37,9.27,6.74,14.61,8.7-.24.7.58.7.92.93v.12a3.38,3.38,0,0,0-2.32-.47c.71,1.05,2.44.58,2.79,1.74h-1.86c0,.35.47.35.69.46-.91-.34-1.85.35-2.42-.81a78.25,78.25,0,0,1-10.67-6l-.12.12c2.68,2.54,6.38,4.39,9.4,6.14,1,.57,2.55.92,3.12,2-.35.12-.93.12-1,.58l-.81-.46c-.23.12,0,.35-.12.46l.58.47a50.46,50.46,0,0,1-11.93-7c-1.74-1.17-3.48-2.09-5.22-3.37-.23,0-.57-.11-.69.24,2,1.5,4.06,2.43,6,3.82-3.59-1.74-7.88-4.29-10.78-7.76-1.27-1.28-3.13-4-5.33-3.48-.81.46-2.08.35-3,.81-.69,0-1.27-.81-2-.23-.58,1.27-2.43.23-2.78,1.62-1.16.46-3.24.12-3.59,1.5l.11.59c-2.31,1-5.44.69-7.07,2.89-.46.47-1.38-.11-1.85.47a.35.35,0,0,0-.34-.47c-.59-.23-.93.35-1.4.47-.35-.58.47-.7.35-1-1-.47-1.51.92-2.32,1.38.12-.92,1.17-1,1.51-1.85-.58-.35-1,.23-1.51.35.24-.12.69-.93,0-.93.58-.93,1.86-.58,2.2-1.62h-.92c.92-.69,2-1.51,2.78-2.2-.35,0-1-.93-1.62-.12,0-.12.23-.23.12-.34-.47-.47-1,.34-1.63.34,0,.12.12-.34-.24-.46h-.34c.34-.24.82-.81,1.27-1.16l-.23-.23c1.74-1,3.48-2.21,5.22-3l.34-.34a1.2,1.2,0,0,0-1.85,0c1.51-.12.12-1.74,1.63-2A4.61,4.61,0,0,1,60.92,40c-1.5-1.4-2.09-4-3.82-4.76-.12-1-1.16,0-1.27-1-2.09-.12-4.53.92-5.92-.94a8.82,8.82,0,0,0-3.47-.11,10.89,10.89,0,0,0-1.85,2.89A10.67,10.67,0,0,0,42.5,39c-1,1.39-2.32,3.13-4.17,3.72v-.24c-1.28,1.74-4.06,1-5.68,2.9l-.12-.47a1,1,0,0,0-1.16.7v.23c-.81-.23-1.39.7-1.74,1.16-2,2.08-5.21,2.08-7.3,3.82-.23.12.11,0,0-.11-3.82.81-5.68,3.7-8.23,6.48A15.62,15.62,0,0,1,11.32,60c.24.93-1.15,1.27-1.62,1.74.47-.81,1.51-1.51,1.62-2.44-.92.46-1.15,1.51-2.2,2-.57-.46.58-.81.24-1.27L8,61l1.27-1.74c-.69.12-1.39,1.27-2.2,1.39C6.81,61,6.46,61,6,61v-.11c.47-.36,1.28-1.17,2-1.86-.82-.46-1.74.58-2.32.46-.23-.11-.12-.69-.7-.46.58-.46,1.16-.81,1.39-1.51a2.52,2.52,0,0,0-1.5.47c.11-.58,1.27-.93.92-1.86-1.51-.23-1.27,1.28-2.54,1.62C4.49,56,6.34,55,7.61,53.11L7.5,53C9.93,50.33,13,48.71,16,47c2.43-1.39,5.68-2.09,7.41-4.41a18.41,18.41,0,0,0,1.86-2.66c.35.12.47-.23.58-.47a11,11,0,0,1,5.68-1.73c.92-.93,2.67-.35,3.36-1.63,2.43-2.89,3.36-6.48,5.45-9.38.69-.93,1.5-2.44,2.89-2.78A56.25,56.25,0,0,1,53.27,25.76Z"/><polygon class="cls-1" points="79.12 39.55 78.65 38.04 79.12 39.32 79.12 39.55"/><path class="cls-1" d="M79.92,41.87c-.45-.12-.34-.46-.57-.81A1.45,1.45,0,0,1,79.92,41.87Z"/><path class="cls-1" d="M24.65,42.69c-.34-.71.58-.94.93-1.51A2.7,2.7,0,0,1,24.65,42.69Z"/><polygon class="cls-1" points="35.77 42.91 35.77 42.8 36.12 42.8 35.77 42.91"/><path class="cls-1" d="M33.34,43.61c-.23.23-.35.58-.69.46C32.65,43.72,33.11,43.38,33.34,43.61Z"/><path class="cls-2" d="M55.59,45.58c-.58.46-1.74.81-1.85,1.51C52.69,47,52,48,51.18,48c.12-.92,1.51-.34,1.63-1.27l.93-.7.11.35c.35-.35,1.51-.12,1.16-1Z"/><path class="cls-1" d="M51.88,46.27a1.77,1.77,0,0,1-1.27.93C50.84,46.62,51.3,46.62,51.88,46.27Z"/><path class="cls-1" d="M28,47.67c.23.34-.23,0-.35.22C27.78,47.78,27.89,47.67,28,47.67Z"/><rect class="cls-1" x="54.08" y="48.24" width="0.35" height="0.36"/><path class="cls-1" d="M53.62,49.05c0,.23-.23.23-.35.47h-.34c-.12-.35.23-.47.46-.58S53.5,49.05,53.62,49.05Z"/><path class="cls-1" d="M55.83,51.26c-.13.46-.7.46-.94.58-.34-.12.12-.23.12-.47C55.36,51.49,55.48,51.14,55.83,51.26Z"/><path class="cls-1" d="M56.06,51.94c-.12.47-.93.47-1.4.83-.11-.47.59-.71.93-.93C55.7,51.94,56.06,51.84,56.06,51.94Z"/><path class="cls-1" d="M83.86,53.11c.47.23.7.81,1,1.16l-.35.35a8.26,8.26,0,0,1-1.74-2.68C83.17,52.3,83.4,52.88,83.86,53.11Z"/><path class="cls-1" d="M100.56,59.25c-.36.23-.82-.23-1.16-.34Z"/><path class="cls-1" d="M103.79,61c-.92-.58-2.2-.58-2.89-1.28A6.48,6.48,0,0,1,103.79,61Z"/><polygon class="cls-1" points="93.6 60.88 92.21 59.83 93.14 60.29 93.6 60.88"/><polygon class="cls-1" points="103.45 64.35 103.57 64.12 103.91 64.35 103.45 64.35"/><path class="cls-1" d="M103,64.93h-.47V64.7C102.64,64.81,102.87,64.81,103,64.93Z"/><path class="cls-1" d="M340.7,92.39c.05.1.2,0,.3,0l.05-15h5.35v24.71h-5.35L331.62,86.2l-.15,0v15.87h-5.31V77.41l5.85,0Z"/><path class="cls-1" d="M361.29,86.5a.62.62,0,0,0,.59,0l8.21-9h6.68l-9.19,9.63.05.73,9.82,14.35-6,0c-2.55-3.59-5-7.37-7.61-11l-.4,0-2.11,2v8.85h-5.35V77.41h5.35Z"/><path class="cls-1" d="M311.57,77.26h-5.5l-8.55,24.37-.1.54H303l1.38-4.33c.1-.29.1-.59.34-.83l8.7,0,1.62,5.06h5.5v-.05Zm-5.5,15.53c.88-3.1,1.86-6.14,2.85-9.19h.1c.93,3.05,2,6.16,2.84,9.21C311.61,92.89,308,92.74,306.07,92.79Z"/><path class="cls-1" d="M287.67,89.05v-.34a5.56,5.56,0,0,0,2.51-7.86c-1.14-2.21-3.45-3-5.66-3.39l-12.08,0v24.71h12.48a9.48,9.48,0,0,0,3.63-1.08,6.62,6.62,0,0,0,3.19-5.16A7.37,7.37,0,0,0,287.67,89.05Zm-9.73-7.56c2.78.19,6.87-.76,7.71,1.91.1,1.13.1,2.36-.88,3.1a2.46,2.46,0,0,1-1.53.59h-5.3Zm7.61,15.32c-1.93,1.85-4.47,1-7.61,1.08V91.46l6,0A3.79,3.79,0,0,1,286,92.88C286.19,94.11,286.54,95.87,285.55,96.81Z"/><path class="cls-1" d="M139.53,78.05h17.74v4H144.34v5.32h12v4h-12v6.49h13.37v4H139.53Z"/><path class="cls-1" d="M178.65,93.76c.23,1.24.87,4.57,5.21,4.57,3.38,0,4.72-1.77,4.72-3.3,0-2-1.68-2.44-6.09-3.51-2.36-.6-7.64-1.91-7.64-7.18,0-2.61,1.7-6.68,8.71-6.68,4.68,0,8.95,1.83,9.15,7.24l-4.83.21c-.21-1.24-.56-3.49-4.38-3.49-1.44,0-4,.44-4,2.38,0,1.54,1.5,2.21,5.34,3.11,3.64.87,8.59,2,8.59,7.92a7,7,0,0,1-3.91,6.28,13.75,13.75,0,0,1-5.65,1.07c-2.57,0-8.92-.23-9.85-8.19Z"/><path class="cls-1" d="M206.79,78.05V91c0,2.83,0,4,.6,5.15a4.55,4.55,0,0,0,4.25,2.09c4.6,0,4.6-2.9,4.6-7V78.05h4.81V90.62c0,4.27-.16,6.64-1.33,8.46-1.84,2.83-5.29,3.3-7.95,3.3-9.79,0-9.79-6-9.79-11.56V78.05Z"/><path class="cls-1" d="M230.9,78.05h4.68l9.72,16h.07v-16h4.48V102H245l-9.57-15.6h-.07V102H230.9Z"/><path class="cls-1" d="M169.63,98.91a3.09,3.09,0,1,0-3.08,3.09A3.09,3.09,0,0,0,169.63,98.91Z"/></g></g></svg>