<?xml version="1.0" encoding="utf-8"?>
<!-- Generator: Adobe Illustrator 16.0.0, SVG Export Plug-In . SVG Version: 6.00 Build 0)  -->
<!DOCTYPE svg PUBLIC "-//W3C//DTD SVG 1.1//EN" "http://www.w3.org/Graphics/SVG/1.1/DTD/svg11.dtd">
<svg version="1.1" id="圖層_1" xmlns="http://www.w3.org/2000/svg" xmlns:xlink="http://www.w3.org/1999/xlink" x="0px" y="0px"
	 width="186px" height="75px" viewBox="0 0 186 75" enable-background="new 0 0 186 75" xml:space="preserve">
<g>
	
		<path fill-rule="evenodd" clip-rule="evenodd" fill="none" stroke="#000000" stroke-width="3" stroke-linecap="round" stroke-linejoin="round" stroke-miterlimit="10" d="
		M56.257,66.263c0-3.092,0-6.183,0-9.757c4.446,0,8.395,0,12.582,0c0-5.81,0-11.121,0-16.434c2.5-0.4,4.75-0.76,7.982-1.275
		c-4.533-7.876-8.187-15.478-13.018-22.233c-4.106-5.746-10.467-8.562-17.817-8.33"/>
	
		<path fill-rule="evenodd" clip-rule="evenodd" fill="none" stroke="#000000" stroke-width="3" stroke-linecap="round" stroke-linejoin="round" stroke-miterlimit="10" d="
		M20.688,29.658c0.224,0.401,0.803,0.209,1.19,0.209c11.209,0,22.225,0.192,33.352-0.064"/>
	
		<path fill-rule="evenodd" clip-rule="evenodd" fill="none" stroke="#000000" stroke-width="3" stroke-linecap="round" stroke-linejoin="round" stroke-miterlimit="10" d="
		M27.5,52.911"/>
	
		<path fill-rule="evenodd" clip-rule="evenodd" fill="none" stroke="#000000" stroke-width="3" stroke-linecap="round" stroke-linejoin="round" stroke-miterlimit="10" d="
		M26.986,52.396"/>
	
		<path fill-rule="evenodd" clip-rule="evenodd" fill="none" stroke="#000000" stroke-width="3" stroke-linecap="round" stroke-linejoin="round" stroke-miterlimit="10" d="
		M28.01,53.129c6.507,0.025,13.013,0.052,19.521,0.077"/>
	
		<path fill-rule="evenodd" clip-rule="evenodd" fill="none" stroke="#000000" stroke-width="3" stroke-linecap="round" stroke-linejoin="round" stroke-miterlimit="10" d="
		M34.689,30.829c0,2.054,0,4.108,0,6.164"/>
</g>
<ellipse fill-rule="evenodd" clip-rule="evenodd" fill="none" stroke="#000000" stroke-width="3" stroke-linecap="round" stroke-linejoin="round" stroke-miterlimit="10" cx="20.688" cy="20.046" rx="3.766" ry="4.108"/>
<ellipse fill-rule="evenodd" clip-rule="evenodd" fill="none" stroke="#000000" stroke-width="3" stroke-linecap="round" stroke-linejoin="round" stroke-miterlimit="10" cx="34.698" cy="42.126" rx="3.766" ry="4.107"/>
<line fill="none" stroke="#000000" stroke-width="3" stroke-linecap="round" stroke-linejoin="round" stroke-miterlimit="10" x1="41.472" y1="53.424" x2="41.472" y2="62.671"/>
<line fill="none" stroke="#000000" stroke-width="3" stroke-linecap="round" stroke-linejoin="round" stroke-miterlimit="10" x1="45.986" y1="20.046" x2="34.689" y2="20.046"/>
<line fill="none" stroke="#000000" stroke-width="3" stroke-linecap="round" stroke-linejoin="round" stroke-miterlimit="10" x1="34.689" y1="20.046" x2="34.689" y2="12.345"/>
<ellipse fill-rule="evenodd" clip-rule="evenodd" fill="none" stroke="#000000" stroke-width="3" stroke-linecap="round" stroke-linejoin="round" stroke-miterlimit="10" cx="34.688" cy="8.221" rx="3.766" ry="4.108"/>
<ellipse fill-rule="evenodd" clip-rule="evenodd" fill="none" stroke="#000000" stroke-width="3" stroke-linecap="round" stroke-linejoin="round" stroke-miterlimit="10" cx="41.472" cy="66.779" rx="3.766" ry="4.107"/>
<ellipse fill-rule="evenodd" clip-rule="evenodd" fill="none" stroke="#000000" stroke-width="3" stroke-linecap="round" stroke-linejoin="round" stroke-miterlimit="10" cx="23.739" cy="53.424" rx="3.766" ry="4.109"/>
<line fill="none" stroke="#000000" stroke-width="3" stroke-linecap="round" stroke-linejoin="round" stroke-miterlimit="10" x1="20.688" y1="29.658" x2="20.688" y2="24.154"/>
<g>
	<path d="M92.969,13.761c0.399-0.888,0.926-2.02,0.926-3.036c0-0.887,0.411-1.556,1.556-1.556c1.119,0,1.827,1.145,2.329,1.993
		c0.219,0.373,2.16,4.31,2.624,5.364c0.424,0.978,1.119,0.386,1.119,1.119c0,0.938-1.827,0.9-2.47,0.9
		c-1.84,0-2.946-0.013-2.946-0.811c0-0.617,0.785-0.386,0.785-0.836c0-0.579-0.322-0.631-2.393-0.631
		c-0.669,0-1.067,0.026-1.067,0.656c0,0.502,0.823,0.167,0.823,0.836c0,0.772-1.39,0.785-1.904,0.785
		c-1.84,0-2.007-0.348-2.007-0.759c0-0.604,0.695-0.425,1.068-0.888c0.283-0.348,0.553-0.965,0.746-1.376L92.969,13.761z
		 M95.67,14.687c0.129,0,0.515,0.026,0.515-0.167c0-0.192-0.373-0.861-0.476-1.042c-0.116-0.206-0.335-0.682-0.617-0.682
		c-0.309,0-0.527,0.771-0.579,0.913s-0.271,0.644-0.271,0.798c0,0.219,0.322,0.18,0.464,0.18H95.67z"/>
	<path d="M105.241,11.908c0.231,0.039,0.438,0.09,0.527,0.09c0.129,0,0.231-0.038,0.348-0.09c0.115-0.038,0.231-0.077,0.347-0.077
		c0.592,0,1.184,1.184,1.184,1.711c0,0.348-0.296,0.604-0.63,0.604c-0.733,0-1.146-1.016-1.711-1.016
		c-0.231,0-0.463,0.192-0.463,0.437c0,0.823,2.829,0.978,2.829,2.972c0,1.209-1.17,2.045-2.508,2.045
		c-0.258,0-0.631-0.038-0.952-0.09c-0.321-0.038-0.604-0.077-0.682-0.077c-0.09,0-0.167,0.013-0.257,0.026
		c-0.077,0.013-0.154,0.025-0.245,0.025c-0.257,0-0.386-0.039-0.565-0.244c-0.321-0.36-0.644-1.094-0.644-1.583
		c0-0.334,0.116-0.604,0.489-0.604c0.565,0,1.08,1.273,1.801,1.273c0.257,0,0.502-0.128,0.502-0.411
		c0-0.759-2.521-0.849-2.521-2.972c0-1.286,1.055-2.097,2.38-2.097C104.727,11.831,104.997,11.857,105.241,11.908z"/>
	<path d="M111.892,16.024c0,1.518,0.759,0.965,0.759,1.646c0,0.875-1.634,0.875-2.212,0.875c-2.213,0-2.303-0.502-2.303-0.811
		c0-0.463,0.527-0.488,0.682-0.888c0.167-0.45,0.193-2.315,0.052-2.791c-0.116-0.45-0.772-0.309-0.772-0.888
		c0-0.913,3.268-1.299,3.396-1.299c0.386,0,0.398,0.296,0.398,0.565V16.024z M109.345,11.458c-0.54,0-1.119-0.244-1.119-0.874
		c0-0.85,1.698-1.196,2.354-1.196c0.515,0,1.247,0.167,1.247,0.81C111.827,11.201,110.078,11.458,109.345,11.458z"/>
	<path d="M119.507,15.33c0,2.264,0.771,1.029,0.771,1.724c0,0.733-1.003,1.53-1.942,1.53c-1.016,0-1.042-0.655-1.363-0.655
		c-0.154,0-0.321,0.167-0.604,0.321c-0.283,0.167-0.669,0.334-1.261,0.334c-1.067,0-2.135-0.565-2.135-1.839
		c0-0.913,0.874-2.046,3.139-2.046c0.398,0,0.578,0.026,0.578-0.437c0-0.425-0.013-1.313-0.604-1.313
		c-0.771,0-0.849,1.39-1.993,1.39c-0.412,0-0.721-0.296-0.721-0.708c0-1.093,2.174-1.801,3.396-1.801c0.733,0,2.74,0.283,2.74,2.213
		V15.33z M115.647,16.462c0,0.335,0.181,0.694,0.554,0.694c0.488,0,0.527-0.527,0.527-0.913c0-0.283,0.013-0.604-0.348-0.604
		C115.943,15.639,115.647,16.051,115.647,16.462z"/>
	<path d="M125.888,11.343c0-0.965-1.196-0.541-1.196-1.351c0-0.515,0.565-0.631,0.965-0.631c0.321,0,0.63,0.026,0.951,0.026
		c1.865,0,2.997-0.181,3.538-0.181c1.749,0,3.434,1.017,3.434,2.945c0,1.917-1.62,2.946-3.408,2.946
		c-0.386,0-0.771-0.064-1.119-0.064c-0.154,0-0.206,0.064-0.206,0.206v0.746c0.039,1.607,0.978,0.938,0.978,1.685
		c0,0.836-1.853,0.875-2.431,0.875c-0.54,0-2.444-0.013-2.444-0.849c0-0.708,0.939-0.271,0.939-1.325V11.343z M129.335,10.725
		c-0.502,0-0.489,0.154-0.489,0.412v1.93c0,0.27-0.115,0.565,0.579,0.565c0.849,0,1.184-0.643,1.184-1.428
		C130.608,11.394,130.196,10.725,129.335,10.725z"/>
	<path d="M140.475,15.33c0,2.264,0.772,1.029,0.772,1.724c0,0.733-1.004,1.53-1.942,1.53c-1.017,0-1.042-0.655-1.363-0.655
		c-0.154,0-0.322,0.167-0.604,0.321c-0.283,0.167-0.669,0.334-1.261,0.334c-1.068,0-2.136-0.565-2.136-1.839
		c0-0.913,0.875-2.046,3.139-2.046c0.398,0,0.579,0.026,0.579-0.437c0-0.425-0.013-1.313-0.604-1.313c-0.772,0-0.85,1.39-1.994,1.39
		c-0.411,0-0.721-0.296-0.721-0.708c0-1.093,2.175-1.801,3.396-1.801c0.733,0,2.739,0.283,2.739,2.213V15.33z M136.616,16.462
		c0,0.335,0.18,0.694,0.553,0.694c0.489,0,0.527-0.527,0.527-0.913c0-0.283,0.014-0.604-0.347-0.604
		C136.912,15.639,136.616,16.051,136.616,16.462z"/>
	<path d="M145.415,11.831c1.929,0,2.945,1.067,2.945,1.968c0,0.721-0.54,1.273-1.261,1.273c-1.39,0-0.746-1.595-1.762-1.595
		c-0.566,0-0.875,0.579-0.875,1.094c0,0.952,0.707,1.916,1.724,1.916c0.811,0,1.08-0.334,1.351-0.334
		c0.348,0,0.579,0.386,0.579,0.694c0,0.759-1.158,1.736-2.959,1.736c-1.942,0-3.512-1.428-3.512-3.396
		C141.646,13.336,143.254,11.831,145.415,11.831z"/>
	<path d="M152.464,16.024c0,1.518,0.759,0.965,0.759,1.646c0,0.875-1.634,0.875-2.212,0.875c-2.213,0-2.303-0.502-2.303-0.811
		c0-0.463,0.527-0.488,0.682-0.888c0.167-0.45,0.193-2.315,0.052-2.791c-0.116-0.45-0.772-0.309-0.772-0.888
		c0-0.913,3.268-1.299,3.396-1.299c0.386,0,0.398,0.296,0.398,0.565V16.024z M149.917,11.458c-0.54,0-1.119-0.244-1.119-0.874
		c0-0.85,1.698-1.196,2.354-1.196c0.515,0,1.247,0.167,1.247,0.81C152.399,11.201,150.65,11.458,149.917,11.458z"/>
	<path d="M157.378,16.604c0,0.694,0.772,0.411,0.772,1.055c0,0.888-1.698,0.888-2.393,0.888c-0.618,0-2.277-0.013-2.277-0.913
		c0-0.721,0.9-0.386,0.952-1.171l0.103-1.39c0.026-0.398-0.103-0.604-0.514-0.604c-0.373,0-0.45,0.014-0.515-0.051
		c-0.052-0.077-0.039-0.193-0.039-0.54c0-0.683,0-0.708,0.309-0.733c0.154-0.013,0.36-0.026,0.36-0.245
		c0-0.244-0.488-0.72-0.488-1.53c0-1.53,1.582-2.045,2.868-2.045c0.784,0,2.135,0.488,2.135,1.569c0,0.476-0.386,0.938-0.874,0.938
		c-0.682,0-1.132-1.003-1.686-1.003c-0.231,0-0.398,0.231-0.398,0.45c0,0.811,1.389,1.17,1.543,1.62
		c0.052,0.168,0.078,0.168,0.245,0.168c0.296,0,0.771-0.091,0.759,0.244l-0.052,0.823c-0.038,0.334-0.064,0.334-0.334,0.334
		c-0.566,0-0.477,0.862-0.477,1.223V16.604z M159.514,14.34c0-0.785-0.694-0.502-0.694-1.158c0-0.965,2.855-1.312,3.202-1.312
		c0.36,0,0.399,0.219,0.399,0.527v3.794c0,1.313,0.759,0.746,0.759,1.492c0,0.387-0.219,0.862-2.277,0.862
		c-1.736,0-2.07-0.373-2.07-0.759c0-0.656,0.682-0.36,0.682-1.209V14.34z M160.298,11.278c-0.463,0-1.08-0.181-1.08-0.759
		c0-0.862,1.453-1.132,2.097-1.132c0.463,0,1.042,0.231,1.042,0.771C162.356,11.06,160.967,11.278,160.298,11.278z"/>
	<path d="M167.296,11.831c1.93,0,2.946,1.067,2.946,1.968c0,0.721-0.541,1.273-1.261,1.273c-1.39,0-0.746-1.595-1.763-1.595
		c-0.566,0-0.875,0.579-0.875,1.094c0,0.952,0.708,1.916,1.724,1.916c0.811,0,1.081-0.334,1.351-0.334
		c0.348,0,0.579,0.386,0.579,0.694c0,0.759-1.157,1.736-2.958,1.736c-1.942,0-3.512-1.428-3.512-3.396
		C163.527,13.336,165.135,11.831,167.296,11.831z"/>
	<path d="M106.077,30.227c-0.077-0.168-0.219-0.554-0.45-0.554c-0.399,0-0.271,1.698-0.271,2.123c0,1.376,0.823,0.732,0.823,1.428
		c0,0.733-1.376,0.759-1.878,0.759c-0.45,0-1.621-0.039-1.621-0.708c0-0.732,0.771-0.128,0.875-1.183
		c0.103-1.081,0.219-2.277,0.219-4.143c0-0.771-0.052-1.17-0.193-1.466c-0.129-0.271-0.861-0.36-0.861-0.888
		c0-0.733,1.196-0.913,2.225-0.913c1.506,0,1.479,0.257,1.865,0.913c0.45,0.759,1.248,2.868,1.814,2.997
		c0.398,0.09,0.926-1.467,1.389-2.315c0.656-1.209,0.669-1.595,2.367-1.595c0.565,0,1.853,0.038,1.853,0.849
		c0,0.515-0.579,0.617-0.708,1.055c-0.103,0.36-0.193,1.878-0.193,2.457c0,0.192,0.078,1.607,0.129,2.804
		c0.039,0.939,0.811,0.733,0.811,1.313c0,0.861-1.763,0.823-2.328,0.823c-0.527,0-2.29,0.052-2.29-0.771
		c0-0.45,0.579-0.527,0.669-0.939c0.052-0.219,0.309-2.431-0.142-2.431c-0.398,0-0.81,1.132-1.119,1.787
		c-0.282,0.592-0.746,2.059-1.157,2.007c-0.206-0.025-0.309,0-1.08-1.736L106.077,30.227z"/>
	<path d="M121.166,30.767c0,2.264,0.771,1.029,0.771,1.724c0,0.733-1.003,1.53-1.942,1.53c-1.016,0-1.042-0.655-1.363-0.655
		c-0.154,0-0.321,0.167-0.604,0.321c-0.283,0.167-0.669,0.334-1.261,0.334c-1.067,0-2.135-0.565-2.135-1.839
		c0-0.913,0.874-2.045,3.139-2.045c0.398,0,0.578,0.025,0.578-0.438c0-0.425-0.013-1.313-0.604-1.313
		c-0.771,0-0.849,1.39-1.993,1.39c-0.412,0-0.721-0.296-0.721-0.708c0-1.093,2.174-1.801,3.396-1.801c0.733,0,2.74,0.283,2.74,2.213
		V30.767z M117.307,31.898c0,0.335,0.181,0.694,0.554,0.694c0.488,0,0.527-0.527,0.527-0.913c0-0.283,0.013-0.604-0.348-0.604
		C117.603,31.075,117.307,31.487,117.307,31.898z"/>
	<path d="M126.106,27.268c1.929,0,2.945,1.067,2.945,1.968c0,0.721-0.54,1.273-1.261,1.273c-1.39,0-0.746-1.595-1.762-1.595
		c-0.566,0-0.875,0.579-0.875,1.094c0,0.951,0.707,1.916,1.724,1.916c0.811,0,1.08-0.334,1.351-0.334
		c0.348,0,0.579,0.386,0.579,0.694c0,0.759-1.158,1.736-2.959,1.736c-1.942,0-3.512-1.428-3.512-3.396
		C122.337,28.772,123.945,27.268,126.106,27.268z"/>
	<path d="M137.645,31.924c0,1.094,0.63,0.823,0.63,1.325c0,0.746-1.646,0.733-2.122,0.733c-0.399,0-1.955,0-1.955-0.656
		c0-0.373,0.359-0.36,0.463-1.016c0.077-0.412,0.09-0.862,0.09-1.287c0-0.643-0.013-1.852-0.926-1.852
		c-0.785,0-0.76,0.669-0.76,1.247v1.492c0,1.067,0.515,0.85,0.515,1.313c0,0.746-1.466,0.759-1.955,0.759
		c-1.839,0-2.264-0.386-2.264-0.785c0-0.514,0.502-0.282,0.721-1.119c0.154-0.604,0.154-2.302,0.154-3.01
		c0-0.578-0.039-1.17-0.052-1.749c-0.025-0.913-0.798-0.592-0.798-1.196c0-1.029,3.345-1.299,3.357-1.299
		c0.386,0,0.412,0.115,0.412,0.488l-0.077,2.444c-0.014,0.244-0.026,0.655,0.309,0.655c0.386,0,0.553-1.145,1.993-1.145
		c2.367,0,2.2,2.226,2.213,2.586L137.645,31.924z"/>
	<path d="M142.327,31.461c0,1.518,0.759,0.965,0.759,1.646c0,0.875-1.634,0.875-2.212,0.875c-2.213,0-2.303-0.502-2.303-0.811
		c0-0.463,0.527-0.488,0.682-0.888c0.167-0.45,0.193-2.315,0.052-2.791c-0.116-0.45-0.772-0.309-0.772-0.888
		c0-0.913,3.268-1.299,3.396-1.299c0.386,0,0.398,0.296,0.398,0.565V31.461z M139.78,26.895c-0.54,0-1.119-0.244-1.119-0.875
		c0-0.849,1.698-1.195,2.354-1.195c0.515,0,1.247,0.167,1.247,0.81C142.263,26.638,140.514,26.895,139.78,26.895z"/>
	<path d="M147.061,31.692c0,1.248,0.438,1.029,0.438,1.519c0,0.797-1.711,0.771-2.238,0.771c-0.514,0-1.826,0-1.826-0.771
		c0-0.618,0.592-0.064,0.63-1.325l0.052-1.93c0.025-0.952-0.759-0.644-0.759-1.325s2.959-1.324,3.216-1.324
		c0.283,0,0.463,0.244,0.463,0.501c0,0.077-0.013,0.154-0.013,0.231c0,0.155,0.064,0.335,0.257,0.335
		c0.206,0,0.322-0.271,0.579-0.54c0.258-0.258,0.644-0.527,1.377-0.527c2.662,0,2.212,2.611,2.341,4.566
		c0.064,1.016,0.592,0.784,0.592,1.338c0,0.231,0.051,0.771-2.367,0.771c-0.463,0-1.698,0.025-1.698-0.694
		c0-0.464,0.425-0.245,0.489-1.081c0.064-0.913,0.425-2.972-0.785-2.972c-0.823,0-0.746,0.888-0.746,1.467V31.692z"/>
	<path d="M155.692,30.882c-0.142,0-0.348-0.038-0.348,0.181c0,0.643,0.837,1.184,1.441,1.184c0.965,0,1.44-0.579,1.711-0.579
		c0.27,0,0.501,0.398,0.501,0.644c0,0.99-1.813,1.71-2.971,1.71c-2.315,0-3.512-1.672-3.512-3.331c0-1.981,1.685-3.422,3.614-3.422
		c2.187,0,3.151,1.686,3.151,2.65c0,0.849-0.386,0.964-0.798,0.964H155.692z M156.812,29.262c0-0.463-0.283-0.823-0.759-0.823
		c-0.425,0-0.771,0.438-0.771,0.849c0,0.463,0.437,0.36,0.771,0.36C156.4,29.647,156.812,29.725,156.812,29.262z"/>
	<path d="M91.593,44.133c0-1.634-0.128-2.007-0.27-2.187c-0.296-0.373-0.797-0.411-0.797-0.9c0-0.926,2.624-0.926,2.881-0.926
		c0.771,0,2.354,0.025,2.354,0.9c0,0.463-0.489,0.437-0.785,0.771c-0.244,0.283-0.257,1.44-0.257,2.341v1.273
		c0,2.29,0.154,2.238,0.411,2.393c0.321,0.193,0.631,0.258,0.631,0.656c0,0.386-0.116,0.965-2.933,0.965
		c-0.54,0-2.161-0.013-2.161-0.836c0-0.412,0.437-0.477,0.643-0.721c0.154-0.18,0.283-0.656,0.283-2.457V44.133z"/>
	<path d="M99.773,47.13c0,1.248,0.438,1.029,0.438,1.519c0,0.797-1.711,0.771-2.238,0.771c-0.514,0-1.826,0-1.826-0.771
		c0-0.618,0.592-0.064,0.63-1.325l0.052-1.93c0.025-0.952-0.759-0.644-0.759-1.325s2.959-1.324,3.216-1.324
		c0.283,0,0.463,0.244,0.463,0.501c0,0.077-0.013,0.154-0.013,0.231c0,0.155,0.064,0.335,0.257,0.335
		c0.206,0,0.322-0.271,0.579-0.54c0.258-0.258,0.644-0.527,1.377-0.527c2.662,0,2.212,2.611,2.341,4.566
		c0.064,1.016,0.592,0.784,0.592,1.338c0,0.231,0.051,0.771-2.367,0.771c-0.463,0-1.698,0.025-1.698-0.694
		c0-0.464,0.425-0.245,0.489-1.081c0.064-0.913,0.425-2.972-0.785-2.972c-0.823,0-0.746,0.888-0.746,1.467V47.13z"/>
	<path d="M109.177,46.5c0,0.861,0.36,1.067,0.708,1.067c0.398,0,0.63-0.296,0.861-0.296c0.258,0,0.438,0.36,0.438,0.592
		c0,0.849-1.466,1.595-2.766,1.595c-0.655,0-2.302-0.282-2.302-2.328V44.48c0-0.231,0-0.321-0.064-0.36
		c-0.064-0.038-0.206-0.013-0.502-0.013c-0.334,0-0.502,0.013-0.566-0.052c-0.09-0.09-0.063-0.219-0.063-0.515
		c0-0.18-0.039-0.321,0.115-0.424l2.933-1.865c0.296-0.181,0.283-0.142,0.669-0.142c0.515,0,0.54-0.052,0.54,0.54
		c0,0.398-0.025,0.798,0.039,0.952c0.038,0.103,0.129,0.103,0.463,0.103h0.9c0.554,0,0.554,0.039,0.554,0.617
		c0,0.733-0.091,0.785-0.592,0.785h-0.888c-0.45,0-0.477,0.013-0.477,0.476V46.5z"/>
	<path d="M114.671,46.319c-0.142,0-0.348-0.038-0.348,0.181c0,0.643,0.836,1.184,1.44,1.184c0.965,0,1.44-0.579,1.711-0.579
		s0.502,0.398,0.502,0.644c0,0.99-1.813,1.71-2.972,1.71c-2.315,0-3.512-1.672-3.512-3.331c0-1.981,1.686-3.422,3.614-3.422
		c2.188,0,3.152,1.686,3.152,2.65c0,0.849-0.387,0.964-0.798,0.964H114.671z M115.79,44.699c0-0.463-0.283-0.823-0.76-0.823
		c-0.424,0-0.771,0.438-0.771,0.849c0,0.463,0.438,0.36,0.771,0.36C115.378,45.085,115.79,45.162,115.79,44.699z"/>
	<path d="M122.466,46.976c0,0.231-0.013,0.656,0.052,0.862c0.142,0.463,0.72,0.244,0.72,0.784c0,0.862-1.569,0.798-2.122,0.798
		c-0.579,0-2.38,0.064-2.38-0.849c0-0.45,0.554-0.283,0.708-0.76c0.167-0.527,0.167-2.135,0.167-2.766
		c0-0.501,0.025-1.466-0.09-2.045c-0.193-0.952-0.952-0.617-0.952-1.351c0-1.119,3.345-1.389,3.524-1.389
		c0.438,0,0.54,0.282,0.54,0.668c0,0.296-0.167,1.711-0.167,3.551V46.976z"/>
	<path d="M127.405,46.976c0,0.231-0.013,0.656,0.052,0.862c0.142,0.463,0.72,0.244,0.72,0.784c0,0.862-1.569,0.798-2.122,0.798
		c-0.579,0-2.38,0.064-2.38-0.849c0-0.45,0.554-0.283,0.708-0.76c0.167-0.527,0.167-2.135,0.167-2.766
		c0-0.501,0.025-1.466-0.09-2.045c-0.193-0.952-0.952-0.617-0.952-1.351c0-1.119,3.345-1.389,3.524-1.389
		c0.438,0,0.54,0.282,0.54,0.668c0,0.296-0.167,1.711-0.167,3.551V46.976z"/>
	<path d="M132.242,46.898c0,1.518,0.759,0.965,0.759,1.646c0,0.875-1.634,0.875-2.213,0.875c-2.212,0-2.303-0.502-2.303-0.811
		c0-0.463,0.528-0.488,0.683-0.888c0.167-0.45,0.192-2.315,0.051-2.791c-0.115-0.45-0.771-0.309-0.771-0.888
		c0-0.913,3.268-1.299,3.396-1.299c0.387,0,0.399,0.296,0.399,0.565V46.898z M129.695,42.332c-0.541,0-1.119-0.244-1.119-0.875
		c0-0.849,1.697-1.195,2.354-1.195c0.515,0,1.248,0.167,1.248,0.81C132.178,42.075,130.428,42.332,129.695,42.332z"/>
	<path d="M136.603,51.89c-2.379,0-3.279-0.9-3.279-1.724c0-0.746,0.707-0.759,0.707-0.952c0-0.167-0.694-0.527-0.694-1.093
		c0-0.914,1.042-1.184,1.042-1.364c0-0.154-0.875-0.746-0.875-1.697c0-1.557,1.942-2.277,3.241-2.277
		c0.656,0,1.544,0.244,1.994,0.244c0.978,0,1.467-0.682,1.659-0.682c0.296,0,0.425,0.387,0.425,0.631
		c0,0.72-0.721,1.234-0.721,1.376c0,0.129,0.039,0.271,0.039,0.398c0,1.737-2.02,2.329-3.435,2.329
		c-0.219,0-0.438-0.039-0.669-0.039c-0.219,0-0.348,0.142-0.348,0.348c0,0.398,0.566,0.476,0.862,0.476
		c0.398,0,1.891-0.219,2.405-0.219c1.338,0,1.903,0.759,1.903,1.531C140.86,50.333,139.755,51.89,136.603,51.89z M136.731,50.783
		c0.425,0,1.39-0.064,1.39-0.656c0-0.27-0.258-0.386-0.502-0.386c-0.193,0-0.694,0.077-1.106,0.077c-0.296,0-0.99-0.103-1.132-0.103
		c-0.115,0-0.154,0.115-0.154,0.206C135.227,50.604,136.23,50.783,136.731,50.783z M136.809,43.722c-0.501,0-0.72,0.476-0.72,0.926
		c0,0.489,0.128,1.557,0.784,1.557c0.579,0,0.771-0.502,0.771-1.003C137.645,44.673,137.529,43.722,136.809,43.722z"/>
	<path d="M144.347,46.319c-0.142,0-0.348-0.038-0.348,0.181c0,0.643,0.837,1.184,1.441,1.184c0.965,0,1.44-0.579,1.711-0.579
		c0.27,0,0.501,0.398,0.501,0.644c0,0.99-1.813,1.71-2.971,1.71c-2.315,0-3.512-1.672-3.512-3.331c0-1.981,1.685-3.422,3.614-3.422
		c2.187,0,3.151,1.686,3.151,2.65c0,0.849-0.386,0.964-0.798,0.964H144.347z M145.466,44.699c0-0.463-0.283-0.823-0.759-0.823
		c-0.425,0-0.771,0.438-0.771,0.849c0,0.463,0.437,0.36,0.771,0.36C145.055,45.085,145.466,45.162,145.466,44.699z"/>
	<path d="M151.949,47.13c0,1.248,0.438,1.029,0.438,1.519c0,0.797-1.711,0.771-2.238,0.771c-0.514,0-1.826,0-1.826-0.771
		c0-0.618,0.592-0.064,0.63-1.325l0.052-1.93c0.025-0.952-0.759-0.644-0.759-1.325s2.959-1.324,3.216-1.324
		c0.283,0,0.463,0.244,0.463,0.501c0,0.077-0.013,0.154-0.013,0.231c0,0.155,0.064,0.335,0.257,0.335
		c0.206,0,0.322-0.271,0.579-0.54c0.258-0.258,0.644-0.527,1.377-0.527c2.662,0,2.212,2.611,2.341,4.566
		c0.064,1.016,0.592,0.784,0.592,1.338c0,0.231,0.051,0.771-2.367,0.771c-0.463,0-1.698,0.025-1.698-0.694
		c0-0.464,0.425-0.245,0.489-1.081c0.064-0.913,0.425-2.972-0.785-2.972c-0.823,0-0.746,0.888-0.746,1.467V47.13z"/>
	<path d="M161.173,42.705c1.93,0,2.945,1.067,2.945,1.968c0,0.721-0.54,1.273-1.26,1.273c-1.39,0-0.746-1.595-1.763-1.595
		c-0.566,0-0.875,0.579-0.875,1.094c0,0.951,0.708,1.916,1.724,1.916c0.811,0,1.081-0.334,1.351-0.334
		c0.348,0,0.579,0.386,0.579,0.694c0,0.759-1.157,1.736-2.958,1.736c-1.942,0-3.512-1.428-3.512-3.396
		C157.404,44.21,159.012,42.705,161.173,42.705z"/>
	<path d="M167.695,46.319c-0.142,0-0.348-0.038-0.348,0.181c0,0.643,0.836,1.184,1.44,1.184c0.965,0,1.441-0.579,1.711-0.579
		c0.271,0,0.502,0.398,0.502,0.644c0,0.99-1.813,1.71-2.972,1.71c-2.315,0-3.512-1.672-3.512-3.331c0-1.981,1.686-3.422,3.614-3.422
		c2.188,0,3.152,1.686,3.152,2.65c0,0.849-0.386,0.964-0.798,0.964H167.695z M168.814,44.699c0-0.463-0.283-0.823-0.76-0.823
		c-0.424,0-0.771,0.438-0.771,0.849c0,0.463,0.438,0.36,0.771,0.36C168.402,45.085,168.814,45.162,168.814,44.699z"/>
	<path d="M107.826,55.518c1.261,0,2.071,0.631,2.405,0.631c0.283,0,0.36-0.091,0.579-0.091c0.54,0,1.234,0.811,1.234,2.238
		c0,0.733-0.438,1.351-1.196,1.351c-1.324,0-0.99-2.276-3.28-2.276c-0.99,0-1.401,0.926-1.401,1.634
		c0,1.903,1.016,3.524,2.816,3.524c1.634,0,1.878-0.888,2.277-0.888c0.373,0,0.553,0.438,0.553,0.759
		c0,0.566-0.592,1.749-1.234,1.749c-0.438,0-1.338,0.746-2.855,0.746c-2.702,0-4.914-2.135-4.914-4.721
		C102.81,57.537,105.292,55.518,107.826,55.518z"/>
	<path d="M112.457,61.743c0-2.302,2.02-3.602,4.143-3.602c2.251,0,3.537,1.763,3.537,3.357c0,2.109-2.264,3.396-4.155,3.396
		C114.078,64.895,112.457,63.775,112.457,61.743z M116.046,59.659c-0.424,0-0.655,0.399-0.63,0.772
		c0.052,0.811,0.283,2.791,1.171,2.843c0.488,0.025,0.591-0.386,0.591-0.798C117.178,61.897,116.921,59.659,116.046,59.659z"/>
	<path d="M121.27,61.126c0-0.823-0.167-1.055-0.296-1.171c-0.167-0.141-0.348-0.128-0.348-0.463c0-0.951,3.19-1.312,3.216-1.312
		c0.321,0,0.348,0.282,0.348,0.553c0,0.154-0.052,0.592,0.219,0.592c0.128,0,0.334-0.283,0.694-0.579
		c0.36-0.283,0.875-0.565,1.634-0.565c1.53,0,1.543,1.145,1.813,1.145c0.103,0,0.335-0.283,0.708-0.579
		c0.386-0.283,0.9-0.565,1.556-0.565c1.223,0,1.981,0.669,1.981,1.929v2.715c0,0.746,0.476,0.811,0.476,1.184
		c0,0.81-1.466,0.849-1.968,0.849c-0.425,0-1.917-0.09-1.917-0.759c0-0.477,0.45-0.463,0.45-1.209V61.73
		c0-0.54,0.064-1.621-0.669-1.621c-0.72,0-0.655,0.875-0.655,1.352v0.797c0,1.582,0.463,1.313,0.463,1.788
		c0,0.798-1.544,0.811-2.007,0.811c-1.942,0-2.045-0.36-2.032-0.721c0.013-0.682,0.656-0.142,0.617-1.672V61.73
		c0-0.463,0.064-1.621-0.669-1.621c-0.721,0-0.656,0.875-0.656,1.352v1.041c0,1.184,0.348,1.106,0.348,1.569
		c0,0.335-0.296,0.785-2.059,0.785c-0.501,0-2.02,0.013-2.02-0.669c0-0.579,0.772-0.271,0.772-1.878V61.126z"/>
	<path d="M134.545,62.168c0-1.351-0.077-1.646-0.142-1.711c-0.167-0.167-0.862,0-0.862-0.733c0-0.874,2.65-1.543,3.603-1.543
		c0.309,0,0.359,0.103,0.359,0.386c0,0.09,0.014,0.27,0.142,0.27c0.181,0,0.9-0.694,1.955-0.694c1.686,0,2.586,1.686,2.586,3.19
		c0,1.724-1.222,3.563-3.1,3.563c-0.605,0-1.21-0.321-1.325-0.321c-0.181,0-0.206,0.271-0.206,0.412
		c0,0.978,0.798,0.669,0.798,1.299c0,0.721-1.171,0.811-1.673,0.811c-1.724,0-3.074-0.631-3.074-1.286
		c0-0.579,0.527-0.36,0.759-0.862c0.129-0.271,0.181-0.644,0.181-2.071V62.168z M138.069,60.046c-0.463,0-0.617,0.192-0.617,2.533
		c0,0.425,0.205,0.579,0.655,0.579c0.798,0,0.901-0.861,0.901-1.479C139.009,61.062,138.88,60.046,138.069,60.046z"/>
	<path d="M149.119,61.641c0,2.264,0.771,1.029,0.771,1.724c0,0.733-1.003,1.53-1.942,1.53c-1.016,0-1.042-0.655-1.363-0.655
		c-0.154,0-0.321,0.167-0.604,0.321c-0.283,0.167-0.669,0.334-1.261,0.334c-1.067,0-2.135-0.565-2.135-1.839
		c0-0.913,0.874-2.046,3.139-2.046c0.398,0,0.578,0.026,0.578-0.437c0-0.425-0.013-1.313-0.604-1.313
		c-0.771,0-0.849,1.39-1.993,1.39c-0.412,0-0.721-0.296-0.721-0.708c0-1.093,2.174-1.801,3.396-1.801c0.733,0,2.74,0.283,2.74,2.213
		V61.641z M145.26,62.772c0,0.335,0.181,0.694,0.554,0.694c0.488,0,0.527-0.527,0.527-0.913c0-0.283,0.013-0.604-0.348-0.604
		C145.556,61.949,145.26,62.361,145.26,62.772z"/>
	<path d="M153.904,62.566c0,1.248,0.438,1.029,0.438,1.519c0,0.797-1.711,0.771-2.238,0.771c-0.514,0-1.826,0-1.826-0.771
		c0-0.618,0.592-0.064,0.63-1.325l0.052-1.93c0.025-0.952-0.759-0.643-0.759-1.325c0-0.682,2.959-1.324,3.216-1.324
		c0.283,0,0.463,0.244,0.463,0.501c0,0.077-0.013,0.154-0.013,0.231c0,0.155,0.064,0.335,0.257,0.335
		c0.206,0,0.322-0.271,0.579-0.54c0.258-0.258,0.644-0.527,1.377-0.527c2.662,0,2.212,2.611,2.341,4.566
		c0.064,1.016,0.592,0.784,0.592,1.338c0,0.231,0.051,0.771-2.367,0.771c-0.463,0-1.698,0.025-1.698-0.694
		c0-0.464,0.425-0.245,0.489-1.081c0.064-0.913,0.425-2.972-0.785-2.972c-0.823,0-0.746,0.888-0.746,1.467V62.566z"/>
	<path d="M164.864,63.635c-0.63,1.71-1.453,3.383-3.55,3.383c-0.927,0-2.02-0.477-2.02-1.544c0-0.643,0.488-1.184,1.145-1.184
		c1.196,0,0.862,1.364,1.39,1.364c0.347,0,0.501-0.335,0.501-0.631c0-0.36-0.257-0.849-0.411-1.171l-1.801-3.769
		c-0.244-0.515-0.978-0.36-0.978-0.952c0-0.386,0.231-0.951,2.945-0.951c0.489,0,1.646,0.051,1.646,0.784
		c0,0.348-0.296,0.45-0.296,0.759c0,0.489,0.566,1.39,0.785,1.39c0.386,0,0.655-0.888,0.655-1.196c0-0.579-0.411-0.54-0.411-0.978
		c0-0.682,1.209-0.759,1.672-0.759c0.425,0,1.377,0.064,1.377,0.655c0,0.76-0.772,0.425-1.223,1.184
		c-0.282,0.45-0.488,1.017-0.669,1.519L164.864,63.635z"/>
</g>
<g>
</g>
<g>
</g>
<g>
</g>
<g>
</g>
<g>
</g>
<g>
</g>
</svg>
