<?xml version="1.0" encoding="utf-8"?>
<!-- Generator: Adobe Illustrator 18.0.0, SVG Export Plug-In . SVG Version: 6.00 Build 0)  -->
<!DOCTYPE svg PUBLIC "-//W3C//DTD SVG 1.1//EN" "http://www.w3.org/Graphics/SVG/1.1/DTD/svg11.dtd">
<svg version="1.1" id="Layer_1" xmlns="http://www.w3.org/2000/svg" xmlns:xlink="http://www.w3.org/1999/xlink" x="0px" y="0px"
	 viewBox="0 0 766.9 163.8" enable-background="new 0 0 766.9 163.8" xml:space="preserve">
<g>
	<path fill="#F25022" d="M0,0h77.9c0,26,0,51.9,0,77.9c-26,0-51.9,0-77.9,0V0L0,0z"/>
	<path fill="#80BA01" d="M85.9,0h77.9c0,26,0,51.9,0,77.9c-26,0-51.9,0-77.9,0C85.9,51.9,85.9,26,85.9,0L85.9,0z"/>
	<path fill="#777777" d="M702.6,29.7c7.2-4.7,16.5-5.1,24.6-2.9c0.1,4.8,0,9.6,0,14.4c-3.8-1.7-8.4-2.8-12.4-1.1
		c-3.2,1.3-5.1,4.6-5.6,7.9c-0.6,4.2-0.2,8.4-0.3,12.6c8.2,0,16.4,0,24.7,0c0.1-5.3-0.1-10.7,0.1-16c5.6-1.6,11.1-3.4,16.7-5
		c0,7-0.1,14.1,0.1,21.1c5.6-0.1,11.1,0,16.7,0v13.7c-5.6-0.2-11.2-0.1-16.7-0.1c0,7.9,0,15.7,0,23.6c0.1,4.4-0.2,8.7,0.3,13.1
		c0.3,2.6,1.2,5.4,3.6,6.7c4,2.2,9.1,1.3,12.8-1.2v13.8c-4.8,2.1-10.2,2.7-15.4,2.4c-4.9-0.4-10.1-2.2-13.3-6.1
		c-3.7-4.4-4.7-10.5-4.8-16.1c0-12.1,0-24.1,0-36.2c-8.2,0-16.4,0-24.7,0c0,18.9,0,37.9,0,56.8c-5.6,0-11.2,0-16.8,0
		c0-18.9,0-37.9,0-56.8c-3.9-0.1-7.8,0-11.7-0.1c0-4.5,0-9,0-13.5c3.9-0.1,7.8-0.1,11.7,0c0.3-6-0.6-12.1,1.2-18
		C694.6,37.4,697.9,32.7,702.6,29.7L702.6,29.7z"/>
	<path fill="#777777" d="M341.8,30.7c3.4-0.5,7.1,0.6,9.3,3.3c2.6,2.9,3.1,7.5,1.2,10.9c-2.2,3.8-7,5.6-11.2,4.7
		c-4.4-0.8-8-4.9-7.8-9.4C333.1,35.5,337.1,31.2,341.8,30.7L341.8,30.7z"/>
	<path fill="#777777" d="M212.7,32.8c8.2,0,16.3,0,24.5,0c7.6,19.4,15.3,38.7,22.9,58.1c2,4.8,3.8,9.7,5.8,14.5
		c9.8-24.2,19.8-48.3,29.5-72.6c7.9-0.1,15.7,0,23.6,0c0,32.7,0,65.5,0,98.2c-5.7,0-11.3,0-17,0c0.1-24.2,0-48.3,0-72.5
		c0-1.1,0-2.2-0.1-3.3c-0.3,0.5-0.6,1-0.9,1.6c-9.7,24.7-19.7,49.4-29.3,74.2c-4,0.1-8.1,0-12.1,0.1c-10-24.7-20-49.5-30-74.3
		c-0.3-0.5-0.5-1-0.8-1.5c-0.2,10.6,0,21.2-0.1,31.8c0,14.7,0,29.3,0,44c-5.3,0-10.7,0-16,0C212.7,98.3,212.7,65.5,212.7,32.8
		L212.7,32.8z"/>
	<path fill="#777777" d="M388.2,60.5c8.1-2.3,16.9-2.2,25,0.1c1.7,0.5,3.3,1.1,4.8,2c-0.1,5.4,0,10.7-0.1,16.1
		c-5.4-4.2-12.3-6.8-19.2-5.9c-5.5,0.5-10.7,3.3-14,7.8c-4.2,5.5-5.2,12.8-4.5,19.5c0.5,5.3,2.7,10.5,6.8,14
		c4.2,3.8,10.2,5.1,15.8,4.7c5.5-0.6,10.7-3,15.1-6.2c0,5.1,0,10.2,0,15.3c-6.9,4.1-15.1,5.2-23,4.8c-8.1-0.4-16.1-3.5-22-9.2
		c-6.3-6.1-9.8-14.8-10.2-23.6c-0.4-9.1,1.4-18.6,6.7-26.1C373.9,67.3,380.7,62.7,388.2,60.5L388.2,60.5z"/>
	<path fill="#777777" d="M572.2,59.5c7.8-1.4,15.9-0.4,23.3,2.4c0,5.2,0,10.3,0,15.5c-5.2-3.5-11.4-5.4-17.7-5.2
		c-3.1,0.1-6.6,1.5-8,4.4c-1.1,3-0.4,6.8,2.4,8.6c4.8,3.2,10.5,4.6,15.4,7.4c3.9,2.2,7.7,5.1,9.7,9.2c3.7,7.7,2.1,17.9-4.4,23.7
		c-6.2,5.8-15.2,7.4-23.4,7.1c-5.9-0.4-11.7-1.5-17.1-3.9c0-5.4,0-10.9,0-16.3c4.5,3.3,9.8,5.6,15.3,6.6c3.9,0.6,8,0.7,11.6-1.1
		c3.4-1.7,4.1-6.6,2-9.6c-1.9-2.3-4.7-3.6-7.4-4.8c-5-2.2-10.2-4.1-14.5-7.4c-3.1-2.4-5.4-5.8-6.3-9.6c-1.3-5.6-0.9-11.9,2.3-16.8
		C559.2,64,565.6,60.6,572.2,59.5L572.2,59.5z"/>
	<path fill="#777777" d="M455.7,61.7c4.7-2.8,10.6-3,15.6-1.3c0,5.6,0,11.2,0,16.9c-3.3-2.2-7.5-3.1-11.4-2.7
		c-4.8,0.5-8.6,4.2-10.5,8.4c-2.1,4.5-2.5,9.5-2.4,14.4c0,11.2,0,22.5,0,33.7c-5.5,0-11.1,0-16.6,0c0-23.5,0-46.9,0-70.4
		c5.5-0.1,11.1,0,16.6,0c0,4,0,8.1,0,12.1C448.8,68.3,451.5,64.1,455.7,61.7L455.7,61.7z"/>
	<path fill="#777777" d="M334.8,60.6c5.6,0,11.2-0.1,16.8,0c-0.1,23.5,0,46.9,0,70.4c-5.6,0-11.2,0-16.7,0
		C334.8,107.6,334.8,84.1,334.8,60.6L334.8,60.6z"/>
	<path fill="#777777" d="M541.2,77c-2.9-6.5-8.2-11.9-14.7-14.9c-7.5-3.4-16-3.9-24.1-2.8c-8.5,1.1-16.8,5.1-22.2,11.8
		c-4.9,6-7.3,13.8-7.8,21.5c-0.7,9.1,0.8,18.7,6.2,26.3c4.5,6.5,11.7,11,19.5,12.7c6.5,1.4,13.3,1.4,19.7,0
		c7.6-1.6,14.7-5.8,19.3-11.9c4.6-5.8,6.9-13.2,7.4-20.5C545,91.7,544.3,84,541.2,77z M524.9,109.4c-1.6,3.6-4.6,6.7-8.3,8.1
		c-4.4,1.7-9.2,1.8-13.7,0.6c-4.6-1.2-8.5-4.5-10.6-8.7c-2.7-5.4-3.1-11.7-2.6-17.6c0.5-5.4,2.4-11,6.5-14.7c3-2.8,7.1-4.2,11.1-4.4
		c5.1-0.3,10.5,1.1,14.1,4.8c3.9,3.8,5.4,9.4,5.8,14.7C527.6,97.9,527.3,104,524.9,109.4z"/>
	<path fill="#777777" d="M676.1,79.1c-2.6-7-7.8-13-14.5-16.4c-7.7-3.9-16.6-4.4-25-3.4c-6.8,0.9-13.4,3.4-18.6,8
		c-6.3,5.4-10,13.4-11.1,21.6c-1,8.2-0.7,16.8,2.6,24.5c3.2,7.5,9.5,13.6,17.1,16.6c7.5,3,15.8,3.3,23.7,2
		c8.1-1.3,15.7-5.6,20.7-12.1c5.3-6.7,7.6-15.5,7.6-24C678.8,90.2,678.1,84.4,676.1,79.1z M660.9,102.9c-0.6,3.7-1.9,7.4-4.4,10.3
		c-2.4,2.9-6.1,4.7-9.8,5.3c-4,0.6-8.3,0.3-12.1-1.3c-4.1-1.7-7.2-5.2-8.9-9.3c-2-4.8-2.4-10.2-2-15.3c0.4-5,1.8-10.1,5.1-14
		c3-3.6,7.6-5.6,12.3-5.9c4.8-0.3,9.8,0.8,13.5,4c3.4,2.8,5.2,7,6.1,11.2C661.7,92.8,661.7,98,660.9,102.9z"/>
	<path fill="#02A4EF" d="M0,85.9c26,0,51.9,0,77.9,0c0,26,0,51.9,0,77.9H0V85.9L0,85.9z"/>
	<path fill="#FFB902" d="M85.9,85.9c26,0,51.9,0,77.9,0c0,26,0,51.9,0,77.9H85.9C85.9,137.8,85.9,111.8,85.9,85.9L85.9,85.9z"/>
</g>
</svg>
