<?xml version="1.0" encoding="utf-8"?>
<!-- Generator: Adobe Illustrator 18.0.0, SVG Export Plug-In . SVG Version: 6.00 Build 0)  -->
<!DOCTYPE svg PUBLIC "-//W3C//DTD SVG 1.1//EN" "http://www.w3.org/Graphics/SVG/1.1/DTD/svg11.dtd">
<svg version="1.1" id="圖_1" xmlns="http://www.w3.org/2000/svg" xmlns:xlink="http://www.w3.org/1999/xlink" x="0px" y="0px"
	 viewBox="0 0 145.2 18" style="enable-background:new 0 0 145.2 18;" xml:space="preserve">
<style type="text/css">
	.st0{fill:#14116D;}
</style>
<path class="st0" d="M22.8,5.7L11.4,0L0,5.7H22.8 M21.9,6.4h-6.7v1.4h0.8c0,0,0.7,0.1,0.7,0.9v6.6c0,0-0.1,0.7-0.6,0.9h-0.9v1.3h6.7
	v-1.3h-1c0,0-0.6-0.2-0.6-1V8.7c0,0-0.1-0.8,0.7-0.8h0.8V6.4 M0.8,6.4h6.7v1.4H6.7c0,0-0.7,0.1-0.7,0.9v6.6c0,0,0.1,0.7,0.6,0.9h0.9
	v1.3H0.8v-1.3h1c0,0,0.6-0.2,0.6-1V8.7c0,0,0.1-0.8-0.7-0.8H0.8V6.4 M14.7,6.4H8v1.4h0.8c0,0,0.7,0.1,0.7,0.9v6.6
	c0,0-0.1,0.7-0.6,0.9H8v1.3h6.7v-1.3h-1c0,0-0.6-0.2-0.6-1V8.7c0,0-0.1-0.8,0.7-0.8h0.8V6.4L14.7,6.4z"/>
<path class="st0" d="M32.4,3.4h-3.8v6.2h3.8V3.4 M31.5,8.8h-2.1v-1h2.1V8.8 M31.5,7.1h-2.2V6h2.2V7.1 M31.5,5.2h-2.2v-1h2.2V5.2
	L31.5,5.2z"/>
<path class="st0" d="M32.8,11.3c-0.6-0.6-1.1-1.1-1.3-1.6l-0.7,0.3c0.2,0.5,0.7,1.1,1.3,1.8L32.8,11.3L32.8,11.3z"/>
<path class="st0" d="M36.1,10.8v-5h0.8V4.9h-0.8V3.7c0.2-0.1,0.2-0.2,0.2-0.3c0-0.1-0.1-0.1-0.2-0.1l-0.9-0.1v1.8h-2.6v0.8h2.3
	c-0.4,1-0.7,1.7-1,2.1c-0.4,0.7-1,1.4-1.6,2l0.8,0.7c0.6-0.7,1.1-1.4,1.4-2.1c0.2-0.4,0.5-1,0.7-1.7v4c0,0.3-0.2,0.4-0.6,0.4h-1.1
	l0.3,0.9c0.9,0,1.5-0.1,1.8-0.3C36,11.5,36.1,11.2,36.1,10.8L36.1,10.8z"/>
<path class="st0" d="M30.1,10.1C30.1,10.1,30.1,10.1,30.1,10.1l-0.8-0.4c-0.3,0.7-0.7,1.3-1.2,1.8l0.8,0.4c0.4-0.4,0.7-1,1.1-1.6
	C30.1,10.2,30.1,10.2,30.1,10.1L30.1,10.1z"/>
<path class="st0" d="M47.4,11.9V3.5h-8v8.5h0.8v-0.3h6.4v0.3H47.4 M44.4,11c0.1,0,0.2-0.1,0.3-0.1c0.2-0.1,0.2-0.4,0.2-0.7V9.8h1.4
	V9.2h-1.4V8.6c0.2,0,0.4,0,0.5-0.1c0.1,0.2,0.2,0.3,0.3,0.5l0.6-0.4c-0.3-0.4-0.5-0.7-0.8-1V5.5h-1.8V5.2h2.4V4.6h-2.4
	c0.1-0.1,0.2-0.2,0.2-0.2c0-0.1-0.1-0.1-0.2-0.1L43,4.2v0.4h-2.4v0.6H43v0.3h-1.8v2.3H43v0.4c-0.7,0-1.5,0.1-2.3,0.1l0.2,0.6
	C40.9,9,40.9,9,41,9c0,0,0.1,0,0.2-0.1c1.2-0.1,2.2-0.2,3.1-0.2v0.5h-3.6v0.6H42L41.7,10c0.3,0.2,0.6,0.4,0.9,0.8l0.5-0.5
	c-0.2-0.2-0.4-0.4-0.7-0.6h1.8v0.3c0,0.2-0.1,0.2-0.3,0.2h-0.5l0.3,0.7h-3.4V4.2h6.4V11H44.4 M44.8,6.8v0.4h-1V6.8H44.8 M43.8,6.4V6
	h1v0.4H43.8 M44.8,7.7C44.9,7.8,45,7.9,45.1,8c-0.4,0-0.9,0.1-1.3,0.1V7.7H44.8 M42,6.4V6h1v0.4H42 M43,6.8v0.4h-1V6.8H43L43,6.8z"
	/>
<path class="st0" d="M51.9,6.9c-0.4-0.4-0.9-0.7-1.4-1.1l-0.6,0.6c0.5,0.3,1,0.7,1.5,1.1L51.9,6.9L51.9,6.9z"/>
<path class="st0" d="M56.1,9.3c0.3,0.3,0.5,0.6,0.7,1c-0.8,0.1-1.5,0.2-2.3,0.2c0.4-0.5,0.7-1.1,1-1.7c0.1-0.1,0.2-0.1,0.2-0.2
	c0-0.1-0.1-0.1-0.2-0.1l-0.7-0.2c-0.4,0.9-0.8,1.7-1.4,2.4c-0.3,0-0.6,0-0.9,0.1l0.2,0.9c0,0.1,0.1,0.2,0.1,0.2
	c0.1,0,0.1-0.1,0.2-0.2c1.9-0.2,3.3-0.4,4.2-0.6c0.2,0.3,0.3,0.6,0.5,0.9l0.8-0.5c-0.6-1.1-1.3-1.9-1.9-2.6L56.1,9.3L56.1,9.3z"/>
<path class="st0" d="M51.8,8.5c-0.6,1-1.2,2-2,2.8l0.7,0.6c0.1,0,0.2-0.1,0.2-0.3c0.6-0.8,1.1-1.6,1.6-2.5L51.8,8.5L51.8,8.5z"/>
<path class="st0" d="M55,7.2h-2.6V8h6.1V7.2h-2.6V5.6H58V4.9h-2.1V3.6C56,3.5,56,3.4,56,3.4c0-0.1-0.1-0.1-0.2-0.1L55,3.2v1.7h-2.1
	v0.8H55V7.2L55,7.2z"/>
<path class="st0" d="M52.6,4.3c-0.4-0.4-0.9-0.8-1.5-1.1l-0.6,0.6c0.5,0.3,1,0.7,1.5,1.1L52.6,4.3L52.6,4.3z"/>
<path class="st0" d="M69.5,11.1c-1.2-0.8-2.2-1.7-2.8-2.5c-0.5-0.7-0.9-1.4-1.2-2.3c0.1-0.6,0.2-1.3,0.2-2V3.7
	c0.2-0.1,0.2-0.2,0.2-0.3c0-0.1-0.1-0.1-0.2-0.1l-1-0.1c0,0.3,0.1,0.5,0.1,0.7v0.3c0,1.4-0.2,2.6-0.7,3.6c-0.3,0.6-0.8,1.3-1.5,1.9
	c-0.5,0.4-1.1,0.8-1.9,1.3l0.8,0.7c0.8-0.5,1.4-1,2-1.5c0.8-0.8,1.3-1.5,1.6-2.4c0-0.1,0.1-0.2,0.1-0.3c0.2,0.5,0.5,1,0.7,1.4
	c0.5,0.8,1.4,1.8,2.5,2.9L69.5,11.1L69.5,11.1z"/>
<path class="st0" d="M74.1,4.2c-0.5-0.4-1.1-0.7-1.8-1.1l-0.6,0.6c0.7,0.3,1.3,0.7,1.8,1.1L74.1,4.2L74.1,4.2z"/>
<path class="st0" d="M77.3,10.6h1.8V6.7c0.1,0,0.2,0.1,0.4,0.1l0.8-0.7c-1-0.3-1.6-0.5-2-0.7c-0.3-0.2-0.6-0.4-0.8-0.7
	c0-0.1,0.1-0.2,0.1-0.3c0,0,0.1-0.1,0.1-0.1h1.2l-0.5,0.8l0.7,0.3L80,4.4c0.1-0.1,0.2-0.2,0.2-0.2c0-0.1,0-0.1-0.1-0.1l-0.5-0.3
	c-0.1-0.1-0.1-0.1-0.2-0.1l-0.2,0.1h-3c0.1-0.2,0.2-0.3,0.3-0.3c0,0,0.1-0.1,0.1-0.1c0,0,0-0.1-0.1-0.1L75.8,3
	c-0.5,0.6-1,1.2-1.8,1.6l0.8,0.4c0.3-0.2,0.6-0.4,0.8-0.6h1.2c-0.1,0.3-0.2,0.5-0.4,0.7c-0.3,0.3-0.6,0.5-1,0.7
	C75,5.9,74.6,6.1,74,6.3l0.5,0.3h-1.7c0.7-0.3,1.2-0.6,1.6-0.8V5c-0.9,0.5-1.9,0.9-2.9,1.1L71.7,7c0,0.1,0,0.1,0.1,0.1
	c0.1,0,0.1,0,0.2-0.1c0.3-0.1,0.5-0.2,0.7-0.3v4h1.7c-0.8,0.3-1.8,0.5-2.9,0.7l0.7,0.6c1-0.2,2-0.5,3.1-0.8c0.1,0,0.2-0.1,0.2-0.1
	c0,0,0-0.1-0.1-0.1L75,10.6h1.8L76.4,11c0.9,0.4,1.9,0.7,3.2,1l0.7-0.7C79.1,11.1,78.2,10.9,77.3,10.6 M76,6.2
	c0.3-0.2,0.6-0.3,0.9-0.5C77,5.6,77,5.5,77.1,5.4c0.2,0.2,0.3,0.4,0.5,0.5c0.2,0.2,0.6,0.4,1.1,0.6h-3.6C75.5,6.4,75.8,6.3,76,6.2
	 M73.6,7.2h4.7v0.5h-4.7V7.2 M73.6,8.3h4.7v0.5h-4.7V8.3 M73.6,9.9V9.5h4.7v0.5H73.6L73.6,9.9z"/>
<polygon class="st0" points="85.4,3.5 82.7,3.5 82.7,4.2 85.4,4.2 85.4,3.5 "/>
<path class="st0" d="M90.1,10.6c0,0,0,0-0.1-0.1c-0.1-0.2-0.2-0.6-0.2-0.9c-0.1-0.5-0.1-1.1-0.1-1.9c0-0.9,0-2.3,0.1-4h-3.8v0.8h1V7
	h-1.2v0.8H87v4.1h0.8V7.8h0.8V7h-0.8V4.5H89c0,1.3-0.1,2.4-0.1,3.3c0,0.9,0,1.6,0.2,2.2c0.1,0.7,0.3,1.2,0.6,1.5
	c0.2,0.3,0.4,0.4,0.6,0.4c0.1,0,0.3-0.1,0.5-0.4c0.2-0.3,0.4-0.8,0.6-1.6l-0.7-0.6C90.4,10.2,90.2,10.6,90.1,10.6L90.1,10.6z"/>
<path class="st0" d="M83.3,11.5h1.4v0.4h0.8V8.6h-3.1v3.2h0.8V11.5 M83.3,9.4h1.4v1.3h-1.4V9.4L83.3,9.4z"/>
<polygon class="st0" points="85.8,4.7 82.3,4.7 82.3,5.5 85.8,5.5 85.8,4.7 "/>
<polygon class="st0" points="82.7,8.1 85.5,8.1 85.5,7.3 82.7,7.3 82.7,8.1 "/>
<polygon class="st0" points="85.5,6 82.7,6 82.7,6.8 85.5,6.8 85.5,6 "/>
<polygon class="st0" points="101.6,10.2 98,10.2 98,5 101,5 101,4.1 93.9,4.1 93.9,5 97,5 97,10.2 93.4,10.2 93.4,11.1 101.6,11.1 
	101.6,10.2 "/>
<path class="st0" d="M112.8,10.9c-0.9-0.2-1.7-0.4-2.2-0.6c-0.5-0.2-0.9-0.4-1.4-0.7h3.3V8.8h-3.8V8.3h2.8V7.5h-2.8V7h3.1V6.2h-1.7
	l0.3-0.8h2V4.6H111l0.5-0.8c0.1,0,0.2-0.1,0.2-0.2c0,0,0-0.1-0.1-0.1l-0.6-0.3l-0.8,1.4h-0.6V3.4c0.1-0.1,0.2-0.2,0.2-0.2
	c0-0.1-0.1-0.1-0.2-0.1L108.8,3v1.6h-0.9V3.4c0.1-0.1,0.2-0.2,0.2-0.2c0-0.1-0.1-0.1-0.2-0.1L107.1,3v1.6h-0.4c-0.3-0.5-0.7-1-1-1.4
	l-0.6,0.5c0.2,0.2,0.4,0.5,0.7,0.9h-1.5v0.8h2l0.3,0.8h-1.7V7h3.1v0.6h-2.8v0.7h2.8v0.5h-3.8v0.8h3.2c-0.4,0.3-0.8,0.5-1.2,0.7
	c-0.7,0.3-1.4,0.5-2.3,0.7l0.8,0.8c0.7-0.2,1.4-0.4,1.9-0.7c0.5-0.3,1-0.6,1.5-1v2h0.9V10c0.4,0.4,0.9,0.7,1.3,0.9
	c0.5,0.3,1.1,0.5,1.8,0.8L112.8,10.9 M107.4,6.2l-0.3-0.8h2.3l-0.3,0.8H107.4L107.4,6.2z"/>
<path class="st0" d="M118.7,11.9h0.9V8.9c0.4,0.6,0.9,1.2,1.4,1.6c0.4,0.4,1,0.8,1.8,1.2l0.9-0.8c-0.8-0.3-1.4-0.6-1.9-0.9
	c0.2,0,0.4-0.1,0.6-0.1c0.3-0.1,0.5-0.4,0.5-0.8V7.5h-3.2V6.8h3.8V6.1h-3.8V5.8c0.1-0.1,0.2-0.2,0.2-0.2c0-0.1-0.1-0.1-0.2-0.1
	c0.2-0.2,0.4-0.5,0.5-0.8h0.9c0.2,0.4,0.3,0.7,0.5,1.1l0.8-0.2c-0.1-0.3-0.2-0.7-0.4-1h1.5V4h-2.8c0.1-0.1,0.1-0.2,0.1-0.3
	c0.2-0.1,0.3-0.1,0.3-0.2c0-0.1-0.1-0.1-0.2-0.1l-0.8-0.2c-0.3,0.7-0.6,1.3-1.2,1.9l0.6,0.3l-0.7-0.1v0.7h-3.8v0.7h3.8v0.7h-3.1v2.3
	h0.8V8.2h2c-0.5,0.6-1,1.1-1.5,1.5c-0.6,0.5-1.4,0.9-2.3,1.2l0.7,0.7c0.7-0.3,1.3-0.7,1.8-1.1c0.5-0.4,1-0.9,1.4-1.6V11.9
	 M121.9,8.2v0.5c0,0.2-0.1,0.3-0.2,0.4l-0.6,0l0.3,0.6c-0.5-0.4-1.1-0.9-1.6-1.5H121.9L121.9,8.2z"/>
<path class="st0" d="M116.4,4.7h0.6c0.2,0.4,0.4,0.7,0.5,1.1l0.8-0.2c-0.1-0.3-0.2-0.7-0.4-1h0.9V4h-2c0-0.1,0.1-0.2,0.1-0.3
	c0.2-0.1,0.3-0.1,0.3-0.2c0-0.1-0.1-0.1-0.2-0.1l-0.8-0.2c-0.3,0.8-0.8,1.6-1.4,2.4l0.8,0.4C115.9,5.5,116.2,5.1,116.4,4.7
	L116.4,4.7z"/>
<path class="st0" d="M127.4,6.2c-0.4-0.3-0.8-0.6-1.4-0.9l-0.6,0.6c0.5,0.3,1,0.6,1.4,0.9L127.4,6.2L127.4,6.2z"/>
<path class="st0" d="M128.3,6.5c0.2-0.2,0.3-0.3,0.5-0.5v4.7h0.8v-0.6h4.6V9.3h-2.2V8.5h1.9V7.7h-1.9V6.9h1.9V6.1h-1.9V5.3h2.2V4.5
	h-2l0.4-0.6c0.1-0.1,0.2-0.1,0.2-0.2c0,0,0-0.1-0.2-0.1l-0.6-0.3l-0.7,1.3h-1.5c0,0,0-0.1,0.1-0.1c0.3-0.5,0.4-0.7,0.5-0.7
	c0.1-0.1,0.1-0.1,0.1-0.1c0,0,0-0.1-0.1-0.1l-0.8-0.3c-0.5,1.1-1.2,2.1-2,2.9L128.3,6.5 M129.6,5.3h1.5v0.9h-1.5V5.3 M129.6,6.9h1.5
	v0.9h-1.5V6.9 M129.6,8.5h1.5v0.9h-1.5V8.5L129.6,8.5z"/>
<path class="st0" d="M127.8,4.3c-0.4-0.3-0.8-0.6-1.3-0.9l-0.6,0.6c0.5,0.3,0.9,0.6,1.4,0.9L127.8,4.3L127.8,4.3z"/>
<path class="st0" d="M128.4,10.9c-0.4-0.1-0.6-0.3-0.8-0.5V7.5h-1.6v0.8h0.7v1.9c-0.4,0.3-0.8,0.6-1.4,0.8l0.5,0.7
	c0,0.1,0.1,0.1,0.2,0.1c0,0,0.1-0.1,0.2-0.2l0.9-0.9c0.1,0.1,0.2,0.2,0.3,0.3c0.3,0.3,0.7,0.4,1.1,0.6c0.5,0.1,1.1,0.2,1.8,0.2h3.7
	l0.3-1c-1.2,0.1-2.6,0.1-4,0.1C129.5,11,128.9,11,128.4,10.9L128.4,10.9z"/>
<polygon class="st0" points="139,4.9 139,5.5 142.5,5.5 142.5,4.9 139,4.9 "/>
<path class="st0" d="M139.4,4.7c0.4-0.2,0.9-0.5,1.3-0.8c0.5,0.4,1.1,0.7,1.6,0.9c0.6,0.3,1.4,0.5,2.2,0.8l0.6-0.8
	c-0.8-0.1-1.5-0.3-2-0.5c-0.6-0.2-1.2-0.4-1.8-0.8c0.1,0,0.2-0.1,0.2-0.1c0-0.1,0-0.1-0.1-0.2L140.8,3c-0.7,0.5-1.4,0.9-2,1.2
	c-0.7,0.3-1.5,0.6-2.5,0.9l0.7,0.6C138,5.3,138.9,5,139.4,4.7L139.4,4.7z"/>
<path class="st0" d="M144.3,8.6V6h-7v2.6h0.8V8.4h5.4v0.2H144.3 M140.3,7.7h-0.6c-0.1-0.3-0.2-0.6-0.4-0.9l-0.7,0.2
	c0.1,0.2,0.2,0.5,0.3,0.8h-0.9v-1h2.2V7.7 M142.4,7.7l0.2-0.3c0.1-0.1,0.2-0.1,0.2-0.2c0,0,0-0.1-0.1-0.1l-0.6-0.3l-0.5,0.9h-0.6v-1
	h2.4v1H142.4L142.4,7.7z"/>
<path class="st0" d="M138.9,11.6h3.7v0.3h0.9V8.8H138v3.1h0.9V11.6 M138.9,9.5h3.7V10h-3.7V9.5 M138.9,10.6h3.7V11h-3.7V10.6
	L138.9,10.6z"/>
<polygon class="st0" points="28.1,17.9 28.7,17.9 28.7,14.2 28.1,14.2 28.1,17.9 "/>
<polygon class="st0" points="32.6,17.2 30.7,14.2 30,14.2 30,17.9 30.4,17.9 30.4,14.7 32.4,17.9 33,17.9 33,14.2 32.6,14.2 
	32.6,17.2 "/>
<path class="st0" d="M36.7,16.1c-0.2-0.1-0.3-0.2-1.2-0.4c-0.5-0.1-0.7-0.2-0.7-0.6c0-0.4,0.3-0.6,0.8-0.6c0.4,0,0.8,0.1,0.8,0.6H37
	c0-0.2,0-0.4-0.2-0.6c-0.3-0.3-0.8-0.4-1.1-0.4c-0.7,0-1.4,0.3-1.4,1.1c0,0.2,0.1,0.5,0.4,0.7c0.2,0.1,0.5,0.2,1,0.3
	c0.5,0.1,0.9,0.2,0.9,0.6c0,0.2-0.1,0.7-0.9,0.7c-0.9,0-0.9-0.5-0.9-0.7h-0.5c0,0.2,0,0.5,0.2,0.8c0.3,0.4,0.9,0.4,1.2,0.4
	c1,0,1.5-0.5,1.5-1.2C37.1,16.7,37.1,16.3,36.7,16.1L36.7,16.1z"/>
<polygon class="st0" points="37.7,14.6 39,14.6 39,17.9 39.5,17.9 39.5,14.6 40.8,14.6 40.8,14.2 37.7,14.2 37.7,14.6 "/>
<polygon class="st0" points="41.6,17.9 42.2,17.9 42.2,14.2 41.6,14.2 41.6,17.9 "/>
<polygon class="st0" points="43.1,14.6 44.4,14.6 44.4,17.9 44.9,17.9 44.9,14.6 46.2,14.6 46.2,14.2 43.1,14.2 43.1,14.6 "/>
<path class="st0" d="M49.6,16.4c0,0.3,0,1.1-1,1.1c-0.3,0-0.6-0.1-0.9-0.4c-0.1-0.1-0.2-0.3-0.2-0.7v-2.3H47v2.3
	c0,0.6,0.1,0.8,0.2,0.9c0.4,0.5,1,0.6,1.3,0.6c0.3,0,0.9-0.1,1.2-0.5c0.3-0.4,0.3-0.8,0.3-1v-2.3h-0.5V16.4L49.6,16.4z"/>
<polygon class="st0" points="51.1,14.6 52.3,14.6 52.3,17.9 52.9,17.9 52.9,14.6 54.1,14.6 54.1,14.2 51.1,14.2 51.1,14.6 "/>
<polygon class="st0" points="55.4,16.2 57.2,16.2 57.2,15.8 55.4,15.8 55.4,14.6 57.3,14.6 57.3,14.2 54.9,14.2 54.9,17.9 
	57.3,17.9 57.3,17.4 55.4,17.4 55.4,16.2 "/>
<polygon class="st0" points="60.4,17.9 60.9,17.9 60.9,16.2 62.5,16.2 62.5,15.8 60.9,15.8 60.9,14.6 62.6,14.6 62.6,14.2 
	60.4,14.2 60.4,17.9 "/>
<path class="st0" d="M65.2,14.1c-0.4,0-0.9,0.1-1.3,0.5c-0.4,0.4-0.5,1.1-0.5,1.5c0,1,0.4,1.9,1.7,1.9c1.3,0,1.8-1,1.8-2
	C66.9,14.7,66.2,14.1,65.2,14.1 M66,17.2c-0.2,0.3-0.5,0.3-0.8,0.3c-0.3,0-0.6-0.1-0.8-0.3C64.1,16.9,64,16.4,64,16
	c0-0.8,0.2-1.5,1.2-1.5c0.9,0,1.1,0.6,1.1,1.5C66.3,16.2,66.3,16.8,66,17.2L66,17.2z"/>
<path class="st0" d="M69.9,16c0.1,0,0.3-0.1,0.4-0.2c0.2-0.2,0.3-0.4,0.3-0.7c0-0.3-0.1-0.6-0.4-0.8c-0.3-0.2-0.7-0.2-0.9-0.2H68
	v3.7h0.5v-1.7h0.7c0.6,0,0.8,0.2,0.8,0.7c0,0.3,0.1,0.7,0.2,1h0.6c-0.1-0.4-0.2-0.7-0.2-1.2C70.5,16.3,70.3,16.1,69.9,16 M69.8,15.7
	c-0.1,0.1-0.4,0.1-0.5,0.1h-0.8v-1.2h0.8c0.2,0,0.8,0,0.8,0.6C70.1,15.5,69.9,15.6,69.8,15.7L69.8,15.7z"/>
<polygon class="st0" points="73.6,17.9 74.2,17.9 74.2,14.2 73.6,14.2 73.6,17.9 "/>
<polygon class="st0" points="78.1,17.2 76.2,14.2 75.5,14.2 75.5,17.9 76,17.9 76,14.7 77.9,17.9 78.6,17.9 78.6,14.2 78.1,14.2 
	78.1,17.2 "/>
<polygon class="st0" points="79.9,17.9 80.4,17.9 80.4,16.2 82.1,16.2 82.1,15.8 80.4,15.8 80.4,14.6 82.2,14.6 82.2,14.2 
	79.9,14.2 79.9,17.9 "/>
<path class="st0" d="M84.7,14.1c-0.4,0-0.9,0.1-1.3,0.5C83.1,15,83,15.6,83,16.1c0,1,0.4,1.9,1.7,1.9c1.3,0,1.8-1,1.8-2
	C86.4,14.7,85.8,14.1,84.7,14.1 M85.6,17.2c-0.2,0.3-0.5,0.3-0.8,0.3c-0.3,0-0.6-0.1-0.8-0.3c-0.3-0.3-0.3-0.8-0.3-1.2
	c0-0.8,0.2-1.5,1.2-1.5c0.9,0,1.1,0.6,1.1,1.5C85.9,16.2,85.9,16.8,85.6,17.2L85.6,17.2z"/>
<path class="st0" d="M89.5,16c0.1,0,0.3-0.1,0.4-0.2c0.2-0.2,0.3-0.4,0.3-0.7c0-0.3-0.1-0.6-0.4-0.8c-0.3-0.2-0.7-0.2-0.9-0.2h-1.4
	v3.7h0.5v-1.7h0.7c0.6,0,0.8,0.2,0.8,0.7c0,0.3,0.1,0.7,0.2,1h0.6c-0.1-0.4-0.2-0.7-0.2-1.2C90,16.3,89.8,16.1,89.5,16 M89.4,15.7
	c-0.1,0.1-0.4,0.1-0.5,0.1h-0.8v-1.2h0.8c0.2,0,0.8,0,0.8,0.6C89.6,15.5,89.5,15.6,89.4,15.7L89.4,15.7z"/>
<polygon class="st0" points="93.4,17.2 92.3,14.2 91.4,14.2 91.4,17.9 91.9,17.9 91.9,14.6 93.1,17.9 93.6,17.9 94.9,14.5 
	94.9,17.9 95.4,17.9 95.4,14.2 94.5,14.2 93.4,17.2 "/>
<path class="st0" d="M97.9,14.2l-1.6,3.7h0.5l0.4-1H99l0.4,1h0.6l-1.5-3.7H97.9 M97.4,16.5l0.7-1.8l0.7,1.8H97.4L97.4,16.5z"/>
<polygon class="st0" points="100.1,14.6 101.4,14.6 101.4,17.9 101.9,17.9 101.9,14.6 103.1,14.6 103.1,14.2 100.1,14.2 100.1,14.6 
	"/>
<polygon class="st0" points="104,17.9 104.5,17.9 104.5,14.2 104,14.2 104,17.9 "/>
<path class="st0" d="M107.4,14.1c-0.4,0-0.9,0.1-1.3,0.5c-0.4,0.4-0.5,1.1-0.5,1.5c0,1,0.4,1.9,1.7,1.9c1.3,0,1.8-1,1.8-2
	C109.1,14.7,108.4,14.1,107.4,14.1 M108.2,17.2c-0.2,0.3-0.5,0.3-0.8,0.3c-0.3,0-0.6-0.1-0.8-0.3c-0.3-0.3-0.3-0.8-0.3-1.2
	c0-0.8,0.2-1.5,1.2-1.5c0.9,0,1.2,0.6,1.2,1.5C108.5,16.2,108.5,16.8,108.2,17.2L108.2,17.2z"/>
<polygon class="st0" points="112.8,17.2 111,14.2 110.3,14.2 110.3,17.9 110.7,17.9 110.7,14.7 112.7,17.9 113.3,17.9 113.3,14.2 
	112.8,14.2 112.8,17.2 "/>
<polygon class="st0" points="116.4,17.9 117,17.9 117,14.2 116.4,14.2 116.4,17.9 "/>
<polygon class="st0" points="120.9,17.2 119,14.2 118.3,14.2 118.3,17.9 118.8,17.9 118.8,14.7 120.7,17.9 121.4,17.9 121.4,14.2 
	120.9,14.2 120.9,17.2 "/>
<path class="st0" d="M123.8,14.2h-1.1v3.7h1.1c0.6,0,1,0,1.4-0.3c0.3-0.2,0.6-0.7,0.6-1.5c0-0.5-0.1-1-0.5-1.4
	C124.9,14.2,124.3,14.2,123.8,14.2 M124.7,17.3c-0.3,0.2-0.6,0.2-1,0.2h-0.5v-2.9h0.6c0.5,0,0.8,0.1,1,0.3c0.4,0.4,0.4,1,0.4,1.2
	C125.2,16.3,125.2,16.9,124.7,17.3L124.7,17.3z"/>
<path class="st0" d="M129.4,16.4c0,0.3,0,1.1-1,1.1c-0.3,0-0.6-0.1-0.9-0.4c-0.1-0.1-0.2-0.3-0.2-0.7v-2.3h-0.5v2.3
	c0,0.6,0.1,0.8,0.2,0.9c0.4,0.5,1,0.6,1.3,0.6c0.3,0,0.9-0.1,1.2-0.5c0.3-0.4,0.3-0.8,0.3-1v-2.3h-0.5V16.4L129.4,16.4z"/>
<path class="st0" d="M133.6,16.1c-0.2-0.1-0.3-0.2-1.2-0.4c-0.5-0.1-0.7-0.2-0.7-0.6c0-0.4,0.3-0.6,0.8-0.6c0.4,0,0.8,0.1,0.8,0.6
	h0.5c0-0.2,0-0.4-0.2-0.6c-0.3-0.3-0.8-0.4-1.1-0.4c-0.7,0-1.4,0.3-1.4,1.1c0,0.2,0.1,0.5,0.4,0.7c0.2,0.1,0.5,0.2,1,0.3
	c0.5,0.1,0.9,0.2,0.9,0.6c0,0.2-0.1,0.7-0.9,0.7c-0.9,0-0.9-0.5-0.9-0.7h-0.5c0,0.2,0,0.5,0.2,0.8c0.3,0.4,0.9,0.4,1.2,0.4
	c1,0,1.5-0.5,1.5-1.2C133.9,16.7,133.9,16.3,133.6,16.1L133.6,16.1z"/>
<polygon class="st0" points="134.6,14.6 135.9,14.6 135.9,17.9 136.4,17.9 136.4,14.6 137.7,14.6 137.7,14.2 134.6,14.2 134.6,14.6 
	"/>
<path class="st0" d="M140.4,16c0.1,0,0.3-0.1,0.4-0.2c0.2-0.2,0.3-0.4,0.3-0.7c0-0.3-0.1-0.6-0.4-0.8c-0.3-0.2-0.7-0.2-0.9-0.2h-1.4
	v3.7h0.5v-1.7h0.7c0.6,0,0.8,0.2,0.8,0.7c0,0.3,0.1,0.7,0.2,1h0.6c-0.1-0.4-0.2-0.7-0.2-1.2C141,16.3,140.8,16.1,140.4,16
	 M140.3,15.7c-0.1,0.1-0.4,0.1-0.5,0.1H139v-1.2h0.8c0.2,0,0.8,0,0.8,0.6C140.6,15.5,140.4,15.6,140.3,15.7L140.3,15.7z"/>
<polygon class="st0" points="144.6,14.2 143.5,16 142.4,14.2 141.7,14.2 143.2,16.4 143.2,17.9 143.7,17.9 143.7,16.4 145.2,14.2 
	144.6,14.2 "/>
</svg>
