<?xml version="1.0" encoding="utf-8"?>
<!-- Generator: Adobe Illustrator 22.1.0, SVG Export Plug-In . SVG Version: 6.00 Build 0)  -->
<svg version="1.1" id="Layer_1" xmlns="http://www.w3.org/2000/svg" xmlns:xlink="http://www.w3.org/1999/xlink" x="0px" y="0px"
	 viewBox="0 0 1263.4 400" style="enable-background:new 0 0 1263.4 400;" xml:space="preserve">
<style type="text/css">
	.st0{fill:#4AC3D2;}
</style>
<g>
	<g>
		<g>
			<path class="st0" d="M0,9.9h258.4v60.6h-189v99.2h179.1v58.4H69.4v110.2h198.9V400H0V9.9z"/>
			<path class="st0" d="M336.1,9.9h108.5L546,287.1h1.7L647.9,9.9H757V400h-68.9V86.5H687L568.6,400h-48.5L403.3,86.5h-1.1V400
				h-66.1V9.9z"/>
			<path class="st0" d="M1263.4,400h-235.3c-31.2,0-59.6-4.5-85.1-13.5c-25.5-9-47.4-22-65.6-39.1s-32.2-38-42.1-62.8
				c-9.9-24.8-14.9-53-14.9-84.6c0-29.8,5.2-56.8,15.7-81.3c10.5-24.4,25.1-45.5,43.8-63.1c18.7-17.6,40.9-31.3,66.4-41
				C971.8,4.9,999.4,0,1029.2,0c29.8,0,57.3,4.9,82.6,14.6c25.3,9.7,47.3,23.4,65.8,41c18.5,17.6,33,38.7,43.3,63.1
				c10.3,24.4,15.4,51.5,15.4,81.3c0,17.6-2,33.8-6.1,48.5c-4,14.7-9.3,28-15.7,39.9c-6.4,11.9-13.8,22.4-22,31.4
				c-8.3,9-16.8,16.6-25.6,22.9v1.1h96.4V400z M1029.2,62.3c-18.7,0-36.3,3.5-52.6,10.5c-16.3,7-30.4,16.5-42.1,28.6
				c-11.8,12.1-21,26.6-27.8,43.5c-6.8,16.9-10.2,35.3-10.2,55.1c0,20.9,3.2,39.9,9.6,57c6.4,17.1,15.4,31.7,27,43.8
				c11.6,12.1,25.4,21.6,41.6,28.4c16.2,6.8,34,10.2,53.4,10.2c19.1,0,36.8-3.4,53.2-10.2c16.3-6.8,30.4-16.3,42.2-28.4
				c11.8-12.1,20.9-26.7,27.5-43.8c6.6-17.1,9.9-36.1,9.9-57c0-19.8-3.1-38.2-9.4-55.1c-6.2-16.9-15.2-31.4-26.7-43.5
				c-11.6-12.1-25.4-21.7-41.6-28.6C1067,65.8,1049,62.3,1029.2,62.3z"/>
		</g>
	</g>
</g>
</svg>
