<svg id="Layer_1" data-name="Layer 1" xmlns="http://www.w3.org/2000/svg" viewBox="0 0 237.9 71.62"><defs><style>.cls-1{fill:#4357ef;}</style></defs><title>EMQ logo</title><path class="cls-1" d="M52.74,2.73V13.54H16.5V30H46V42.17H16.5V59H50.94a1.81,1.81,0,0,1,1.8,1.8V71.62H1.81A1.8,1.8,0,0,1,0,69.82V.92H50.94A1.81,1.81,0,0,1,52.74,2.73Z"/><path class="cls-1" d="M237.9,60.63a1.8,1.8,0,0,0-1.81-1.79H221.85q7.52-9,7.54-23C229.39,14,213.68,0,192.11,0s-37.27,14-37.27,35.81,15.71,35.81,37.27,35.81H237.9ZM170.65,35.81c0-12.71,8.49-22,21.46-22s21.47,9.24,21.47,22-8.49,21.95-21.47,21.95S170.65,48.52,170.65,35.81Z"/><path class="cls-1" d="M132.07.92h-1.86a4,4,0,0,0-1.44.24,3.4,3.4,0,0,0-1.14.76,5.91,5.91,0,0,0-1,1.43L108.47,39.13c-.64,1.26-1.27,2.57-1.89,3.91s-1.2,2.73-1.75,4.16c-.55-1.39-1.12-2.76-1.72-4.08s-1.22-2.61-1.87-3.85L83,3.35a5.92,5.92,0,0,0-1-1.43,3.4,3.4,0,0,0-1.14-.76A4,4,0,0,0,79.46.92H66.87a1.81,1.81,0,0,0-1.81,1.81V69.82a1.81,1.81,0,0,0,1.81,1.8H77.34a2.19,2.19,0,0,0,2.19-2.18V25.22L97.86,60.66c.08.15.17.31.27.46a7,7,0,0,0,2.21,2.35,11.19,11.19,0,0,0,4.46.87h.07a11.11,11.11,0,0,0,4.45-.87,6.66,6.66,0,0,0,2.16-2.27c.13-.2.26-.42.37-.63l18.28-35.48V69.82a1.81,1.81,0,0,0,1.81,1.8h10.47a2.19,2.19,0,0,0,2.19-2.18V3.11A2.19,2.19,0,0,0,142.41.92Z"/></svg>