<svg xmlns="http://www.w3.org/2000/svg" viewBox="0 0 1119.9 229.25"><defs><style>.cls-1{fill:#004be0;}</style></defs><g id="Layer_2" data-name="Layer 2"><g id="Layer_1-2" data-name="Layer 1"><path class="cls-1" d="M430.21,133.85c0,20.9-2.61,46.69-24.16,68.88-20.89,21.55-45.05,24.82-67.9,24.82s-47-3.27-67.91-24.82c-21.54-22.19-24.15-48-24.15-68.88V16.32A11.42,11.42,0,0,1,257.51,4.9h27.42a11.42,11.42,0,0,1,11.43,11.42V132.55c0,9.46.65,25.46,11.43,36.56,8.81,9.47,20.89,11.43,30.36,11.43s21.54-2,30.36-11.43c10.77-11.1,11.43-27.1,11.43-36.56V16.32A11.42,11.42,0,0,1,391.36,4.9h27.43a11.42,11.42,0,0,1,11.42,11.42Z"/><path class="cls-1" d="M533.19,4.9c27.74,0,45,9.14,55.5,18.93,9.14,8.81,18.93,24.49,18.93,48.65,0,13.71-2.94,30.69-17,44.4a68.51,68.51,0,0,1-16.83,11.69,11.5,11.5,0,0,0-4.32,17.22l44,58.57a11.43,11.43,0,0,1-9.14,18.29H571.86a11.43,11.43,0,0,1-9.43-5l-34.51-50.42c-6.34-9.27-20.85-4.78-20.85,6.46v37.51a11.43,11.43,0,0,1-11.43,11.42H468.22a11.43,11.43,0,0,1-11.43-11.42V16.32A11.42,11.42,0,0,1,468.22,4.9ZM507.07,92.39a11.42,11.42,0,0,0,11.42,11.43h0c9.15,0,21.55-1,30-9.47,3.59-3.59,8.16-10.45,8.16-21.22,0-12.41-5.87-18.94-10.12-22.2-8.16-6.2-21.22-6.85-27.75-6.85h-.33A11.42,11.42,0,0,0,507.07,55.5Z"/><path class="cls-1" d="M756.94,47.37A11.44,11.44,0,0,1,741,50.94c-12.22-7.87-22.26-8.5-27.25-8.5-6.85,0-15.34,1-21.22,7.51A19.48,19.48,0,0,0,687,63.66c0,5.22,1.64,9.14,4.9,12.08,5.22,4.9,12.73,6.86,27.42,12.41l16.33,6.2c9.46,3.59,21.22,8.49,29.71,16.65,12.73,12.08,16,27.75,16,40.48,0,22.53-7.83,42.11-19.26,53.87-19.26,20.24-47.34,22.2-61.7,22.2-15.67,0-29.39-2.29-43.1-9.14-8-4-16.81-10.35-24.17-16.64a11.45,11.45,0,0,1-1.83-15.43L643.9,169a11.42,11.42,0,0,1,16.62-2,98.23,98.23,0,0,0,11.12,8.32,50.53,50.53,0,0,0,27.42,7.84c6.53,0,15.67-1.31,22.86-7.51A22.54,22.54,0,0,0,729.75,158c0-7.18-2.94-11.75-7.51-15.67-5.87-4.9-19.26-9.79-25.46-12.08l-18-6.2c-10.12-3.59-21.87-8.16-30.36-17.3C637,94.68,635.4,79.33,635.4,68.88c0-19.26,5.88-35.58,18.93-49C669.68,4.24,688,0,708.21,0a104.52,104.52,0,0,1,55,15.1,11.46,11.46,0,0,1,3.84,15.81Z"/><path class="cls-1" d="M867.84,71,918.58,9.08a11.44,11.44,0,0,1,8.84-4.18H958.6a11.42,11.42,0,0,1,8.68,18.84l-65.79,77a11.43,11.43,0,0,0-.11,14.72l73.34,88.46a11.42,11.42,0,0,1-8.79,18.72H931.07a11.39,11.39,0,0,1-8.89-4.25L867.9,151.18a11.43,11.43,0,0,0-20.32,7.18v52.87a11.43,11.43,0,0,1-11.43,11.42H808.73a11.43,11.43,0,0,1-11.43-11.42V16.32A11.42,11.42,0,0,1,808.73,4.9h27.42a11.42,11.42,0,0,1,11.43,11.42V63.7A11.42,11.42,0,0,0,867.84,71Z"/><path class="cls-1" d="M1108.46,4.9h-31.77a11.4,11.4,0,0,0-9.59,5.22l-30.78,47.54a11.44,11.44,0,0,1-19.19,0L997.76,27.73c-2.4-3-4.73-3.27-7-.55L963.89,55.63c-2.34,2.78-2,6.26.69,10.36l35.07,52.24a11.37,11.37,0,0,1,1.94,6.37v86.63A11.42,11.42,0,0,0,1013,222.65h27.43a11.42,11.42,0,0,0,11.42-11.42V124.6a11.45,11.45,0,0,1,1.94-6.37l64.14-95.54A11.42,11.42,0,0,0,1108.46,4.9Z"/><path class="cls-1" d="M113.31,53.73A62.21,62.21,0,1,1,51.1,115.94a62.28,62.28,0,0,1,62.21-62.21m0-51.1A113.31,113.31,0,1,0,226.62,115.94,113.32,113.32,0,0,0,113.31,2.63Z"/></g></g></svg>