<?xml version="1.0" encoding="UTF-8" standalone="no"?>
<svg
   xmlns:dc="http://purl.org/dc/elements/1.1/"
   xmlns:cc="http://creativecommons.org/ns#"
   xmlns:rdf="http://www.w3.org/1999/02/22-rdf-syntax-ns#"
   xmlns:svg="http://www.w3.org/2000/svg"
   xmlns="http://www.w3.org/2000/svg"
   viewBox="0 0 866.66669 266.66666"
   height="266.66666"
   width="866.66669"
   xml:space="preserve"
   id="svg2"
   version="1.1"><metadata
     id="metadata8"><rdf:RDF><cc:Work
         rdf:about=""><dc:format>image/svg+xml</dc:format><dc:type
           rdf:resource="http://purl.org/dc/dcmitype/StillImage" /></cc:Work></rdf:RDF></metadata><defs
     id="defs6"><clipPath
       id="clipPath18"
       clipPathUnits="userSpaceOnUse"><path
         id="path16"
         d="M 0,200 H 650 V 0 H 0 Z" /></clipPath></defs><g
     transform="matrix(1.3333333,0,0,-1.3333333,0,266.66667)"
     id="g10"><g
       id="g12"><g
         clip-path="url(#clipPath18)"
         id="g14"><g
           transform="translate(622.9279,70.1389)"
           id="g20"><path
             id="path22"
             style="fill:#231f20;fill-opacity:1;fill-rule:nonzero;stroke:none"
             d="M 0,0 C -5.2,0 -5.2,5.203 -5.2,11.42 V 54.356 H 7.231 c 2.316,0 2.316,1.013 2.316,10.121 H -5.2 v 26.02 c -9.541,0 -11.706,0 -11.706,-4.049 V 64.477 h -7.378 c -2.457,0 -2.6,-1.158 -2.6,-10.121 h 9.978 V 12.72 c 0,-13.01 0,-22.842 13.729,-22.842 5.638,0 12.433,1.159 12.433,4.63 0,2.89 -0.433,6.07 -0.87,7.659 C 5.352,0.866 4.049,0 0,0 M -202.104,59.127 V -7.806 c 11.855,0 11.999,0 11.999,2.454 v 69.829 c -9.541,0 -11.999,0 -11.999,-5.35 m -30.465,33.971 V 63.752 c -2.46,1.737 -5.783,2.892 -10.267,2.892 -12.43,0 -22.265,-12.288 -22.265,-40.912 0,-31.372 9.835,-35.707 23.564,-35.707 8.968,0 15.761,1.446 20.674,4.335 V 98.45 c -9.542,0 -11.706,0 -11.706,-5.352 z m 0,-90.353 c -2.315,-1.589 -5.352,-2.167 -8.533,-2.167 -6.793,0 -10.837,3.18 -10.837,26.454 0,23.711 6.358,29.348 12.718,29.348 3.031,0 4.77,-0.432 6.652,-1.879 z m 194.732,40.192 c 0,15.466 -6.216,23.707 -18.364,23.707 -12.864,0 -25.585,-4.482 -25.585,-42.069 0,-29.49 9.687,-34.55 23.133,-34.55 10.842,0 19.944,3.472 19.944,5.492 0,3.18 -0.283,8.241 -1.008,10.41 -4.916,-2.745 -10.701,-4.483 -17.638,-4.483 -7.807,0 -11.853,2.604 -12.285,20.095 6.934,0 20.237,0.291 30.213,2.315 1.157,5.204 1.59,12.576 1.59,19.083 z M -49.982,32.673 c -5.057,-1.447 -14.022,-1.734 -19.658,-1.591 0.864,20.095 6.215,25.298 12.142,25.298 6.216,0 8.095,-4.335 8.237,-14.745 0,-2.748 -0.142,-6.361 -0.721,-8.962 z m -230.407,7.371 c 0,19.951 -1.881,26.6 -19.37,26.6 -7.808,0 -18.217,-2.167 -23.854,-4.77 v -69.68 c 12.001,0 11.71,0 11.71,2.454 v 58.985 c 3.178,2.022 7.661,2.747 10.843,2.747 7.662,0 8.529,-4.335 8.529,-15.755 V -7.806 c 12.288,0 12.142,0 12.142,2.454 z m 84.789,57.971 c -4.625,0 -6.65,-3.47 -6.65,-8.674 -0.145,-6.794 2.171,-8.961 5.927,-9.108 4.335,0 6.507,3.47 6.65,9.397 0,6.072 -1.445,8.385 -5.927,8.385 m 79.299,-31.371 c -7.803,0 -18.214,-2.167 -23.856,-4.77 v -69.68 c 12.002,0 11.715,0 11.715,2.454 v 58.985 c 3.178,2.022 7.657,2.747 10.841,2.747 7.661,0 8.528,-4.335 8.528,-15.755 V -7.806 c 12.286,0 12.143,0 12.143,2.454 v 45.396 c 0,19.951 -1.882,26.6 -19.371,26.6 z M -164.842,7.518 c -5.203,0 -8.094,-3.904 -8.094,-8.385 0,-5.06 2.024,-8.243 8.094,-8.243 5.057,0 8.1,3.758 8.1,8.243 0,5.057 -2.17,8.385 -8.1,8.385 m -384.725,61.028 c 7.003,0 13.588,2.727 18.539,7.68 4.95,4.949 7.677,11.531 7.677,18.536 0,7.003 -2.727,13.586 -7.678,18.538 -4.95,4.95 -11.535,7.677 -18.538,7.677 -7,0 -13.584,-2.727 -18.536,-7.679 -4.952,-4.95 -7.678,-11.533 -7.678,-18.536 0,-7.002 2.726,-13.587 7.679,-18.536 4.95,-4.953 11.535,-7.68 18.535,-7.68 m -5.445,31.662 c 1.454,1.456 3.389,2.258 5.445,2.258 2.059,0 3.994,-0.802 5.448,-2.257 1.455,-1.456 2.257,-3.389 2.257,-5.447 0,-2.059 -0.802,-3.993 -2.256,-5.446 -1.455,-1.457 -3.39,-2.257 -5.449,-2.257 -2.056,0 -3.991,0.8 -5.445,2.255 -1.455,1.455 -2.257,3.389 -2.257,5.448 0,2.058 0.802,3.991 2.257,5.446 m 199.487,-33.564 c -13.445,0 -23.133,-1.879 -25.301,-3.47 -1.012,-0.724 -1.301,-2.168 -1.301,-3.759 0,-1.012 0.145,-5.059 1.59,-7.518 4.484,2.027 13.877,3.328 20.384,3.328 4.48,0 7.664,-1.737 7.664,-8.531 V 34.552 c -2.893,1.442 -7.374,1.878 -10.988,1.878 -9.252,0 -18.793,-3.613 -18.793,-23.71 0,-21.973 10.118,-22.842 20.67,-22.695 9.398,0 16.192,2.315 20.097,4.77 0,0 0.869,20.529 0.869,45.83 v 8.384 c 0,13.01 -5.494,17.635 -14.891,17.635 m 2.6,-64.477 c -1.299,-1.443 -4.915,-2.313 -7.806,-2.313 -5.637,0 -9.252,0.58 -9.252,13.014 0,12.721 4.913,14.742 10.7,14.742 2.021,0 4.913,-0.287 6.794,-1.301 0,-10.408 -0.436,-24.142 -0.436,-24.142 z m -144.346,76.657 c -5.121,3.626 -12.21,2.413 -15.834,-2.707 -4.448,-6.291 -9.374,-10.953 -14.979,-14.174 -0.516,-0.296 -1.041,-0.581 -1.57,-0.855 -0.488,-0.252 -0.983,-0.494 -1.48,-0.724 -5.233,-2.426 -11.062,-3.699 -17.8,-3.901 -6.738,0.202 -12.57,1.476 -17.805,3.902 -6.894,3.195 -12.792,8.347 -18.034,15.752 -3.624,5.12 -10.713,6.333 -15.832,2.707 -5.12,-3.622 -6.335,-10.711 -2.71,-15.831 7.488,-10.582 16.581,-18.401 27.027,-23.241 2.051,-0.951 4.145,-1.787 6.29,-2.509 -8.872,-6.407 -18.466,-15.387 -23.061,-27.698 -4.77,-12.776 -4.71,-26.608 0.166,-38.951 4.679,-11.841 13.339,-21.471 24.387,-27.119 12.308,-6.293 27.977,-6.307 41.91,-0.032 14.623,6.582 24.161,18.633 25.516,32.243 1.424,14.324 -5.445,27.079 -17.5,32.493 -12.487,5.608 -26.573,1.605 -35.884,-10.194 -3.887,-4.924 -3.044,-12.068 1.879,-15.953 4.925,-3.888 12.068,-3.044 15.953,1.879 2.767,3.506 5.956,4.799 8.749,3.544 2.38,-1.069 4.732,-4.134 4.197,-9.524 -0.533,-5.335 -5.22,-10.617 -12.233,-13.775 -7.59,-3.413 -16.115,-3.588 -22.249,-0.453 -6.121,3.131 -10.951,8.543 -13.597,15.239 -1.987,5.026 -3.602,13.042 -0.011,22.657 2.693,7.212 9.481,14.017 21.364,21.411 5.043,3.14 10.453,6.067 15.682,8.897 6.032,3.264 11.748,6.358 16.768,9.672 8.933,4.886 16.79,12.074 23.401,21.414 3.624,5.121 2.41,12.209 -2.71,15.831 z m 85.689,-13.335 c -2.459,0.723 -5.35,1.155 -7.229,1.155 -14.167,0 -23.999,-7.949 -23.999,-27.178 0,-9.251 2.171,-17.205 8.819,-21.54 -4.191,-3.469 -8.964,-9.398 -9.108,-13.155 -0.145,-3.756 3.18,-6.361 8.675,-7.953 -6.073,-4.045 -10.842,-9.829 -10.842,-16.766 0,-7.521 3.759,-16.483 23.274,-16.483 19.226,0 27.612,11.278 27.612,23.71 0,11.418 -8.673,15.613 -17.926,16.911 -10.842,1.449 -18.217,1.881 -18.217,4.338 0,2.026 1.881,4.483 3.758,6.507 1.882,-0.433 4.05,-0.578 6.51,-0.578 16.768,0 23.419,9.977 23.419,25.298 0,7.229 -2.17,12.723 -5.641,16.336 2.025,-0.436 3.759,-0.722 5.35,-0.722 2.458,0 4.046,1.447 4.046,4.626 0,2.603 -0.576,4.482 -1.154,5.494 z m -13.881,-70.26 c 0.867,-0.144 1.737,-0.289 2.748,-0.289 12.723,-0.867 16.481,-2.746 16.481,-9.255 0,-5.056 -4.481,-11.127 -14.746,-11.127 -9.83,0 -12.144,3.612 -12.144,8.237 0,4.628 3.471,9.399 7.661,12.434 z m 5.786,28.191 c -8.965,0 -10.701,6.504 -10.701,16.913 0,12.723 4.915,17.639 11.133,17.639 6.939,0 10.552,-4.484 10.552,-15.035 0,-12.577 -3.326,-19.517 -10.984,-19.517" /></g></g></g></g></svg>