<?xml version="1.0" encoding="utf-8"?>
<!-- Generator: Adobe Illustrator 21.0.0, SVG Export Plug-In . SVG Version: 6.00 Build 0)  -->
<svg version="1.1" id="Layer_1" xmlns="http://www.w3.org/2000/svg" xmlns:xlink="http://www.w3.org/1999/xlink" x="0px" y="0px"
	 viewBox="0 0 797 202" style="enable-background:new 0 0 797 202;" xml:space="preserve">
<style type="text/css">
	.st0{fill:#365ABD;}
</style>
<title>InfuseAI</title>
<g>
	<path class="st0" d="M202.5,143.8c-4.6,0-8.9-2.1-11.7-5.6l-79-99l-80.5,99.1c-4.7,6.8-14.1,8.5-20.9,3.8
		C3.6,137.3,2,128,6.7,121.2c0.4-0.6,0.9-1.2,1.4-1.7L92.9,14.9c4.6-5.7,11.5-9,18.9-9h0.1c7.4,0,14.3,3.4,18.9,9.1l83.4,104.5
		c5.1,6.5,4,15.9-2.5,21.1C209.1,142.6,205.8,143.8,202.5,143.8z"/>
	<path class="st0" d="M156.4,196.1H67.3c-8.3,0.6-15.5-5.5-16.1-13.8c-0.6-8.3,5.5-15.5,13.8-16.1c0.8-0.1,1.5-0.1,2.3,0h89.1
		c8.3,0.6,14.4,7.9,13.8,16.1C169.7,189.7,163.8,195.5,156.4,196.1L156.4,196.1z"/>
	<path class="st0" d="M135.7,122c-6.4-8.2-12.4-15.2-16.8-20.1c-3.5-3.9-9.5-4.3-13.4-0.7c-0.3,0.2-0.5,0.5-0.7,0.7
		c-4.4,4.9-10.4,11.9-16.8,20.1c-3.2,4.2-2.5,10.2,1.7,13.4c1.7,1.3,3.8,2,5.9,2h32.7c5.3,0,9.5-4.3,9.5-9.6
		C137.7,125.7,137,123.7,135.7,122z"/>
	<path class="st0" d="M294.9,61.1c0-4.4,2.7-7.1,6.7-7.1c3.9,0,6.5,2.7,6.5,7.1v88c0,4.4-2.7,7.1-6.5,7.1c-4,0-6.7-2.7-6.7-7.1V61.1
		z"/>
	<path class="st0" d="M332.7,90.4c0-4.1,2.7-6.7,6.2-6.7s6.2,2.5,6.2,6.7v2.1h0.1c3.4-5.5,10.2-9.6,19.9-9.6
		c15.4,0,24.6,10.5,24.6,26.7v40c0,4.1-2.7,6.7-6.2,6.7s-6.2-2.5-6.2-6.7v-37c0-11.4-5.2-18.1-15.9-18.1c-9.6,0-16.3,6.8-16.3,17.3
		v37.8c0,4.1-2.7,6.7-6.2,6.7s-6.2-2.5-6.2-6.7L332.7,90.4z"/>
	<path class="st0" d="M439.5,84.5c3.4,0,5.3,2.1,5.3,5c0,2.9-1.9,5-5.3,5H429c-0.4-0.1-0.8,0.2-0.9,0.7c0,0.1,0,0.1,0,0.2v54.1
		c0,4.1-2.7,6.7-6.2,6.7s-6.2-2.5-6.2-6.7v-54c0.1-0.4-0.2-0.8-0.7-0.9c-0.1,0-0.1,0-0.2,0h-4c-3.4,0-5.3-2.1-5.3-5s1.9-5,5.3-5h4
		c0.4,0.1,0.8-0.2,0.9-0.7c0-0.1,0-0.1,0-0.2v-6.3c0-17,7.1-22.7,22-22.7h1c4.3,0,6.5,2.4,6.5,5.8c0,3.4-2.2,5.8-6.1,5.8
		c-9.2,0-11,1.8-11,10.4v7c-0.1,0.4,0.2,0.8,0.7,0.9c0.1,0,0.1,0,0.2,0L439.5,84.5z"/>
	<path class="st0" d="M516.1,149.5c0,4.1-2.7,6.7-6.2,6.7c-3.6,0-6.2-2.5-6.2-6.7v-2.1h-0.1c-3.4,5.5-9.9,9.6-19.6,9.6
		c-15.4,0-24.5-10.5-24.5-26.7v-40c0-4.1,2.7-6.7,6.2-6.7s6.2,2.5,6.2,6.7v37c0,11.4,5,18.1,15.7,18.1c9.6,0,16-6.8,16-17.3V90.4
		c0-4.1,2.7-6.7,6.2-6.7c3.6,0,6.2,2.5,6.2,6.7L516.1,149.5z"/>
	<path class="st0" d="M538.7,149.2c-1.8-1.1-3-3.1-3-5.2c0-3.1,2.6-5.6,5.7-5.6c0,0,0,0,0.1,0c1.5,0,2.9,0.5,4.1,1.3
		c5.8,3.4,11.9,6.2,19.9,6.2c10.2,0,15.6-4.4,15.6-10.7c0-5.9-2.7-8.9-13.9-10.1l-7.4-0.7c-13.9-1.5-21.2-8.6-21.2-20
		c0-13.5,9.6-21.6,26.2-21.6c7.4-0.1,14.7,1.7,21.2,5.2c2.5,1.3,3.7,3,3.7,5.2c0,2.9-2.4,5.3-5.3,5.3c0,0,0,0,0,0
		c-1.6-0.1-3.1-0.5-4.4-1.2c-4.9-2.4-10.2-3.7-15.7-3.7c-8.9,0-13.5,4-13.5,9.8c0,5.8,3.3,8.6,13.9,9.6l7.4,0.7
		c14.8,1.6,21.3,8.6,21.3,20.2c0,13.9-10.1,23.1-28.9,23.1C555.3,157.2,546.3,154.4,538.7,149.2z"/>
	<path class="st0" d="M611.1,137.8c-1.5-4.4-2.4-9.5-2.4-17.9s0.7-13.5,2.2-17.9c4-12.3,14.2-19.1,27.7-19.1c13.9,0,24,6.8,27.9,19
		c1.6,4.7,2.4,10.2,2.4,17.2c0.1,2.5-1.8,4.6-4.3,4.8c-0.2,0-0.4,0-0.5,0h-41.7c-0.4-0.1-0.8,0.2-0.9,0.7c0,0.1,0,0.1,0,0.2
		c-0.1,2.9,0.3,5.8,1.2,8.6c2.7,8.2,9.2,12.3,17.9,12.3c7,0,11.7-2.1,17-6.1c1.2-1.1,2.7-1.7,4.3-1.8c2.8-0.1,5.1,2.1,5.2,4.9
		c0,0.1,0,0.2,0,0.2c0,1.7-0.7,3.3-1.9,4.4c-6.9,6.4-16,9.9-25.5,9.8C625.1,157.1,615.1,150.3,611.1,137.8z M655.3,113.9
		c0.4,0.1,0.8-0.2,0.9-0.7c0-0.1,0-0.1,0-0.2c0.1-2.7-0.2-5.4-1-8c-2.4-7.1-8.3-11.1-16.3-11.1s-13.9,4-16.3,11.1
		c-0.8,2.6-1.1,5.3-1,8c-0.1,0.4,0.2,0.8,0.7,0.9c0.1,0,0.1,0,0.2,0H655.3z"/>
	<path class="st0" d="M682.3,147.2l31-85.8c1.6-4.7,4.1-7.4,8.6-7.4c4.4,0,7.3,2.7,8.9,7.4l30.5,85.8c0.4,1,0.6,2,0.6,3
		c0,3.3-2.6,6-5.9,6.1c-0.1,0-0.2,0-0.3,0c-3,0.1-5.6-1.9-6.4-4.7l-6.8-19.5h-41.4l-6.8,19.4c-0.8,2.9-3.4,4.8-6.4,4.7
		c-3.3,0.1-6.1-2.5-6.2-5.8c0-0.1,0-0.2,0-0.3C681.7,149.1,681.9,148.1,682.3,147.2z M738.1,119.9l-16-45.8h-0.4l-16.3,45.8
		L738.1,119.9z"/>
	<path class="st0" d="M779.2,61.1c0-4.4,2.7-7.1,6.7-7.1c3.9,0,6.5,2.7,6.5,7.1v88c0,4.4-2.7,7.1-6.5,7.1c-4,0-6.7-2.7-6.7-7.1V61.1
		z"/>
</g>
</svg>
