<?xml version="1.0" encoding="UTF-8" standalone="no"?>
<svg
   xmlns:dc="http://purl.org/dc/elements/1.1/"
   xmlns:cc="http://creativecommons.org/ns#"
   xmlns:rdf="http://www.w3.org/1999/02/22-rdf-syntax-ns#"
   xmlns:svg="http://www.w3.org/2000/svg"
   xmlns="http://www.w3.org/2000/svg"
   viewBox="0 0 964.04797 277.87067"
   height="277.87067"
   width="964.04797"
   xml:space="preserve"
   id="svg2"
   version="1.1"><metadata
     id="metadata8"><rdf:RDF><cc:Work
         rdf:about=""><dc:format>image/svg+xml</dc:format><dc:type
           rdf:resource="http://purl.org/dc/dcmitype/StillImage" /></cc:Work></rdf:RDF></metadata><defs
     id="defs6"><clipPath
       id="clipPath18"
       clipPathUnits="userSpaceOnUse"><path
         id="path16"
         d="M 0,208.403 H 723.036 V 0 H 0 Z" /></clipPath><clipPath
       id="clipPath70"
       clipPathUnits="userSpaceOnUse"><path
         id="path68"
         d="m 492.53,151.972 0.904,-89.253 16.253,0.165 -0.903,89.253 z m -28.888,-0.292 0.257,-25.363 c -4.416,0.925 -8.693,1.438 -12.687,1.398 v 0 c -15.839,-0.161 -24.842,-8.847 -24.59,-33.791 v 0 c 0.207,-20.513 6.534,-33.201 23.752,-33.026 v 0 c 8.401,0.085 14.016,3.192 17.159,5.856 v 0 l 1.696,-4.28 11.568,0.117 -0.902,89.253 z M 443.156,93.397 c -0.161,15.939 2.133,20.674 11.087,20.765 v 0 c 2.617,0.026 7.027,-0.345 9.786,-0.733 v 0 l 0.368,-36.312 c -3.293,-1.278 -7.007,-1.732 -9.624,-1.759 v 0 c -0.079,-0.001 -0.156,-0.001 -0.233,-0.001 v 0 c -9.978,0 -11.267,6.626 -11.384,18.04 m -170.716,56.349 0.904,-89.253 16.251,0.163 -0.903,89.253 z m -63.459,-0.643 0.903,-89.253 16.253,0.165 -0.266,26.195 3.581,0.036 c 6.152,-8.947 12.16,-17.341 18.721,-26.008 v 0 l 21.349,0.215 c -13.234,14.699 -20.485,23.356 -28.306,33.951 v 0 c 8.998,9.238 19.08,20.152 27.52,30.079 v 0 l -20.384,-0.206 c -6.66,-8.802 -14.963,-18.727 -22.589,-27.396 v 0 l -0.529,52.387 z M 652.71,129.754 c -14.187,-0.144 -26.529,-5.675 -26.38,-20.366 v 0 c 0.102,-10.116 5.947,-15.88 17.134,-18.952 v 0 c 12.708,-3.477 15.61,-4.28 15.645,-7.606 v 0 c 0.045,-4.434 -5.458,-5.46 -11.379,-5.52 v 0 c -6.059,-0.061 -13.094,0.838 -19.439,1.882 v 0 l -2.063,-14.297 c 5.937,-1.326 15.175,-2.065 21.235,-2.003 v 0 c 15.425,0.156 28.32,5.555 28.163,21.075 v 0 c -0.12,11.921 -7.739,16 -16.446,18.822 v 0 c -8.153,2.69 -16.29,3.44 -16.333,7.874 v 0 c -0.034,3.188 3.81,4.614 10.696,4.683 v 0 c 4.823,0.048 11.165,-0.579 16.542,-1.356 v 0 l 1.65,14.154 c -5.192,0.884 -12.947,1.613 -18.435,1.613 v 0 c -0.2,0 -0.397,-0.001 -0.59,-0.003 m -51.891,-0.526 c -14.185,-0.143 -26.526,-5.674 -26.378,-20.365 v 0 c 0.103,-10.116 5.947,-15.879 17.133,-18.953 v 0 c 12.709,-3.476 15.61,-4.279 15.643,-7.605 v 0 c 0.045,-4.434 -5.454,-5.46 -11.376,-5.52 v 0 c -6.058,-0.061 -13.094,0.838 -19.442,1.881 v 0 l -2.06,-14.296 c 5.938,-1.326 15.175,-2.065 21.235,-2.004 v 0 c 15.425,0.157 28.32,5.556 28.163,21.076 v 0 c -0.121,11.921 -7.738,16 -16.446,18.822 v 0 c -8.153,2.69 -16.29,3.44 -16.335,7.874 v 0 c -0.031,3.188 3.811,4.613 10.698,4.683 v 0 c 4.822,0.049 11.165,-0.579 16.542,-1.356 v 0 l 1.65,14.154 c -5.195,0.883 -12.947,1.612 -18.436,1.612 v 0 c -0.2,0 -0.397,-0.001 -0.591,-0.003 m -56.571,-0.572 C 525.104,128.462 517.535,114.107 517.724,95.4 v 0 c 0.231,-22.867 11.912,-33.7 29.954,-33.518 v 0 c 8.539,0.087 16.917,2.668 23.084,5.641 v 0 l -4.81,12.563 c -4.527,-1.709 -10.431,-3.708 -16.629,-3.771 v 0 c -8.263,-0.084 -13.535,3.605 -14.732,12.878 v 0 l 34.845,0.353 c 0.658,3.195 0.89,7.494 0.86,10.544 v 0 c -0.182,18.012 -9.237,28.568 -25.656,28.568 v 0 c -0.13,0 -0.261,-10e-4 -0.392,-0.002 m -0.13,-14.417 c 7.024,0.071 9.83,-4.889 10.179,-12.094 v 0 l -19.972,-0.203 c 0.338,7.489 3.044,12.228 9.793,12.297 m -217.089,12.216 c -0.175,0 -0.353,-0.001 -0.531,-0.002 v 0 c -21.348,-0.216 -28.93,-13.184 -28.723,-33.695 v 0 c 0.208,-20.511 8.051,-33.323 29.399,-33.108 v 0 c 21.349,0.216 28.932,13.185 28.724,33.696 v 0 c -0.205,20.339 -7.919,33.109 -28.866,33.109 v 0 c -0.002,0 -10e-4,0 -0.003,0 m -12.726,-33.53 c -0.106,10.533 1.185,19.001 12.341,19.113 v 0 c 11.157,0.113 12.619,-8.327 12.725,-18.859 v 0 c 0.107,-10.532 -1.184,-19.001 -12.34,-19.113 v 0 c -0.074,-0.001 -0.148,-0.001 -0.222,-0.001 v 0 c -10.953,0 -12.398,8.398 -12.504,18.86 m 86.549,32.894 0.492,-48.646 c -4.116,-1.565 -7.413,-2.431 -11.271,-2.469 v 0 c -7.298,-0.074 -9.945,2.946 -10.019,10.155 v 0 l -0.412,40.746 -16.253,-0.165 0.435,-42.963 c 0.129,-12.75 6.011,-22.395 21.162,-22.242 v 0 c 7.575,0.078 14.576,2.505 19.91,6.301 v 0 l 1.286,-4.7 11.57,0.117 -0.647,64.031 z" /></clipPath></defs><g
     transform="matrix(1.3333333,0,0,-1.3333333,0,277.87067)"
     id="g10"><g
       id="g12"><g
         clip-path="url(#clipPath18)"
         id="g14"><g
           transform="translate(113.0113,110.7781)"
           id="g20"><path
             id="path22"
             style="fill:#f1e400;fill-opacity:1;fill-rule:nonzero;stroke:none"
             d="m 0,0 c -0.452,2.496 0.406,4.634 1.799,6.359 -2.013,-0.072 -4.13,0.401 -5.838,2.036 -1.768,1.691 -2.363,3.825 -2.315,5.952 -1.239,-0.973 -2.807,-1.859 -5.507,-1.612 -2.522,0.231 -4.092,1.58 -4.683,2.088 -0.51,0.433 -0.938,0.914 -1.301,1.43 -0.009,-0.03 -0.017,-0.061 -0.026,-0.091 -0.572,-2.014 -2.001,-3.842 -3.729,-4.773 -2.234,-1.202 -4.534,-1.058 -6.6,-0.283 0.717,-1.918 0.939,-4.104 -0.104,-6.265 -1.101,-2.284 -3.043,-3.518 -5.17,-4.106 1.707,-1.13 3.171,-2.767 3.598,-5.129 0.451,-2.495 -0.395,-4.635 -1.771,-6.36 2.031,0.091 4.193,-0.373 5.926,-2.034 1.833,-1.754 2.406,-3.983 2.306,-6.188 1.378,1.097 3.057,1.904 5.01,1.904 0.321,0 0.647,-0.02 0.981,-0.066 2.513,-0.342 4.287,-1.807 5.503,-3.649 0.546,1.974 1.651,3.872 3.763,5.007 2.237,1.2 4.533,1.057 6.599,0.283 -0.718,1.917 -0.94,4.102 0.101,6.264 1.094,2.263 3.01,3.495 5.114,4.089 C 1.92,-4.014 0.429,-2.372 0,0" /></g><g
           transform="translate(79.0386,132.1868)"
           id="g24"><path
             id="path26"
             style="fill:#35ae7f;fill-opacity:1;fill-rule:nonzero;stroke:none"
             d="m 0,0 0.123,-0.103 5.118,-4.849 c 1.446,-1.076 3.388,-2.042 5.03,-1.16 0.674,0.363 1.318,1.218 1.562,2.076 0.361,1.278 0.439,2.793 0.244,4.765 l -0.022,0.12 c -0.041,0.213 -0.106,0.586 -0.088,1.025 l -2.793,17.05 c -0.261,2.189 -1.151,2.189 -1.53,2.189 -0.147,0 -0.285,-0.015 -0.408,-0.036 C 6.887,21.025 6.283,20.309 5.937,19.569 L -0.968,4.791 C -2.331,1.875 -0.243,0.183 0,0" /></g><g
           transform="translate(97.5635,133.0012)"
           id="g28"><path
             id="path30"
             style="fill:#35ae7f;fill-opacity:1;fill-rule:nonzero;stroke:none"
             d="m 0,0 c 0.003,-0.017 0.006,-0.034 0.01,-0.05 0.351,-1.58 0.799,-3.147 1.695,-3.907 l 0.091,-0.078 c 0.38,-0.325 1.085,-0.932 2.195,-1.033 1.383,-0.126 1.844,0.247 2.593,0.868 0.801,0.693 1.454,1.637 2.124,2.793 6.009,11.89 15.361,30.555 18.853,38.381 1.086,2.377 1.36,4.078 0.757,4.681 -0.229,0.229 -0.718,0.473 -1.401,0.473 -0.393,0 -0.792,-0.079 -1.188,-0.235 C 22.307,40.543 8.06,34.7 2.094,32.25 -1.015,30.975 -2.085,29.954 -3.11,27.286 -3.466,26.359 -3.325,23.459 -3.111,21.696 Z" /></g><g
           transform="translate(114.7339,133.9944)"
           id="g32"><path
             id="path34"
             style="fill:#efc700;fill-opacity:1;fill-rule:nonzero;stroke:none"
             d="M 0,0 -0.061,-0.149 -3.09,-6.516 c -0.577,-1.706 -0.894,-3.852 0.45,-5.141 0.555,-0.529 1.567,-0.878 2.458,-0.844 1.328,0.051 2.792,0.444 4.608,1.24 l 0.106,0.058 c 0.191,0.105 0.525,0.282 0.948,0.4 l 15.353,7.925 c 2.002,0.926 1.726,1.772 1.608,2.132 -0.044,0.14 -0.103,0.266 -0.161,0.377 C 22.124,-0.053 21.256,0.3 20.445,0.4 L 4.257,2.401 C 1.063,2.796 0.099,0.287 0,0" /></g><g
           transform="translate(121.2325,116.6277)"
           id="g36"><path
             id="path38"
             style="fill:#efc700;fill-opacity:1;fill-rule:nonzero;stroke:none"
             d="m 0,0 c -0.015,-0.009 -0.03,-0.017 -0.045,-0.025 -1.393,-0.822 -2.745,-1.732 -3.19,-2.819 l -0.047,-0.111 c -0.192,-0.462 -0.551,-1.32 -0.305,-2.407 0.309,-1.355 0.805,-1.677 1.627,-2.198 0.907,-0.548 2.005,-0.877 3.313,-1.158 13.165,-2.039 33.808,-5.167 42.328,-6.069 2.597,-0.298 4.3,-0.034 4.686,0.726 0.146,0.288 0.229,0.83 0.018,1.479 -0.121,0.375 -0.32,0.728 -0.592,1.058 -2.34,2.837 -12.3,14.581 -16.474,19.498 -2.173,2.563 -3.476,3.265 -6.328,3.416 -0.993,0.051 -3.706,-0.978 -5.318,-1.726 z" /></g><g
           transform="translate(127.4839,100.6047)"
           id="g40"><path
             id="path42"
             style="fill:#e79331;fill-opacity:1;fill-rule:nonzero;stroke:none"
             d="m 0,0 -0.161,0.011 -6.99,0.914 c -1.802,0.02 -3.942,-0.341 -4.752,-2.017 -0.331,-0.691 -0.35,-1.762 -0.043,-2.599 0.459,-1.247 1.285,-2.518 2.604,-3.998 l 0.087,-0.084 c 0.159,-0.149 0.43,-0.412 0.674,-0.778 l 12.28,-12.153 c 1.5,-1.617 2.22,-1.094 2.527,-0.871 0.118,0.086 0.22,0.181 0.308,0.27 0.252,0.246 0.32,1.182 0.163,1.983 L 3.599,-3.308 C 2.987,-0.149 0.303,-0.007 0,0" /></g><g
           transform="translate(112.9746,89.0569)"
           id="g44"><path
             id="path46"
             style="fill:#e79331;fill-opacity:1;fill-rule:nonzero;stroke:none"
             d="M 0,0 C -0.012,0.011 -0.025,0.022 -0.037,0.035 -1.25,1.106 -2.533,2.111 -3.705,2.198 l -0.119,0.01 C -4.323,2.249 -5.25,2.325 -6.208,1.753 -7.4,1.042 -7.554,0.471 -7.795,-0.473 -8.036,-1.504 -8.009,-2.65 -7.873,-3.981 c 2.128,-13.15 5.534,-33.749 7.308,-42.131 0.52,-2.564 1.296,-4.101 2.139,-4.233 0.32,-0.051 0.86,0.039 1.411,0.439 0.32,0.231 0.596,0.531 0.824,0.89 1.975,3.103 10.066,16.204 13.452,21.694 1.767,2.859 2.032,4.314 1.295,7.074 -0.258,0.961 -2.076,3.223 -3.286,4.524 z" /></g><g
           transform="translate(99.6675,78.1609)"
           id="g48"><path
             id="path50"
             style="fill:#e43f65;fill-opacity:1;fill-rule:nonzero;stroke:none"
             d="m 0,0 -0.04,0.156 -1.29,6.93 c -0.536,1.72 -1.54,3.644 -3.386,3.896 -0.76,0.1 -1.784,-0.211 -2.485,-0.762 -1.044,-0.822 -1.998,-2 -2.998,-3.713 l -0.053,-0.108 c -0.092,-0.197 -0.259,-0.536 -0.532,-0.882 l -7.762,-15.434 c -1.074,-1.927 -0.355,-2.448 -0.049,-2.671 0.118,-0.088 0.241,-0.155 0.352,-0.21 0.313,-0.164 1.223,0.061 1.937,0.457 l 14.273,7.896 C 0.783,-2.887 0.088,-0.29 0,0" /></g><g
           transform="translate(84.2017,88.3904)"
           id="g52"><path
             id="path54"
             style="fill:#e43f65;fill-opacity:1;fill-rule:nonzero;stroke:none"
             d="M 0,0 C 0.008,0.015 0.014,0.032 0.022,0.046 0.666,1.53 1.225,3.062 0.946,4.203 L 0.917,4.318 C 0.802,4.806 0.588,5.711 -0.25,6.446 -1.295,7.362 -1.886,7.331 -2.858,7.269 -3.914,7.179 -4.996,6.798 -6.218,6.258 -18.068,0.17 -36.606,-9.433 -44.029,-13.712 c -2.277,-1.286 -3.5,-2.5 -3.365,-3.341 0.05,-0.32 0.303,-0.806 0.854,-1.208 0.319,-0.231 0.688,-0.402 1.101,-0.507 3.561,-0.921 18.522,-4.567 24.789,-6.091 3.265,-0.797 4.73,-0.6 7.128,0.954 0.834,0.544 2.423,2.971 3.287,4.523 z" /></g><g
           transform="translate(69.7261,97.6785)"
           id="g56"><path
             id="path58"
             style="fill:#0f8ba0;fill-opacity:1;fill-rule:nonzero;stroke:none"
             d="M 0,0 0.137,0.086 6.33,3.457 c 1.47,1.04 2.989,2.588 2.659,4.424 -0.14,0.754 -0.752,1.63 -1.493,2.127 -1.104,0.739 -2.519,1.283 -4.458,1.704 l -0.12,0.017 C 2.703,11.756 2.329,11.81 1.917,11.962 l -17.078,2.614 c -2.164,0.426 -2.439,-0.42 -2.557,-0.78 -0.045,-0.14 -0.073,-0.276 -0.091,-0.4 -0.06,-0.348 0.436,-1.144 1.034,-1.701 L -4.855,0.562 C -2.503,-1.636 -0.25,-0.171 0,0" /></g><g
           transform="translate(74.6763,115.5496)"
           id="g60"><path
             id="path62"
             style="fill:#0f8ba0;fill-opacity:1;fill-rule:nonzero;stroke:none"
             d="M 0,0 C 0.018,-0.003 0.035,-0.003 0.051,-0.006 1.663,-0.159 3.291,-0.219 4.29,0.399 L 4.392,0.462 C 4.818,0.722 5.614,1.206 6.054,2.229 6.602,3.507 6.388,4.059 6.03,4.964 5.619,5.94 4.922,6.853 4.031,7.849 c -9.452,9.387 -24.315,24.05 -30.677,29.789 -1.927,1.767 -3.46,2.555 -4.217,2.167 -0.29,-0.148 -0.674,-0.537 -0.885,-1.186 -0.122,-0.374 -0.17,-0.778 -0.143,-1.203 0.225,-3.672 1.38,-19.028 1.868,-25.458 0.251,-3.352 0.891,-4.685 3.11,-6.485 0.774,-0.625 3.574,-1.387 5.317,-1.728 z" /></g></g></g><g
       id="g64"><g
         clip-path="url(#clipPath70)"
         id="g66"><g
           transform="translate(197.0933,160.7527)"
           id="g72"><path
             id="path74"
             style="fill:#070000;fill-opacity:1;fill-rule:nonzero;stroke:none"
             d="m 0,0 489.476,4.953 1.155,-114.177 -489.476,-4.952 z" /></g></g></g></g></svg>