<?xml version="1.0" encoding="utf-8"?>
<!-- Generator: Adobe Illustrator 18.0.0, SVG Export Plug-In . SVG Version: 6.00 Build 0)  -->
<!DOCTYPE svg PUBLIC "-//W3C//DTD SVG 1.1//EN" "http://www.w3.org/Graphics/SVG/1.1/DTD/svg11.dtd">
<svg version="1.1" id="圖層_4" xmlns="http://www.w3.org/2000/svg" xmlns:xlink="http://www.w3.org/1999/xlink" x="0px" y="0px"
	 viewBox="0 0 373.6 146.6" style="enable-background:new 0 0 373.6 146.6;" xml:space="preserve">
<style type="text/css">
	.st0{fill:#CC404C;}
	.st1{fill:#4CBEEC;}
	.st2{fill:#73CDF0;}
	.st3{fill:#DCE15E;}
	.st4{fill:#F6C550;}
	.st5{fill:#F1A453;}
	.st6{fill:#E9774B;}
	.st7{fill:#84A84D;}
	.st8{fill:#6841AB;}
	.st9{fill:#3D8CC6;}
</style>
<g>
	<g>
		<path class="st0" d="M98.1,2.2c0-0.9-0.6-1.7-1.4-2.1c-0.8-0.3-1.8-0.2-2.4,0.4L76,17.6c-0.7,0.6-0.9,1.6-0.6,2.4
			c0.3,0.9,1.1,1.5,2,1.5l4.9,0.3l-2.8,6.5L72,46.1c-0.2,0.6-0.2,1.2,0,1.7c0.2,0.6,0.7,1,1.2,1.2l4.1,1.7c0.3,0.1,0.6,0.2,0.9,0.2
			c0.3,0,0.6-0.1,0.9-0.2c0.6-0.2,1-0.7,1.2-1.2l7.6-17.8l2.8-6.7l4.2,3.6c0.7,0.6,1.6,0.7,2.5,0.3c0.8-0.4,1.3-1.2,1.3-2.1
			L98.1,2.2z"/>
		<path class="st1" d="M26.8,95.7l1.7,5.3c0.3,0.8,1,1.5,1.9,1.6c0.9,0.1,1.8-0.3,2.2-1.1l12.6-21.4c0.5-0.8,0.4-1.7-0.1-2.5
			c-0.5-0.7-1.4-1.1-2.3-0.9l-24.5,4.8c-0.9,0.2-1.6,0.9-1.8,1.8c-0.2,0.9,0.2,1.8,0.9,2.3l4,2.8l-19.9,14c0.8,3,1.9,5.9,3.2,8.7
			c0.1-0.1,0.2-0.1,0.3-0.2L26.8,95.7z"/>
		<path class="st2" d="M28.8,128.9c0.3,0.8,1.1,1.4,2,1.5c0.9,0.1,1.7-0.4,2.2-1.2l11.5-22c0.4-0.8,0.3-1.8-0.2-2.5
			c-0.5-0.7-1.5-1-2.3-0.8L17.7,110c-0.9,0.2-1.5,0.9-1.7,1.8c-0.1,0.9,0.3,1.8,1,2.3l4.2,2.6l-8.8,6.9c1.9,2.4,3.9,4.6,6.1,6.7
			l8.4-6.6L28.8,128.9z"/>
		<path class="st3" d="M59.3,141.4c0.8,0.3,1.7,0.2,2.4-0.4c0.7-0.6,0.9-1.6,0.6-2.4l-8.3-23.4c-0.3-0.8-1.1-1.4-2-1.5
			c-0.9-0.1-1.8,0.4-2.2,1.2l-12.1,21.8c-0.4,0.8-0.4,1.8,0.2,2.5c0.6,0.7,1.5,1,2.4,0.8l4.8-1.3l-0.5,6.3c2.9,0.8,5.9,1.3,8.9,1.6
			l0.6-7.4L59.3,141.4z"/>
		<path class="st4" d="M82.8,120.2c0.9,0.1,1.7-0.2,2.3-1c0.5-0.7,0.5-1.7,0-2.5l-13.3-21c-0.5-0.8-1.4-1.2-2.2-1
			c-0.9,0.1-1.6,0.8-1.9,1.6l-6.9,24c-0.3,0.9,0,1.8,0.7,2.4c0.7,0.6,1.7,0.7,2.5,0.3l4.4-2.3l3.6,25.1c3-0.6,5.9-1.4,8.7-2.4
			l-3.4-24.2L82.8,120.2z"/>
		<path class="st5" d="M105.9,103.9c0.9,0,1.7-0.5,2.1-1.4c0.4-0.8,0.2-1.8-0.4-2.4L90.8,81.7c-0.6-0.7-1.5-0.9-2.4-0.6
			c-0.8,0.3-1.5,1-1.6,1.9l-2.6,24.8c-0.1,0.9,0.4,1.8,1.2,2.2c0.8,0.4,1.8,0.4,2.5-0.2l3.9-3L100,132c0,0.1,0,0.1,0.1,0.2
			c2.5-2.2,4.9-4.6,7.1-7.2l-6.9-21L105.9,103.9z"/>
		<path class="st6" d="M91.4,72.1c0.8,0.3,1.8,0.1,2.5-0.5l3.5-3.5l11.6,23.7c0.3,0.5,0.7,1,1.3,1.2c0.6,0.2,1.2,0.2,1.7-0.1l4-1.9
			c0.3-0.1,0.5-0.3,0.7-0.5c0.2-0.2,0.4-0.5,0.4-0.8c0.2-0.6,0.2-1.2-0.1-1.7l-11.6-23.9l5.5-0.8c0.9-0.1,1.6-0.7,1.9-1.6
			c0.2-0.9,0-1.8-0.7-2.4L92.9,43.2c-0.7-0.6-1.7-0.7-2.5-0.3c-0.8,0.4-1.3,1.2-1.3,2.1L90,70C90,70.9,90.6,71.7,91.4,72.1"/>
		<path class="st7" d="M71.2,84c0.7,0.6,1.6,0.7,2.5,0.3c0.8-0.4,1.3-1.2,1.3-2.1l-0.5-24.8c0-0.9-0.6-1.7-1.4-2.1
			c-0.8-0.3-1.8-0.2-2.4,0.4l-18.3,17c-0.7,0.6-0.9,1.6-0.6,2.4c0.3,0.9,1.1,1.5,2,1.5l4.9,0.3l-10.3,24.3c-0.2,0.6-0.2,1.2,0,1.7
			c0.2,0.6,0.7,1,1.2,1.2l4.1,1.7c0.3,0.1,0.6,0.2,0.9,0.2c0.3,0,0.6-0.1,0.9-0.2c0.6-0.2,1-0.7,1.2-1.2L67,80.4L71.2,84z"/>
		<path class="st8" d="M50.1,50.6c0,0.9,0.6,1.7,1.5,2c0.8,0.3,1.8,0.1,2.4-0.5l17.5-17.6c0.6-0.6,0.8-1.6,0.5-2.4
			c-0.3-0.8-1.1-1.4-2-1.5l-24.9-1.4c-0.9-0.1-1.8,0.4-2.2,1.3c-0.4,0.8-0.3,1.8,0.3,2.5l3.2,3.8l-24.7,9.4c-0.6,0.2-1,0.6-1.3,1.2
			c-0.3,0.6-0.3,1.2-0.1,1.7l1.6,4.2c0.1,0.3,0.3,0.5,0.5,0.8c0.2,0.2,0.5,0.4,0.7,0.5c0.6,0.3,1.2,0.3,1.7,0.1L49.8,45L50.1,50.6z"
			/>
		<path class="st9" d="M15.8,77.8c0,0.9,0.5,1.7,1.4,2.1c0.8,0.4,1.8,0.2,2.4-0.4L38,62.8c0.7-0.6,0.9-1.5,0.6-2.4
			c-0.3-0.8-1-1.5-1.9-1.6l-24.8-2.7c-0.9-0.1-1.8,0.4-2.2,1.1c-0.4,0.8-0.4,1.8,0.2,2.5l3,3.9L2.4,67.1C1.3,70.4,0.5,73.8,0,77.4
			l15.7-5.1L15.8,77.8z"/>
	</g>
	<g>
		<path class="st8" d="M179.4,74.8c-1-0.6-2-0.9-3-0.9c-0.5,0-1.2,0.1-1.8,0.3c-0.7,0.2-1.4,0.6-1.9,1.1c-0.6,0.6-1.1,1.4-1.4,2.4
			c-0.5,1.1-0.9,2.4-1.3,4.1L165,99.3l-2,7.6c-0.3,0.9-0.3,1.7-0.2,2.3c0.1,0.9,0.4,1.6,0.9,2.1c0.2,0.3,0.6,0.7,1.1,1.1
			c0.7,0.6,1.4,0.9,2.1,0.9c0.7,0,1.4-0.2,2.3-0.6c0.9-0.4,1.7-1,2.3-2c0.9-1.3,1.5-2.4,1.8-3.4l0-0.2l-0.1-0.1c0,0,0,0,0-0.1
			c0-0.1,0-0.2,0-0.3c0-0.1,0-0.1,0-0.2l0-0.1l0-0.1c0-0.1,0-0.2,0.1-0.3c0-0.1,0-0.2,0-0.3c0-0.1,0-0.2,0-0.3l0-0.1l0-0.1
			c0-0.8,0.1-1.7,0.3-2.5c0-0.1,0-0.2,0.1-0.4c0.1-0.5,0.3-1.4,0.6-2.6l1.6-5.8c0.3-1.2,0.7-2.5,1.1-3.9c0.2-0.7,0.4-1.4,0.6-1.9
			c0.1-0.4,0.2-0.8,0.3-1.1l0.3-1c0.1-0.4,0.3-0.9,0.6-1.5c0.1-0.5,0.4-1,0.6-1.6c0.1-0.5,0.3-0.9,0.5-1.3c0.2-0.6,0.5-1.3,0.9-2
			c0.1-0.4,0.2-0.7,0.3-0.9c0.1-0.1,0.1-0.2,0.1-0.3c0.2-0.7,0.1-1.4-0.4-2.2C180.4,75.6,179.9,75.2,179.4,74.8"/>
		<path class="st8" d="M213,72c-1.8,0-3.6,0.4-5.5,1.1c-1.4,0.5-2.7,1.3-4.1,2.3c0.2-0.5,0.3-1.2,0.6-1.9c0.2-0.6,0.3-1.2,0.5-1.8
			c0.2-0.7,0.4-1.5,0.7-2.3c0.4-1.4,0.9-3,1.4-4.5l1.2-4.5c0.5-1.8,1-3,1.5-3.9c0.3-0.6,0.6-1.1,0.7-1.5c0-0.2,0.1-0.4,0.2-0.5
			c0.1-0.1,0.1-0.3,0.1-0.3c0.3-0.9-0.2-1.8-1.4-2.4c-1.1-0.4-2-0.6-2.9-0.6c-1.1,0-2.6,0.5-4.5,1.5c-1,0.6-1.6,1-2.2,1.4
			c-0.7,0.6-1.1,1.1-1.3,1.7c-0.1,0.6-0.1,1.3,0,2.1c-0.1,0.7-0.2,1.5-0.4,2.5c-0.3,1.2-0.5,2.4-0.6,3.6l-0.1,0.5
			c-0.3,1.5-0.7,3-1,4.4c-0.3,0.9-0.4,1.7-0.6,2.4c-0.1,0.4-0.2,0.8-0.2,1c0,0.2-0.1,0.4-0.2,0.8c-0.2,0.7-0.5,1.6-0.8,2.9
			c-0.6,1.9-1.3,4.1-1.9,6.5l-0.1,0.2c-0.7,2.4-1.4,4.7-2,7c-0.7,2.5-1.2,4.3-1.6,5.7c-0.3,1-0.6,2.2-0.9,3.6
			c-0.4,1.6-0.8,3.1-1.1,4.5c-0.4,1.5-0.7,2.9-0.9,3.8c-0.2,0.9-0.3,1.5-0.4,1.8c-0.3,1.1-0.4,2-0.2,2.8c0,0.8,0.2,1.6,0.9,2.2
			c0.8,0.9,1.8,1.4,3,1.4c0.6,0,1.3-0.1,2.1-0.4c0.6-0.2,1.2-0.6,2.1-1.4c0.5-0.5,0.9-1.3,1.4-2.2l0.1-0.3c0.1-0.3,0.2-0.6,0.3-0.9
			c0.7,1.1,1.9,1.9,3.4,2.4c1.7,0.7,3.6,1,5.9,1c3,0,5.7-0.7,8.2-2.2c2.4-1.4,4.4-3.2,6.2-5.4c1.8-2.2,3.3-4.5,4.5-7.1
			c1.1-2.5,2-4.8,2.6-7c1.6-5.9,1.3-10.6-0.8-14.2C222.6,73.8,218.6,72,213,72 M215.6,90.9c-1.4,5.3-3.2,9.2-5.4,11.6
			c-2.1,2.4-4.4,3.6-6.9,3.6c-2.7,0-4.4-0.9-5.2-2.9c-0.8-1.9-0.7-4.8,0.3-8.6c0.4-1.4,1-3,1.7-4.7c0.7-1.5,1.7-3.1,3-4.7
			c1.2-1.4,2.5-2.6,4.1-3.6c1.6-1,3.2-1.4,5-1.4c1.9,0,3.2,0.8,4,2.4C216.8,84.2,216.7,87,215.6,90.9"/>
		<path class="st8" d="M267.5,79.2c-0.9-1.8-2.2-3.2-3.9-4.3c-1.7-1.1-4-1.6-6.7-1.6c-1.4,0-3.2,0.2-5.9,0.7c-2.6,0.6-5,1.4-7.3,2.5
			c-2.2,1.1-3.9,2.2-5.4,3.2c-1.7,1.2-2.8,2.6-3.3,4.2c-0.3,1.2-0.2,2.3,0.4,3.2c0.6,1,1.6,1.5,3,1.5c0.7,0,1.3-0.1,1.8-0.4
			c0.5-0.2,0.9-0.4,1.4-0.7l0.4-0.2c0.1-0.1,0.2-0.1,0.3-0.2c0.2-0.1,0.3-0.2,0.5-0.4c0.1-0.1,0.2-0.1,0.3-0.2
			c0.2-0.1,0.3-0.2,0.5-0.4c0.1-0.1,0.2-0.1,0.3-0.2c0.2-0.1,0.3-0.2,0.5-0.4c0.2-0.2,0.5-0.4,0.9-0.7c1.3-1,2.6-1.8,3.8-2.4
			c1.6-0.7,3.3-1.1,5.2-1.1c1,0,1.9,0.2,2.7,0.6c0.8,0.5,1.3,1.1,1.7,1.6c0.3,0.8,0.6,1.7,0.7,2.5c0,0.9,0,1.7-0.1,2.5
			c-0.8,0.1-1.6,0.1-2.5,0.2c-0.7,0.1-1.5,0.1-2.3,0.2c-2.1,0.3-4.2,0.6-6.3,1.1c-2.2,0.5-4.4,1-6.5,1.6c-2.1,0.7-4.2,1.6-6,2.6
			c-2,1.1-3.5,2.3-4.8,3.6c-1.4,1.5-2.3,3-2.8,4.8c-0.5,1.8-0.5,3.3,0,4.5c0.5,1.3,1.4,2.4,2.5,3.3c1.2,0.9,2.7,1.6,4.6,2.2
			c1.6,0.5,3.6,0.7,6.2,0.7c2,0,4.2-0.3,6.3-0.9c1.9-0.4,3.7-1.2,5.5-2.3c-0.3,1.4-0.2,2.5,0.2,3.4c0.4,1.4,1.6,2,3.5,2
			c1,0,1.9-0.2,2.7-0.6c0.7-0.4,1.3-0.8,1.8-1.3c0.5-0.6,0.8-1.1,1.2-1.9c0.1-0.3,0.2-0.6,0.3-0.9c0.1-0.3,0.2-0.7,0.3-1
			c0.1-0.5,0.3-1,0.4-1.6c0.1-0.5,0.2-1,0.4-1.6l0.9-3.2c0.5-2,1-4.1,1.5-6c0.4-1.9,1-3.9,1.5-5.9c0.5-2,0.8-4.1,0.8-6.4
			C268.9,83,268.4,81.1,267.5,79.2 M257.5,95.6l-1.6,5.8c-1.7,1.6-3.6,2.8-5.7,3.7c-2.2,0.9-4.4,1.3-6.6,1.3c-0.8,0-1.5-0.1-2.1-0.3
			c-0.6-0.1-1.1-0.4-1.6-0.9c-0.6-0.3-0.9-0.7-1.1-1.2c-0.2-0.4-0.2-0.9,0-1.5c0.4-1.4,1.3-2.5,2.8-3.3c1.7-1,3.4-1.7,5.2-2.1
			c2-0.5,4-0.9,6.1-1C254.7,95.7,256.2,95.6,257.5,95.6"/>
		<path class="st0" d="M372.7,80.3c-1-1.7-2.4-3.2-4.5-4.5c-1.7-0.9-3.5-1.6-5.4-2.1c-2.1-0.5-4.2-0.7-6.2-0.7
			c-2.3,0-4.6,0.7-6.9,2.2c-2.4,1.5-4.6,3.4-6.7,5.6c-2.3,2.5-4.1,5-5.6,7.6c-1.6,2.8-2.8,5.5-3.5,8.3c-0.6,2.2-0.8,4.3-0.7,6.3
			c0.1,2.3,0.7,4.1,1.7,5.7c1.1,1.7,2.7,3,4.8,4c2.1,1,4.9,1.5,8.2,1.5c1.6,0,3.5-0.1,6-0.4c2.1-0.3,4.1-0.9,6.2-1.6
			c2-0.6,3.7-1.4,5.2-2.5c1.6-1.2,2.5-2.4,2.9-3.8c0.2-0.6,0.1-1.4-0.8-2.3c-0.8-0.5-1.6-0.8-2.4-0.8c-0.2,0-0.4,0-0.7,0.1l-0.4,0.1
			c-0.4,0.1-0.8,0.3-1.2,0.5l-0.4,0.2c-1.8,1.1-3.6,1.9-5.6,2.6c-2,0.8-4,1.2-6,1.2c-3.1,0-5-1-6-2.9c-1-1.9-1.2-4.1-0.7-6.9
			c0.9,0.5,1.8,0.9,2.8,1.2c1.2,0.4,2.7,0.6,4.6,0.6c2.5,0,4.8-0.3,7.1-1c2.6-0.8,4.7-1.7,6.6-2.8c1.9-1.1,3.7-2.4,5.2-3.9
			c1.5-1.5,2.4-3.1,2.9-4.8C373.8,84.5,373.7,82.3,372.7,80.3 M352.9,92.9c-2.1,0-3.7-0.3-4.5-1.1c-0.8-0.6-1.4-1.4-1.5-2.3
			c1.3-2.4,2.9-4.5,4.8-6.3c1.9-1.7,3.7-2.6,5.5-2.6c0.9,0,2,0.1,3.1,0.4c0.9,0.3,1.7,0.7,2.6,1.2c0.7,0.6,1.2,1.2,1.6,2
			c0.3,0.8,0.3,1.7,0.1,2.7c-0.2,0.8-0.7,1.5-1.4,2.2c-1,0.9-1.8,1.5-2.8,1.9c-1,0.5-2.3,0.9-3.6,1.3
			C355.3,92.8,354.1,92.9,352.9,92.9"/>
		<path class="st0" d="M338,56.5c-1.4-1.1-2.6-1.3-3.1-1.3c-0.7,0-1.5,0.2-2.4,0.4c-1.2,0.2-2.1,0.6-2.8,1c-1.4,0.9-3.1,2.5-4.8,4.6
			c-1.9,2.2-3.8,4.7-5.6,7.4c-1.8,2.5-3.6,5.3-5.9,8.9c-0.7,1-1.3,2.1-1.9,3.1c-1.3,2.1-2.6,4.2-3.8,6.2c-0.8,1.2-1.5,2.4-2.2,3.4
			c-0.9,1.5-1.8,2.8-2.5,4c-1,1.6-2,3-2.8,4.2c-1-3.2-1.7-6.6-2.1-10.1c-0.5-3.5-0.7-7-0.6-10.5c0-3.5,0.3-7.1,0.7-10.9
			c0.2-1.2,0.4-2.7,0.7-4.1c0.3-1.5,0.5-2.8,0.5-4.1c0-0.6-0.2-1.3-0.6-1.8c-0.4-0.5-0.9-0.8-1.5-1.2c-0.6-0.3-1.1-0.5-1.7-0.6
			l-0.1,0c-0.6-0.1-1.3-0.2-1.8-0.2c-1.6,0-2.8,0.3-3.6,1c-0.7,0.7-1.2,1.5-1.5,2.6l-0.4,1.6l-0.1,0.1l-0.1,0.3
			c-2.1,4.3-4,8.9-5.6,13.9c-1.7,4.9-3.3,10.1-4.9,16.1l-1.5,5.7c-0.3,1.2-0.5,2.3-0.8,3.5c-0.3,1.2-0.7,2.5-0.9,3.5
			c-0.4,1.8-0.7,3.3-0.9,4.9c-0.2,1.2-0.2,2-0.2,2.5c0.1,1.8,1.1,2.8,3,2.8c0.3,0,0.9,0,1.5-0.2c0.6-0.1,1.2-0.3,1.8-0.5
			c0.7-0.2,1.2-0.6,1.7-1c0.4-0.4,0.9-0.8,1-1.4c0.1-0.5,0.2-0.9,0.2-1.4l0-0.3c0-0.4,0-0.8,0-1.4c-0.1-0.8-0.1-1.7,0-2.5
			c0.1-1.7,0.6-4.1,1.5-7.9c0.8-3.5,1.9-7.6,3.1-12.3c0.4-1.7,0.9-3.4,1.5-5.1c0.2-0.8,0.5-1.6,0.7-2.4c0,1.1-0.1,2.2,0,3.3
			c-0.1,2,0,4.1,0.1,6.5c0.3,4.2,0.9,8.1,1.8,11.9c0.9,3.9,2.2,7.3,3.9,9.9c0.5,1.1,1.5,1.6,2.9,1.6c0.9,0,1.6-0.2,2.4-0.6
			c0.8-0.4,1.5-1,2-1.5c0.5-0.4,1.1-1.2,2-2.4l0.1-0.1c0.7-1,1.3-2,2.1-3.2l2.1-3.4l0.4-0.8c0.4-0.7,0.7-1.3,1-1.7l7.9-13.1
			c2-3.3,4.2-6.7,6.7-10.2c-0.5,1.3-0.9,2.5-1.3,3.7c-0.8,2.3-1.5,4.5-2.1,6.7l-1.9,7.1c-0.4,1.4-0.7,2.7-1,3.9l-0.8,3.1
			c-0.1,0.5-0.4,1.4-0.6,2.5c-0.3,1.3-0.6,2.6-0.8,3.9c-0.2,1.4-0.4,2.8-0.6,4c-0.2,1.4-0.3,2.4-0.2,3.1c0.1,1,0.5,1.9,1.2,2.6
			c0.6,0.8,1.6,1.2,2.8,1.2c0.3,0,0.5,0,0.9-0.1l0.6-0.1c0.3-0.1,0.7-0.2,1.2-0.4c0.2-0.1,0.4-0.3,0.6-0.4c0.2-0.1,0.3-0.3,0.6-0.4
			c0.4-0.3,0.7-0.8,0.8-1.2c0.1-0.5,0.1-1,0-1.6c-0.1-0.2-0.1-0.4,0-0.5l0-0.2l-0.1-0.2c0-0.1,0-0.2,0-0.3l0-0.1l0-0.1
			c-0.2-1.1-0.2-2-0.1-2.9c0-0.9,0.1-2,0.3-3.1c0.3-1.7,0.7-3.4,1.2-5c0.4-1.7,0.8-3.4,1.2-5.2l3.1-11.7c0.9-3.4,1.8-6.2,2.7-8.9
			c1-2.8,2.1-5.6,3.2-8.5c0.1-0.3,0.2-0.6,0.4-1l0.1-0.3c0.2-0.5,0.4-1,0.8-1.6c0.2-0.5,0.4-1,0.7-1.4l0-0.1
			c0.1-0.2,0.1-0.4,0.2-0.6c0.1-0.2,0.1-0.4,0.2-0.5c0.2-0.6,0-1.1-0.2-1.5C338.3,56.8,338.1,56.6,338,56.5"/>
		<path class="st8" d="M173.3,60.1c-2.8,0.6-5.6,0.8-7.7,1c-2.6,0.3-5.1,0.5-7.5,0.8l-0.6,1.8c-1.2,3.5-2.4,7-3.6,10.4
			c-1.4,3.9-2.7,8-3.9,12.4l-2.5,9.1c-0.7,2.6-1.3,5.4-1.9,9.1c0,0.4-0.1,0.9,0,1.2l0,0.1l0,0.1c0,0.4-0.1,0.8,0,1.2
			c-0.1,0.6-0.1,1-0.1,1.5l0,0.3c0,0.4-0.1,0.8-0.2,1.2c-0.4,1.3-1.1,2.3-2.3,2.9c-1.3,0.6-2.4,0.9-3.4,0.9c-0.5,0-1.1-0.1-1.6-0.2
			c-0.7-0.2-1.2-0.5-1.6-0.8c-0.5-0.2-1-0.5-1.3-1.1c-0.3-0.4-0.5-1-0.4-1.8c0-1.1,0.3-2.9,0.9-5.7c0.5-2.6,1.3-5.7,2.2-9.2
			c1.6-6,3.2-11.4,5-16.7c1.7-5.3,3.6-10.5,5.7-15.9c-1.3,0.1-2.5,0.2-3.7,0.2c-1.5,0.2-3,0.3-4.5,0.3l-3,0.5
			c-1.1,0.2-2.2,0.3-3.2,0.3c-0.7,0-1.3-0.2-1.8-0.5c-0.6-0.3-1.2-0.7-1.6-1.3c-0.5-0.5-0.8-1.1-0.9-1.7c-0.2-0.5-0.2-1.2,0-1.9
			c0.2-0.6,0.5-1.1,1-1.5c0.4-0.4,0.9-0.7,1.5-0.9c0.5-0.2,1.1-0.3,1.7-0.4c0.3,0,0.5-0.1,0.7-0.1l0.7-0.1c1.5-0.1,3-0.2,4.6-0.3
			c1.4,0,2.9,0,4.5-0.2c3.5-0.2,7-0.5,10.8-0.8l0.4,0c3.8-0.3,7.6-0.7,11.3-1.3c0.5-0.1,1-0.3,1.5-0.4c0.4-0.1,0.8-0.2,1.2-0.3
			l0.3-0.1c0.3-0.1,0.5-0.2,0.8-0.2c0.3-0.1,0.5-0.1,0.8-0.2c0.6-0.1,1.2-0.2,1.7-0.2c0.5,0,1,0.1,1.5,0.3L175,52l1.5,1.2
			c0.1,0.2,0.2,0.3,0.3,0.5c0.2,0.3,0.5,0.7,0.7,1c0.3,0.7,0.3,1.4,0.2,2c0,0.1-0.1,0.3-0.2,0.4l-2.6,2.6"/>
		<path class="st8" d="M175.2,63.9c0.1-0.5-0.4,0.9-0.6,1.4c-0.5,1.9-0.1,3.6,1.2,4.8c1.1,1.1,2.6,1.7,4.4,1.7c1.6,0,3-0.4,4.2-1.3
			c1.3-0.9,2.2-2.2,2.6-3.9c0.5-1.8,0.2-3.3-0.9-4.7c-0.6-0.6-1.3-0.9-2-1.3c-2.3-0.8-4.4-0.6-6.9,1
			C177.2,61.6,175.3,63.2,175.2,63.9z"/>
	</g>
</g>
</svg>
