<?xml version="1.0" standalone="no"?>
<!DOCTYPE svg PUBLIC "-//W3C//DTD SVG 20010904//EN"
 "http://www.w3.org/TR/2001/REC-SVG-20010904/DTD/svg10.dtd">
<svg version="1.0" xmlns="http://www.w3.org/2000/svg"
 width="1261.000000pt" height="510.000000pt" viewBox="0 0 1261.000000 510.000000"
 preserveAspectRatio="xMidYMid meet">
<metadata>
Created by potrace 1.15, written by Peter Selinger 2001-2017
</metadata>
<g transform="translate(0.000000,510.000000) scale(0.100000,-0.100000)"
fill="#000000" stroke="none">
<path d="M1600 4130 l0 -960 160 0 160 0 0 960 0 960 -160 0 -160 0 0 -960z"/>
<path d="M7420 4130 l0 -960 155 0 155 0 0 85 0 85 58 -57 c107 -108 228 -149
412 -140 169 8 282 52 392 156 125 116 187 265 195 467 9 193 -23 318 -114
456 -109 166 -285 257 -495 258 -159 0 -279 -42 -373 -131 l-55 -52 0 397 0
396 -165 0 -165 0 0 -960z m745 49 c84 -15 144 -49 203 -113 69 -76 95 -146
95 -256 0 -110 -26 -180 -95 -256 -60 -65 -120 -98 -206 -114 -161 -29 -319
56 -390 208 -24 50 -27 69 -27 162 0 93 3 112 27 162 50 108 147 185 258 207
63 12 69 12 135 0z"/>
<path d="M0 4109 l0 -940 438 4 c411 3 442 5 522 26 282 73 429 247 430 506 0
134 -39 234 -128 327 -60 63 -147 112 -220 124 l-43 7 69 33 c98 48 155 101
198 189 31 63 37 86 42 163 14 249 -116 416 -375 483 -70 17 -113 19 -505 19
l-428 0 0 -941z m729 640 c172 -27 254 -115 237 -254 -8 -69 -48 -123 -116
-157 -77 -39 -138 -48 -331 -48 l-169 0 0 235 0 235 158 0 c86 0 186 -5 221
-11z m126 -774 c77 -20 134 -60 163 -113 50 -91 35 -225 -33 -295 -78 -80
-151 -97 -427 -97 l-208 0 0 266 0 267 223 -6 c156 -4 240 -10 282 -22z"/>
<path d="M2627 4459 c-334 -82 -541 -387 -498 -734 43 -351 317 -585 686 -585
330 0 592 192 671 490 12 44 18 103 18 180 0 133 -17 209 -70 317 -83 167
-256 296 -454 338 -99 21 -256 18 -353 -6z m316 -295 c179 -63 279 -278 219
-472 -71 -225 -313 -322 -525 -209 -68 35 -115 89 -154 173 -24 51 -28 71 -28
154 0 86 3 101 32 162 83 176 273 256 456 192z"/>
<path d="M4165 4466 c-317 -73 -525 -332 -525 -656 0 -185 65 -347 189 -471
86 -85 150 -125 266 -166 74 -26 91 -27 235 -27 141 0 162 2 235 27 211 70
364 221 428 422 32 102 32 328 0 430 -64 201 -219 353 -428 422 -99 32 -301
41 -400 19z m230 -287 c84 -15 144 -49 203 -113 69 -76 95 -146 95 -256 0
-110 -26 -180 -95 -256 -59 -64 -120 -98 -204 -113 -162 -29 -321 54 -392 207
-24 50 -27 69 -27 162 0 93 3 112 27 162 50 108 147 185 258 207 63 12 69 12
135 0z"/>
<path d="M5777 4469 c-83 -19 -162 -71 -218 -141 l-39 -50 0 86 0 86 -155 0
-155 0 0 -640 0 -640 159 0 160 0 4 393 c3 424 4 431 60 514 84 125 300 147
382 39 50 -65 55 -117 55 -548 l0 -398 159 0 160 0 3 393 c3 376 4 394 26 447
47 117 126 174 242 174 46 0 77 -6 105 -21 51 -26 69 -46 97 -108 23 -49 23
-57 26 -467 l3 -418 160 0 159 0 0 443 c0 485 -4 526 -59 643 -52 111 -148
187 -272 214 -84 19 -249 9 -319 -19 -71 -29 -137 -78 -179 -135 -19 -25 -37
-46 -40 -46 -3 0 -19 20 -34 45 -47 74 -120 124 -222 151 -56 15 -209 17 -268
3z"/>
<path d="M9435 4462 c-318 -82 -505 -323 -505 -652 0 -310 167 -543 455 -636
109 -36 279 -44 391 -19 135 29 278 113 358 212 l26 31 -105 81 c-58 45 -111
84 -119 87 -8 3 -36 -16 -65 -45 -210 -204 -536 -134 -609 132 l-10 37 480 0
480 0 -5 148 c-6 164 -20 229 -73 338 -64 130 -164 221 -302 272 -92 34 -292
41 -397 14z m267 -252 c29 -11 70 -33 90 -50 41 -34 83 -114 93 -177 l7 -43
-320 0 -320 0 9 41 c23 102 105 202 192 233 63 22 185 20 249 -4z"/>
<path d="M10985 4467 c-93 -31 -167 -85 -223 -162 l-21 -30 -1 88 0 87 -165 0
-165 0 0 -640 0 -640 165 0 165 0 0 370 c0 353 1 372 21 427 28 73 94 144 162
174 57 25 169 32 260 15 l47 -8 0 155 c0 114 -3 158 -12 164 -23 14 -191 14
-233 0z"/>
<path d="M11696 4465 c-166 -42 -311 -161 -386 -316 -57 -120 -73 -204 -67
-369 3 -120 7 -144 34 -217 97 -256 310 -405 583 -407 154 0 279 42 375 126
l48 42 -5 -109 c-8 -176 -64 -282 -178 -340 -101 -51 -258 -58 -391 -16 -64
20 -200 100 -228 134 -7 9 -19 17 -25 17 -10 -1 -185 -233 -194 -258 -10 -32
213 -155 340 -186 180 -44 428 -39 581 11 238 79 381 271 416 558 7 56 11 319
11 703 l0 612 -155 0 -155 0 0 -91 0 -92 -34 45 c-41 54 -118 106 -201 138
-77 30 -277 38 -369 15z m383 -308 c255 -95 296 -485 68 -641 -195 -133 -474
-51 -559 164 -31 77 -30 202 1 282 72 185 287 271 490 195z"/>
<path d="M0 685 l0 -685 3325 0 3325 0 0 685 0 685 -3325 0 -3325 0 0 -685z
m2260 410 l0 -65 -65 0 -65 0 0 65 0 65 65 0 65 0 0 -65z m2820 0 l0 -65 -60
0 -60 0 0 65 0 65 60 0 60 0 0 -65z m-4332 -42 l3 -43 -175 0 -176 0 0 -115 0
-115 163 -2 162 -3 3 -42 3 -43 -166 0 -166 0 3 -147 3 -148 173 -3 172 -2 0
-40 0 -40 -225 0 -225 0 0 395 0 395 223 -2 222 -3 3 -42z m427 -144 c50 -14
100 -64 114 -114 6 -24 11 -132 11 -262 l0 -223 -50 0 -50 0 0 208 c0 115 -5
224 -11 245 -19 70 -111 85 -201 35 l-38 -22 0 -233 0 -233 -50 0 -50 0 0 295
0 295 45 0 c25 0 45 -3 45 -7 0 -5 4 -15 10 -23 7 -12 12 -12 29 4 21 19 97
44 136 45 11 1 38 -4 60 -10z m573 -25 c41 -24 42 -24 42 -4 0 17 6 20 51 20
l51 0 -4 -292 c-4 -281 -5 -295 -27 -345 -50 -112 -145 -160 -301 -151 -111 7
-130 17 -130 69 0 48 16 57 62 32 49 -26 171 -25 218 2 43 25 70 76 70 132 l0
42 -36 -21 c-112 -66 -246 -28 -307 86 -19 36 -22 56 -22 166 0 140 11 174 78
238 69 67 168 77 255 26z m1086 27 c49 -12 100 -61 115 -110 7 -24 11 -124 11
-265 l0 -226 -50 0 -50 0 0 219 c0 121 -4 231 -10 246 -15 40 -73 60 -133 46
-27 -6 -62 -20 -78 -32 l-29 -20 0 -230 0 -229 -50 0 -50 0 0 295 0 295 46 0
c37 0 47 -4 51 -20 7 -25 4 -25 48 1 60 36 114 45 179 30z m617 -21 c75 -39
119 -131 119 -250 l0 -50 -197 -2 -198 -3 3 -40 c6 -61 40 -115 92 -143 38
-20 56 -23 115 -20 46 2 85 11 116 26 25 12 48 22 52 22 4 0 7 -22 7 -49 l0
-49 -47 -17 c-74 -25 -179 -30 -244 -12 -81 24 -132 65 -165 134 -26 53 -29
68 -29 163 0 119 19 177 78 238 77 81 199 102 298 52z m589 0 c69 -35 107
-109 117 -225 l6 -75 -203 0 -203 0 7 -47 c9 -66 47 -120 103 -145 60 -27 160
-22 221 10 23 12 47 22 52 22 6 0 10 -22 10 -50 l0 -49 -57 -18 c-88 -27 -214
-24 -281 6 -111 50 -158 147 -150 308 4 78 10 103 34 150 35 67 86 111 151
129 60 17 142 10 193 -16z m685 14 c11 -4 15 -21 15 -56 0 -50 0 -50 -27 -44
-115 26 -145 20 -212 -40 l-51 -46 0 -163 0 -164 58 -3 57 -3 3 -37 3 -38
-155 0 -156 0 0 40 0 40 45 0 45 0 0 215 0 215 -45 0 -45 0 0 40 0 40 90 0 90
0 0 -29 c0 -61 8 -64 58 -21 66 55 107 71 165 65 26 -3 54 -8 62 -11z m982
-15 c17 -11 41 -39 52 -63 19 -39 21 -60 21 -279 l0 -237 -49 0 -50 0 -3 235
c-3 228 -4 235 -25 257 -33 32 -112 31 -173 -3 l-45 -24 -3 -233 -2 -232 -50
0 -50 0 0 295 0 295 46 0 c37 0 47 -4 51 -20 7 -25 4 -25 48 1 20 12 51 25 68
30 46 12 127 1 164 -22z m519 -3 c40 -23 43 -23 47 -5 4 15 15 19 51 19 l46 0
0 -270 c0 -293 -6 -344 -50 -413 -54 -86 -212 -130 -349 -97 l-51 12 0 50 c0
56 -5 54 80 23 31 -12 64 -16 106 -12 106 8 148 48 160 153 7 57 6 59 -12 43
-94 -81 -247 -66 -311 30 -82 121 -65 347 31 440 65 63 168 74 252 27z m-3966
-241 l0 -255 60 0 60 0 0 -40 0 -40 -186 0 -185 0 3 38 3 37 73 3 72 3 0 214
0 215 -60 0 -60 0 0 40 0 40 110 0 110 0 0 -255z m2820 0 l0 -255 60 0 60 0 0
-40 0 -40 -180 0 -180 0 0 40 0 40 70 0 70 0 0 215 0 215 -60 0 -60 0 0 40 0
40 110 0 110 0 0 -255z"/>
<path d="M1593 814 c-51 -26 -76 -75 -81 -163 -8 -142 34 -220 124 -228 38 -3
59 1 94 19 l45 23 0 160 0 160 -45 23 c-52 26 -93 28 -137 6z"/>
<path d="M3250 808 c-38 -27 -70 -81 -70 -120 l0 -28 145 0 145 0 0 28 c0 40
-41 115 -70 129 -41 21 -113 16 -150 -9z"/>
<path d="M3860 823 c-41 -15 -82 -71 -95 -130 l-7 -33 152 0 153 0 -7 41 c-9
58 -31 96 -66 114 -28 15 -100 19 -130 8z"/>
<path d="M6080 813 c-72 -37 -104 -137 -82 -255 19 -102 69 -145 156 -136 25
3 61 15 80 28 l36 22 -2 156 -3 155 -37 19 c-55 29 -106 32 -148 11z"/>
</g>
</svg>
