<?xml version="1.0" standalone="no"?>
<!DOCTYPE svg PUBLIC "-//W3C//DTD SVG 20010904//EN"
 "http://www.w3.org/TR/2001/REC-SVG-20010904/DTD/svg10.dtd">
<svg version="1.0" xmlns="http://www.w3.org/2000/svg"
 width="4000.000000pt" height="1606.000000pt" viewBox="0 0 4000.000000 1606.000000"
 preserveAspectRatio="xMidYMid meet">
<metadata>
Created by potrace 1.15, written by Peter Selinger 2001-2017
</metadata>
<g transform="translate(0.000000,1606.000000) scale(0.100000,-0.100000)"
fill="#000000" stroke="none">
<path d="M28625 14585 c-293 -63 -594 -351 -880 -839 -90 -155 -255 -501 -344
-725 -188 -471 -368 -1080 -485 -1641 -19 -89 -37 -164 -40 -167 -3 -4 -234
-7 -513 -7 -552 -1 -588 -4 -742 -62 -138 -52 -165 -92 -159 -239 3 -90 7
-109 33 -161 36 -69 94 -118 168 -138 29 -9 165 -29 302 -46 138 -17 320 -45
405 -61 85 -17 204 -39 264 -50 60 -10 111 -20 112 -22 2 -1 -4 -50 -11 -108
-23 -171 -53 -537 -66 -784 -19 -372 1 -1037 41 -1365 l9 -74 -114 -146 c-337
-430 -631 -707 -880 -830 -171 -83 -277 -90 -346 -21 -70 70 -94 217 -86 521
7 273 28 423 147 1065 71 384 114 643 131 785 18 146 18 440 0 510 -27 108
-72 174 -146 213 -37 20 -61 22 -290 28 -338 8 -354 14 -484 196 -50 69 -99
116 -150 142 -63 34 -273 31 -448 -5 -195 -39 -463 -158 -669 -296 -458 -306
-863 -789 -1159 -1377 l-53 -106 -105 -63 c-229 -136 -481 -239 -645 -263
-231 -33 -358 24 -442 196 -56 113 -65 170 -64 385 0 192 1 201 62 557 78 455
87 533 72 626 -30 200 -184 350 -386 376 -135 17 -321 -16 -443 -78 -67 -35
-201 -140 -286 -226 -180 -182 -328 -412 -519 -808 -105 -218 -122 -247 -143
-247 -21 0 -23 4 -24 58 -1 31 -4 305 -8 607 l-6 550 -25 50 c-15 30 -38 57
-57 68 -64 37 -377 41 -492 6 -144 -43 -236 -235 -366 -764 -136 -552 -284
-1384 -337 -1889 l-12 -118 -130 -105 c-420 -336 -960 -624 -1206 -640 -224
-16 -287 111 -277 557 5 241 6 252 157 1080 201 1107 260 1560 216 1674 -22
58 -100 130 -181 167 -116 52 -327 74 -485 49 -194 -31 -377 -135 -408 -231
-6 -19 -117 -592 -247 -1274 -129 -682 -244 -1273 -255 -1313 -47 -172 -124
-327 -222 -448 -112 -140 -278 -242 -407 -252 -120 -8 -187 32 -245 146 -30
59 -44 110 -55 203 -12 93 -16 66 300 2043 83 517 148 950 144 963 -9 38 -62
89 -116 112 -110 48 -334 74 -444 51 -199 -40 -380 -208 -513 -476 -94 -188
-181 -456 -223 -680 -12 -66 -24 -127 -28 -137 -5 -16 -27 4 -118 105 -585
651 -1245 1058 -1893 1167 -248 42 -609 44 -839 5 -521 -88 -972 -350 -1294
-753 -292 -366 -477 -845 -539 -1396 -34 -304 -3 -812 67 -1086 6 -24 -2 -32
-82 -91 -944 -701 -2115 -932 -3248 -641 -1352 347 -2422 1429 -2755 2786 -74
304 -99 494 -107 818 -16 676 121 1269 432 1866 212 408 566 859 794 1012 446
302 873 118 1193 -515 113 -223 195 -452 332 -934 221 -774 359 -1545 416
-2319 l10 -144 -84 -226 c-46 -124 -100 -280 -120 -346 -182 -616 -101 -1138
231 -1486 157 -164 404 -321 610 -386 77 -24 103 -28 208 -27 165 1 243 32
285 114 41 81 17 135 -89 205 -39 25 -117 95 -175 156 -158 165 -206 273 -227
514 -25 280 22 565 160 975 104 308 216 572 386 910 248 491 465 788 969 1329
315 338 1090 1082 1180 1133 7 4 46 -51 111 -160 115 -193 126 -202 213 -184
29 6 69 21 88 33 39 24 1479 1744 1494 1785 16 40 12 63 -15 89 -19 20 -34 25
-72 25 -26 0 -534 -92 -1128 -206 -1173 -223 -1158 -219 -1219 -297 -47 -59
-42 -92 32 -216 34 -58 62 -107 62 -110 0 -4 -28 -24 -62 -46 -114 -73 -410
-301 -568 -436 -289 -249 -686 -662 -975 -1014 -211 -257 -503 -656 -660 -902
-32 -51 -60 -91 -62 -90 -1 2 -43 183 -93 403 -279 1228 -429 1719 -685 2239
-116 236 -220 395 -364 552 -233 256 -446 405 -687 480 -85 26 -98 28 -294 27
-198 0 -208 -1 -290 -28 -220 -72 -627 -340 -951 -625 -1079 -947 -1627 -2343
-1483 -3771 142 -1409 936 -2647 2164 -3375 159 -94 424 -223 604 -294 379
-149 730 -236 1156 -288 206 -25 754 -25 960 0 544 66 980 192 1448 418 372
179 690 390 1003 666 l128 112 42 -77 c81 -148 162 -255 284 -378 283 -284
559 -397 970 -397 186 0 307 18 463 69 653 213 1164 846 1373 1698 142 582 84
1240 -157 1764 -31 69 -32 75 -18 97 l15 24 102 -72 c330 -230 675 -491 922
-698 157 -131 318 -276 323 -288 2 -5 -20 -152 -47 -328 -110 -693 -144 -1086
-121 -1378 27 -347 118 -580 287 -735 125 -114 267 -162 478 -162 106 0 148 5
226 25 227 59 440 173 679 363 120 95 398 377 510 517 60 75 97 113 101 105 4
-7 12 -39 19 -70 6 -31 29 -115 50 -186 116 -386 282 -598 525 -675 104 -33
321 -30 496 6 416 87 891 298 1355 602 l141 92 11 -111 c35 -335 167 -558 372
-631 76 -27 202 -38 280 -25 142 24 229 108 335 325 78 161 42 62 549 1510
l423 1210 31 3 c37 4 32 18 62 -192 35 -248 89 -502 136 -645 152 -465 405
-729 774 -808 120 -25 401 -25 519 1 96 21 274 80 372 124 l66 30 -5 -142
c-17 -506 164 -936 504 -1198 332 -256 748 -302 1187 -132 300 115 580 299
824 539 l132 130 43 -99 c141 -328 339 -558 545 -636 208 -78 484 -62 731 44
336 144 732 462 1050 844 56 67 105 122 109 123 4 0 28 -51 53 -114 199 -489
499 -799 865 -893 136 -35 332 -37 481 -6 359 76 762 275 1797 884 279 165
287 171 287 201 1 24 9 10 35 -60 203 -561 619 -947 1105 -1026 422 -69 793
15 1161 262 566 380 964 1154 1019 1981 27 402 -52 853 -216 1237 -45 105 -48
128 -19 139 23 9 536 -362 885 -641 228 -182 484 -412 573 -512 l28 -32 -30
-208 c-32 -216 -71 -570 -92 -828 -16 -199 -16 -601 0 -745 28 -248 96 -424
206 -533 102 -102 199 -139 370 -140 89 -1 107 2 160 27 142 64 238 216 372
586 33 91 239 677 458 1303 l398 1137 31 0 32 0 17 -122 c29 -201 106 -618
129 -693 39 -134 97 -221 166 -248 229 -92 653 -47 1036 109 319 130 438 273
288 345 -38 17 -76 24 -192 31 -210 12 -239 20 -303 78 -64 58 -110 140 -139
247 -18 66 -21 105 -21 258 0 177 1 187 67 570 76 444 87 567 62 665 -54 209
-224 332 -461 332 -249 -1 -439 -93 -660 -323 -180 -187 -282 -346 -482 -746
-111 -224 -150 -293 -164 -293 -13 0 -20 10 -23 33 -3 17 -7 284 -9 592 -3
485 -6 567 -20 611 -17 51 -42 81 -87 104 -35 18 -216 28 -344 19 -221 -16
-284 -83 -395 -416 -68 -202 -135 -481 -244 -1006 l-12 -59 -84 99 c-528 622
-1008 992 -1576 1216 -334 132 -680 186 -1062 166 -537 -28 -1000 -224 -1367
-579 -438 -425 -687 -1022 -732 -1756 l-6 -110 -87 -80 c-474 -440 -1121 -837
-1596 -980 -74 -22 -110 -27 -200 -27 -379 -1 -591 213 -657 661 -24 162 -12
823 28 1551 l17 294 124 161 c68 89 188 250 266 358 l142 197 930 1 c893 0
932 1 972 20 56 25 125 96 158 160 79 156 43 451 -63 513 -36 21 -79 24 -787
52 -214 8 -456 18 -536 21 l-147 6 88 147 c360 603 567 1063 670 1482 50 207
63 315 63 524 -2 804 -387 1399 -902 1394 -47 0 -113 -6 -146 -14z m156 -1098
c53 -28 103 -104 119 -182 16 -77 13 -238 -5 -335 -45 -233 -225 -685 -456
-1140 -90 -179 -357 -672 -371 -685 -4 -4 -270 24 -275 29 -4 4 110 501 182
792 211 854 432 1400 612 1514 60 38 129 41 194 7z m-17987 -3860 c74 -34 119
-70 173 -142 118 -155 180 -367 204 -694 46 -614 -193 -1409 -526 -1746 -135
-137 -261 -173 -444 -126 -359 90 -541 481 -510 1091 39 749 432 1523 830
1635 80 22 202 14 273 -18z m13686 29 c0 -2 -61 -305 -135 -673 -75 -367 -145
-720 -156 -783 -104 -599 -372 -1132 -634 -1261 -64 -31 -77 -34 -160 -34
-107 0 -146 17 -216 92 -100 107 -142 262 -142 528 0 182 15 305 58 485 72
301 212 632 378 896 260 413 565 672 872 739 58 13 135 19 135 11z m7975 -26
c46 -18 76 -40 130 -94 115 -115 183 -270 228 -521 30 -164 32 -590 4 -760
-70 -422 -200 -786 -374 -1048 -75 -113 -194 -231 -272 -270 -62 -30 -72 -32
-171 -32 -145 1 -227 29 -345 118 -301 228 -388 841 -214 1515 82 318 206 591
365 802 169 224 332 325 509 317 51 -3 102 -13 140 -27z"/>
<path d="M2991 4174 c-73 -13 -135 -25 -138 -28 -3 -3 4 -17 15 -33 11 -15 36
-61 56 -100 l36 -73 -245 0 -245 0 0 -130 0 -130 635 0 635 0 0 130 0 130
-252 0 -253 0 -44 114 c-23 63 -48 121 -55 129 -9 12 -31 11 -145 -9z"/>
<path d="M36205 4078 c-101 -153 -281 -389 -383 -504 -138 -155 -294 -279
-384 -306 -28 -8 -37 -16 -34 -27 3 -9 15 -69 27 -133 21 -115 22 -118 48
-118 158 0 1180 61 1601 95 162 13 297 22 301 19 4 -2 49 -77 100 -167 51 -89
93 -163 95 -165 4 -6 264 128 264 137 0 12 -150 259 -254 419 -94 145 -261
381 -338 479 l-49 62 -120 -59 c-65 -33 -119 -64 -119 -68 0 -4 21 -37 47 -72
95 -131 213 -303 209 -307 -10 -11 -704 -61 -1211 -88 l-120 -7 115 119 c124
127 198 210 315 357 118 149 246 329 238 336 -7 6 -269 100 -277 100 -2 0 -33
-46 -71 -102z"/>
<path d="M21516 4159 c-2 -8 -9 -57 -15 -109 -6 -52 -21 -166 -33 -252 l-21
-158 -108 0 -109 0 0 -135 0 -135 89 0 88 0 -9 -52 c-27 -157 -83 -442 -114
-577 l-36 -155 182 -175 181 -176 -61 -100 c-78 -127 -154 -227 -252 -331 -43
-45 -78 -85 -78 -90 0 -13 154 -213 165 -214 13 0 102 91 178 182 61 74 157
212 206 300 l32 57 74 -82 c40 -45 84 -95 97 -111 l25 -29 91 109 c51 60 92
112 92 116 0 4 -57 66 -127 138 l-126 131 46 147 c99 310 151 630 164 1000 l6
182 -211 0 c-185 0 -212 2 -212 16 0 8 14 118 31 245 16 126 28 233 25 238 -3
4 -42 11 -86 15 -45 4 -101 9 -126 13 -32 4 -45 2 -48 -8z m367 -821 c-17
-221 -47 -426 -84 -573 -32 -128 -71 -255 -80 -255 -5 0 -47 35 -95 77 -79 71
-86 79 -80 108 3 16 21 102 40 190 20 88 48 233 63 323 l28 162 105 0 106 0
-3 -32z"/>
<path d="M22380 4045 l0 -125 -120 0 -120 0 0 -125 0 -125 120 0 120 0 0 -430
0 -430 205 0 205 0 0 -105 0 -105 -355 0 -355 0 0 -130 0 -130 355 0 355 0 0
-415 0 -415 130 0 130 0 0 415 0 415 355 0 355 0 0 130 0 130 -355 0 -355 0 0
105 0 105 205 0 205 0 0 430 0 430 120 0 120 0 0 125 0 125 -120 0 -120 0 0
125 0 125 -130 0 -130 0 0 -125 0 -125 -275 0 -275 0 0 125 0 125 -135 0 -135
0 0 -125z m820 -470 l0 -95 -275 0 -275 0 0 95 0 95 275 0 275 0 0 -95z m0
-425 l0 -100 -275 0 -275 0 0 100 0 100 275 0 275 0 0 -100z"/>
<path d="M26967 4040 c-255 -282 -615 -567 -972 -770 -60 -35 -112 -65 -115
-67 -7 -6 133 -273 143 -273 11 0 247 148 342 214 l80 56 3 -95 3 -95 734 0
735 0 0 95 0 96 93 -64 c50 -36 146 -97 211 -136 l119 -71 74 136 c40 75 72
138 71 139 -2 1 -57 32 -123 69 -320 182 -557 366 -863 673 l-222 223 -98 0
-97 0 -118 -130z m320 -250 c102 -119 342 -356 451 -445 l73 -60 -316 -3
c-174 -1 -456 -1 -627 0 l-310 3 114 95 c133 112 356 335 448 448 36 44 68 77
71 73 4 -3 47 -53 96 -111z"/>
<path d="M7775 4053 c-166 -177 -391 -366 -608 -512 -52 -35 -75 -56 -70 -64
51 -81 148 -217 153 -217 10 0 241 171 333 247 l77 64 0 -51 0 -50 335 0 334
0 3 80 3 79 125 -103 c69 -58 128 -102 131 -100 12 7 149 203 149 212 0 19
-401 319 -612 458 l-97 64 -78 0 -78 -1 -100 -106z m321 -242 c60 -44 123 -91
139 -105 l30 -25 -244 -1 -243 0 98 104 c55 58 102 105 105 105 4 1 56 -35
115 -78z"/>
<path d="M9300 3006 l0 -1155 -24 -27 c-20 -24 -32 -28 -87 -32 -35 -2 -131 1
-214 6 -82 5 -152 8 -154 6 -1 -1 11 -64 29 -139 l32 -136 257 3 256 3 50 28
c28 15 60 43 73 61 54 79 52 35 52 1333 l0 1203 -135 0 -135 0 0 -1154z"/>
<path d="M12949 4128 c-11 -608 -24 -748 -89 -994 -75 -281 -216 -557 -404
-790 -139 -173 -362 -374 -571 -516 -49 -34 -92 -63 -94 -64 -5 -4 159 -254
167 -254 12 0 227 164 317 241 370 319 631 689 786 1114 16 44 32 87 35 95 3
9 19 -21 38 -70 203 -534 525 -963 984 -1309 46 -35 88 -61 95 -58 11 4 177
229 177 239 0 3 -30 25 -67 49 -199 129 -476 388 -622 582 -222 297 -375 621
-470 1005 -29 115 -29 119 -21 277 5 88 9 233 10 323 l0 162 -135 0 -135 0 -1
-32z"/>
<path d="M18040 3910 l0 -250 -745 0 -745 0 0 -135 0 -135 585 0 c324 0 585
-4 585 -9 0 -18 -158 -271 -227 -361 -153 -204 -336 -388 -548 -553 -98 -77
-323 -227 -398 -267 -26 -14 -47 -29 -47 -33 0 -15 134 -237 143 -237 17 0
236 145 362 240 311 233 572 506 768 802 80 120 184 305 212 376 12 29 23 42
36 42 18 0 19 -21 19 -765 0 -539 -3 -771 -11 -788 -21 -47 -41 -50 -279 -44
-166 4 -220 2 -217 -6 2 -7 17 -67 32 -134 l28 -123 266 0 c259 0 267 1 317
24 56 26 94 69 121 137 17 41 18 107 21 872 l3 827 334 0 335 0 0 135 0 135
-335 0 -335 0 0 250 0 250 -140 0 -140 0 0 -250z"/>
<path d="M4682 4109 c-200 -72 -456 -122 -694 -135 l-116 -7 -5 -706 c-3 -459
-9 -738 -16 -796 -37 -276 -110 -521 -207 -688 l-34 -59 26 -31 c71 -84 164
-178 173 -173 15 10 96 155 134 241 118 272 175 578 184 1003 l6 252 158 0
159 0 0 -755 0 -755 130 0 130 0 0 755 0 755 135 0 135 0 0 135 0 135 -425 0
-425 0 0 229 0 228 88 7 c112 9 258 31 380 57 115 24 304 77 315 89 11 10
-116 245 -134 247 -8 1 -51 -12 -97 -28z"/>
<path d="M30760 3920 l0 -140 490 0 490 0 0 -505 0 -505 -545 0 -545 0 0 -135
0 -135 545 0 545 0 0 -495 0 -495 135 0 135 0 0 495 0 495 555 0 555 0 0 135
0 135 -555 0 -555 0 0 505 0 505 505 0 505 0 0 140 0 140 -1130 0 -1130 0 0
-140z"/>
<path d="M8820 3035 l0 -925 130 0 130 0 0 925 0 925 -130 0 -130 0 0 -925z"/>
<path d="M32630 3648 c-5 -13 -28 -68 -51 -123 -47 -114 -153 -328 -210 -427
-22 -36 -39 -70 -39 -75 0 -9 224 -133 239 -133 12 0 153 261 212 390 52 117
111 262 106 266 -1 1 -57 29 -125 63 -122 61 -122 61 -132 39z"/>
<path d="M2736 3616 c-61 -23 -112 -48 -114 -54 -2 -6 6 -29 18 -51 19 -38 90
-209 90 -217 0 -2 -65 -4 -145 -4 l-145 0 0 -130 0 -130 265 0 265 0 0 -125 0
-125 -240 0 -240 0 0 -130 0 -130 240 0 240 0 0 -515 0 -515 135 0 135 0 0
515 0 515 235 0 235 0 0 130 0 130 -235 0 -235 0 0 125 0 125 260 0 260 0 0
130 0 130 -139 0 -139 0 49 125 c27 69 49 133 49 144 0 14 -24 27 -117 59 -64
23 -118 40 -120 39 -1 -2 -22 -72 -47 -157 -24 -85 -49 -167 -55 -183 l-11
-27 -127 0 -128 0 -24 88 c-30 108 -91 282 -100 281 -3 0 -55 -19 -115 -43z"/>
<path d="M31030 3599 c-63 -33 -118 -64 -123 -68 -4 -4 33 -90 82 -192 72
-150 160 -354 195 -452 5 -17 19 -12 127 45 67 35 124 68 126 75 6 16 -93 254
-198 471 -48 100 -89 182 -91 182 -2 0 -55 -28 -118 -61z"/>
<path d="M7367 2943 c-4 -335 -8 -419 -25 -529 -37 -234 -85 -391 -180 -583
l-65 -134 99 -93 c54 -51 104 -92 109 -91 18 4 139 259 179 375 21 62 51 161
66 220 l28 107 1 -352 1 -353 125 0 125 0 0 50 0 50 255 0 255 0 0 -50 0 -50
130 0 130 0 0 410 0 410 -501 0 -500 0 6 58 c4 31 9 65 11 75 5 16 36 17 480
17 l474 0 0 430 0 430 -599 0 -599 0 -5 -397z m943 132 l0 -65 -340 0 -340 0
0 65 0 65 340 0 340 0 0 -65z m0 -320 l0 -65 -340 0 -340 0 0 65 0 65 340 0
340 0 0 -65z m30 -780 l0 -135 -255 0 -255 0 0 135 0 135 255 0 255 0 0 -135z"/>
<path d="M35630 2115 l0 -615 140 0 140 0 0 60 0 60 675 0 675 0 0 -60 0 -60
135 0 135 0 0 615 0 615 -950 0 -950 0 0 -615z m1630 60 l0 -285 -675 0 -675
0 0 285 0 285 675 0 675 0 0 -285z"/>
<path d="M26280 2110 l0 -600 130 0 130 0 0 75 0 75 645 0 645 0 0 -75 0 -75
130 0 130 0 0 600 0 600 -905 0 -905 0 0 -600z m1550 75 l0 -255 -645 0 -645
0 0 255 0 255 645 0 645 0 0 -255z"/>
<path d="M3407 2391 c-54 -16 -100 -30 -102 -33 -2 -2 13 -53 34 -113 21 -61
58 -177 81 -260 23 -82 44 -151 45 -153 2 -2 214 78 224 85 16 11 -149 497
-170 500 -8 1 -58 -11 -112 -26z"/>
<path d="M2640 2358 c-51 -197 -109 -357 -189 -516 -28 -56 -51 -106 -51 -110
0 -8 63 -52 193 -136 l27 -18 59 123 c32 68 77 174 99 234 51 139 125 407 115
415 -8 7 -208 50 -230 50 -7 0 -17 -19 -23 -42z"/>
<path d="M23250 2194 c-30 -37 -63 -77 -73 -90 l-18 -23 163 -164 c90 -90 192
-200 228 -245 36 -44 68 -80 72 -79 14 4 169 188 166 197 -15 46 -445 470
-476 470 -4 0 -32 -30 -62 -66z"/>
<path d="M22433 2162 c-82 -101 -196 -213 -309 -302 -43 -34 -81 -64 -83 -66
-8 -8 152 -213 163 -207 39 23 166 136 252 224 100 103 224 260 224 282 -1 13
-153 157 -167 157 -5 0 -41 -40 -80 -88z"/>
</g>
</svg>
